<?xml version="1.0" standalone="no"?>
<!DOCTYPE svg PUBLIC "-//W3C//DTD SVG 1.1//EN" "http://www.w3.org/Graphics/SVG/1.1/DTD/svg11.dtd" >
<svg xmlns="http://www.w3.org/2000/svg">
<metadata></metadata>
<defs>
<font id="baxter_sansmedium" horiz-adv-x="590" >
<font-face units-per-em="1000" ascent="761" descent="-239" />
<missing-glyph horiz-adv-x="213" />
<glyph unicode="ty" horiz-adv-x="835" d="M178 183q0 -102 85 -102q30 0 59 9v-89q-24 -7 -67 -7q-33 0 -61.5 8.5t-55 28t-41.5 56.5t-15 88v232h-64v79h64v121l96 12v-133h121v-79h-121v-224zM817 486l-255 -667h-99l65 177l-187 490h112l130 -383l132 383h102z" />
<glyph unicode="&#xd;" horiz-adv-x="600" />
<glyph unicode=" "  horiz-adv-x="213" />
<glyph unicode="&#x09;" horiz-adv-x="213" />
<glyph unicode="&#xa0;" horiz-adv-x="213" />
<glyph unicode="!" horiz-adv-x="242" d="M86 227l-8 409h98l-9 -409h-81zM59 56q0 28 17.5 45.5t46.5 17.5q30 0 48 -17.5t18 -45.5t-18 -46.5t-48 -18.5q-29 0 -46.5 18.5t-17.5 46.5z" />
<glyph unicode="&#x22;" horiz-adv-x="297" d="M41 661h80l-11 -204h-58zM171 661h80l-11 -204h-58z" />
<glyph unicode="#" horiz-adv-x="637" d="M633 389h-115l-39 -142h101v-92h-126l-42 -155h-104l42 155h-147l-42 -155h-104l42 155h-87v92h112l39 142h-99v92h124l42 155h104l-42 -155h147l42 155h104l-42 -155h90v-92zM375 247l39 142h-147l-39 -142h147z" />
<glyph unicode="$" horiz-adv-x="532" d="M481 192q0 -73 -46 -122t-121 -63v-68h-81v65q-142 14 -200 139l84 51q42 -101 149 -101q51 0 83 23t32 65q0 38 -32 60t-115 50q-92 30 -133 73t-41 111q0 64 48.5 110.5t125.5 54.5l1 85h82v-89q57 -11 96 -43t57 -78l-86 -45q-12 36 -45.5 58.5t-79.5 22.5 q-47 0 -72.5 -21t-25.5 -52q0 -39 29.5 -59.5t99.5 -44.5q98 -34 144.5 -74.5t46.5 -107.5z" />
<glyph unicode="%" horiz-adv-x="697" d="M326 534q0 -61 -42.5 -102.5t-104.5 -41.5q-60 0 -102 41.5t-42 102.5t42 103.5t102 42.5q61 0 104 -42.5t43 -103.5zM535 671h63l-437 -668h-63zM99 534q0 -34 23.5 -57.5t56.5 -23.5q35 0 59 23.5t24 57.5t-24 58.5t-59 24.5q-32 0 -56 -24.5t-24 -58.5zM661 140 q0 -61 -42 -104t-102 -43q-61 0 -104 43t-43 104t42.5 102.5t104.5 41.5q60 0 102 -41.5t42 -102.5zM596 140q0 34 -23 57t-56 23q-35 0 -59 -23t-24 -57t24 -58.5t59 -24.5q33 0 56 24t23 59z" />
<glyph unicode="&#x26;" horiz-adv-x="631" d="M505 118q33 -37 85 -37v-89q-87 0 -147 63q-72 -69 -179 -69q-97 0 -162.5 57.5t-65.5 144.5q0 126 148 182q-48 70 -48 125q0 65 47 109.5t119 44.5q69 0 117.5 -37.5t48.5 -110.5q0 -54 -40.5 -94.5t-108.5 -62.5l131 -159q31 63 37 161h87q-9 -140 -69 -228zM303 569 q-33 0 -53 -21.5t-20 -51.5q0 -40 45 -100q101 34 101 105q0 29 -20.5 48.5t-52.5 19.5zM133 191q0 -49 37 -83.5t96 -34.5q74 0 123 46l-158 190l-5 6q-93 -38 -93 -124z" />
<glyph unicode="'" horiz-adv-x="171" d="M41 661h83l-11 -204h-61z" />
<glyph unicode="(" horiz-adv-x="268" d="M240 -77l-83 -35q-103 202 -103 429t103 429l83 -35q-92 -187 -92 -394t92 -394z" />
<glyph unicode=")" horiz-adv-x="268" d="M28 -77q92 187 92 394t-92 394l83 35q103 -202 103 -429t-103 -429z" />
<glyph unicode="*" horiz-adv-x="296" d="M305 562l-97 -27l67 -81l-65 -39l-51 79l-52 -79l-63 39l64 80l-97 26l25 66l90 -36l-7 101h79l-6 -101l89 36z" />
<glyph unicode="+" horiz-adv-x="570" d="M323 543v-181h180v-76h-180v-180h-77v180h-180v76h180v181h77z" />
<glyph unicode="," horiz-adv-x="236" d="M116 115q27 0 45 -19.5t18 -52.5q0 -35 -16 -72.5t-32 -60t-42 -54.5l-35 24q53 73 68 115h-5q-27 0 -44 17.5t-17 42.5t16.5 42.5t43.5 17.5z" />
<glyph unicode="-" horiz-adv-x="333" d="M28 269v92h277v-92h-277z" />
<glyph unicode="." horiz-adv-x="236" d="M49 58q0 28 17.5 46t47.5 18t48 -18t18 -46t-18 -47t-48 -19t-47.5 18.5t-17.5 47.5z" />
<glyph unicode="/" horiz-adv-x="282" d="M104 0h-104l173 636h104z" />
<glyph unicode="0" horiz-adv-x="617" d="M571 286q0 -133 -73.5 -215t-188.5 -82q-116 0 -189 82t-73 215q0 132 73.5 214t188.5 82t188.5 -82t73.5 -214zM472 286q0 96 -44.5 151t-118.5 55q-76 0 -119.5 -54.5t-43.5 -151.5q0 -98 44 -153t119 -55q74 0 118.5 55.5t44.5 152.5z" />
<glyph unicode="1" horiz-adv-x="366" d="M267 562v-562h-98v475h-136v87h234z" />
<glyph unicode="2" horiz-adv-x="551" d="M182 84l317 2v-86h-450l1 23q4 53 39 95.5t82.5 70.5t95 54.5t80 63t32.5 81.5q0 47 -31 77t-84 30q-47 0 -78.5 -30t-40.5 -79l-87 20q11 80 67.5 127.5t142.5 47.5q94 0 151 -52.5t57 -137.5q0 -54 -24 -96.5t-61.5 -69.5t-76.5 -48.5t-77 -45.5t-55 -47z" />
<glyph unicode="3" horiz-adv-x="553" d="M378 266q116 -41 116 -153q0 -89 -65.5 -140.5t-160.5 -51.5q-85 0 -145.5 41t-81.5 119l90 32q32 -105 138 -105q55 0 90.5 27t35.5 79q0 57 -43.5 81t-136.5 24v80q156 0 156 103q0 42 -29 67t-79 25q-44 0 -74 -23t-41 -62l-86 28q17 63 71 103.5t135 40.5 q90 0 146 -48t56 -126q0 -96 -92 -141z" />
<glyph unicode="4" horiz-adv-x="569" d="M546 133v-87h-82v-138h-97v138h-313l-13 56l217 468h105l-203 -437h207v207h97v-207h82z" />
<glyph unicode="5" horiz-adv-x="554" d="M283 370q100 0 161 -60.5t61 -162.5q0 -104 -64.5 -167t-164.5 -63q-89 0 -147 44t-76 119l89 30q33 -108 134 -108q61 0 95.5 37.5t34.5 106.5q0 64 -36 102t-95 38q-80 0 -119 -69l-84 23h-2l42 325h366v-85h-291l-19 -149q47 39 115 39z" />
<glyph unicode="6" horiz-adv-x="553" d="M289 422q100 -1 161 -57t61 -152q0 -98 -63.5 -160.5t-160.5 -62.5q-116 0 -179 78t-63 231q0 165 64 257.5t186 92.5q75 0 127.5 -36t72.5 -84l-80 -48q-15 35 -48 58.5t-76 23.5q-70 0 -105.5 -52t-43.5 -155q56 66 147 66zM283 75q60 0 94.5 38t34.5 93 q0 57 -34.5 94.5t-95.5 37.5q-64 0 -97 -37.5t-33 -94.5q0 -55 33.5 -93t97.5 -38z" />
<glyph unicode="7" horiz-adv-x="488" d="M35 562h423v-76q-196 -271 -250 -560h-100q61 301 241 551h-314v85z" />
<glyph unicode="8" horiz-adv-x="555" d="M403 334q109 -45 109 -155q0 -85 -66.5 -137t-168.5 -52q-101 0 -168 52t-67 137q0 110 108 155q-89 46 -89 137q0 79 59.5 128.5t156.5 49.5t156 -49.5t59 -128.5q0 -91 -89 -137zM277 570q-54 0 -85 -26.5t-31 -72.5q0 -41 32 -69.5t84 -28.5t84 29t32 69 q0 46 -31 72.5t-85 26.5zM277 72q63 0 99 28.5t36 79.5q0 49 -36.5 79t-98.5 30t-98.5 -30t-36.5 -79q0 -51 36 -79.5t99 -28.5z" />
<glyph unicode="9" horiz-adv-x="558" d="M272 582q116 0 179 -78t63 -231q0 -165 -64 -257.5t-186 -92.5q-75 0 -127.5 36t-72.5 84l80 48q15 -35 48 -58.5t76 -23.5q70 0 105.5 52t43.5 155q-56 -66 -147 -66q-100 1 -161 57t-61 152q0 98 63.5 160.5t160.5 62.5zM277 234q64 0 97 37.5t33 94.5q0 55 -33.5 93 t-97.5 38q-60 0 -94.5 -38t-34.5 -93q0 -57 34.5 -94.5t95.5 -37.5z" />
<glyph unicode=":" horiz-adv-x="312" d="M88 404q0 28 17.5 46t47.5 18t48 -18t18 -46t-18 -47t-48 -19t-47.5 18.5t-17.5 47.5zM88 58q0 28 17.5 46t47.5 18t48 -18t18 -46t-18 -47t-48 -19t-47.5 18.5t-17.5 47.5z" />
<glyph unicode=";" horiz-adv-x="312" d="M153 338q-30 0 -47.5 18.5t-17.5 47.5q0 28 17.5 46t47.5 18t48 -18t18 -46t-18 -47t-48 -19zM155 115q27 0 45 -19.5t18 -52.5q0 -35 -16 -72.5t-32 -60t-42 -54.5l-35 24q53 73 68 115h-5q-27 0 -44 17.5t-17 42.5t16.5 42.5t43.5 17.5z" />
<glyph unicode="&#x3c;" horiz-adv-x="440" d="M378 425l-251 -124l251 -124l-32 -68l-293 148v88l293 148z" />
<glyph unicode="=" horiz-adv-x="582" d="M73 449h436v-79h-436v79zM73 271h436v-78h-436v78z" />
<glyph unicode="&#x3e;" horiz-adv-x="440" d="M62 425l32 68l293 -148v-88l-293 -148l-32 68l251 124z" />
<glyph unicode="?" horiz-adv-x="472" d="M228 648q84 0 144.5 -52.5t60.5 -139.5q0 -88 -47.5 -134.5t-122.5 -58.5v-66h-87v139h28q137 2 137 120q0 50 -34 80t-83 30q-91 0 -114 -103l-82 22q11 74 64.5 118.5t135.5 44.5zM213 119q30 0 48 -17.5t18 -45.5t-18 -46.5t-48 -18.5q-29 0 -46.5 18.5t-17.5 46.5 t17.5 45.5t46.5 17.5z" />
<glyph unicode="@" horiz-adv-x="918" d="M485 636q169 0 279.5 -101t110.5 -255q0 -113 -61.5 -191.5t-146.5 -78.5q-49 0 -79.5 24.5t-38.5 63.5q-25 -36 -68.5 -58t-90.5 -22q-71 0 -117 52.5t-46 133.5q0 103 64 178t159 75q84 0 122 -62l8 54h85l-41 -295q-1 -5 -1 -18q0 -50 47 -50q46 0 82 56.5t36 137.5 q0 125 -85 205t-218 80q-150 0 -252.5 -103t-102.5 -257q0 -141 84.5 -223t233.5 -84q70 -1 144 19l-12 -82q-64 -16 -117 -16q-189 0 -304 105.5t-115 280.5q0 184 127.5 307.5t313.5 123.5zM412 92q60 0 100.5 52.5t40.5 122.5q0 53 -27 84.5t-72 31.5q-59 0 -99.5 -48.5 t-40.5 -120.5q0 -53 27.5 -87.5t70.5 -34.5z" />
<glyph unicode="A" horiz-adv-x="627" d="M491 0l-51 145h-261l-51 -145h-110l241 636h111l238 -636h-117zM207 225h205l-102 291z" />
<glyph unicode="B" horiz-adv-x="616" d="M459 333q51 -15 84 -52.5t33 -97.5q0 -88 -57 -135.5t-169 -47.5h-273v636h259q101 0 153 -44.5t52 -122.5q0 -41 -23 -78t-59 -58zM316 550h-135v-180h135q117 0 117 90q0 46 -27.5 68t-89.5 22zM324 85q78 0 111 25t33 77q0 97 -144 97h-143v-199h143z" />
<glyph unicode="C" horiz-adv-x="656" d="M608 187q-23 -90 -93.5 -144t-176.5 -54q-126 0 -210 90t-84 240q0 149 84 238.5t210 89.5q106 0 176.5 -54t93.5 -144l-94 -38q-15 68 -61 106t-115 38q-87 0 -138.5 -62t-51.5 -174t51.5 -175t138.5 -63q69 0 115 38t61 106z" />
<glyph unicode="D" horiz-adv-x="658" d="M272 636q173 0 257.5 -82.5t84.5 -233.5q0 -152 -84.5 -236t-257.5 -84h-195v636h195zM181 548v-459h90q129 0 184.5 57t55.5 174q0 116 -55 172t-185 56h-90z" />
<glyph unicode="E" horiz-adv-x="554" d="M181 546v-181h288v-91h-288v-183h327v-91h-431v636h431v-90h-327z" />
<glyph unicode="F" horiz-adv-x="526" d="M181 336h266v-91h-266v-245h-104v636h408v-91h-304v-209z" />
<glyph unicode="G" horiz-adv-x="686" d="M398 306h227v-306h-66l-13 99q-66 -110 -206 -110q-128 0 -212 90t-84 240q0 149 85 238.5t216 89.5q98 0 170.5 -51.5t97.5 -139.5l-93 -42q-17 67 -63.5 104t-111.5 37q-88 0 -142.5 -62.5t-54.5 -173.5t54 -174.5t138 -63.5q65 0 112 36.5t63 104.5h-117v84z" />
<glyph unicode="H" horiz-adv-x="669" d="M488 636h104v-636h-104v266h-307v-266h-104v636h104v-280h307v280z" />
<glyph unicode="I" horiz-adv-x="258" d="M181 636v-636h-104v636h104z" />
<glyph unicode="J" horiz-adv-x="402" d="M226 636h103v-387q0 -132 -53.5 -196t-171.5 -64q-43 0 -76 7l-5 92q34 -8 78 -8q68 0 96.5 42.5t28.5 138.5v375z" />
<glyph unicode="K" horiz-adv-x="623" d="M497 0l-215 300l-101 -111v-189h-104v636h104v-319l291 319h124l-241 -265l264 -371h-122z" />
<glyph unicode="L" horiz-adv-x="522" d="M181 91h309v-91h-413v636h104v-545z" />
<glyph unicode="M" horiz-adv-x="812" d="M643 636h91v-636h-103v176l7 260l-202 -343h-62l-200 341l7 -258v-176h-104v636h97l235 -415z" />
<glyph unicode="N" horiz-adv-x="676" d="M496 636h103v-636h-93l-329 465l4 -152v-313h-104v636h101l321 -459l-3 144v315z" />
<glyph unicode="O" horiz-adv-x="678" d="M634 319q0 -150 -84.5 -240t-211.5 -90q-126 0 -210 90t-84 240q0 149 84 238.5t210 89.5q127 0 211.5 -89.5t84.5 -238.5zM529 319q0 112 -51.5 174t-139.5 62q-87 0 -138.5 -62t-51.5 -174t51.5 -175t138.5 -63q88 0 139.5 63t51.5 175z" />
<glyph unicode="P" horiz-adv-x="583" d="M312 636q118 0 178.5 -52.5t60.5 -150.5q0 -97 -60.5 -148.5t-178.5 -51.5h-131v-234h-104v637h235zM312 324q69 0 102 26.5t33 82.5q0 58 -33 85t-102 27h-131v-221h131z" />
<glyph unicode="Q" horiz-adv-x="678" d="M634 319q0 -137 -71 -224.5t-182 -102.5q4 -43 27 -62t75 -19h55v-91h-51q-175 0 -185 171q-113 13 -185.5 101t-72.5 227q0 149 84 238.5t210 89.5q127 0 211.5 -89.5t84.5 -238.5zM338 81q88 0 139.5 63t51.5 175t-51.5 174t-139.5 62q-87 0 -138.5 -62t-51.5 -174 t51.5 -175t138.5 -63z" />
<glyph unicode="R" horiz-adv-x="624" d="M569 0h-117l-146 237h-125v-238h-104v637h237q116 0 180.5 -52.5t64.5 -148.5q0 -72 -38 -119.5t-109 -66.5l10 -15zM181 545v-217h133q141 0 141 107q0 110 -141 110h-133z" />
<glyph unicode="S" horiz-adv-x="524" d="M391 469q-12 37 -47 60.5t-82 23.5q-49 0 -75 -21.5t-26 -54.5q0 -40 30.5 -61.5t102.5 -45.5q101 -35 149.5 -77t48.5 -111q0 -88 -63.5 -141.5t-161.5 -53.5q-171 0 -238 144l86 53q44 -104 155 -104q53 0 86 24t33 66q0 40 -33.5 62.5t-118.5 51.5q-95 32 -137.5 76 t-42.5 114q0 72 59 122t150 50q80 0 136 -36t79 -94z" />
<glyph unicode="T" horiz-adv-x="547" d="M527 636v-91h-201v-545h-104v545h-202v91h507z" />
<glyph unicode="U" horiz-adv-x="650" d="M175 255q0 -92 34.5 -136.5t114.5 -44.5q81 0 115.5 44.5t34.5 136.5v381h104v-382q0 -131 -64 -201.5t-190 -70.5t-189 70.5t-63 201.5v382h104z" />
<glyph unicode="V" horiz-adv-x="628" d="M499 636h113l-250 -636h-98l-248 636h122l181 -495z" />
<glyph unicode="W" horiz-adv-x="937" d="M807 636h113l-187 -636h-110l-100 305l-58 192l-56 -192l-95 -305h-110l-187 636h114l76 -270l57 -212l62 212l88 270h107l90 -270l63 -212l57 212z" />
<glyph unicode="X" horiz-adv-x="589" d="M579 1h-122l-162 248l-165 -248l-120 -1l214 322l-207 314l121 1l158 -242l158 241h120l-208 -314z" />
<glyph unicode="Y" horiz-adv-x="555" d="M544 636l-215 -375v-261h-103v261l-214 375h118l96 -169l55 -105l55 105l96 169h112z" />
<glyph unicode="Z" horiz-adv-x="564" d="M517 547l-300 -394l-51 -63h351v-90h-470v88l298 391l55 67h-353v90h470v-89z" />
<glyph unicode="[" horiz-adv-x="287" d="M252 638h-72v-645h72v-82h-169v809h169v-82z" />
<glyph unicode="\" horiz-adv-x="277" d="M60 0l-173 636h104l173 -636h-104z" />
<glyph unicode="]" horiz-adv-x="287" d="M204 721v-809h-169v82h72v645h-72v82h169z" />
<glyph unicode="^" horiz-adv-x="621" d="M552 427h-78l-166 172l-160 -172h-78l190 220h96z" />
<glyph unicode="_" horiz-adv-x="554" d="M554 -64v-67h-554v67h554z" />
<glyph unicode="`" horiz-adv-x="337" d="M312 861l123 -127l-53 -33l-144 121z" />
<glyph unicode="a" horiz-adv-x="518" d="M440 69h58v-70h-133l-5 71h-5q-20 -35 -62.5 -58t-96.5 -23q-71 0 -115.5 37.5t-44.5 104.5q0 123 179 147l129 18q-2 61 -25 90.5t-73 29.5q-83 0 -109 -77l-81 32q21 60 72 94.5t124 34.5q85 0 136.5 -44t51.5 -146v-241zM213 67q51 0 91 33t40 91v35l-104 -13 q-58 -7 -82 -25t-24 -54q0 -31 21 -49t58 -18z" />
<glyph unicode="b" horiz-adv-x="573" d="M320 500q92 0 154.5 -69.5t62.5 -185.5q0 -115 -63 -185t-155 -70q-104 0 -150 73h-7v-63h-97v671l97 13v-256h9q46 72 149 72zM305 76q62 0 98 44t36 125t-35.5 125t-97.5 44q-65 0 -104.5 -43t-39.5 -125q0 -83 39 -126.5t104 -43.5z" />
<glyph unicode="c" horiz-adv-x="526" d="M485 143q-16 -69 -75 -111t-135 -42q-108 0 -173.5 69.5t-65.5 185.5q0 115 64.5 185t174.5 70q76 0 135 -42t75 -111l-87 -34q-11 47 -46.5 74t-77.5 27q-66 0 -103 -45t-37 -124q0 -80 37.5 -124.5t102.5 -44.5q42 0 77.5 27t46.5 74z" />
<glyph unicode="d" horiz-adv-x="573" d="M410 671l97 13v-684h-97v63h-6q-46 -73 -150 -73q-92 0 -155 70t-63 185q0 116 62.5 185.5t154.5 69.5q103 0 149 -72h8v243zM268 76q60 0 98 37t44 108v49q-6 70 -44.5 107t-98.5 37q-62 0 -97.5 -44t-35.5 -125t36 -125t98 -44z" />
<glyph unicode="e" horiz-adv-x="521" d="M269 500q100 0 157 -69.5t55 -173.5v-25h-348q4 -74 41.5 -115t94.5 -41q92 0 123 86l78 -42q-17 -55 -72.5 -92.5t-127.5 -37.5q-103 0 -168.5 69t-65.5 186q0 112 64.5 183.5t168.5 71.5zM265 416q-49 0 -83 -30.5t-44 -83.5h245q-5 52 -36 83t-82 31z" />
<glyph unicode="f" horiz-adv-x="351" d="M290 602q-90 0 -90 -101v-15h133v-79h-133v-407h-97v407h-78v79h78v23q0 51 16 88t43 56.5t57 28t64 8.5q37 0 69 -7v-90q-31 9 -62 9z" />
<glyph unicode="g" horiz-adv-x="575" d="M419 485h89v-412q0 -127 -66 -193t-182 -66q-69 0 -125 26t-89 70l58 65q22 -32 61.5 -54t89.5 -22q77 0 117 42t40 124h-8q-46 -72 -150 -72q-95 0 -156.5 69t-61.5 184q0 116 62 185t155 69q105 0 150 -72h13zM268 78q66 0 104.5 43t38.5 126q0 82 -39 125t-105 43 q-62 0 -97.5 -44t-35.5 -125t35.5 -124.5t98.5 -43.5z" />
<glyph unicode="h" horiz-adv-x="554" d="M315 500q77 0 125 -42t48 -135v-323h-97v292q0 64 -24 92t-73 28q-61 0 -99 -44q-31 -36 -31 -110v-258h-97v671l97 13v-260h6q20 33 59 54.5t86 21.5z" />
<glyph unicode="i" horiz-adv-x="228" d="M177 632q0 -27 -18 -44.5t-45 -17.5t-45.5 17.5t-18.5 44.5q0 28 18.5 46.5t45.5 18.5t45 -18.5t18 -46.5zM162 0h-97v486h97v-486z" />
<glyph unicode="j" horiz-adv-x="228" d="M114 570q-27 0 -45.5 17.5t-18.5 44.5q0 28 18.5 46.5t45.5 18.5t45 -18.5t18 -46.5q0 -27 -18 -44.5t-45 -17.5zM162 485v-237h1v-251q0 -51 -16 -88t-43 -56.5t-57 -28t-64 -8.5q-37 0 -69 7v90q31 -9 62 -9q90 0 90 101v85h-1v395h97z" />
<glyph unicode="k" horiz-adv-x="508" d="M390 0l-165 231l-63 -62v-169h-97v671l97 13v-404l201 206h121l-191 -189l215 -297h-118z" />
<glyph unicode="l" horiz-adv-x="228" d="M162 0h-97v671l97 13v-684z" />
<glyph unicode="m" horiz-adv-x="841" d="M612 500q71 0 117 -41t46 -133v-326h-97v295q0 118 -88 118q-55 0 -87.5 -41t-32.5 -108v-264h-97v295q0 118 -88 118q-57 0 -89 -42t-32 -107v-264h-97v486h90l3 -62h10q21 33 57.5 54.5t78.5 21.5q110 0 148 -85h6q21 37 61.5 61t90.5 24z" />
<glyph unicode="n" horiz-adv-x="554" d="M315 500q77 0 125 -42t48 -135v-323h-97v292q0 64 -24 92t-73 28q-61 0 -99 -44q-31 -36 -31 -110v-258h-97v486h90l3 -62h10q20 33 59 54.5t86 21.5z" />
<glyph unicode="o" horiz-adv-x="545" d="M509 245q0 -116 -65.5 -185.5t-171.5 -69.5t-171 69.5t-65 185.5t65 185.5t171 69.5t171.5 -69.5t65.5 -185.5zM411 245q0 81 -36.5 125t-102.5 44q-64 0 -101 -44.5t-37 -124.5t37 -124.5t101 -44.5q65 0 102 44.5t37 124.5z" />
<glyph unicode="p" horiz-adv-x="575" d="M322 500q92 0 154.5 -69.5t62.5 -185.5q0 -115 -63 -185t-155 -70q-104 0 -150 73h-7v-244h-97v667h97v-58h9q46 72 149 72zM307 76q62 0 98 44t36 125t-35.5 125t-97.5 44q-65 0 -104.5 -43t-39.5 -125q0 -83 39 -126.5t104 -43.5z" />
<glyph unicode="q" horiz-adv-x="575" d="M411 486h97v-667h-97v244h-7q-46 -73 -150 -73q-92 0 -155 70t-63 185q0 116 62.5 185.5t154.5 69.5q103 0 149 -72h9v58zM268 76q65 0 104 43.5t39 126.5q0 82 -39.5 125t-104.5 43q-62 0 -97.5 -44t-35.5 -125t36 -125t98 -44z" />
<glyph unicode="r" horiz-adv-x="337" d="M298 499q21 0 30 -4l-7 -94q-14 6 -35 6q-53 0 -87 -35t-34 -96v-276h-98v485h91l4 -70h7q19 39 54 61.5t75 22.5z" />
<glyph unicode="s" horiz-adv-x="455" d="M88 151q19 -34 56 -57t85 -23q41 0 65.5 16.5t24.5 44.5q0 30 -24.5 47t-78.5 31q-80 20 -122.5 52t-42.5 95q0 65 49.5 104.5t128.5 39.5q114 0 178 -79l-52 -67q-20 26 -55 45t-73 19t-59.5 -15.5t-21.5 -39.5q0 -28 26 -42.5t81 -29.5q77 -20 119.5 -53t42.5 -95 q0 -70 -52 -112t-136 -42q-69 0 -118 28t-76 71z" />
<glyph unicode="t" horiz-adv-x="353" d="M268 82q31 0 62 9v-90q-32 -7 -69 -7q-34 0 -64 8.5t-57 28t-43 56.5t-16 88v231h-63v79l64 1v120l96 12v-132h131v-79h-131v-224q0 -101 90 -101z" />
<glyph unicode="u" horiz-adv-x="554" d="M390 486h97v-486h-90l-3 62h-10q-20 -33 -59 -54.5t-86 -21.5q-77 0 -125 42t-48 135v323h97v-292q0 -64 24 -92t73 -28q61 0 99 44q31 36 31 110v258z" />
<glyph unicode="v" horiz-adv-x="512" d="M392 486h102l-186 -486h-104l-186 486h112l130 -383z" />
<glyph unicode="w" horiz-adv-x="764" d="M646 486h100l-169 -486h-88l-107 365l-105 -365h-88l-171 486h104l112 -350l98 350h102l99 -349z" />
<glyph unicode="x" horiz-adv-x="507" d="M502 0h-112l-136 178l-139 -178h-111l187 245l-181 241h111l132 -174l131 174h108l-180 -239z" />
<glyph unicode="y" horiz-adv-x="512" d="M494 486l-255 -667h-99l65 177l-187 490h112l130 -383l132 383h102z" />
<glyph unicode="z" horiz-adv-x="440" d="M407 0h-377v58l261 349h-249v79h364v-60l-256 -346h257v-80z" />
<glyph unicode="{" horiz-adv-x="270" d="M191 423q0 -73 -50 -103q50 -31 50 -104v-142q0 -48 10 -60.5t41 -12.5v-86q-79 0 -111 32t-32 119v136q0 51 -10.5 64t-48.5 13v82q38 0 48.5 13t10.5 64v131q0 87 32 119t111 32v-87q-31 0 -41 -12.5t-10 -60.5v-137z" />
<glyph unicode="|" horiz-adv-x="318" d="M206 -197h-96v868l96 13v-881z" />
<glyph unicode="}" horiz-adv-x="267" d="M183 432q0 -51 10.5 -64t48.5 -13v-82q-38 0 -48.5 -13t-10.5 -64v-131q0 -87 -32 -119t-111 -32v87q31 0 41 12.5t10 60.5v137q0 73 50 103q-50 31 -50 104v142q0 48 -10 60.5t-41 12.5v86q79 0 111 -32t32 -119v-136z" />
<glyph unicode="~" horiz-adv-x="446" d="M408 371q0 -66 -27.5 -103.5t-76.5 -37.5q-38 0 -82 35.5t-65 35.5q-24 0 -37 -18t-13 -49h-68q0 66 27.5 104t77.5 38q29 0 56 -18t49.5 -36t41.5 -18q49 0 49 67h68z" />
<glyph unicode="&#xa1;" horiz-adv-x="255" d="M59 469q0 28 17.5 46.5t46.5 18.5q30 0 48 -18.5t18 -46.5t-18 -45.5t-48 -17.5q-29 0 -46.5 17.5t-17.5 45.5zM86 298h81l9 -409h-98z" />
<glyph unicode="&#xa2;" horiz-adv-x="526" d="M274 86q42 0 77.5 27t46.5 74l87 -34q-14 -60 -61 -100t-111 -50v-70h-84v71q-89 14 -141 81t-52 170q0 102 51.5 169.5t141.5 81.5v78h84v-77q64 -10 111 -50t61 -100l-87 -34q-11 47 -46.5 74t-77.5 27q-66 0 -103 -45t-37 -124q0 -80 37.5 -124.5t102.5 -44.5z" />
<glyph unicode="&#xa3;" horiz-adv-x="483" d="M219 80h232v-80h-413v80h83v146h-80v80h80v19q0 260 225 260q44 0 75 -7l5 -91q-34 9 -77 9q-70 0 -100 -41t-30 -134v-15h137v-80h-137v-146z" />
<glyph unicode="&#xa4;" horiz-adv-x="486" d="M439 301q0 -66 -35 -115l47 -46l-48 -49l-50 50q-48 -28 -110 -28q-60 0 -109 27l-50 -50l-48 49l47 47q-36 49 -36 115q0 64 33 111l-44 46l48 48l47 -47q47 29 112 29q66 0 113 -29l47 47l48 -48l-45 -46q33 -47 33 -111zM243 194q48 0 76.5 28.5t28.5 78.5 q0 49 -28.5 78t-76.5 29t-76.5 -29t-28.5 -78q0 -50 28.5 -78.5t76.5 -28.5z" />
<glyph unicode="&#xa5;" horiz-adv-x="555" d="M544 636l-157 -274h91v-71h-132l-17 -30v-27h149v-72h-149v-162h-103v162h-157v72h157v27l-17 30h-140v71h99l-156 274h118l96 -169l55 -105l55 105l96 169h112z" />
<glyph unicode="&#xa6;" horiz-adv-x="318" d="M206 393h-96v278l96 13v-291zM206 -161h-96v441h96v-441z" />
<glyph unicode="&#xa7;" horiz-adv-x="491" d="M458 178q0 -74 -64 -113q27 -35 27 -84q0 -76 -57.5 -121t-146.5 -45q-73 0 -124 27v86q64 -32 127 -32q49 0 77.5 19.5t28.5 53.5q0 36 -28 57t-88 36q-42 10 -70.5 20.5t-56 28.5t-41 45.5t-13.5 64.5q0 73 66 111q-28 33 -28 86q0 70 53.5 113t137.5 43q66 0 117 -28 v-95q-55 41 -119 41q-46 0 -70.5 -18.5t-24.5 -47.5q0 -24 18 -41t38.5 -24.5t62.5 -18.5q85 -22 131.5 -58t46.5 -106zM124 229q0 -18 8 -31.5t27 -23t35 -14.5t48 -14q58 -16 89 -30q33 18 33 50q0 36 -28 57t-88 36q-75 22 -83 25q-41 -18 -41 -55z" />
<glyph unicode="&#xa8;" horiz-adv-x="380" d="M140 735q-25 0 -41 16.5t-16 41.5q0 24 16 40.5t41 16.5q26 0 42.5 -16.5t16.5 -40.5q0 -25 -16.5 -41.5t-42.5 -16.5zM327 735q-25 0 -41.5 16.5t-16.5 41.5q0 24 16.5 40.5t41.5 16.5q26 0 42 -16.5t16 -40.5q0 -25 -16 -41.5t-42 -16.5z" />
<glyph unicode="&#xa9;" horiz-adv-x="823" d="M764 328q0 -152 -102.5 -252t-251.5 -100q-150 0 -252.5 100t-102.5 252t102.5 251.5t252.5 99.5q149 0 251.5 -99.5t102.5 -251.5zM699 327q0 133 -81.5 215t-207.5 82t-208 -82.5t-82 -214.5q0 -131 81.5 -213.5t207.5 -82.5q125 0 207.5 83t82.5 213zM576 247 q-13 -54 -59 -87t-105 -33q-84 0 -135.5 54.5t-51.5 144.5q0 91 50.5 145.5t136.5 54.5q59 0 105 -33t59 -87l-68 -26q-9 37 -36.5 58t-60.5 21q-51 0 -80 -35.5t-29 -97.5t29 -97t80 -35q33 0 60.5 21t36.5 58z" />
<glyph unicode="&#xaa;" horiz-adv-x="387" d="M325 368h41l-1 -55h-98l-4 45h-4q-35 -51 -112 -51q-51 0 -82.5 25.5t-31.5 69.5q0 86 129 101l84 10q-5 70 -63 70q-53 0 -69 -49l-67 23q31 91 142 91q60 0 98 -30.5t38 -98.5v-151zM111 407q0 -18 13 -29.5t38 -11.5q32 0 58 20.5t26 53.5v21l-62 -6q-39 -4 -56 -14.5 t-17 -33.5z" />
<glyph unicode="&#xab;" horiz-adv-x="445" d="M230 486l-103 -171l103 -171h-97l-103 169l105 173h95zM405 486l-103 -171l103 -171h-97l-103 169l105 173h95z" />
<glyph unicode="&#xac;" horiz-adv-x="545" d="M477 177h-103v109h-308v76h411v-185z" />
<glyph unicode="&#xad;" horiz-adv-x="326" d="M28 269v92h277v-92h-277z" />
<glyph unicode="&#xae;" horiz-adv-x="451" d="M225 677q82 0 139.5 -57t57.5 -142t-57.5 -142t-139.5 -57t-139.5 57t-57.5 142t57.5 142t139.5 57zM225 311q68 0 116 47.5t48 119.5t-47.5 120t-116.5 48t-116.5 -48t-47.5 -120t48 -119.5t116 -47.5zM200 455v-76h-46v211h78q34 0 54 -18.5t20 -50.5q0 -45 -44 -62 l47 -80h-53l-41 76h-15zM260 521q0 29 -31 29h-29v-57h29q31 0 31 28z" />
<glyph unicode="&#xaf;" horiz-adv-x="337" d="M85 818h263v-73h-263v73z" />
<glyph unicode="&#xb0;" horiz-adv-x="383" d="M193 455q-60 0 -103 40.5t-43 97.5t43 97.5t103 40.5q59 0 101.5 -40.5t42.5 -97.5t-42.5 -97.5t-101.5 -40.5zM193 528q28 0 47.5 19t19.5 46q0 28 -19.5 46.5t-47.5 18.5q-29 0 -48.5 -18.5t-19.5 -46.5q0 -27 19.5 -46t48.5 -19z" />
<glyph unicode="&#xb1;" horiz-adv-x="574" d="M323 565v-136h179v-70h-179v-136h-70v136h-179v70h179v136h70zM74 165h428v-71h-428v71z" />
<glyph unicode="&#xb2;" horiz-adv-x="374" d="M254 427h96v-65h-326l1 17q2 35 27 63.5t59.5 47l69 37t58 45t23.5 59.5q0 34 -21 54.5t-59 20.5q-76 0 -85 -86l-63 14q6 61 45.5 97.5t105.5 36.5q69 0 110 -38t41 -98q0 -49 -28.5 -85.5t-63 -53.5t-72.5 -36t-49 -33z" />
<glyph unicode="&#xb3;" horiz-adv-x="365" d="M264 570q76 -25 76 -94q0 -55 -46.5 -88.5t-114.5 -33.5q-62 0 -104 26.5t-55 76.5l69 24q20 -63 92 -63q36 0 60.5 16t24.5 43q0 32 -28 46.5t-87 14.5v56q100 0 100 58q0 23 -20 38.5t-54 15.5q-31 0 -51 -14.5t-25 -37.5l-66 20q12 42 50 68t96 26q63 0 103 -30 t40 -80q0 -58 -60 -88z" />
<glyph unicode="&#xb4;" horiz-adv-x="337" d="M234 861l74 -39l-144 -121l-53 33z" />
<glyph unicode="&#xb6;" horiz-adv-x="546" d="M250 636v-278q-72 0 -115.5 40t-43.5 99t43.5 99t115.5 40zM526 636v-91h-118v-548q0 -51 -16 -88t-43 -56.5t-57 -28t-64 -8.5q-38 0 -69 7v90q31 -9 62 -9q90 0 90 101v631h215z" />
<glyph unicode="&#xb7;" horiz-adv-x="213" d="M45 296q0 28 17.5 46t47.5 18t48 -18t18 -46t-18 -47t-48 -19t-47.5 18.5t-17.5 47.5z" />
<glyph unicode="&#xb8;" horiz-adv-x="324" d="M33 -204l-83 50l123 174l68 -13z" />
<glyph unicode="&#xb9;" horiz-adv-x="260" d="M189 760v-398h-74v334h-86v64h160z" />
<glyph unicode="&#xba;" horiz-adv-x="402" d="M370 477q0 -78 -47 -124.5t-122 -46.5q-76 0 -122.5 46.5t-46.5 124.5t46.5 124.5t122.5 46.5q75 0 122 -46.5t47 -124.5zM290 477q0 48 -23.5 75.5t-65.5 27.5t-65.5 -27.5t-23.5 -75.5t23.5 -75t65.5 -27q43 0 66 27t23 75z" />
<glyph unicode="&#xbb;" horiz-adv-x="445" d="M137 496l103 -169l-105 -173h-95l103 171l-103 171h97zM312 496l103 -169l-105 -173h-95l103 171l-103 171h97z" />
<glyph unicode="&#xbc;" horiz-adv-x="756" d="M115 262v334h-86v64h160v-398h-74zM543 659h91l-454 -659h-91zM734 147v-64h-52v-83h-74v83h-202l-10 39l135 276h79l-121 -251h119v116h74v-116h52z" />
<glyph unicode="&#xbd;" horiz-adv-x="819" d="M115 262v334h-86v64h160v-398h-74zM545 659h91l-454 -659h-91zM698 65h96v-65h-326l1 17q2 35 27 63.5t59.5 47l69 37t58 45t23.5 59.5q0 34 -21 54.5t-59 20.5q-76 0 -85 -86l-63 14q6 61 45.5 97.5t105.5 36.5q69 0 110 -38t41 -98q0 -49 -28.5 -85.5t-63 -53.5 t-72.5 -36t-49 -33z" />
<glyph unicode="&#xbe;" horiz-adv-x="876" d="M340 376q0 -55 -46.5 -88.5t-114.5 -33.5q-62 0 -104 26.5t-55 76.5l69 24q20 -63 92 -63q36 0 60.5 16t24.5 43q0 32 -28 46.5t-87 14.5v56q100 0 100 58q0 23 -20 38.5t-54 15.5q-31 0 -51 -14.5t-25 -37.5l-66 20q12 42 50 68t96 26q63 0 103 -30t40 -80 q0 -58 -60 -88q76 -25 76 -94zM638 659h91l-454 -659h-91zM855 147v-64h-52v-83h-74v83h-202l-10 39l135 276h79l-121 -251h119v116h74v-116h52z" />
<glyph unicode="&#xbf;" horiz-adv-x="472" d="M259 396q-30 0 -48 17.5t-18 45.5t18 46.5t48 18.5q29 0 46.5 -18.5t17.5 -46.5t-17.5 -45.5t-46.5 -17.5zM362 52l82 -22q-11 -74 -64.5 -118.5t-135.5 -44.5q-84 0 -144.5 52.5t-60.5 139.5q0 88 47.5 134.5t122.5 58.5v66h87v-139h-28q-137 -2 -137 -120 q0 -49 34 -79.5t83 -30.5q91 0 114 103z" />
<glyph unicode="&#xc0;" horiz-adv-x="627" d="M387 708l-53 -33l-144 121l74 39zM491 0l-51 145h-261l-51 -145h-110l241 636h111l238 -636h-117zM207 225h205l-102 291z" />
<glyph unicode="&#xc1;" horiz-adv-x="627" d="M440 796l-144 -121l-53 33l123 127zM491 0l-51 145h-261l-51 -145h-110l241 636h111l238 -636h-117zM207 225h205l-102 291z" />
<glyph unicode="&#xc2;" horiz-adv-x="627" d="M314 762l-81 -81l-61 20l101 117h81l99 -117l-64 -20zM491 0l-51 145h-261l-51 -145h-110l241 636h111l238 -636h-117zM207 225h205l-102 291z" />
<glyph unicode="&#xc3;" horiz-adv-x="627" d="M254 734q-42 0 -53 -53l-50 12q8 54 32 85t60 31q29 0 66.5 -28.5t56.5 -28.5q40 0 53 54l50 -13q-18 -115 -92 -115q-29 0 -66.5 28t-56.5 28zM491 0l-51 145h-261l-51 -145h-110l241 636h111l238 -636h-117zM207 225h205l-102 291z" />
<glyph unicode="&#xc4;" horiz-adv-x="627" d="M225 702q-25 0 -40.5 15.5t-15.5 40.5q0 23 15.5 38.5t40.5 15.5t40.5 -15.5t15.5 -38.5q0 -25 -15.5 -40.5t-40.5 -15.5zM404 702q-25 0 -40 15.5t-15 40.5q0 24 15.5 39t39.5 15q25 0 40.5 -15t15.5 -39q0 -25 -15.5 -40.5t-40.5 -15.5zM491 0l-51 145h-261l-51 -145 h-110l241 636h111l238 -636h-117zM207 225h205l-102 291z" />
<glyph unicode="&#xc5;" horiz-adv-x="627" d="M314 681q-35 0 -56.5 21t-21.5 52t21.5 52t56.5 21t57 -21t22 -52t-22 -52t-57 -21zM314 779q-12 0 -20 -7.5t-8 -17.5t8 -17.5t20 -7.5q13 0 21 7.5t8 17.5t-8 17.5t-21 7.5zM491 0l-51 145h-261l-51 -145h-110l241 636h111l238 -636h-117zM207 225h205l-102 291z" />
<glyph unicode="&#xc6;" horiz-adv-x="888" d="M842 546h-327v-181h288v-91h-288v-183h327v-91h-431v145h-208l-79 -145h-106l353 636h471v-90zM244 222h167v309l-77 -144z" />
<glyph unicode="&#xc7;" horiz-adv-x="656" d="M338 81q69 0 115 38t61 106l94 -38q-21 -81 -81 -133.5t-150 -62.5l-100 -195l-83 50l103 146q-111 15 -182 102.5t-71 224.5q0 149 84 238.5t210 89.5q106 0 176.5 -54t93.5 -144l-94 -38q-15 68 -61 106t-115 38q-87 0 -138.5 -62t-51.5 -174t51.5 -175t138.5 -63z" />
<glyph unicode="&#xc8;" horiz-adv-x="554" d="M251 835l123 -127l-53 -33l-144 121zM181 546v-181h288v-91h-288v-183h327v-91h-431v636h431v-90h-327z" />
<glyph unicode="&#xc9;" horiz-adv-x="554" d="M353 835l74 -39l-144 -121l-53 33zM181 546v-181h288v-91h-288v-183h327v-91h-431v636h431v-90h-327z" />
<glyph unicode="&#xca;" horiz-adv-x="554" d="M301 762l-81 -81l-61 20l101 117h81l99 -117l-64 -20zM508 546h-327v-181h288v-91h-288v-183h327v-91h-431v636h431v-90z" />
<glyph unicode="&#xcb;" horiz-adv-x="554" d="M212 702q-25 0 -40.5 15.5t-15.5 40.5q0 23 15.5 38.5t40.5 15.5t40.5 -15.5t15.5 -38.5q0 -25 -15.5 -40.5t-40.5 -15.5zM391 702q-25 0 -40 15.5t-15 40.5q0 24 15 39t40 15t40.5 -15t15.5 -39q0 -25 -15.5 -40.5t-40.5 -15.5zM181 546v-181h288v-91h-288v-183h327v-91 h-431v636h431v-90h-327z" />
<glyph unicode="&#xcc;" horiz-adv-x="258" d="M79 835l123 -127l-53 -33l-144 121zM181 636v-636h-104v636h104z" />
<glyph unicode="&#xcd;" horiz-adv-x="258" d="M181 835l74 -39l-144 -121l-53 33zM181 636v-636h-104v636h104z" />
<glyph unicode="&#xce;" horiz-adv-x="258" d="M169 818l99 -117l-64 -20l-75 81l-81 -81l-61 20l101 117h81zM77 0v636h104v-636h-104z" />
<glyph unicode="&#xcf;" horiz-adv-x="258" d="M40 702q-25 0 -40.5 15.5t-15.5 40.5q0 23 15.5 38.5t40.5 15.5t40.5 -15.5t15.5 -38.5q0 -25 -15.5 -40.5t-40.5 -15.5zM219 702q-25 0 -40 15.5t-15 40.5q0 24 15 39t40 15t40.5 -15t15.5 -39q0 -25 -15.5 -40.5t-40.5 -15.5zM181 636v-636h-104v636h104z" />
<glyph unicode="&#xd0;" horiz-adv-x="658" d="M272 636q173 0 257.5 -82.5t84.5 -233.5q0 -152 -84.5 -236t-257.5 -84h-195v272h-42v89h42v275h195zM271 89q129 0 184.5 57t55.5 174q0 116 -55 172t-185 56h-90v-187h152v-89h-152v-183h90z" />
<glyph unicode="&#xd1;" horiz-adv-x="676" d="M288 734q-42 0 -53 -53l-50 12q8 54 32 85t60 31q29 0 66 -28.5t57 -28.5q40 0 53 54l50 -13q-18 -115 -92 -115q-29 0 -66.5 28t-56.5 28zM496 636h103v-636h-93l-329 465l4 -152v-313h-104v636h101l321 -459l-3 144v315z" />
<glyph unicode="&#xd2;" horiz-adv-x="678" d="M289 835l123 -127l-53 -33l-144 121zM634 319q0 -150 -84.5 -240t-211.5 -90q-126 0 -210 90t-84 240q0 149 84 238.5t210 89.5q127 0 211.5 -89.5t84.5 -238.5zM529 319q0 112 -51.5 174t-139.5 62q-87 0 -138.5 -62t-51.5 -174t51.5 -175t138.5 -63q88 0 139.5 63 t51.5 175z" />
<glyph unicode="&#xd3;" horiz-adv-x="678" d="M391 835l74 -39l-144 -121l-53 33zM634 319q0 -150 -84.5 -240t-211.5 -90q-126 0 -210 90t-84 240q0 149 84 238.5t210 89.5q127 0 211.5 -89.5t84.5 -238.5zM529 319q0 112 -51.5 174t-139.5 62q-87 0 -138.5 -62t-51.5 -174t51.5 -175t138.5 -63q88 0 139.5 63 t51.5 175z" />
<glyph unicode="&#xd4;" horiz-adv-x="678" d="M339 762l-81 -81l-61 20l101 117h81l99 -117l-64 -20zM338 647q127 0 211.5 -89.5t84.5 -238.5q0 -150 -84.5 -240t-211.5 -90q-126 0 -210 90t-84 240q0 149 84 238.5t210 89.5zM338 81q88 0 139.5 63t51.5 175t-51.5 174t-139.5 62q-87 0 -138.5 -62t-51.5 -174 t51.5 -175t138.5 -63z" />
<glyph unicode="&#xd5;" horiz-adv-x="678" d="M494 793q-18 -115 -92 -115q-29 0 -66.5 28t-56.5 28q-42 0 -53 -53l-50 12q8 54 32 85t60 31q28 0 66 -28.5t57 -28.5q40 0 53 54zM634 319q0 -150 -84.5 -240t-211.5 -90q-126 0 -210 90t-84 240q0 149 84 238.5t210 89.5q127 0 211.5 -89.5t84.5 -238.5zM529 319 q0 112 -51.5 174t-139.5 62q-87 0 -138.5 -62t-51.5 -174t51.5 -175t138.5 -63q88 0 139.5 63t51.5 175z" />
<glyph unicode="&#xd6;" horiz-adv-x="678" d="M250 702q-25 0 -40.5 15.5t-15.5 40.5q0 23 15.5 38.5t40.5 15.5t40.5 -15.5t15.5 -38.5q0 -25 -15.5 -40.5t-40.5 -15.5zM429 702q-25 0 -40 15.5t-15 40.5q0 24 15 39t40 15t40.5 -15t15.5 -39q0 -25 -15.5 -40.5t-40.5 -15.5zM634 319q0 -150 -84.5 -240t-211.5 -90 q-126 0 -210 90t-84 240q0 149 84 238.5t210 89.5q127 0 211.5 -89.5t84.5 -238.5zM529 319q0 112 -51.5 174t-139.5 62q-87 0 -138.5 -62t-51.5 -174t51.5 -175t138.5 -63q88 0 139.5 63t51.5 175z" />
<glyph unicode="&#xd7;" horiz-adv-x="495" d="M64 454l54 53l130 -132l131 132l54 -53l-132 -131l132 -132l-54 -52l-131 130l-130 -130l-54 52l132 132z" />
<glyph unicode="&#xd8;" horiz-adv-x="678" d="M563 541q71 -87 71 -222q0 -150 -84.5 -240t-211.5 -90q-108 0 -185 66l-47 -56l-52 43l53 63q-63 85 -63 214q0 149 84 238.5t210 89.5q102 0 177 -58l46 54l52 -43zM148 319q0 -79 26 -134l280 331q-47 39 -116 39q-87 0 -138.5 -62t-51.5 -174zM338 81q88 0 139.5 63 t51.5 175q0 88 -32 144l-282 -335q49 -47 123 -47z" />
<glyph unicode="&#xd9;" horiz-adv-x="650" d="M275 835l123 -127l-53 -33l-144 121zM175 255q0 -92 34.5 -136.5t114.5 -44.5q81 0 115.5 44.5t34.5 136.5v381h104v-382q0 -131 -64 -201.5t-190 -70.5t-189 70.5t-63 201.5v382h104z" />
<glyph unicode="&#xda;" horiz-adv-x="650" d="M377 835l74 -39l-144 -121l-53 33zM175 255q0 -92 34.5 -136.5t114.5 -44.5q81 0 115.5 44.5t34.5 136.5v381h104v-382q0 -131 -64 -201.5t-190 -70.5t-189 70.5t-63 201.5v382h104z" />
<glyph unicode="&#xdb;" horiz-adv-x="650" d="M325 762l-81 -81l-61 20l101 117h81l99 -117l-64 -20zM474 636h104v-382q0 -131 -64 -201.5t-190 -70.5t-189 70.5t-63 201.5v382h104l-1 -381q0 -92 34.5 -136.5t114.5 -44.5q81 0 115.5 44.5t34.5 136.5v381z" />
<glyph unicode="&#xdc;" horiz-adv-x="650" d="M236 702q-25 0 -40.5 15.5t-15.5 40.5q0 23 15.5 38.5t40.5 15.5t40.5 -15.5t15.5 -38.5q0 -25 -15.5 -40.5t-40.5 -15.5zM415 702q-25 0 -40 15.5t-15 40.5q0 24 15 39t40 15t40.5 -15t15.5 -39q0 -25 -15.5 -40.5t-40.5 -15.5zM175 255q0 -92 34.5 -136.5t114.5 -44.5 q81 0 115.5 44.5t34.5 136.5v381h104v-382q0 -131 -64 -201.5t-190 -70.5t-189 70.5t-63 201.5v382h104z" />
<glyph unicode="&#xdd;" horiz-adv-x="555" d="M404 796l-144 -121l-53 33l123 127zM544 636l-215 -375v-261h-103v261l-214 375h118l96 -169l55 -105l55 105l96 169h112z" />
<glyph unicode="&#xde;" horiz-adv-x="582" d="M312 535q118 0 178.5 -52t60.5 -150t-60.5 -150t-178.5 -52h-131v-132h-104v636h104v-100h131zM312 222q69 0 102 27t33 84t-33 83.5t-102 26.5h-131v-221h131z" />
<glyph unicode="&#xdf;" horiz-adv-x="578" d="M409 366q133 -45 133 -171q0 -98 -64.5 -151.5t-159.5 -53.5q-62 0 -103 16l18 83q31 -15 84 -15q56 0 91.5 30t35.5 92q0 119 -175 119v81q53 0 89.5 25t36.5 79q0 47 -29.5 74t-85.5 27q-118 0 -118 -116v-485h-97v486q0 102 61.5 152t153.5 50q97 0 155 -49t58 -133 q0 -91 -84 -140z" />
<glyph unicode="&#xe0;" horiz-adv-x="518" d="M322 567l-53 -33l-144 121l74 39zM440 69h58v-70h-133l-5 71h-5q-20 -35 -62.5 -58t-96.5 -23q-71 0 -115.5 37.5t-44.5 104.5q0 123 179 147l129 18q-2 61 -25 90.5t-73 29.5q-83 0 -109 -77l-81 32q21 60 72 94.5t124 34.5q85 0 136.5 -44t51.5 -146v-241zM213 67 q51 0 91 33t40 91v35l-104 -13q-58 -7 -82 -25t-24 -54q0 -31 21 -49t58 -18z" />
<glyph unicode="&#xe1;" horiz-adv-x="518" d="M375 655l-144 -121l-53 33l123 127zM440 69h58v-70h-133l-5 71h-5q-20 -35 -62.5 -58t-96.5 -23q-71 0 -115.5 37.5t-44.5 104.5q0 123 179 147l129 18q-2 61 -25 90.5t-73 29.5q-83 0 -109 -77l-81 32q21 60 72 94.5t124 34.5q85 0 136.5 -44t51.5 -146v-241zM213 67 q51 0 91 33t40 91v35l-104 -13q-58 -7 -82 -25t-24 -54q0 -31 21 -49t58 -18z" />
<glyph unicode="&#xe2;" horiz-adv-x="518" d="M249 621l-81 -81l-61 20l101 117h81l99 -117l-64 -20zM440 69h58v-70h-133l-5 71h-5q-20 -35 -62.5 -58t-96.5 -23q-71 0 -115.5 37.5t-44.5 104.5q0 123 179 147l129 18q-2 61 -25 90.5t-73 29.5q-83 0 -109 -77l-81 32q21 60 72 94.5t124 34.5q85 0 136.5 -44 t51.5 -146v-241zM213 67q51 0 91 33t40 91v35l-104 -13q-58 -7 -82 -25t-24 -54q0 -31 21 -49t58 -18z" />
<glyph unicode="&#xe3;" horiz-adv-x="518" d="M189 593q-42 0 -53 -53l-50 12q8 54 32 85t60 31q28 0 66 -28.5t57 -28.5q40 0 53 54l50 -13q-18 -115 -92 -115q-29 0 -66.5 28t-56.5 28zM440 69h58v-70h-133l-5 71h-5q-20 -35 -62.5 -58t-96.5 -23q-71 0 -115.5 37.5t-44.5 104.5q0 123 179 147l129 18 q-2 61 -25 90.5t-73 29.5q-83 0 -109 -77l-81 32q21 60 72 94.5t124 34.5q85 0 136.5 -44t51.5 -146v-241zM213 67q51 0 91 33t40 91v35l-104 -13q-58 -7 -82 -25t-24 -54q0 -31 21 -49t58 -18z" />
<glyph unicode="&#xe4;" horiz-adv-x="518" d="M160 561q-25 0 -40.5 15.5t-15.5 40.5q0 23 15.5 38.5t40.5 15.5t40.5 -15.5t15.5 -38.5q0 -25 -15.5 -40.5t-40.5 -15.5zM339 561q-25 0 -40 15.5t-15 40.5q0 23 15 38.5t40 15.5t40.5 -15t15.5 -39q0 -25 -15.5 -40.5t-40.5 -15.5zM440 69h58v-70h-133l-5 71h-5 q-20 -35 -62.5 -58t-96.5 -23q-71 0 -115.5 37.5t-44.5 104.5q0 123 179 147l129 18q-2 61 -25 90.5t-73 29.5q-83 0 -109 -77l-81 32q21 60 72 94.5t124 34.5q85 0 136.5 -44t51.5 -146v-241zM213 67q51 0 91 33t40 91v35l-104 -13q-58 -7 -82 -25t-24 -54q0 -31 21 -49 t58 -18z" />
<glyph unicode="&#xe5;" horiz-adv-x="518" d="M249 540q-35 0 -56.5 21t-21.5 52t21.5 52t56.5 21t57 -21t22 -52t-22 -52t-57 -21zM249 638q-12 0 -20 -7.5t-8 -17.5t8 -17.5t20 -7.5q13 0 21 7.5t8 17.5t-8 17.5t-21 7.5zM440 69h58v-70h-133l-5 71h-5q-20 -35 -62.5 -58t-96.5 -23q-71 0 -115.5 37.5t-44.5 104.5 q0 123 179 147l129 18q-2 61 -25 90.5t-73 29.5q-83 0 -109 -77l-81 32q21 60 72 94.5t124 34.5q85 0 136.5 -44t51.5 -146v-241zM213 67q51 0 91 33t40 91v35l-104 -13q-58 -7 -82 -25t-24 -54q0 -31 21 -49t58 -18z" />
<glyph unicode="&#xe6;" horiz-adv-x="845" d="M594 500q102 0 158 -66.5t53 -176.5v-25h-348q4 -73 41.5 -114.5t95.5 -41.5q96 0 125 85l83 -38q-18 -56 -76 -94.5t-131 -38.5q-131 0 -188 112h-12q-23 -47 -72 -80t-128 -33q-70 0 -114.5 37.5t-44.5 102.5q0 125 179 149l131 18q-2 64 -24.5 92.5t-75.5 28.5 q-83 0 -113 -78l-80 32q22 59 72.5 93.5t124.5 34.5q122 0 159 -96h7q58 97 178 97zM590 416q-48 0 -83 -30.5t-45 -83.5h243q-5 52 -35 83t-80 31zM214 67q47 0 89.5 32.5t42.5 83.5v44l-105 -14q-58 -7 -82.5 -25t-24.5 -54q0 -30 19.5 -48.5t60.5 -18.5z" />
<glyph unicode="&#xe7;" horiz-adv-x="526" d="M274 76q42 0 77.5 27t46.5 74l87 -34q-14 -60 -62 -100.5t-113 -50.5l-97 -189l-83 50l99 141q-89 14 -141 81t-52 170q0 115 64.5 185t174.5 70q76 0 135 -42t75 -111l-87 -34q-11 47 -46.5 74t-77.5 27q-66 0 -103 -45t-37 -124q0 -80 37.5 -124.5t102.5 -44.5z" />
<glyph unicode="&#xe8;" horiz-adv-x="521" d="M342 568l-53 -33l-144 121l74 39zM269 500q100 0 157 -69.5t55 -173.5v-25h-348q4 -74 41.5 -115t94.5 -41q92 0 123 86l78 -42q-17 -55 -72.5 -92.5t-127.5 -37.5q-103 0 -168.5 69t-65.5 186q0 112 64.5 183.5t168.5 71.5zM265 416q-49 0 -83 -30.5t-44 -83.5h245 q-5 52 -36 83t-82 31z" />
<glyph unicode="&#xe9;" horiz-adv-x="521" d="M395 656l-144 -121l-53 33l123 127zM269 500q100 0 157 -69.5t55 -173.5v-25h-348q4 -74 41.5 -115t94.5 -41q92 0 123 86l78 -42q-17 -55 -72.5 -92.5t-127.5 -37.5q-103 0 -168.5 69t-65.5 186q0 112 64.5 183.5t168.5 71.5zM265 416q-49 0 -83 -30.5t-44 -83.5h245 q-5 52 -36 83t-82 31z" />
<glyph unicode="&#xea;" horiz-adv-x="521" d="M269 622l-81 -81l-61 20l101 117h81l99 -117l-64 -20zM269 500q100 0 157 -69.5t55 -173.5v-25h-348q4 -74 41.5 -115t94.5 -41q92 0 123 86l78 -42q-17 -55 -72.5 -92.5t-127.5 -37.5q-103 0 -168.5 69t-65.5 186q0 112 64.5 183.5t168.5 71.5zM265 416q-49 0 -83 -30.5 t-44 -83.5h245q-5 52 -36 83t-82 31z" />
<glyph unicode="&#xeb;" horiz-adv-x="521" d="M180 562q-25 0 -40.5 15.5t-15.5 40.5q0 23 15.5 38.5t40.5 15.5t40.5 -15.5t15.5 -38.5q0 -25 -15.5 -40.5t-40.5 -15.5zM359 562q-25 0 -40 15.5t-15 40.5q0 24 15 39t40 15t40.5 -15t15.5 -39q0 -25 -15.5 -40.5t-40.5 -15.5zM269 500q100 0 157 -69.5t55 -173.5v-25 h-348q4 -74 41.5 -115t94.5 -41q92 0 123 86l78 -42q-17 -55 -72.5 -92.5t-127.5 -37.5q-103 0 -168.5 69t-65.5 186q0 112 64.5 183.5t168.5 71.5zM265 416q-49 0 -83 -30.5t-44 -83.5h245q-5 52 -36 83t-82 31z" />
<glyph unicode="&#xec;" horiz-adv-x="228" d="M63 695l123 -127l-53 -33l-144 121zM161 0h-97v486h97v-486z" />
<glyph unicode="&#xed;" horiz-adv-x="228" d="M165 695l74 -39l-144 -121l-53 33zM161 0h-97v486h97v-486z" />
<glyph unicode="&#xee;" horiz-adv-x="228" d="M153 678l99 -117l-64 -20l-75 81l-81 -81l-61 20l101 117h81zM64 0v486h97v-486h-97z" />
<glyph unicode="&#xef;" horiz-adv-x="228" d="M24 562q-25 0 -40.5 15.5t-15.5 40.5q0 23 15.5 38.5t40.5 15.5t40.5 -15.5t15.5 -38.5q0 -25 -15.5 -40.5t-40.5 -15.5zM203 562q-25 0 -40 15.5t-15 40.5q0 24 15 39t40 15t40.5 -15t15.5 -39q0 -25 -15.5 -40.5t-40.5 -15.5zM161 0h-97v486h97v-486z" />
<glyph unicode="&#xf0;" horiz-adv-x="545" d="M509 252v-3q0 -120 -65 -189.5t-172 -69.5q-106 0 -171 67.5t-65 178.5q0 109 64.5 176t158.5 67q66 0 115 -33q-35 66 -96 120l-77 -45l-28 38l67 39q-26 21 -68 49l86 51q21 -16 63 -52l84 50l28 -38l-77 -46q153 -156 153 -360zM272 76q65 0 102 42t37 118t-36.5 118 t-102.5 42q-64 0 -101 -42t-37 -118q0 -75 37 -117.5t101 -42.5z" />
<glyph unicode="&#xf1;" horiz-adv-x="554" d="M214 605q-42 0 -53 -53l-50 12q8 54 32 85t60 31q29 0 66 -28.5t57 -28.5q40 0 53 54l50 -13q-18 -115 -92 -115q-29 0 -66.5 28t-56.5 28zM315 500q77 0 125 -42t48 -135v-323h-97v292q0 64 -24 92t-73 28q-61 0 -99 -44q-31 -36 -31 -110v-258h-97v486h90l3 -62h10 q20 33 59 54.5t86 21.5z" />
<glyph unicode="&#xf2;" horiz-adv-x="545" d="M222 695l123 -127l-53 -33l-144 121zM509 245q0 -116 -65.5 -185.5t-171.5 -69.5t-171 69.5t-65 185.5t65 185.5t171 69.5t171.5 -69.5t65.5 -185.5zM411 245q0 81 -36.5 125t-102.5 44q-64 0 -101 -44.5t-37 -124.5t37 -124.5t101 -44.5q65 0 102 44.5t37 124.5z" />
<glyph unicode="&#xf3;" horiz-adv-x="545" d="M324 695l74 -39l-144 -121l-53 33zM509 245q0 -116 -65.5 -185.5t-171.5 -69.5t-171 69.5t-65 185.5t65 185.5t171 69.5t171.5 -69.5t65.5 -185.5zM411 245q0 81 -36.5 125t-102.5 44q-64 0 -101 -44.5t-37 -124.5t37 -124.5t101 -44.5q65 0 102 44.5t37 124.5z" />
<glyph unicode="&#xf4;" horiz-adv-x="545" d="M272 622l-81 -81l-61 20l101 117h81l99 -117l-64 -20zM272 500q106 0 171.5 -69.5t65.5 -185.5t-65.5 -185.5t-171.5 -69.5t-171 69.5t-65 185.5t65 185.5t171 69.5zM272 76q65 0 102 44.5t37 124.5q0 81 -36.5 125t-102.5 44q-64 0 -101 -44.5t-37 -124.5t37 -124.5 t101 -44.5z" />
<glyph unicode="&#xf5;" horiz-adv-x="545" d="M427 653q-18 -115 -92 -115q-29 0 -66.5 28t-56.5 28q-42 0 -53 -53l-50 12q8 54 32 85t60 31q29 0 66 -28.5t57 -28.5q40 0 53 54zM509 245q0 -116 -65.5 -185.5t-171.5 -69.5t-171 69.5t-65 185.5t65 185.5t171 69.5t171.5 -69.5t65.5 -185.5zM411 245q0 81 -36.5 125 t-102.5 44q-64 0 -101 -44.5t-37 -124.5t37 -124.5t101 -44.5q65 0 102 44.5t37 124.5z" />
<glyph unicode="&#xf6;" horiz-adv-x="545" d="M183 562q-25 0 -40.5 15.5t-15.5 40.5q0 23 15.5 38.5t40.5 15.5t40.5 -15.5t15.5 -38.5q0 -25 -15.5 -40.5t-40.5 -15.5zM362 562q-25 0 -40 15.5t-15 40.5q0 24 15.5 39t39.5 15q25 0 40.5 -15t15.5 -39q0 -25 -15.5 -40.5t-40.5 -15.5zM509 245q0 -116 -65.5 -185.5 t-171.5 -69.5t-171 69.5t-65 185.5t65 185.5t171 69.5t171.5 -69.5t65.5 -185.5zM411 245q0 81 -36.5 125t-102.5 44q-64 0 -101 -44.5t-37 -124.5t37 -124.5t101 -44.5q65 0 102 44.5t37 124.5z" />
<glyph unicode="&#xf7;" horiz-adv-x="570" d="M229 502q0 23 16 39.5t39 16.5q24 0 40.5 -16.5t16.5 -39.5q0 -24 -16.5 -40t-40.5 -16q-23 0 -39 16t-16 40zM66 362h437v-76h-437v76zM229 148q0 23 16 39.5t39 16.5q24 0 40.5 -16.5t16.5 -39.5q0 -24 -16.5 -40t-40.5 -16q-23 0 -39 16t-16 40z" />
<glyph unicode="&#xf8;" horiz-adv-x="600" d="M456 415q53 -67 53 -170q0 -116 -65.5 -185.5t-171.5 -69.5q-80 0 -139 42l-28 -33l-52 43l32 38q-49 66 -49 165q0 116 65 185.5t171 69.5q78 0 134 -38l30 35l52 -44zM134 245q0 -53 16 -88l198 236q-30 21 -76 21q-64 0 -101 -44.5t-37 -124.5zM272 76q65 0 102 44.5 t37 124.5q0 57 -18 95l-202 -239q34 -25 81 -25z" />
<glyph unicode="&#xf9;" horiz-adv-x="554" d="M351 568l-53 -33l-144 121l74 39zM390 486h97v-486h-90l-3 62h-10q-20 -33 -59 -54.5t-86 -21.5q-77 0 -125 42t-48 135v323h97v-292q0 -64 24 -92t73 -28q61 0 99 44q31 36 31 110v258z" />
<glyph unicode="&#xfa;" horiz-adv-x="554" d="M404 656l-144 -121l-53 33l123 127zM390 486h97v-486h-90l-3 62h-10q-20 -33 -59 -54.5t-86 -21.5q-77 0 -125 42t-48 135v323h97v-292q0 -64 24 -92t73 -28q61 0 99 44q31 36 31 110v258z" />
<glyph unicode="&#xfb;" horiz-adv-x="554" d="M278 622l-81 -81l-61 20l101 117h81l99 -117l-64 -20zM390 486h97v-486h-90l-3 62h-10q-20 -33 -59 -54.5t-86 -21.5q-77 0 -125 42t-48 135v323h97v-292q0 -64 24 -92t73 -28q61 0 99 44q31 36 31 110v258z" />
<glyph unicode="&#xfc;" horiz-adv-x="554" d="M189 562q-25 0 -40.5 15.5t-15.5 40.5q0 23 15.5 38.5t40.5 15.5t40.5 -15.5t15.5 -38.5q0 -25 -15.5 -40.5t-40.5 -15.5zM368 562q-25 0 -40 15.5t-15 40.5q0 24 15.5 39t39.5 15q25 0 40.5 -15t15.5 -39q0 -25 -15.5 -40.5t-40.5 -15.5zM390 486h97v-486h-90l-3 62h-10 q-20 -33 -59 -54.5t-86 -21.5q-77 0 -125 42t-48 135v323h97v-292q0 -64 24 -92t73 -28q61 0 99 44q31 36 31 110v258z" />
<glyph unicode="&#xfd;" horiz-adv-x="512" d="M386 656l-144 -121l-53 33l123 127zM494 486l-255 -667h-99l65 177l-187 490h112l130 -383l132 383h102z" />
<glyph unicode="&#xfe;" horiz-adv-x="573" d="M320 500q92 0 154.5 -69.5t62.5 -185.5q0 -115 -63 -185t-155 -70q-104 0 -150 73h-7v-244h-97v852l97 13v-256h9q46 72 149 72zM305 76q62 0 98 44t36 125t-35.5 125t-97.5 44q-65 0 -104.5 -43t-39.5 -125q0 -83 39 -126.5t104 -43.5z" />
<glyph unicode="&#xff;" horiz-adv-x="512" d="M171 562q-25 0 -40.5 15.5t-15.5 40.5q0 23 15.5 38.5t40.5 15.5t40.5 -15.5t15.5 -38.5q0 -25 -15.5 -40.5t-40.5 -15.5zM350 562q-25 0 -40 15.5t-15 40.5q0 24 15.5 39t39.5 15q25 0 40.5 -15t15.5 -39q0 -25 -15.5 -40.5t-40.5 -15.5zM494 486l-255 -667h-99l65 177 l-187 490h112l130 -383l132 383h102z" />
<glyph unicode="&#x100;" horiz-adv-x="627" d="M445 790v-71h-263v71h263zM491 0l-51 145h-261l-51 -145h-110l241 636h111l238 -636h-117zM207 225h205l-102 291z" />
<glyph unicode="&#x101;" horiz-adv-x="518" d="M380 649v-71h-263v71h263zM440 69h58v-70h-133l-5 71h-5q-20 -35 -62.5 -58t-96.5 -23q-71 0 -115.5 37.5t-44.5 104.5q0 123 179 147l129 18q-2 61 -25 90.5t-73 29.5q-83 0 -109 -77l-81 32q21 60 72 94.5t124 34.5q85 0 136.5 -44t51.5 -146v-241zM213 67q51 0 91 33 t40 91v35l-104 -13q-58 -7 -82 -25t-24 -54q0 -31 21 -49t58 -18z" />
<glyph unicode="&#x102;" horiz-adv-x="627" d="M314 691q-59 0 -96.5 34t-36.5 86h68q0 -24 18 -40.5t47 -16.5q28 1 45 17.5t17 39.5h69q1 -52 -36.5 -86t-94.5 -34zM491 0l-51 145h-261l-51 -145h-110l241 636h111l238 -636h-117zM207 225h205l-102 291z" />
<glyph unicode="&#x103;" horiz-adv-x="518" d="M249 550q-59 0 -96.5 34t-36.5 86h68q0 -24 18 -40.5t47 -16.5q28 1 45 17.5t17 39.5h69q1 -52 -36.5 -86t-94.5 -34zM440 69h58v-70h-133l-5 71h-5q-20 -35 -62.5 -58t-96.5 -23q-71 0 -115.5 37.5t-44.5 104.5q0 123 179 147l129 18q-2 61 -25 90.5t-73 29.5 q-83 0 -109 -77l-81 32q21 60 72 94.5t124 34.5q85 0 136.5 -44t51.5 -146v-241zM213 67q51 0 91 33t40 91v35l-104 -13q-58 -7 -82 -25t-24 -54q0 -31 21 -49t58 -18z" />
<glyph unicode="&#x104;" horiz-adv-x="627" d="M592 -87l31 -68q-36 -24 -91 -24q-43 0 -72 23t-29 66q0 52 60 90l-51 145h-261l-51 -145h-110l241 636h111l238 -636h-26q-65 -19 -65 -60q0 -19 11 -28.5t27 -9.5q22 0 37 11zM207 225h205l-102 291z" />
<glyph unicode="&#x105;" horiz-adv-x="518" d="M475 -88l31 -68q-36 -24 -91 -24q-43 0 -72 23t-29 66q0 52 60 90h-9l-5 71h-5q-20 -35 -62.5 -58t-96.5 -23q-71 0 -115.5 37.5t-44.5 104.5q0 123 179 147l129 18q-2 61 -25 90.5t-73 29.5q-83 0 -109 -77l-81 32q21 60 72 94.5t124 34.5q85 0 136.5 -44t51.5 -146 v-241h58v-70h-33q-65 -19 -65 -60q0 -19 11 -28.5t27 -9.5q22 0 37 11zM213 67q51 0 91 33t40 91v35l-104 -13q-58 -7 -82 -25t-24 -54q0 -31 21 -49t58 -18z" />
<glyph unicode="&#x106;" horiz-adv-x="656" d="M391 835l74 -39l-144 -121l-53 33zM608 187q-23 -90 -93.5 -144t-176.5 -54q-126 0 -210 90t-84 240q0 149 84 238.5t210 89.5q106 0 176.5 -54t93.5 -144l-94 -38q-15 68 -61 106t-115 38q-87 0 -138.5 -62t-51.5 -174t51.5 -175t138.5 -63q69 0 115 38t61 106z" />
<glyph unicode="&#x107;" horiz-adv-x="526" d="M326 695l74 -39l-144 -121l-53 33zM485 143q-16 -69 -75 -111t-135 -42q-108 0 -173.5 69.5t-65.5 185.5q0 115 64.5 185t174.5 70q76 0 135 -42t75 -111l-87 -34q-11 47 -46.5 74t-77.5 27q-66 0 -103 -45t-37 -124q0 -80 37.5 -124.5t102.5 -44.5q42 0 77.5 27t46.5 74 z" />
<glyph unicode="&#x108;" horiz-adv-x="656" d="M339 762l-81 -81l-61 20l101 117h81l99 -117l-64 -20zM338 81q69 0 115 38t61 106l94 -38q-23 -90 -93.5 -144t-176.5 -54q-126 0 -210 90t-84 240q0 149 84 238.5t210 89.5q106 0 176.5 -54t93.5 -144l-94 -38q-15 68 -61 106t-115 38q-87 0 -138.5 -62t-51.5 -174 t51.5 -175t138.5 -63z" />
<glyph unicode="&#x109;" horiz-adv-x="526" d="M274 622l-81 -81l-61 20l101 117h81l99 -117l-64 -20zM274 76q42 0 77.5 27t46.5 74l87 -34q-16 -69 -75 -111t-135 -42q-108 0 -173.5 69.5t-65.5 185.5q0 115 64.5 185t174.5 70q76 0 135 -42t75 -111l-87 -34q-11 47 -46.5 74t-77.5 27q-66 0 -103 -45t-37 -124 q0 -80 37.5 -124.5t102.5 -44.5z" />
<glyph unicode="&#x10a;" horiz-adv-x="656" d="M400 755q0 -26 -17.5 -42.5t-42.5 -16.5q-26 0 -43.5 16.5t-17.5 42.5t17.5 43.5t43.5 17.5q25 0 42.5 -17.5t17.5 -43.5zM608 187q-23 -90 -93.5 -144t-176.5 -54q-126 0 -210 90t-84 240q0 149 84 238.5t210 89.5q106 0 176.5 -54t93.5 -144l-94 -38q-15 68 -61 106 t-115 38q-87 0 -138.5 -62t-51.5 -174t51.5 -175t138.5 -63q69 0 115 38t61 106z" />
<glyph unicode="&#x10b;" horiz-adv-x="526" d="M335 615q0 -26 -17.5 -42.5t-42.5 -16.5q-26 0 -43.5 16.5t-17.5 42.5t17.5 43.5t43.5 17.5q25 0 42.5 -17.5t17.5 -43.5zM485 143q-16 -69 -75 -111t-135 -42q-108 0 -173.5 69.5t-65.5 185.5q0 115 64.5 185t174.5 70q76 0 135 -42t75 -111l-87 -34q-11 47 -46.5 74 t-77.5 27q-66 0 -103 -45t-37 -124q0 -80 37.5 -124.5t102.5 -44.5q42 0 77.5 27t46.5 74z" />
<glyph unicode="&#x10c;" horiz-adv-x="656" d="M375 690h-81l-99 117l64 20l75 -81l81 81l61 -20zM338 81q69 0 115 38t61 106l94 -38q-23 -90 -93.5 -144t-176.5 -54q-126 0 -210 90t-84 240q0 149 84 238.5t210 89.5q106 0 176.5 -54t93.5 -144l-94 -38q-15 68 -61 106t-115 38q-87 0 -138.5 -62t-51.5 -174 t51.5 -175t138.5 -63z" />
<glyph unicode="&#x10d;" horiz-adv-x="526" d="M310 550h-81l-99 117l64 20l75 -81l81 81l61 -20zM274 76q42 0 77.5 27t46.5 74l87 -34q-16 -69 -75 -111t-135 -42q-108 0 -173.5 69.5t-65.5 185.5q0 115 64.5 185t174.5 70q76 0 135 -42t75 -111l-87 -34q-11 47 -46.5 74t-77.5 27q-66 0 -103 -45t-37 -124 q0 -80 37.5 -124.5t102.5 -44.5z" />
<glyph unicode="&#x10e;" horiz-adv-x="658" d="M315 690h-81l-99 117l64 20l75 -81l81 81l61 -20zM272 636q173 0 257.5 -82.5t84.5 -233.5q0 -152 -84.5 -236t-257.5 -84h-195v636h195zM271 89q129 0 184.5 57t55.5 174q0 116 -55 172t-185 56h-90v-459h90z" />
<glyph unicode="&#x10f;" horiz-adv-x="661" d="M410 428v243l97 13v-684h-97v63h-6q-46 -73 -150 -73q-92 0 -155 70t-63 185q0 116 62.5 185.5t154.5 69.5q103 0 149 -72h8zM574 673l82 11l-11 -215h-60zM268 76q60 0 98 37t44 108v49q-6 70 -44.5 107t-98.5 37q-62 0 -97.5 -44t-35.5 -125t36 -125t98 -44z" />
<glyph unicode="&#x110;" horiz-adv-x="658" d="M272 636q173 0 257.5 -82.5t84.5 -233.5q0 -152 -84.5 -236t-257.5 -84h-195v272h-42v89h42v275h195zM271 89q129 0 184.5 57t55.5 174q0 116 -55 172t-185 56h-90v-187h152v-89h-152v-183h90z" />
<glyph unicode="&#x111;" horiz-adv-x="577" d="M550 620v-72h-43v-548h-97v63h-6q-46 -73 -150 -73q-92 0 -155 70t-63 185q0 116 62.5 185.5t154.5 69.5q103 0 149 -72h8v120h-147v72h147v51l97 13v-64h43zM268 76q60 0 98 37t44 108v49q-6 70 -44.5 107t-98.5 37q-62 0 -97.5 -44t-35.5 -125t36 -125t98 -44z" />
<glyph unicode="&#x112;" horiz-adv-x="554" d="M169 790h263v-71h-263v71zM181 546v-181h288v-91h-288v-183h327v-91h-431v636h431v-90h-327z" />
<glyph unicode="&#x113;" horiz-adv-x="521" d="M400 650v-71h-263v71h263zM269 500q100 0 157 -69.5t55 -173.5v-25h-348q4 -74 41.5 -115t94.5 -41q92 0 123 86l78 -42q-17 -55 -72.5 -92.5t-127.5 -37.5q-103 0 -168.5 69t-65.5 186q0 112 64.5 183.5t168.5 71.5zM265 416q-49 0 -83 -30.5t-44 -83.5h245 q-5 52 -36 83t-82 31z" />
<glyph unicode="&#x114;" horiz-adv-x="554" d="M236 811q0 -24 18 -40.5t47 -16.5q28 1 45 17.5t17 39.5h69q1 -52 -36.5 -86t-94.5 -34q-59 0 -96.5 34t-36.5 86h68zM181 546v-181h288v-91h-288v-183h327v-91h-431v636h431v-90h-327z" />
<glyph unicode="&#x115;" horiz-adv-x="521" d="M269 551q-59 0 -96.5 34t-36.5 86h68q0 -24 18 -40.5t47 -16.5q28 1 45 17.5t17 39.5h69q1 -52 -36.5 -86t-94.5 -34zM269 500q100 0 157 -69.5t55 -173.5v-25h-348q4 -74 41.5 -115t94.5 -41q92 0 123 86l78 -42q-17 -55 -72.5 -92.5t-127.5 -37.5q-103 0 -168.5 69 t-65.5 186q0 112 64.5 183.5t168.5 71.5zM265 416q-49 0 -83 -30.5t-44 -83.5h245q-5 52 -36 83t-82 31z" />
<glyph unicode="&#x116;" horiz-adv-x="554" d="M362 755q0 -26 -17.5 -42.5t-42.5 -16.5q-26 0 -43.5 16.5t-17.5 42.5t17.5 43.5t43.5 17.5q25 0 42.5 -17.5t17.5 -43.5zM181 546v-181h288v-91h-288v-183h327v-91h-431v636h431v-90h-327z" />
<glyph unicode="&#x117;" horiz-adv-x="521" d="M270 556q-26 0 -43.5 16.5t-17.5 42.5t17.5 43.5t43.5 17.5q25 0 42.5 -17.5t17.5 -43.5t-17.5 -42.5t-42.5 -16.5zM269 500q100 0 157 -69.5t55 -173.5v-25h-348q4 -74 41.5 -115t94.5 -41q92 0 123 86l78 -42q-17 -55 -72.5 -92.5t-127.5 -37.5q-103 0 -168.5 69 t-65.5 186q0 112 64.5 183.5t168.5 71.5zM265 416q-49 0 -83 -30.5t-44 -83.5h245q-5 52 -36 83t-82 31z" />
<glyph unicode="&#x118;" horiz-adv-x="554" d="M517 -87l31 -68q-36 -24 -91 -24q-43 0 -72 23t-29 66q0 52 60 90h-339v636h431v-90h-327v-181h288v-91h-288v-183h327v-91h-1q-65 -19 -65 -60q0 -19 11 -28.5t27 -9.5q22 0 37 11z" />
<glyph unicode="&#x119;" horiz-adv-x="521" d="M269 500q100 0 157 -69.5t55 -173.5v-25h-348q4 -74 41.5 -115t94.5 -41q92 0 123 86l78 -42q-13 -41 -48.5 -73.5t-84.5 -47.5q-60 -19 -60 -58q0 -19 11 -28.5t27 -9.5q22 0 37 11l31 -68q-36 -24 -91 -24q-43 0 -72 23t-29 66q0 46 47 81q-90 11 -146 78.5t-56 174.5 q0 112 64.5 183.5t168.5 71.5zM265 416q-49 0 -83 -30.5t-44 -83.5h245q-5 52 -36 83t-82 31z" />
<glyph unicode="&#x11a;" horiz-adv-x="554" d="M337 690h-81l-99 117l64 20l75 -81l81 81l61 -20zM508 546h-327v-181h288v-91h-288v-183h327v-91h-431v636h431v-90z" />
<glyph unicode="&#x11b;" horiz-adv-x="521" d="M305 550h-81l-99 117l64 20l75 -81l81 81l61 -20zM269 500q100 0 157 -69.5t55 -173.5v-25h-348q4 -74 41.5 -115t94.5 -41q92 0 123 86l78 -42q-17 -55 -72.5 -92.5t-127.5 -37.5q-103 0 -168.5 69t-65.5 186q0 112 64.5 183.5t168.5 71.5zM265 416q-49 0 -83 -30.5 t-44 -83.5h245q-5 52 -36 83t-82 31z" />
<glyph unicode="&#x11c;" horiz-adv-x="686" d="M348 762l-81 -81l-61 20l101 117h81l99 -117l-64 -20zM398 306h227v-306h-66l-13 99q-66 -110 -206 -110q-128 0 -212 90t-84 240q0 149 85 238.5t216 89.5q98 0 170.5 -51.5t97.5 -139.5l-93 -42q-17 67 -63.5 104t-111.5 37q-88 0 -142.5 -62.5t-54.5 -173.5t54 -174.5 t138 -63.5q65 0 112 36.5t63 104.5h-117v84z" />
<glyph unicode="&#x11d;" horiz-adv-x="575" d="M269 622l-81 -81l-61 20l101 117h81l99 -117l-64 -20zM419 485h89v-412q0 -127 -66 -193t-182 -66q-69 0 -125 26t-89 70l58 65q22 -32 61.5 -54t89.5 -22q77 0 117 42t40 124h-8q-46 -72 -150 -72q-95 0 -156.5 69t-61.5 184q0 116 62 185t155 69q105 0 150 -72h13z M268 78q66 0 104.5 43t38.5 126q0 82 -39 125t-105 43q-62 0 -97.5 -44t-35.5 -125t35.5 -124.5t98.5 -43.5z" />
<glyph unicode="&#x11e;" horiz-adv-x="686" d="M348 691q-59 0 -96.5 34t-36.5 86h68q0 -24 18 -40.5t47 -16.5q28 1 45 17.5t17 39.5h69q1 -52 -36.5 -86t-94.5 -34zM398 306h227v-306h-66l-13 99q-66 -110 -206 -110q-128 0 -212 90t-84 240q0 149 85 238.5t216 89.5q98 0 170.5 -51.5t97.5 -139.5l-93 -42 q-17 67 -63.5 104t-111.5 37q-88 0 -142.5 -62.5t-54.5 -173.5t54 -174.5t138 -63.5q65 0 112 36.5t63 104.5h-117v84z" />
<glyph unicode="&#x11f;" horiz-adv-x="575" d="M269 551q-59 0 -96.5 34t-36.5 86h68q0 -24 18 -40.5t47 -16.5q28 1 45 17.5t17 39.5h69q1 -52 -36.5 -86t-94.5 -34zM419 485h89v-412q0 -127 -66 -193t-182 -66q-69 0 -125 26t-89 70l58 65q22 -32 61.5 -54t89.5 -22q77 0 117 42t40 124h-8q-46 -72 -150 -72 q-95 0 -156.5 69t-61.5 184q0 116 62 185t155 69q105 0 150 -72h13zM268 78q66 0 104.5 43t38.5 126q0 82 -39 125t-105 43q-62 0 -97.5 -44t-35.5 -125t35.5 -124.5t98.5 -43.5z" />
<glyph unicode="&#x120;" horiz-adv-x="686" d="M349 696q-26 0 -43.5 16.5t-17.5 42.5t17.5 43.5t43.5 17.5q25 0 42.5 -17.5t17.5 -43.5t-17.5 -42.5t-42.5 -16.5zM398 306h227v-306h-66l-13 99q-66 -110 -206 -110q-128 0 -212 90t-84 240q0 149 85 238.5t216 89.5q98 0 170.5 -51.5t97.5 -139.5l-93 -42 q-17 67 -63.5 104t-111.5 37q-88 0 -142.5 -62.5t-54.5 -173.5t54 -174.5t138 -63.5q65 0 112 36.5t63 104.5h-117v84z" />
<glyph unicode="&#x121;" horiz-adv-x="575" d="M270 556q-26 0 -43.5 16.5t-17.5 42.5t17.5 43.5t43.5 17.5q25 0 42.5 -17.5t17.5 -43.5t-17.5 -42.5t-42.5 -16.5zM419 485h89v-412q0 -127 -66 -193t-182 -66q-69 0 -125 26t-89 70l58 65q22 -32 61.5 -54t89.5 -22q77 0 117 42t40 124h-8q-46 -72 -150 -72 q-95 0 -156.5 69t-61.5 184q0 116 62 185t155 69q105 0 150 -72h13zM268 78q66 0 104.5 43t38.5 126q0 82 -39 125t-105 43q-62 0 -97.5 -44t-35.5 -125t35.5 -124.5t98.5 -43.5z" />
<glyph unicode="&#x122;" horiz-adv-x="686" d="M398 306h227v-306h-66l-13 99q-66 -110 -206 -110q-128 0 -212 90t-84 240q0 149 85 238.5t216 89.5q98 0 170.5 -51.5t97.5 -139.5l-93 -42q-17 67 -63.5 104t-111.5 37q-88 0 -142.5 -62.5t-54.5 -173.5t54 -174.5t138 -63.5q65 0 112 36.5t63 104.5h-117v84zM338 -45 q23 0 39 -17.5t16 -46.5q0 -28 -13.5 -58.5t-27 -49t-43.5 -54.5l-29 22q44 55 61 101h-3q-24 0 -39 15t-15 37q0 21 15.5 36t38.5 15z" />
<glyph unicode="&#x123;" horiz-adv-x="575" d="M268 553q-22 0 -37 14.5t-15 38.5q0 54 71 132l37 -27q-33 -36 -43 -65q16 -3 28 -15t12 -29q0 -21 -15.5 -35t-37.5 -14zM419 485h89v-412q0 -127 -66 -193t-182 -66q-69 0 -125 26t-89 70l58 65q22 -32 61.5 -54t89.5 -22q77 0 117 42t40 124h-8q-46 -72 -150 -72 q-95 0 -156.5 69t-61.5 184q0 116 62 185t155 69q105 0 150 -72h13zM268 78q66 0 104.5 43t38.5 126q0 82 -39 125t-105 43q-62 0 -97.5 -44t-35.5 -125t35.5 -124.5t98.5 -43.5z" />
<glyph unicode="&#x124;" horiz-adv-x="669" d="M336 762l-81 -81l-61 20l101 117h81l99 -117l-64 -20zM488 636h104v-636h-104v266h-307v-266h-104v636h104v-280h307v280z" />
<glyph unicode="&#x125;" horiz-adv-x="554" d="M186 708l-77 77l-73 -77h-80l108 127h91l109 -127h-78zM315 500q77 0 125 -42t48 -135v-323h-97v292q0 64 -24 92t-73 28q-61 0 -99 -44q-31 -36 -31 -110v-258h-97v671l97 13v-260h6q20 33 59 54.5t86 21.5z" />
<glyph unicode="&#x126;" horiz-adv-x="669" d="M648 508v-63h-56v-445h-104v266h-307v-266h-104v445h-56v63h56v128h104v-128h307v128h104v-128h56zM488 356v89h-307v-89h307z" />
<glyph unicode="&#x127;" horiz-adv-x="562" d="M315 500q77 0 125 -42t48 -135v-323h-97v292q0 64 -24 92t-73 28q-61 0 -99 -44q-31 -36 -31 -110v-258h-97v545h-43v72h43v54l97 13v-67h147v-72h-147v-121h6q20 33 59 54.5t86 21.5z" />
<glyph unicode="&#x128;" horiz-adv-x="258" d="M284 793q-18 -115 -92 -115q-29 0 -66.5 28t-56.5 28q-42 0 -53 -53l-50 12q8 54 32 85t60 31q28 0 66 -28.5t57 -28.5q40 0 53 54zM181 636v-636h-104v636h104z" />
<glyph unicode="&#x129;" horiz-adv-x="228" d="M268 653q-18 -115 -92 -115q-29 0 -66.5 28t-56.5 28q-42 0 -53 -53l-50 12q8 54 32 85t60 31q28 0 66 -28.5t57 -28.5q40 0 53 54zM161 0h-97v486h97v-486z" />
<glyph unicode="&#x12a;" horiz-adv-x="258" d="M-3 790h263v-71h-263v71zM181 636v-636h-104v636h104z" />
<glyph unicode="&#x12b;" horiz-adv-x="228" d="M-19 650h263v-71h-263v71zM161 0h-97v486h97v-486z" />
<glyph unicode="&#x12c;" horiz-adv-x="258" d="M64 811q0 -24 18 -40.5t47 -16.5q28 1 45 17.5t17 39.5h69q1 -52 -36.5 -86t-94.5 -34q-59 0 -96.5 34t-36.5 86h68zM181 636v-636h-104v636h104z" />
<glyph unicode="&#x12d;" horiz-adv-x="228" d="M48 671q0 -24 18 -40.5t47 -16.5q28 1 45 17.5t17 39.5h69q1 -52 -36.5 -86t-94.5 -34q-59 0 -96.5 34t-36.5 86h68zM161 0h-97v486h97v-486z" />
<glyph unicode="&#x12e;" horiz-adv-x="258" d="M187 -87l31 -68q-36 -24 -91 -24q-43 0 -72 23t-29 66q0 52 60 90h-9v636h104v-636h-4q-65 -19 -65 -60q0 -19 11 -28.5t27 -9.5q22 0 37 11z" />
<glyph unicode="&#x12f;" horiz-adv-x="228" d="M114 556q-26 0 -43.5 16.5t-17.5 42.5t17.5 43.5t43.5 17.5q25 0 42.5 -17.5t17.5 -43.5t-17.5 -42.5t-42.5 -16.5zM173 -87l31 -68q-36 -24 -91 -24q-43 0 -72 23t-29 66q0 52 60 90h-8v486h97v-481l2 -5q-65 -19 -65 -60q0 -19 11 -28.5t27 -9.5q22 0 37 11z" />
<glyph unicode="&#x130;" horiz-adv-x="258" d="M190 755q0 -26 -17.5 -42.5t-42.5 -16.5q-26 0 -43.5 16.5t-17.5 42.5t17.5 43.5t43.5 17.5q25 0 42.5 -17.5t17.5 -43.5zM181 636v-636h-104v636h104z" />
<glyph unicode="&#x131;" horiz-adv-x="228" d="M161 0h-97v486h97v-486z" />
<glyph unicode="&#x132;" horiz-adv-x="664" d="M181 636v-636h-104v636h104zM488 636h103v-387q0 -132 -53.5 -196t-171.5 -64q-43 0 -76 7l-5 92q34 -8 78 -8q68 0 96.5 42.5t28.5 138.5v375z" />
<glyph unicode="&#x133;" horiz-adv-x="456" d="M114 570q-27 0 -45.5 17.5t-18.5 44.5q0 28 18.5 46.5t45.5 18.5t45 -18.5t18 -46.5q0 -27 -18 -44.5t-45 -17.5zM342 570q-27 0 -45.5 17.5t-18.5 44.5q0 28 18.5 46.5t45.5 18.5t45 -18.5t18 -46.5q0 -27 -18 -44.5t-45 -17.5zM162 486v-486h-97v486h97zM390 485v-237 h1v-251q0 -51 -16 -88t-43 -56.5t-57 -28t-64 -8.5q-37 0 -69 7v90q31 -9 62 -9q90 0 90 101v85h-1v395h97z" />
<glyph unicode="&#x134;" horiz-adv-x="402" d="M318 818l99 -117l-64 -20l-75 81l-81 -81l-61 20l101 117h81zM226 261v375h103v-387q0 -132 -53.5 -196t-171.5 -64q-43 0 -76 7l-5 92q34 -8 78 -8q68 0 96.5 42.5t28.5 138.5z" />
<glyph unicode="&#x135;" horiz-adv-x="209" d="M144 678l99 -117l-64 -20l-75 81l-81 -81l-61 20l101 117h81zM57 485h97v-483q0 -51 -16 -88t-43 -56.5t-57 -28t-64 -8.5q-38 0 -69 7v90q31 -9 62 -9q90 0 90 101v475z" />
<glyph unicode="&#x136;" horiz-adv-x="623" d="M355 371l264 -371h-122l-215 300l-101 -111v-189h-104v636h104v-319l291 319h124zM323 -45q23 0 39 -17.5t16 -46.5q0 -28 -13.5 -58.5t-27 -49t-43.5 -54.5l-29 22q44 55 61 101h-3q-23 0 -38.5 15t-15.5 37q0 21 15.5 36t38.5 15z" />
<glyph unicode="&#x137;" horiz-adv-x="508" d="M293 297l215 -297h-118l-165 231l-63 -62v-169h-97v671l97 13v-404l201 206h121zM268 -40q23 0 39 -17.5t16 -46.5q0 -28 -13.5 -58.5t-27 -49t-43.5 -54.5l-29 22q44 55 61 101h-3q-24 0 -39 15.5t-15 36.5t15.5 36t38.5 15z" />
<glyph unicode="&#x138;" horiz-adv-x="504" d="M390 0l-165 231l-63 -62v-169h-97v486h97v-206l201 206h121l-191 -189l215 -297h-118z" />
<glyph unicode="&#x139;" horiz-adv-x="522" d="M287 796l-144 -121l-53 33l123 127zM181 91h309v-91h-413v636h104v-545z" />
<glyph unicode="&#x13a;" horiz-adv-x="228" d="M174 858l74 -39l-144 -121l-53 33zM162 0h-97v671l97 13v-684z" />
<glyph unicode="&#x13b;" horiz-adv-x="522" d="M181 91h309v-91h-413v636h104v-545zM304 -45q23 0 39 -17.5t16 -46.5q0 -28 -13.5 -58.5t-27 -49t-43.5 -54.5l-29 22q44 55 61 101h-3q-24 0 -39 15t-15 37q0 21 15.5 36t38.5 15z" />
<glyph unicode="&#x13c;" horiz-adv-x="228" d="M162 684v-684h-97v671zM121 -38q23 0 39 -17.5t16 -46.5q0 -28 -13.5 -58.5t-27 -49t-43.5 -54.5l-29 22q44 55 61 101h-3q-23 0 -38.5 15.5t-15.5 36.5t15.5 36t38.5 15z" />
<glyph unicode="&#x13d;" horiz-adv-x="522" d="M400 533q-24 -1 -40.5 13.5t-18.5 37.5q-1 25 14 41.5t40 16.5q25 1 43 -16.5t19 -51.5q1 -74 -71 -163l-33 20q42 54 55 103q-2 -1 -8 -1zM181 91h309v-91h-413v636h104v-545z" />
<glyph unicode="&#x13e;" horiz-adv-x="312" d="M162 0h-97v671l97 13v-684zM225 673l82 11l-11 -215h-60z" />
<glyph unicode="&#x13f;" horiz-adv-x="522" d="M181 91h309v-91h-413v636h104v-545zM384 323q-30 0 -47.5 18.5t-17.5 47.5q0 28 17.5 46t47.5 18t48 -18t18 -46t-18 -47t-48 -19z" />
<glyph unicode="&#x140;" horiz-adv-x="351" d="M162 0h-97v671l97 13v-684zM217 317q0 28 17.5 46t47.5 18t48 -18t18 -46t-18 -47t-48 -19t-47.5 18.5t-17.5 47.5z" />
<glyph unicode="&#x141;" horiz-adv-x="522" d="M181 91h309v-91h-413v246l-28 -9l-23 70l51 16v313h104v-280l173 55l24 -70l-197 -62v-188z" />
<glyph unicode="&#x142;" horiz-adv-x="260" d="M283 341l-121 -39v-302h-97v271l-64 -20l-24 71l88 28v321l97 13v-304l98 31z" />
<glyph unicode="&#x143;" horiz-adv-x="676" d="M474 796l-144 -121l-53 33l123 127zM496 636h103v-636h-93l-329 465l4 -152v-313h-104v636h101l321 -459l-3 144v315z" />
<glyph unicode="&#x144;" horiz-adv-x="554" d="M400 667l-144 -121l-53 33l123 127zM315 500q77 0 125 -42t48 -135v-323h-97v292q0 64 -24 92t-73 28q-61 0 -99 -44q-31 -36 -31 -110v-258h-97v486h90l3 -62h10q20 33 59 54.5t86 21.5z" />
<glyph unicode="&#x145;" horiz-adv-x="676" d="M496 636h103v-636h-93l-329 465l4 -152v-313h-104v636h101l321 -459l-3 144v315zM350 -45q23 0 39 -17.5t16 -46.5q0 -28 -13.5 -58.5t-27 -49t-43.5 -54.5l-29 22q44 55 61 101h-3q-24 0 -39 15t-15 37q0 21 15.5 36t38.5 15z" />
<glyph unicode="&#x146;" horiz-adv-x="554" d="M315 500q77 0 125 -42t48 -135v-323h-97v292q0 64 -24 92t-73 28q-61 0 -99 -44q-31 -36 -31 -110v-258h-97v486h90l3 -62h10q20 33 59 54.5t86 21.5zM277 -38q23 0 39 -17.5t16 -46.5q0 -28 -13.5 -58.5t-27 -49t-43.5 -54.5l-29 22q44 55 61 101h-3q-23 0 -38.5 15.5 t-15.5 36.5t15.5 36t38.5 15z" />
<glyph unicode="&#x147;" horiz-adv-x="676" d="M384 690h-81l-99 117l64 20l75 -81l81 81l61 -20zM496 636h103v-636h-93l-329 465l4 -152v-313h-104v636h101l321 -459l-3 144v315z" />
<glyph unicode="&#x148;" horiz-adv-x="554" d="M310 561h-81l-99 117l64 20l75 -81l81 81l61 -20zM315 500q77 0 125 -42t48 -135v-323h-97v292q0 64 -24 92t-73 28q-61 0 -99 -44q-31 -36 -31 -110v-258h-97v486h90l3 -62h10q20 33 59 54.5t86 21.5z" />
<glyph unicode="&#x14a;" horiz-adv-x="695" d="M496 636h103v-640q0 -97 -53 -138.5t-127 -41.5q-37 0 -69 7v93q27 -8 60 -8q43 0 64 25t22 81l-319 451l4 -152v-313h-104v636h101l318 -455v455z" />
<glyph unicode="&#x14b;" horiz-adv-x="554" d="M315 500q77 0 125 -42t48 -135v-326q0 -51 -16 -88t-43 -56.5t-57 -28t-64 -8.5q-38 0 -69 7v90q31 -9 62 -9q90 0 90 101v287q0 64 -24 92t-73 28q-61 0 -99 -44q-31 -36 -31 -110v-258h-97v486h90l3 -62h10q20 33 59 54.5t86 21.5z" />
<glyph unicode="&#x14c;" horiz-adv-x="678" d="M207 790h263v-71h-263v71zM634 319q0 -150 -84.5 -240t-211.5 -90q-126 0 -210 90t-84 240q0 149 84 238.5t210 89.5q127 0 211.5 -89.5t84.5 -238.5zM529 319q0 112 -51.5 174t-139.5 62q-87 0 -138.5 -62t-51.5 -174t51.5 -175t138.5 -63q88 0 139.5 63t51.5 175z" />
<glyph unicode="&#x14d;" horiz-adv-x="545" d="M140 650h263v-71h-263v71zM509 245q0 -116 -65.5 -185.5t-171.5 -69.5t-171 69.5t-65 185.5t65 185.5t171 69.5t171.5 -69.5t65.5 -185.5zM411 245q0 81 -36.5 125t-102.5 44q-64 0 -101 -44.5t-37 -124.5t37 -124.5t101 -44.5q65 0 102 44.5t37 124.5z" />
<glyph unicode="&#x14e;" horiz-adv-x="678" d="M274 811q0 -24 18 -40.5t47 -16.5q28 1 45 17.5t17 39.5h69q1 -52 -36.5 -86t-94.5 -34q-59 0 -96.5 34t-36.5 86h68zM634 319q0 -150 -84.5 -240t-211.5 -90q-126 0 -210 90t-84 240q0 149 84 238.5t210 89.5q127 0 211.5 -89.5t84.5 -238.5zM529 319q0 112 -51.5 174 t-139.5 62q-87 0 -138.5 -62t-51.5 -174t51.5 -175t138.5 -63q88 0 139.5 63t51.5 175z" />
<glyph unicode="&#x14f;" horiz-adv-x="545" d="M207 671q0 -24 18 -40.5t47 -16.5q28 1 45 17.5t17 39.5h69q1 -52 -36.5 -86t-94.5 -34q-59 0 -96.5 34t-36.5 86h68zM509 245q0 -116 -65.5 -185.5t-171.5 -69.5t-171 69.5t-65 185.5t65 185.5t171 69.5t171.5 -69.5t65.5 -185.5zM411 245q0 81 -36.5 125t-102.5 44 q-64 0 -101 -44.5t-37 -124.5t37 -124.5t101 -44.5q65 0 102 44.5t37 124.5z" />
<glyph unicode="&#x150;" horiz-adv-x="678" d="M297 823h102l-116 -138h-78zM468 823h101l-116 -138h-78zM634 319q0 -150 -84.5 -240t-211.5 -90q-126 0 -210 90t-84 240q0 149 84 238.5t210 89.5q127 0 211.5 -89.5t84.5 -238.5zM529 319q0 112 -51.5 174t-139.5 62q-87 0 -138.5 -62t-51.5 -174t51.5 -175t138.5 -63 q88 0 139.5 63t51.5 175z" />
<glyph unicode="&#x151;" horiz-adv-x="545" d="M230 683h102l-116 -138h-78zM401 683h101l-116 -138h-78zM509 245q0 -116 -65.5 -185.5t-171.5 -69.5t-171 69.5t-65 185.5t65 185.5t171 69.5t171.5 -69.5t65.5 -185.5zM411 245q0 81 -36.5 125t-102.5 44q-64 0 -101 -44.5t-37 -124.5t37 -124.5t101 -44.5 q65 0 102 44.5t37 124.5z" />
<glyph unicode="&#x152;" horiz-adv-x="1016" d="M970 546h-327v-181h288v-91h-288v-183h327v-91h-431v69q-69 -80 -194 -80q-126 0 -210.5 90t-84.5 240q0 149 84.5 238.5t210.5 89.5q125 0 194 -80v69h431v-90zM345 81q84 0 137.5 63.5t53.5 174.5t-53.5 173.5t-137.5 62.5q-83 0 -136.5 -62.5t-53.5 -173.5 t53.5 -174.5t136.5 -63.5z" />
<glyph unicode="&#x153;" horiz-adv-x="903" d="M651 500q102 0 158 -66.5t54 -176.5v-25h-348q4 -73 41.5 -114.5t95.5 -41.5q44 0 78 21.5t48 64.5l82 -36q-17 -58 -75.5 -97t-131.5 -39q-119 0 -182 102h-16q-62 -102 -183 -102q-105 0 -170.5 70.5t-65.5 184.5t65.5 184.5t170.5 70.5q61 0 108.5 -28.5t76.5 -77.5 h13q63 106 181 106zM648 416q-48 0 -83.5 -30.5t-45.5 -83.5h244q-5 52 -35.5 83t-79.5 31zM272 77q64 0 102 45t38 123q0 79 -38 124t-102 45t-102 -45t-38 -124q0 -78 38 -123t102 -45z" />
<glyph unicode="&#x154;" horiz-adv-x="624" d="M423 796l-144 -121l-53 33l123 127zM569 0h-117l-146 237h-125v-238h-104v637h237q116 0 180.5 -52.5t64.5 -148.5q0 -72 -38 -119.5t-109 -66.5l10 -15zM181 545v-217h133q141 0 141 107q0 110 -141 110h-133z" />
<glyph unicode="&#x155;" horiz-adv-x="337" d="M322 656l-144 -121l-53 33l123 127zM298 499q21 0 30 -4l-7 -94q-14 6 -35 6q-53 0 -87 -35t-34 -96v-276h-98v485h91l4 -70h7q19 39 54 61.5t75 22.5z" />
<glyph unicode="&#x156;" horiz-adv-x="624" d="M422 234l147 -234h-117l-146 237h-125v-238h-104v637h237q116 0 180.5 -52.5t64.5 -148.5q0 -72 -38 -119.5t-109 -66.5zM181 545v-217h133q141 0 141 107q0 110 -141 110h-133zM305 -45q23 0 39 -17.5t16 -46.5q0 -28 -13.5 -58.5t-27 -49t-43.5 -54.5l-29 22 q44 55 61 101h-3q-23 0 -38.5 15t-15.5 37q0 21 15.5 36t38.5 15z" />
<glyph unicode="&#x157;" horiz-adv-x="337" d="M298 499q21 0 30 -4l-7 -94q-14 6 -35 6q-53 0 -87 -35t-34 -96v-276h-98v485h91l4 -70h7q19 39 54 61.5t75 22.5zM121 -38q23 0 39 -17.5t16 -46.5q0 -28 -13.5 -58.5t-27 -49t-43.5 -54.5l-29 22q44 55 61 101h-3q-23 0 -38.5 15.5t-15.5 36.5t15.5 36t38.5 15z" />
<glyph unicode="&#x158;" horiz-adv-x="624" d="M333 690h-81l-99 117l64 20l75 -81l81 81l61 -20zM569 0h-117l-146 237h-125v-238h-104v637h237q116 0 180.5 -52.5t64.5 -148.5q0 -72 -38 -119.5t-109 -66.5l10 -15zM181 545v-217h133q141 0 141 107q0 110 -141 110h-133z" />
<glyph unicode="&#x159;" horiz-adv-x="337" d="M232 550h-81l-99 117l64 20l75 -81l81 81l61 -20zM169 415q19 39 54 61.5t75 22.5q21 0 30 -4l-7 -94q-14 6 -35 6q-53 0 -87 -35t-34 -96v-276h-98v485h91l4 -70h7z" />
<glyph unicode="&#x15a;" horiz-adv-x="524" d="M320 835l74 -39l-144 -121l-53 33zM391 469q-12 37 -47 60.5t-82 23.5q-49 0 -75 -21.5t-26 -54.5q0 -40 30.5 -61.5t102.5 -45.5q101 -35 149.5 -77t48.5 -111q0 -88 -63.5 -141.5t-161.5 -53.5q-171 0 -238 144l86 53q44 -104 155 -104q53 0 86 24t33 66 q0 40 -33.5 62.5t-118.5 51.5q-95 32 -137.5 76t-42.5 114q0 72 59 122t150 50q80 0 136 -36t79 -94z" />
<glyph unicode="&#x15b;" horiz-adv-x="455" d="M285 695l74 -39l-144 -121l-53 33zM88 151q19 -34 56 -57t85 -23q41 0 65.5 16.5t24.5 44.5q0 30 -24.5 47t-78.5 31q-80 20 -122.5 52t-42.5 95q0 65 49.5 104.5t128.5 39.5q114 0 178 -79l-52 -67q-20 26 -55 45t-73 19t-59.5 -15.5t-21.5 -39.5q0 -28 26 -42.5 t81 -29.5q77 -20 119.5 -53t42.5 -95q0 -70 -52 -112t-136 -42q-69 0 -118 28t-76 71z" />
<glyph unicode="&#x15c;" horiz-adv-x="524" d="M268 762l-81 -81l-61 20l101 117h81l99 -117l-64 -20zM294 370q101 -35 149.5 -77t48.5 -111q0 -88 -63.5 -141.5t-161.5 -53.5q-171 0 -238 144l86 53q44 -104 155 -104q53 0 86 24t33 66q0 40 -33.5 62.5t-118.5 51.5q-95 32 -137.5 76t-42.5 114q0 72 59 122t150 50 q80 0 136 -36t79 -94l-90 -47q-12 37 -47 60.5t-82 23.5q-49 0 -75 -21.5t-26 -54.5q0 -40 30.5 -61.5t102.5 -45.5z" />
<glyph unicode="&#x15d;" horiz-adv-x="455" d="M233 622l-81 -81l-61 20l101 117h81l99 -117l-64 -20zM253 292q77 -20 119.5 -53t42.5 -95q0 -70 -52 -112t-136 -42q-69 0 -118 28t-76 71l55 62q19 -34 56 -57t85 -23q41 0 65.5 16.5t24.5 44.5q0 30 -24.5 47t-78.5 31q-80 20 -122.5 52t-42.5 95q0 65 49.5 104.5 t128.5 39.5q114 0 178 -79l-52 -67q-20 26 -55 45t-73 19t-59.5 -15.5t-21.5 -39.5q0 -28 26 -42.5t81 -29.5z" />
<glyph unicode="&#x15e;" horiz-adv-x="524" d="M492 182q0 -77 -50 -128.5t-130 -63.5l-99 -194l-83 50l101 143q-143 15 -202 142l86 53q44 -104 155 -104q53 0 86 24t33 66q0 40 -33.5 62.5t-118.5 51.5q-95 32 -137.5 76t-42.5 114q0 72 59 122t150 50q80 0 136 -36t79 -94l-90 -47q-12 37 -47 60.5t-82 23.5 q-49 0 -75 -21.5t-26 -54.5q0 -40 30.5 -61.5t102.5 -45.5q101 -35 149.5 -77t48.5 -111z" />
<glyph unicode="&#x15f;" horiz-adv-x="455" d="M415 144q0 -61 -39.5 -100.5t-105.5 -50.5l-99 -193l-83 50l101 143q-103 13 -156 96l55 62q19 -34 56 -57t85 -23q41 0 65.5 16.5t24.5 44.5q0 30 -24.5 47t-78.5 31q-80 20 -122.5 52t-42.5 95q0 65 49.5 104.5t128.5 39.5q114 0 178 -79l-52 -67q-20 26 -55 45t-73 19 t-59.5 -15.5t-21.5 -39.5q0 -28 26 -42.5t81 -29.5q77 -20 119.5 -53t42.5 -95z" />
<glyph unicode="&#x160;" horiz-adv-x="524" d="M304 690h-81l-99 117l64 20l75 -81l81 81l61 -20zM294 370q101 -35 149.5 -77t48.5 -111q0 -88 -63.5 -141.5t-161.5 -53.5q-171 0 -238 144l86 53q44 -104 155 -104q53 0 86 24t33 66q0 40 -33.5 62.5t-118.5 51.5q-95 32 -137.5 76t-42.5 114q0 72 59 122t150 50 q80 0 136 -36t79 -94l-90 -47q-12 37 -47 60.5t-82 23.5q-49 0 -75 -21.5t-26 -54.5q0 -40 30.5 -61.5t102.5 -45.5z" />
<glyph unicode="&#x161;" horiz-adv-x="455" d="M269 550h-81l-99 117l64 20l75 -81l81 81l61 -20zM253 292q77 -20 119.5 -53t42.5 -95q0 -70 -52 -112t-136 -42q-69 0 -118 28t-76 71l55 62q19 -34 56 -57t85 -23q41 0 65.5 16.5t24.5 44.5q0 30 -24.5 47t-78.5 31q-80 20 -122.5 52t-42.5 95q0 65 49.5 104.5 t128.5 39.5q114 0 178 -79l-52 -67q-20 26 -55 45t-73 19t-59.5 -15.5t-21.5 -39.5q0 -28 26 -42.5t81 -29.5z" />
<glyph unicode="&#x162;" horiz-adv-x="547" d="M527 636v-91h-201v-545h-11l-104 -204l-83 50l109 154h-15v545h-202v91h507z" />
<glyph unicode="&#x163;" horiz-adv-x="353" d="M268 82q31 0 62 9v-90q-32 -7 -69 -7h-8l-98 -191l-83 50l109 154q-100 38 -100 168v231h-63v79l64 1v120l96 12v-132h131v-79h-131v-224q0 -101 90 -101z" />
<glyph unicode="&#x164;" horiz-adv-x="547" d="M310 690h-81l-99 117l64 20l75 -81l81 81l61 -20zM527 636v-91h-201v-545h-104v545h-202v91h507z" />
<glyph unicode="&#x165;" horiz-adv-x="353" d="M308 532h-61l-11 198l83 11zM268 82q31 0 62 9v-90q-32 -7 -69 -7q-34 0 -64 8.5t-57 28t-43 56.5t-16 88v231h-63v79l64 1v120l96 12v-132h131v-79h-131v-224q0 -101 90 -101z" />
<glyph unicode="&#x166;" horiz-adv-x="547" d="M527 545h-201v-184h97v-89h-97v-272h-104v272h-97v89h97v184h-202v91h507v-91z" />
<glyph unicode="&#x167;" horiz-adv-x="353" d="M268 82q31 0 62 9v-90q-32 -7 -69 -7q-34 0 -64 8.5t-57 28t-43 56.5t-16 88v94h-44v68h44v69h-63v79l64 1v120l96 12v-132h131v-79h-131v-70h116v-68h-116v-86q0 -101 90 -101z" />
<glyph unicode="&#x168;" horiz-adv-x="650" d="M480 793q-18 -115 -92 -115q-29 0 -66.5 28t-56.5 28q-42 0 -53 -53l-50 12q8 54 32 85t60 31q28 0 66 -28.5t57 -28.5q40 0 53 54zM175 255q0 -92 34.5 -136.5t114.5 -44.5q81 0 115.5 44.5t34.5 136.5v381h104v-382q0 -131 -64 -201.5t-190 -70.5t-189 70.5t-63 201.5 v382h104z" />
<glyph unicode="&#x169;" horiz-adv-x="554" d="M218 594q-42 0 -53 -53l-50 12q8 54 32 85t60 31q28 0 65.5 -28.5t57.5 -28.5q40 0 53 54l50 -13q-18 -115 -92 -115q-29 0 -66.5 28t-56.5 28zM390 486h97v-486h-90l-3 62h-10q-20 -33 -59 -54.5t-86 -21.5q-77 0 -125 42t-48 135v323h97v-292q0 -64 24 -92t73 -28 q61 0 99 44q31 36 31 110v258z" />
<glyph unicode="&#x16a;" horiz-adv-x="650" d="M193 790h263v-71h-263v71zM175 255q0 -92 34.5 -136.5t114.5 -44.5q81 0 115.5 44.5t34.5 136.5v381h104v-382q0 -131 -64 -201.5t-190 -70.5t-189 70.5t-63 201.5v382h104z" />
<glyph unicode="&#x16b;" horiz-adv-x="554" d="M409 650v-71h-263v71h263zM390 486h97v-486h-90l-3 62h-10q-20 -33 -59 -54.5t-86 -21.5q-77 0 -125 42t-48 135v323h97v-292q0 -64 24 -92t73 -28q61 0 99 44q31 36 31 110v258z" />
<glyph unicode="&#x16c;" horiz-adv-x="650" d="M260 811q0 -24 18 -40.5t47 -16.5q28 1 45 17.5t17 39.5h69q1 -52 -36.5 -86t-94.5 -34q-59 0 -96.5 34t-36.5 86h68zM175 255q0 -92 34.5 -136.5t114.5 -44.5q81 0 115.5 44.5t34.5 136.5v381h104v-382q0 -131 -64 -201.5t-190 -70.5t-189 70.5t-63 201.5v382h104z" />
<glyph unicode="&#x16d;" horiz-adv-x="554" d="M278 551q-59 0 -96.5 34t-36.5 86h68q0 -24 18 -40.5t47 -16.5q28 1 45 17.5t17 39.5h69q1 -52 -36.5 -86t-94.5 -34zM390 486h97v-486h-90l-3 62h-10q-20 -33 -59 -54.5t-86 -21.5q-77 0 -125 42t-48 135v323h97v-292q0 -64 24 -92t73 -28q61 0 99 44q31 36 31 110v258z " />
<glyph unicode="&#x16e;" horiz-adv-x="650" d="M325 681q-35 0 -56.5 21t-21.5 52t21.5 52t56.5 21t57 -21t22 -52t-22 -52t-57 -21zM325 729q13 0 21 7.5t8 17.5t-8 17.5t-21 7.5q-12 0 -20 -7.5t-8 -17.5t8 -17.5t20 -7.5zM175 255q0 -92 34.5 -136.5t114.5 -44.5q81 0 115.5 44.5t34.5 136.5v381h104v-382 q0 -131 -64 -201.5t-190 -70.5t-189 70.5t-63 201.5v382h104z" />
<glyph unicode="&#x16f;" horiz-adv-x="554" d="M278 541q-35 0 -56.5 21t-21.5 52t21.5 52t56.5 21t57 -21t22 -52t-22 -52t-57 -21zM278 639q-12 0 -20 -7.5t-8 -17.5t8 -17.5t20 -7.5q13 0 21 7.5t8 17.5t-8 17.5t-21 7.5zM390 486h97v-486h-90l-3 62h-10q-20 -33 -59 -54.5t-86 -21.5q-77 0 -125 42t-48 135v323h97 v-292q0 -64 24 -92t73 -28q61 0 99 44q31 36 31 110v258z" />
<glyph unicode="&#x170;" horiz-adv-x="650" d="M283 823h102l-116 -138h-78zM454 823h101l-116 -138h-78zM175 255q0 -92 34.5 -136.5t114.5 -44.5q81 0 115.5 44.5t34.5 136.5v381h104v-382q0 -131 -64 -201.5t-190 -70.5t-189 70.5t-63 201.5v382h104z" />
<glyph unicode="&#x171;" horiz-adv-x="554" d="M338 683l-116 -138h-78l92 138h102zM392 545h-78l93 138h101zM390 228v258h97v-486h-90l-3 62h-10q-20 -33 -59 -54.5t-86 -21.5q-77 0 -125 42t-48 135v323h97v-292q0 -64 24 -92t73 -28q61 0 99 44q31 36 31 110z" />
<glyph unicode="&#x172;" horiz-adv-x="650" d="M474 636h104v-382q0 -225 -179 -264q-49 -21 -49 -55q0 -19 11 -28.5t27 -9.5q22 0 37 11l31 -68q-36 -24 -91 -24q-43 0 -72 23t-29 66q0 44 42 77q-117 5 -175.5 75t-58.5 197v382h104l-1 -381q0 -92 34.5 -136.5t114.5 -44.5q81 0 115.5 44.5t34.5 136.5v381z" />
<glyph unicode="&#x173;" horiz-adv-x="554" d="M493 -87l31 -68q-36 -24 -91 -24q-43 0 -72 23t-29 66q0 54 65 93l-3 59h-10q-20 -33 -59 -54.5t-86 -21.5q-77 0 -125 42t-48 135v323h97v-292q0 -64 24 -92t73 -28q61 0 99 44q31 36 31 110v258h97v-486h-4q-65 -19 -65 -60q0 -19 11 -28.5t27 -9.5q22 0 37 11z" />
<glyph unicode="&#x174;" horiz-adv-x="937" d="M467 762l-81 -81l-61 20l101 117h81l99 -117l-64 -20zM807 636h113l-187 -636h-110l-100 305l-58 192l-56 -192l-95 -305h-110l-187 636h114l76 -270l57 -212l62 212l88 270h107l90 -270l63 -212l57 212z" />
<glyph unicode="&#x175;" horiz-adv-x="764" d="M385 622l-81 -81l-61 20l101 117h81l99 -117l-64 -20zM646 486h100l-169 -486h-88l-107 365l-105 -365h-88l-171 486h104l112 -350l98 350h102l99 -349z" />
<glyph unicode="&#x176;" horiz-adv-x="555" d="M278 762l-81 -81l-61 20l101 117h81l99 -117l-64 -20zM544 636l-215 -375v-261h-103v261l-214 375h118l96 -169l55 -105l55 105l96 169h112z" />
<glyph unicode="&#x177;" horiz-adv-x="512" d="M260 622l-81 -81l-61 20l101 117h81l99 -117l-64 -20zM494 486l-255 -667h-99l65 177l-187 490h112l130 -383l132 383h102z" />
<glyph unicode="&#x178;" horiz-adv-x="555" d="M189 702q-25 0 -40.5 15.5t-15.5 40.5q0 23 15.5 38.5t40.5 15.5t40.5 -15.5t15.5 -38.5q0 -25 -15.5 -40.5t-40.5 -15.5zM368 702q-25 0 -40 15.5t-15 40.5q0 24 15.5 39t39.5 15q25 0 40.5 -15t15.5 -39q0 -25 -15.5 -40.5t-40.5 -15.5zM544 636l-215 -375v-261h-103 v261l-214 375h118l96 -169l55 -105l55 105l96 169h112z" />
<glyph unicode="&#x179;" horiz-adv-x="564" d="M409 796l-144 -121l-53 33l123 127zM517 547l-300 -394l-51 -63h351v-90h-470v88l298 391l55 67h-353v90h470v-89z" />
<glyph unicode="&#x17a;" horiz-adv-x="440" d="M283 695l74 -39l-144 -121l-53 33zM407 0h-377v58l261 349h-249v79h364v-60l-256 -346h257v-80z" />
<glyph unicode="&#x17b;" horiz-adv-x="564" d="M284 696q-26 0 -43.5 16.5t-17.5 42.5t17.5 43.5t43.5 17.5q25 0 42.5 -17.5t17.5 -43.5t-17.5 -42.5t-42.5 -16.5zM517 547l-300 -394l-51 -63h351v-90h-470v88l298 391l55 67h-353v90h470v-89z" />
<glyph unicode="&#x17c;" horiz-adv-x="440" d="M292 615q0 -26 -17.5 -42.5t-42.5 -16.5q-26 0 -43.5 16.5t-17.5 42.5t17.5 43.5t43.5 17.5q25 0 42.5 -17.5t17.5 -43.5zM407 0h-377v58l261 349h-249v79h364v-60l-256 -346h257v-80z" />
<glyph unicode="&#x17d;" horiz-adv-x="564" d="M319 690h-81l-99 117l64 20l75 -81l81 81l61 -20zM517 547l-300 -394l-51 -63h351v-90h-470v88l298 391l55 67h-353v90h470v-89z" />
<glyph unicode="&#x17e;" horiz-adv-x="440" d="M267 550h-81l-99 117l64 20l75 -81l81 81l61 -20zM150 80h257v-80h-377v58l261 349h-249v79h364v-60z" />
<glyph unicode="&#x18f;" horiz-adv-x="637" d="M308 648q130 0 208 -89t78 -243q0 -143 -77 -236t-208 -93q-130 0 -199.5 90t-65.5 227v23h448q-2 107 -51.5 168t-130.5 61q-128 0 -169 -114l-83 39q21 71 89.5 119t160.5 48zM312 80q70 0 115 42.5t59 117.5h-338q5 -74 47.5 -117t116.5 -43z" />
<glyph unicode="&#x192;" horiz-adv-x="341" d="M-94 -103q19 -8 47 -8q83 0 96 98l59 420h-74l11 79h73l13 86q13 86 62 131.5t125 45.5q20 0 50 -4v-95q-16 9 -46 9q-82 0 -96 -98l-10 -75h107l-10 -79h-108l-60 -432q-13 -86 -62 -131t-125 -45q-27 0 -52 5v93z" />
<glyph unicode="&#x19d;" horiz-adv-x="695" d="M496 636h103v-636h-93l-329 465l4 -152v-317q0 -97 -53.5 -138.5t-127.5 -41.5q-38 0 -69 7v93q27 -8 60 -8q45 0 65.5 25.5t20.5 83.5v619h101l321 -459l-3 144v315z" />
<glyph unicode="&#x1d5;" horiz-adv-x="650" d="M193 948h263v-71h-263v71zM236 702q-25 0 -40.5 15.5t-15.5 40.5q0 23 15.5 38.5t40.5 15.5t40.5 -15.5t15.5 -38.5q0 -25 -15.5 -40.5t-40.5 -15.5zM415 702q-25 0 -40 15.5t-15 40.5q0 24 15 39t40 15t40.5 -15t15.5 -39q0 -25 -15.5 -40.5t-40.5 -15.5zM175 255 q0 -92 34.5 -136.5t114.5 -44.5q81 0 115.5 44.5t34.5 136.5v381h104v-382q0 -131 -64 -201.5t-190 -70.5t-189 70.5t-63 201.5v382h104z" />
<glyph unicode="&#x1d6;" horiz-adv-x="554" d="M409 808v-71h-263v71h263zM189 562q-25 0 -40.5 15.5t-15.5 40.5q0 23 15.5 38.5t40.5 15.5t40.5 -15.5t15.5 -38.5q0 -25 -15.5 -40.5t-40.5 -15.5zM368 672q25 0 40.5 -15t15.5 -39q0 -25 -15.5 -40.5t-40.5 -15.5t-40 15.5t-15 40.5q0 24 15.5 39t39.5 15zM390 486h97 v-486h-90l-3 62h-10q-20 -33 -59 -54.5t-86 -21.5q-77 0 -125 42t-48 135v323h97v-292q0 -64 24 -92t73 -28q61 0 99 44q31 36 31 110v258z" />
<glyph unicode="&#x1d7;" horiz-adv-x="650" d="M377 993l74 -39l-144 -121l-53 33zM236 702q-25 0 -40.5 15.5t-15.5 40.5q0 23 15.5 38.5t40.5 15.5t40.5 -15.5t15.5 -38.5q0 -25 -15.5 -40.5t-40.5 -15.5zM415 702q-25 0 -40 15.5t-15 40.5q0 24 15 39t40 15t40.5 -15t15.5 -39q0 -25 -15.5 -40.5t-40.5 -15.5z M175 255q0 -92 34.5 -136.5t114.5 -44.5q81 0 115.5 44.5t34.5 136.5v381h104v-382q0 -131 -64 -201.5t-190 -70.5t-189 70.5t-63 201.5v382h104z" />
<glyph unicode="&#x1d8;" horiz-adv-x="554" d="M404 814l-144 -121l-53 33l123 127zM189 562q-25 0 -40.5 15.5t-15.5 40.5q0 23 15.5 38.5t40.5 15.5t40.5 -15.5t15.5 -38.5q0 -25 -15.5 -40.5t-40.5 -15.5zM313 618q0 24 15.5 39t39.5 15q25 0 40.5 -15t15.5 -39q0 -25 -15.5 -40.5t-40.5 -15.5t-40 15.5t-15 40.5z M390 486h97v-486h-90l-3 62h-10q-20 -33 -59 -54.5t-86 -21.5q-77 0 -125 42t-48 135v323h97v-292q0 -64 24 -92t73 -28q61 0 99 44q31 36 31 110v258z" />
<glyph unicode="&#x1d9;" horiz-adv-x="650" d="M361 848h-81l-99 117l64 20l75 -81l81 81l61 -20zM236 702q-25 0 -40.5 15.5t-15.5 40.5q0 23 15.5 38.5t40.5 15.5t40.5 -15.5t15.5 -38.5q0 -25 -15.5 -40.5t-40.5 -15.5zM415 812q25 0 40.5 -15t15.5 -39q0 -25 -15.5 -40.5t-40.5 -15.5t-40 15.5t-15 40.5q0 24 15 39 t40 15zM474 636h104v-382q0 -131 -64 -201.5t-190 -70.5t-189 70.5t-63 201.5v382h104l-1 -381q0 -92 34.5 -136.5t114.5 -44.5q81 0 115.5 44.5t34.5 136.5v381z" />
<glyph unicode="&#x1da;" horiz-adv-x="554" d="M314 708h-81l-99 117l64 20l75 -81l81 81l61 -20zM189 562q-25 0 -40.5 15.5t-15.5 40.5q0 23 15.5 38.5t40.5 15.5t40.5 -15.5t15.5 -38.5q0 -25 -15.5 -40.5t-40.5 -15.5zM368 672q25 0 40.5 -15t15.5 -39q0 -25 -15.5 -40.5t-40.5 -15.5t-40 15.5t-15 40.5 q0 24 15.5 39t39.5 15zM390 486h97v-486h-90l-3 62h-10q-20 -33 -59 -54.5t-86 -21.5q-77 0 -125 42t-48 135v323h97v-292q0 -64 24 -92t73 -28q61 0 99 44q31 36 31 110v258z" />
<glyph unicode="&#x1db;" horiz-adv-x="650" d="M275 993l123 -127l-53 -33l-144 121zM236 702q-25 0 -40.5 15.5t-15.5 40.5q0 23 15.5 38.5t40.5 15.5t40.5 -15.5t15.5 -38.5q0 -25 -15.5 -40.5t-40.5 -15.5zM415 702q-25 0 -40 15.5t-15 40.5q0 24 15 39t40 15t40.5 -15t15.5 -39q0 -25 -15.5 -40.5t-40.5 -15.5z M175 255q0 -92 34.5 -136.5t114.5 -44.5q81 0 115.5 44.5t34.5 136.5v381h104v-382q0 -131 -64 -201.5t-190 -70.5t-189 70.5t-63 201.5v382h104z" />
<glyph unicode="&#x1dc;" horiz-adv-x="554" d="M351 726l-53 -33l-144 121l74 39zM189 562q-25 0 -40.5 15.5t-15.5 40.5q0 23 15.5 38.5t40.5 15.5t40.5 -15.5t15.5 -38.5q0 -25 -15.5 -40.5t-40.5 -15.5zM313 618q0 24 15.5 39t39.5 15q25 0 40.5 -15t15.5 -39q0 -25 -15.5 -40.5t-40.5 -15.5t-40 15.5t-15 40.5z M390 486h97v-486h-90l-3 62h-10q-20 -33 -59 -54.5t-86 -21.5q-77 0 -125 42t-48 135v323h97v-292q0 -64 24 -92t73 -28q61 0 99 44q31 36 31 110v258z" />
<glyph unicode="&#x1e6;" horiz-adv-x="686" d="M384 690h-81l-99 117l64 20l75 -81l81 81l61 -20zM398 306h227v-306h-66l-13 99q-66 -110 -206 -110q-128 0 -212 90t-84 240q0 149 85 238.5t216 89.5q98 0 170.5 -51.5t97.5 -139.5l-93 -42q-17 67 -63.5 104t-111.5 37q-88 0 -142.5 -62.5t-54.5 -173.5t54 -174.5 t138 -63.5q65 0 112 36.5t63 104.5h-117v84z" />
<glyph unicode="&#x1e7;" horiz-adv-x="575" d="M305 550h-81l-99 117l64 20l75 -81l81 81l61 -20zM419 485h89v-412q0 -127 -66 -193t-182 -66q-69 0 -125 26t-89 70l58 65q22 -32 61.5 -54t89.5 -22q77 0 117 42t40 124h-8q-46 -72 -150 -72q-95 0 -156.5 69t-61.5 184q0 116 62 185t155 69q105 0 150 -72h13zM268 78 q66 0 104.5 43t38.5 126q0 82 -39 125t-105 43q-62 0 -97.5 -44t-35.5 -125t35.5 -124.5t98.5 -43.5z" />
<glyph unicode="&#x1ea;" horiz-adv-x="678" d="M634 319q0 -130 -64.5 -216t-168.5 -108q-65 -19 -65 -60q0 -19 11 -28.5t27 -9.5q22 0 37 11l31 -68q-36 -24 -91 -24q-43 0 -72 23t-29 66q0 48 54 86q-114 12 -187 100.5t-73 227.5q0 149 84 238.5t210 89.5q127 0 211.5 -89.5t84.5 -238.5zM338 81q88 0 139.5 63 t51.5 175t-51.5 174t-139.5 62q-87 0 -138.5 -62t-51.5 -174t51.5 -175t138.5 -63z" />
<glyph unicode="&#x1eb;" horiz-adv-x="545" d="M509 245q0 -93 -44 -158t-119 -87q-65 -19 -65 -60q0 -19 11 -28.5t27 -9.5q22 0 37 11l31 -68q-36 -24 -91 -24q-43 0 -72 23t-29 66q0 45 48 82q-94 10 -150.5 78t-56.5 175q0 116 65 185.5t171 69.5t171.5 -69.5t65.5 -185.5zM272 76q65 0 102 44.5t37 124.5 q0 81 -36.5 125t-102.5 44q-64 0 -101 -44.5t-37 -124.5t37 -124.5t101 -44.5z" />
<glyph unicode="&#x1fa;" horiz-adv-x="627" d="M440 967l-144 -121l-53 33l123 127zM314 681q-35 0 -56.5 21t-21.5 52t21.5 52t56.5 21t57 -21t22 -52t-22 -52t-57 -21zM314 779q-12 0 -20 -7.5t-8 -17.5t8 -17.5t20 -7.5q13 0 21 7.5t8 17.5t-8 17.5t-21 7.5zM491 0l-51 145h-261l-51 -145h-110l241 636h111l238 -636 h-117zM207 225h205l-102 291z" />
<glyph unicode="&#x1fb;" horiz-adv-x="518" d="M375 826l-144 -121l-53 33l123 127zM249 540q-35 0 -56.5 21t-21.5 52t21.5 52t56.5 21t57 -21t22 -52t-22 -52t-57 -21zM249 638q-12 0 -20 -7.5t-8 -17.5t8 -17.5t20 -7.5q13 0 21 7.5t8 17.5t-8 17.5t-21 7.5zM440 69h58v-70h-133l-5 71h-5q-20 -35 -62.5 -58 t-96.5 -23q-71 0 -115.5 37.5t-44.5 104.5q0 123 179 147l129 18q-2 61 -25 90.5t-73 29.5q-83 0 -109 -77l-81 32q21 60 72 94.5t124 34.5q85 0 136.5 -44t51.5 -146v-241zM213 67q51 0 91 33t40 91v35l-104 -13q-58 -7 -82 -25t-24 -54q0 -31 21 -49t58 -18z" />
<glyph unicode="&#x1fc;" horiz-adv-x="888" d="M617 793l-144 -121l-53 33l123 127zM842 546h-327v-181h288v-91h-288v-183h327v-91h-431v145h-208l-79 -145h-106l353 636h471v-90zM244 222h167v309l-77 -144z" />
<glyph unicode="&#x1fd;" horiz-adv-x="845" d="M554 650l-144 -121l-53 33l123 127zM594 500q102 0 158 -66.5t53 -176.5v-25h-348q4 -73 41.5 -114.5t95.5 -41.5q96 0 125 85l83 -38q-18 -56 -76 -94.5t-131 -38.5q-131 0 -188 112h-12q-23 -47 -72 -80t-128 -33q-70 0 -114.5 37.5t-44.5 102.5q0 125 179 149l131 18 q-2 64 -24.5 92.5t-75.5 28.5q-83 0 -113 -78l-80 32q22 59 72.5 93.5t124.5 34.5q122 0 159 -96h7q58 97 178 97zM590 416q-48 0 -83 -30.5t-45 -83.5h243q-5 52 -35 83t-80 31zM214 67q47 0 89.5 32.5t42.5 83.5v44l-105 -14q-58 -7 -82.5 -25t-24.5 -54q0 -30 19.5 -48.5 t60.5 -18.5z" />
<glyph unicode="&#x1fe;" horiz-adv-x="678" d="M465 796l-144 -121l-53 33l123 127zM563 541q71 -87 71 -222q0 -150 -84.5 -240t-211.5 -90q-108 0 -185 66l-47 -56l-52 43l53 63q-63 85 -63 214q0 149 84 238.5t210 89.5q102 0 177 -58l46 54l52 -43zM148 319q0 -79 26 -134l280 331q-47 39 -116 39q-87 0 -138.5 -62 t-51.5 -174zM338 81q88 0 139.5 63t51.5 175q0 88 -32 144l-282 -335q49 -47 123 -47z" />
<glyph unicode="&#x1ff;" horiz-adv-x="600" d="M398 656l-144 -121l-53 33l123 127zM456 415q53 -67 53 -170q0 -116 -65.5 -185.5t-171.5 -69.5q-80 0 -139 42l-28 -33l-52 43l32 38q-49 66 -49 165q0 116 65 185.5t171 69.5q78 0 134 -38l30 35l52 -44zM134 245q0 -53 16 -88l198 236q-30 21 -76 21q-64 0 -101 -44.5 t-37 -124.5zM272 76q65 0 102 44.5t37 124.5q0 57 -18 95l-202 -239q34 -25 81 -25z" />
<glyph unicode="&#x218;" horiz-adv-x="524" d="M294 370q101 -35 149.5 -77t48.5 -111q0 -88 -63.5 -141.5t-161.5 -53.5q-171 0 -238 144l86 53q44 -104 155 -104q53 0 86 24t33 66q0 40 -33.5 62.5t-118.5 51.5q-95 32 -137.5 76t-42.5 114q0 72 59 122t150 50q80 0 136 -36t79 -94l-90 -47q-12 37 -47 60.5t-82 23.5 q-49 0 -75 -21.5t-26 -54.5q0 -40 30.5 -61.5t102.5 -45.5zM275 -45q23 0 39 -17.5t16 -46.5q0 -28 -13.5 -58.5t-27 -49t-43.5 -54.5l-29 22q44 55 61 101h-3q-23 0 -38.5 15t-15.5 37q0 21 15.5 36t38.5 15z" />
<glyph unicode="&#x219;" horiz-adv-x="455" d="M253 292q77 -20 119.5 -53t42.5 -95q0 -70 -52 -112t-136 -42q-69 0 -118 28t-76 71l55 62q19 -34 56 -57t85 -23q41 0 65.5 16.5t24.5 44.5q0 30 -24.5 47t-78.5 31q-80 20 -122.5 52t-42.5 95q0 65 49.5 104.5t128.5 39.5q114 0 178 -79l-52 -67q-20 26 -55 45t-73 19 t-59.5 -15.5t-21.5 -39.5q0 -28 26 -42.5t81 -29.5zM233 -41q23 0 39 -17.5t16 -46.5q0 -28 -13.5 -58.5t-27 -49t-43.5 -54.5l-29 22q44 55 61 101h-3q-23 0 -38.5 15t-15.5 37q0 21 15.5 36t38.5 15z" />
<glyph unicode="&#x21a;" horiz-adv-x="547" d="M527 636v-91h-201v-545h-104v545h-202v91h507zM273 -45q23 0 39 -17.5t16 -46.5q0 -28 -13.5 -58.5t-27 -49t-43.5 -54.5l-29 22q44 55 61 101h-3q-23 0 -38.5 15t-15.5 37q0 21 15.5 36t38.5 15z" />
<glyph unicode="&#x21b;" horiz-adv-x="353" d="M268 82q31 0 62 9v-90q-32 -7 -69 -7q-34 0 -64 8.5t-57 28t-43 56.5t-16 88v231h-63v79l64 1v120l96 12v-132h131v-79h-131v-224q0 -101 90 -101zM217 -38q23 0 39 -17.5t16 -46.5q0 -28 -13.5 -58.5t-27 -49t-43.5 -54.5l-29 22q44 55 61 101h-3q-23 0 -38.5 15.5 t-15.5 36.5t15.5 36t38.5 15z" />
<glyph unicode="&#x232;" horiz-adv-x="555" d="M409 790v-71h-263v71h263zM544 636l-215 -375v-261h-103v261l-214 375h118l96 -169l55 -105l55 105l96 169h112z" />
<glyph unicode="&#x233;" horiz-adv-x="512" d="M391 650v-71h-263v71h263zM494 486l-255 -667h-99l65 177l-187 490h112l130 -383l132 383h102z" />
<glyph unicode="&#x237;" horiz-adv-x="209" d="M57 485h97v-483q0 -51 -16 -88t-43 -56.5t-57 -28t-64 -8.5q-38 0 -69 7v90q31 -9 62 -9q90 0 90 101v475z" />
<glyph unicode="&#x259;" horiz-adv-x="536" d="M266 500q103 0 168.5 -69t65.5 -186q0 -112 -64.5 -183.5t-168.5 -71.5q-100 0 -157 69.5t-55 173.5v25h348q-4 74 -41.5 115t-94.5 41q-92 0 -123 -86l-78 42q17 55 72.5 92.5t127.5 37.5zM271 74q49 0 83 30.5t44 83.5h-245q5 -52 36 -83t82 -31z" />
<glyph unicode="&#x272;" horiz-adv-x="554" d="M315 500q77 0 125 -42t48 -135v-323h-97v292q0 64 -24 92t-73 28q-61 0 -99 -44q-31 -36 -31 -110v-10h1v-251q0 -51 -16 -88t-43 -56.5t-57 -28t-64 -8.5q-37 0 -69 7v90q31 -9 62 -9q87 0 90 96h-1v486h90l3 -62h10q20 33 59 54.5t86 21.5z" />
<glyph unicode="&#x2c6;" horiz-adv-x="412" d="M392 711h-78l-77 77l-73 -77h-80l108 127h91z" />
<glyph unicode="&#x2c7;" horiz-adv-x="387" d="M400 850l-114 -139h-96l-112 139h78l82 -91l85 91h77z" />
<glyph unicode="&#x2c9;" horiz-adv-x="326" d="M85 818h263v-73h-263v73z" />
<glyph unicode="&#x2d8;" horiz-adv-x="344" d="M178 833q0 -24 18 -40.5t47 -16.5q28 1 45 17.5t17 39.5h69q1 -52 -36.5 -86t-94.5 -34q-59 0 -96.5 34t-36.5 86h68z" />
<glyph unicode="&#x2d9;" horiz-adv-x="277" d="M180 726q-22 0 -36 14t-14 35t14.5 35.5t35.5 14.5q22 0 37.5 -15t15.5 -35t-15.5 -34.5t-37.5 -14.5z" />
<glyph unicode="&#x2da;" horiz-adv-x="308" d="M197 709q-35 0 -56.5 21t-21.5 52t21.5 52t56.5 21t57 -21t22 -52t-22 -52t-57 -21zM197 757q14 0 22 7.5t8 17.5t-8 17.5t-22 7.5q-12 0 -19.5 -7.5t-7.5 -17.5t8 -17.5t19 -7.5z" />
<glyph unicode="&#x2db;" horiz-adv-x="291" d="M201 0q-65 -19 -65 -60q0 -19 11 -28.5t27 -9.5q22 0 37 11l31 -68q-36 -24 -91 -24q-43 0 -72 23t-29 66q0 47 43.5 78.5t93.5 44.5z" />
<glyph unicode="&#x2dc;" horiz-adv-x="373" d="M330 821q-18 -115 -92 -115q-29 0 -66.5 28t-56.5 28q-42 0 -53 -53l-50 12q8 54 32 85t60 31q28 0 65.5 -28.5t57.5 -28.5q40 0 53 54z" />
<glyph unicode="&#x2dd;" horiz-adv-x="426" d="M188 850h102l-116 -138h-78zM376 850h101l-116 -138h-78z" />
<glyph unicode="&#x300;" horiz-adv-x="0" d="M-288 861l123 -127l-53 -33l-144 121z" />
<glyph unicode="&#x301;" horiz-adv-x="0" d="M-365 861l74 -39l-144 -121l-53 33z" />
<glyph unicode="&#x302;" horiz-adv-x="0" d="M-220 706l-64 -20l-75 81l-81 -81l-61 20l101 117h81z" />
<glyph unicode="&#x303;" horiz-adv-x="0" d="M-270 821q-18 -115 -92 -115q-29 0 -66.5 28t-56.5 28q-42 0 -53 -53l-50 12q8 54 32 85t60 31q28 0 66 -28.5t57 -28.5q40 0 53 54z" />
<glyph unicode="&#x304;" horiz-adv-x="0" d="M-515 816h263v-71h-263v71z" />
<glyph unicode="&#x306;" horiz-adv-x="0" d="M-422 834q0 -24 18 -40.5t47 -16.5q28 1 45 17.5t17 39.5h69q1 -52 -36.5 -86t-94.5 -34q-59 0 -96.5 34t-36.5 86h68z" />
<glyph unicode="&#x307;" horiz-adv-x="0" d="M-426 625q0 -26 -17.5 -42.5t-42.5 -16.5q-26 0 -43.5 16.5t-17.5 42.5t17.5 43.5t43.5 17.5q25 0 42.5 -17.5t17.5 -43.5z" />
<glyph unicode="&#x308;" horiz-adv-x="0" d="M-456 729q-25 0 -40.5 15.5t-15.5 40.5q0 23 15.5 38.5t40.5 15.5t40.5 -15.5t15.5 -38.5q0 -25 -15.5 -40.5t-40.5 -15.5zM-277 729q-25 0 -40 15.5t-15 40.5q0 23 15 38.5t40 15.5t40.5 -15t15.5 -39q0 -25 -15.5 -40.5t-40.5 -15.5z" />
<glyph unicode="&#x30a;" horiz-adv-x="0" d="M-403 705q-35 0 -56.5 21t-21.5 52t21.5 52t56.5 21t57 -21t22 -52t-22 -52t-57 -21zM-403 753q13 0 21 7.5t8 17.5t-8 17.5t-21 7.5q-12 0 -20 -7.5t-8 -17.5t8 -17.5t20 -7.5z" />
<glyph unicode="&#x30b;" horiz-adv-x="0" d="M-405 850h102l-116 -138h-78zM-234 850h101l-116 -138h-78z" />
<glyph unicode="&#x30c;" horiz-adv-x="0" d="M-284 853l61 -20l-101 -117h-81l-99 117l64 20l75 -81z" />
<glyph unicode="&#x312;" horiz-adv-x="0" d="M-242 659q16 -3 28 -15t12 -29q0 -21 -15.5 -35t-37.5 -14t-37 14.5t-15 38.5q0 54 71 132l37 -27q-33 -36 -43 -65z" />
<glyph unicode="&#x323;" horiz-adv-x="0" d="M-230 -69q22 0 37.5 -14.5t15.5 -34.5t-15.5 -35t-37.5 -15t-36.5 15t-14.5 35t14.5 34.5t36.5 14.5z" />
<glyph unicode="&#x326;" horiz-adv-x="0" d="M-127 -45q23 0 39 -17.5t16 -46.5q0 -28 -13.5 -58.5t-27 -49t-43.5 -54.5l-29 22q44 55 61 101h-3q-23 0 -38.5 15t-15.5 37q0 21 15.5 36t38.5 15z" />
<glyph unicode="&#x327;" horiz-adv-x="0" d="M-545 -204l-83 50l123 174l68 -13z" />
<glyph unicode="&#x328;" horiz-adv-x="0" d="M-399 0q-65 -19 -65 -60q0 -19 11 -28.5t27 -9.5q22 0 37 11l31 -68q-36 -24 -91 -24q-43 0 -72 23t-29 66q0 47 43.5 78.5t93.5 44.5z" />
<glyph unicode="&#x331;" horiz-adv-x="0" />
<glyph unicode="&#x335;" horiz-adv-x="0" d="M-562 272v89h298v-89h-298z" />
<glyph unicode="&#x336;" horiz-adv-x="0" />
<glyph unicode="&#x337;" horiz-adv-x="0" d="M-574 307l328 104l24 -70l-329 -104z" />
<glyph unicode="&#x338;" horiz-adv-x="0" d="M12 600l-507 -601l-52 43l507 601z" />
<glyph unicode="&#x394;" horiz-adv-x="627" d="M491 0l-51 145h-261l-51 -145h-110l241 636h111l238 -636h-117zM207 225h205l-102 291z" />
<glyph unicode="&#x3a9;" horiz-adv-x="678" d="M634 319q0 -150 -84.5 -240t-211.5 -90q-126 0 -210 90t-84 240q0 149 84 238.5t210 89.5q127 0 211.5 -89.5t84.5 -238.5zM529 319q0 112 -51.5 174t-139.5 62q-87 0 -138.5 -62t-51.5 -174t51.5 -175t138.5 -63q88 0 139.5 63t51.5 175z" />
<glyph unicode="&#x3bc;" horiz-adv-x="554" d="M390 486h97v-486h-90l-3 62h-10q-20 -33 -59 -54.5t-86 -21.5q-55 0 -94 20l18 -187h-97v667h97v-292q0 -64 24 -92t73 -28q61 0 99 44q31 36 31 110v258z" />
<glyph unicode="&#x3c0;" horiz-adv-x="564" d="M538 407h-94v-222q0 -58 22.5 -83t67.5 -25l-1 -87q-185 0 -185 173v244h-156v-407h-97v407h-77v79h520v-79z" />
<glyph unicode="&#x1e80;" horiz-adv-x="937" d="M540 708l-53 -33l-144 121l74 39zM807 636h113l-187 -636h-110l-100 305l-58 192l-56 -192l-95 -305h-110l-187 636h114l76 -270l57 -212l62 212l88 270h107l90 -270l63 -212l57 212z" />
<glyph unicode="&#x1e81;" horiz-adv-x="764" d="M458 568l-53 -33l-144 121l74 39zM646 486h100l-169 -486h-88l-107 365l-105 -365h-88l-171 486h104l112 -350l98 350h102l99 -349z" />
<glyph unicode="&#x1e82;" horiz-adv-x="937" d="M593 796l-144 -121l-53 33l123 127zM807 636h113l-187 -636h-110l-100 305l-58 192l-56 -192l-95 -305h-110l-187 636h114l76 -270l57 -212l62 212l88 270h107l90 -270l63 -212l57 212z" />
<glyph unicode="&#x1e83;" horiz-adv-x="764" d="M511 656l-144 -121l-53 33l123 127zM646 486h100l-169 -486h-88l-107 365l-105 -365h-88l-171 486h104l112 -350l98 350h102l99 -349z" />
<glyph unicode="&#x1e84;" horiz-adv-x="937" d="M378 702q-25 0 -40.5 15.5t-15.5 40.5q0 23 15.5 38.5t40.5 15.5t40.5 -15.5t15.5 -38.5q0 -25 -15.5 -40.5t-40.5 -15.5zM557 702q-25 0 -40 15.5t-15 40.5q0 24 15 39t40 15t40.5 -15t15.5 -39q0 -25 -15.5 -40.5t-40.5 -15.5zM807 636h113l-187 -636h-110l-100 305 l-58 192l-56 -192l-95 -305h-110l-187 636h114l76 -270l57 -212l62 212l88 270h107l90 -270l63 -212l57 212z" />
<glyph unicode="&#x1e85;" horiz-adv-x="764" d="M296 562q-25 0 -40.5 15.5t-15.5 40.5q0 23 15.5 38.5t40.5 15.5t40.5 -15.5t15.5 -38.5q0 -25 -15.5 -40.5t-40.5 -15.5zM475 562q-25 0 -40 15.5t-15 40.5q0 24 15 39t40 15t40.5 -15t15.5 -39q0 -25 -15.5 -40.5t-40.5 -15.5zM646 486h100l-169 -486h-88l-107 365 l-105 -365h-88l-171 486h104l112 -350l98 350h102l99 -349z" />
<glyph unicode="&#x1ea0;" horiz-adv-x="627" d="M608 0h-117l-51 145h-261l-51 -145h-110l241 636h111zM207 225h205l-102 291zM312 -69q22 0 37.5 -14.5t15.5 -34.5t-15.5 -35t-37.5 -15t-36.5 15t-14.5 35t14.5 34.5t36.5 14.5z" />
<glyph unicode="&#x1ea1;" horiz-adv-x="518" d="M440 69h58v-70h-133l-5 71h-5q-20 -35 -62.5 -58t-96.5 -23q-71 0 -115.5 37.5t-44.5 104.5q0 123 179 147l129 18q-2 61 -25 90.5t-73 29.5q-83 0 -109 -77l-81 32q21 60 72 94.5t124 34.5q85 0 136.5 -44t51.5 -146v-241zM213 67q51 0 91 33t40 91v35l-104 -13 q-58 -7 -82 -25t-24 -54q0 -31 21 -49t58 -18zM234 -63q22 0 37.5 -14.5t15.5 -34.5t-15.5 -35t-37.5 -15t-36.5 15t-14.5 35t14.5 34.5t36.5 14.5z" />
<glyph unicode="&#x1eb8;" horiz-adv-x="554" d="M181 546v-181h288v-91h-288v-183h327v-91h-431v636h431v-90h-327zM295 -69q22 0 37.5 -14.5t15.5 -34.5t-15.5 -35t-37.5 -15q-21 0 -36 15t-15 35t14.5 34.5t36.5 14.5z" />
<glyph unicode="&#x1eb9;" horiz-adv-x="521" d="M269 500q100 0 157 -69.5t55 -173.5v-25h-348q4 -74 41.5 -115t94.5 -41q92 0 123 86l78 -42q-17 -55 -72.5 -92.5t-127.5 -37.5q-103 0 -168.5 69t-65.5 186q0 112 64.5 183.5t168.5 71.5zM265 416q-49 0 -83 -30.5t-44 -83.5h245q-5 52 -36 83t-82 31zM267 -65 q22 0 37.5 -14.5t15.5 -34.5t-15.5 -35t-37.5 -15q-21 0 -36 15t-15 35t14.5 34.5t36.5 14.5z" />
<glyph unicode="&#x1ebc;" horiz-adv-x="554" d="M456 793q-18 -115 -92 -115q-29 0 -66.5 28t-56.5 28q-42 0 -53 -53l-50 12q8 54 32 85t60 31q28 0 66 -28.5t57 -28.5q40 0 53 54zM181 546v-181h288v-91h-288v-183h327v-91h-431v636h431v-90h-327z" />
<glyph unicode="&#x1ebd;" horiz-adv-x="521" d="M209 594q-42 0 -53 -53l-50 12q8 54 32 85t60 31q29 0 66.5 -28.5t56.5 -28.5q40 0 53 54l50 -13q-18 -115 -92 -115q-29 0 -66.5 28t-56.5 28zM269 500q100 0 157 -69.5t55 -173.5v-25h-348q4 -74 41.5 -115t94.5 -41q92 0 123 86l78 -42q-17 -55 -72.5 -92.5 t-127.5 -37.5q-103 0 -168.5 69t-65.5 186q0 112 64.5 183.5t168.5 71.5zM265 416q-49 0 -83 -30.5t-44 -83.5h245q-5 52 -36 83t-82 31z" />
<glyph unicode="&#x1eca;" horiz-adv-x="258" d="M181 636v-636h-104v636h104zM129 -69q22 0 37.5 -14.5t15.5 -34.5t-15.5 -35t-37.5 -15q-21 0 -36 15t-15 35t14.5 34.5t36.5 14.5z" />
<glyph unicode="&#x1ecb;" horiz-adv-x="228" d="M177 632q0 -27 -18 -44.5t-45 -17.5t-45.5 17.5t-18.5 44.5q0 28 18.5 46.5t45.5 18.5t45 -18.5t18 -46.5zM162 0h-97v486h97v-486zM112 -69q22 0 37.5 -14.5t15.5 -34.5t-15.5 -35t-37.5 -15t-36.5 15t-14.5 35t14.5 34.5t36.5 14.5z" />
<glyph unicode="&#x1ecc;" horiz-adv-x="678" d="M634 319q0 -150 -84.5 -240t-211.5 -90q-126 0 -210 90t-84 240q0 149 84 238.5t210 89.5q127 0 211.5 -89.5t84.5 -238.5zM529 319q0 112 -51.5 174t-139.5 62q-87 0 -138.5 -62t-51.5 -174t51.5 -175t138.5 -63q88 0 139.5 63t51.5 175zM337 -69q22 0 37.5 -14.5 t15.5 -34.5t-15.5 -35t-37.5 -15q-21 0 -36 15t-15 35t14.5 34.5t36.5 14.5z" />
<glyph unicode="&#x1ecd;" horiz-adv-x="545" d="M509 245q0 -116 -65.5 -185.5t-171.5 -69.5t-171 69.5t-65 185.5t65 185.5t171 69.5t171.5 -69.5t65.5 -185.5zM411 245q0 81 -36.5 125t-102.5 44q-64 0 -101 -44.5t-37 -124.5t37 -124.5t101 -44.5q65 0 102 44.5t37 124.5zM270 -64q22 0 37.5 -14.5t15.5 -34.5 t-15.5 -35t-37.5 -15t-36.5 14.5t-14.5 35.5q0 20 14.5 34.5t36.5 14.5z" />
<glyph unicode="&#x1ee4;" horiz-adv-x="650" d="M175 255q0 -92 34.5 -136.5t114.5 -44.5q81 0 115.5 44.5t34.5 136.5v381h104v-382q0 -131 -64 -201.5t-190 -70.5t-189 70.5t-63 201.5v382h104zM323 -69q22 0 37.5 -14.5t15.5 -34.5t-15.5 -35t-37.5 -15q-21 0 -36 15t-15 35t14.5 34.5t36.5 14.5z" />
<glyph unicode="&#x1ee5;" horiz-adv-x="554" d="M390 486h97v-486h-90l-3 62h-10q-20 -33 -59 -54.5t-86 -21.5q-77 0 -125 42t-48 135v323h97v-292q0 -64 24 -92t73 -28q61 0 99 44q31 36 31 110v258zM271 -62q22 0 37.5 -14.5t15.5 -34.5t-15.5 -35t-37.5 -15q-21 0 -36 14.5t-15 35.5q0 20 14.5 34.5t36.5 14.5z" />
<glyph unicode="&#x1ef2;" horiz-adv-x="555" d="M351 708l-53 -33l-144 121l74 39zM544 636l-215 -375v-261h-103v261l-214 375h118l96 -169l55 -105l55 105l96 169h112z" />
<glyph unicode="&#x1ef3;" horiz-adv-x="512" d="M333 568l-53 -33l-144 121l74 39zM494 486l-255 -667h-99l65 177l-187 490h112l130 -383l132 383h102z" />
<glyph unicode="&#x1ef8;" horiz-adv-x="555" d="M218 734q-42 0 -53 -53l-50 12q8 54 32 85t60 31q28 0 65.5 -28.5t57.5 -28.5q40 0 53 54l50 -13q-18 -115 -92 -115q-29 0 -66.5 28t-56.5 28zM544 636l-215 -375v-261h-103v261l-214 375h118l96 -169l55 -105l55 105l96 169h112z" />
<glyph unicode="&#x1ef9;" horiz-adv-x="512" d="M200 594q-42 0 -53 -53l-50 12q8 54 32 85t60 31q29 0 66 -28.5t57 -28.5q40 0 53 54l50 -13q-18 -115 -92 -115q-29 0 -66.5 28t-56.5 28zM494 486l-255 -667h-99l65 177l-187 490h112l130 -383l132 383h102z" />
<glyph unicode="&#x2013;" horiz-adv-x="401" d="M28 269v92h345v-92h-345z" />
<glyph unicode="&#x2014;" horiz-adv-x="626" d="M28 269v92h570v-92h-570z" />
<glyph unicode="&#x2018;" horiz-adv-x="182" d="M92 519q26 0 43.5 -16.5t17.5 -41.5q0 -26 -16.5 -43.5t-43.5 -16.5q-27 0 -45.5 20t-18.5 56v1v1q2 79 83 170l35 -23q-47 -56 -64 -107h9z" />
<glyph unicode="&#x2019;" horiz-adv-x="182" d="M153 574v-1v-1q-2 -79 -83 -170l-35 23q47 56 64 107h-9q-26 0 -43.5 16.5t-17.5 41.5q0 26 16.5 43.5t43.5 16.5q27 0 45.5 -20t18.5 -56z" />
<glyph unicode="&#x201a;" horiz-adv-x="204" d="M104 115q27 0 45 -19.5t18 -52.5q0 -35 -16 -72.5t-32 -60t-42 -54.5l-35 24q53 73 68 115h-5q-27 0 -44 17.5t-17 42.5t16.5 42.5t43.5 17.5z" />
<glyph unicode="&#x201c;" horiz-adv-x="347" d="M92 524q26 0 43.5 -16.5t17.5 -41.5q0 -26 -16.5 -43.5t-43.5 -16.5q-27 0 -45.5 20t-18.5 56v1v1q2 79 83 170l35 -23q-47 -56 -64 -107h9zM257 524q26 0 43.5 -16.5t17.5 -41.5q0 -26 -16.5 -43.5t-43.5 -16.5q-27 0 -45.5 20t-18.5 56v1v1q2 79 83 170l35 -23 q-47 -56 -64 -107h9z" />
<glyph unicode="&#x201d;" horiz-adv-x="347" d="M153 574v-1v-1q-2 -79 -83 -170l-35 23q47 56 64 107h-9q-26 0 -43.5 16.5t-17.5 41.5q0 26 16.5 43.5t43.5 16.5q27 0 45.5 -20t18.5 -56zM318 574v-1v-1q-2 -79 -83 -170l-35 23q47 56 64 107h-9q-26 0 -43.5 16.5t-17.5 41.5q0 26 16.5 43.5t43.5 16.5q27 0 45.5 -20 t18.5 -56z" />
<glyph unicode="&#x201e;" horiz-adv-x="357" d="M95 115q27 0 45 -19.5t18 -52.5q0 -35 -16 -72.5t-32 -60t-42 -54.5l-35 24q53 73 68 115h-5q-27 0 -44 17.5t-17 42.5t16.5 42.5t43.5 17.5zM265 115q27 0 45 -19.5t18 -52.5q0 -35 -16 -72.5t-32 -60t-42 -54.5l-35 24q53 73 68 115h-5q-27 0 -44 17.5t-17 42.5 t16.5 42.5t43.5 17.5z" />
<glyph unicode="&#x2020;" horiz-adv-x="399" d="M379 531v-91h-133v-637h-96v637h-130v91h130v140l96 13v-153h133z" />
<glyph unicode="&#x2021;" horiz-adv-x="399" d="M379 440h-132v-186h132v-92h-132v-359h-96v359h-131v92h131v186h-131v91h131v140l96 13v-153h132v-91z" />
<glyph unicode="&#x2022;" horiz-adv-x="304" d="M154 191q-53 0 -89.5 36.5t-36.5 87.5t36.5 87.5t89.5 36.5q51 0 86.5 -36.5t35.5 -87.5t-35.5 -87.5t-86.5 -36.5z" />
<glyph unicode="&#x2026;" horiz-adv-x="672" d="M49 58q0 28 17.5 46t47.5 18t48 -18t18 -46t-18 -47t-48 -19t-47.5 18.5t-17.5 47.5zM267 58q0 28 17.5 46t47.5 18t48 -18t18 -46t-18 -47t-48 -19t-47.5 18.5t-17.5 47.5zM485 58q0 28 17.5 46t47.5 18t48 -18t18 -46t-18 -47t-48 -19t-47.5 18.5t-17.5 47.5z" />
<glyph unicode="&#x2030;" horiz-adv-x="1020" d="M35 534q0 61 42 103.5t102 42.5q61 0 104 -42.5t43 -103.5t-42.5 -102.5t-104.5 -41.5q-60 0 -102 41.5t-42 102.5zM535 671h63l-437 -668h-63zM99 534q0 -34 23.5 -57.5t56.5 -23.5q35 0 59 23.5t24 57.5t-24 58.5t-59 24.5q-32 0 -56 -24.5t-24 -58.5zM661 140 q0 -61 -42 -104t-102 -43q-61 0 -104 43t-43 104t42.5 102.5t104.5 41.5q60 0 102 -41.5t42 -102.5zM985 140q0 -61 -42.5 -104t-101.5 -43q-61 0 -104 43t-43 104q0 60 43 102t104 42q60 0 102 -42t42 -102zM596 140q0 34 -23 57t-56 23q-35 0 -59 -23t-24 -57t24 -58.5 t59 -24.5q33 0 56 24t23 59zM921 140q0 33 -23.5 56.5t-56.5 23.5q-35 0 -59 -23t-24 -57t24 -58.5t59 -24.5q32 0 56 24.5t24 58.5z" />
<glyph unicode="&#x2039;" horiz-adv-x="270" d="M230 486l-103 -171l103 -171h-97l-103 169l105 173h95z" />
<glyph unicode="&#x203a;" horiz-adv-x="270" d="M135 486l105 -173l-103 -169h-97l103 171l-103 171h95z" />
<glyph unicode="&#x2044;" horiz-adv-x="582" d="M101 0h-91l454 659h91z" />
<glyph unicode="&#x20ac;" horiz-adv-x="616" d="M323 79q61 0 101 33.5t52 91.5l92 -36q-21 -81 -85 -129.5t-160 -48.5q-90 0 -158.5 51.5t-94.5 143.5h-55l-1 69h44q-1 10 -1 32q0 24 1 35h-43v69h56q27 90 95 140.5t157 50.5q96 0 160 -48.5t85 -129.5l-93 -38q-11 60 -51 93t-101 33q-107 0 -147 -101h182v-69h-197 q-2 -22 -2 -35q0 -22 1 -32h200v-69h-185q39 -106 148 -106z" />
<glyph unicode="&#x2113;" horiz-adv-x="228" d="M162 0h-97v671l97 13v-684z" />
<glyph unicode="&#x2116;" horiz-adv-x="899" d="M587 330q-74 0 -124 50.5t-50 122.5q0 71 50 121.5t124 50.5q73 0 122.5 -50.5t49.5 -121.5q0 -72 -49.5 -122.5t-122.5 -50.5zM122 516v-176h-75v330h79l133 -200l11 -18l-1 42v174h75v-330h-79l-134 201l-10 16zM587 601q-42 0 -69.5 -28t-27.5 -70q0 -43 27 -71.5 t68 -28.5q42 0 69 28.5t27 71.5q0 42 -27 70t-67 28zM812 412q20 0 31.5 -11.5t11.5 -29.5t-11.5 -30t-31.5 -12q-19 0 -30.5 12t-11.5 30t11.5 29.5t30.5 11.5zM47 0v86h757v-86h-757z" />
<glyph unicode="&#x2117;" horiz-adv-x="769" d="M764 328q0 -152 -102.5 -252t-251.5 -100q-150 0 -252.5 100t-102.5 252t102.5 251.5t252.5 99.5q149 0 251.5 -99.5t102.5 -251.5zM699 327q0 133 -81.5 215t-207.5 82t-208 -82.5t-82 -214.5q0 -131 81.5 -213.5t207.5 -82.5q125 0 207.5 83t82.5 213zM433 534 q76 0 116 -34t40 -98t-40.5 -98t-115.5 -34h-81v-146h-70v410h151zM433 332q86 0 86 70q0 37 -21 53.5t-65 16.5h-81v-140h81z" />
<glyph unicode="&#x2122;" horiz-adv-x="829" d="M312 636v-69h-108v-289h-76v289h-108v69h292zM676 636h76v-358h-77v110l2 105l-101 -157h-38l-104 159l3 -107v-110h-76v358h79l118 -197z" />
<glyph unicode="&#x212e;" horiz-adv-x="621" d="M319 659q88 0 148.5 -44t87 -115t23.5 -161v-12h-409v-165q54 -82 149 -82q135 0 182 120l64 -33q-20 -68 -87 -116t-157 -48q-125 0 -200.5 88.5t-75.5 239.5q0 141 73.5 234.5t201.5 93.5zM169 503v-99h297v99q-44 76 -148 76q-98 0 -149 -76z" />
<glyph unicode="&#x215b;" horiz-adv-x="823" d="M115 262v334h-86v64h160v-398h-74zM540 659h91l-454 -659h-91zM712 209q75 -26 75 -95q0 -53 -46 -87.5t-113 -34.5q-69 0 -114.5 34.5t-45.5 87.5q0 69 75 95q-62 29 -62 86q0 48 40.5 79.5t106.5 31.5t106 -31.5t40 -79.5q0 -57 -62 -86zM628 351q-34 0 -53.5 -15.5 t-19.5 -40.5q0 -21 20 -39t53 -18t53 18t20 39q0 25 -19.5 40.5t-53.5 15.5zM628 52q41 0 63.5 17t22.5 45q0 27 -22.5 44t-63.5 17t-63.5 -17t-22.5 -44q0 -28 22.5 -45t63.5 -17z" />
<glyph unicode="&#x215c;" horiz-adv-x="922" d="M340 376q0 -55 -46.5 -88.5t-114.5 -33.5q-62 0 -104 26.5t-55 76.5l69 24q20 -63 92 -63q36 0 60.5 16t24.5 43q0 32 -28 46.5t-87 14.5v56q100 0 100 58q0 23 -20 38.5t-54 15.5q-31 0 -51 -14.5t-25 -37.5l-66 20q12 42 50 68t96 26q63 0 103 -30t40 -80 q0 -58 -60 -88q76 -25 76 -94zM638 659h91l-454 -659h-91zM811 209q75 -26 75 -95q0 -53 -46 -87.5t-113 -34.5q-69 0 -114.5 34.5t-45.5 87.5q0 69 75 95q-62 29 -62 86q0 48 40.5 79.5t106.5 31.5t106 -31.5t40 -79.5q0 -57 -62 -86zM727 351q-34 0 -53.5 -15.5 t-19.5 -40.5q0 -21 20 -39t53 -18t53 18t20 39q0 25 -19.5 40.5t-53.5 15.5zM727 52q41 0 63.5 17t22.5 45q0 27 -22.5 44t-63.5 17t-63.5 -17t-22.5 -44q0 -28 22.5 -45t63.5 -17z" />
<glyph unicode="&#x215d;" horiz-adv-x="933" d="M350 399q0 -70 -46 -108t-114 -38q-65 0 -106 26.5t-54 75.5l67 22q19 -61 91 -61q40 0 63 22t23 59q0 38 -23.5 60.5t-63.5 22.5q-54 0 -77 -42l-64 19l25 202h253v-63h-197l-9 -75q32 21 79 21q70 0 111.5 -38t41.5 -105zM652 659h91l-454 -659h-91zM822 209 q75 -26 75 -95q0 -53 -46 -87.5t-113 -34.5q-69 0 -114.5 34.5t-45.5 87.5q0 69 75 95q-62 29 -62 86q0 48 40.5 79.5t106.5 31.5t106 -31.5t40 -79.5q0 -57 -62 -86zM738 351q-34 0 -53.5 -15.5t-19.5 -40.5q0 -21 20 -39t53 -18t53 18t20 39q0 25 -19.5 40.5t-53.5 15.5z M738 52q41 0 63.5 17t22.5 45q0 27 -22.5 44t-63.5 17t-63.5 -17t-22.5 -44q0 -28 22.5 -45t63.5 -17z" />
<glyph unicode="&#x215e;" horiz-adv-x="851" d="M141 262h-74q52 200 150 334h-196v64h292v-55q-110 -120 -172 -343zM568 659h91l-454 -659h-91zM740 209q75 -26 75 -95q0 -53 -46 -87.5t-113 -34.5q-69 0 -114.5 34.5t-45.5 87.5q0 69 75 95q-62 29 -62 86q0 48 40.5 79.5t106.5 31.5t106 -31.5t40 -79.5 q0 -57 -62 -86zM656 351q-34 0 -53.5 -15.5t-19.5 -40.5q0 -21 20 -39t53 -18t53 18t20 39q0 25 -19.5 40.5t-53.5 15.5zM656 52q41 0 63.5 17t22.5 45q0 27 -22.5 44t-63.5 17t-63.5 -17t-22.5 -44q0 -28 22.5 -45t63.5 -17z" />
<glyph unicode="&#x2190;" horiz-adv-x="450" d="M449 275h-243l-68 4l44 -43l95 -100l-56 -56l-221 236l221 234l56 -55l-96 -101l-43 -42l68 3h243v-80z" />
<glyph unicode="&#x2191;" horiz-adv-x="471" d="M234 531l236 -221l-56 -56l-100 95l-43 44l4 -68v-243h-80v243l3 68l-42 -43l-101 -96l-55 56z" />
<glyph unicode="&#x2192;" horiz-adv-x="450" d="M229 550l221 -234l-221 -236l-56 56l95 100l44 43l-68 -4h-243v80h243l68 -3l-43 42l-96 101z" />
<glyph unicode="&#x2193;" horiz-adv-x="471" d="M414 372l56 -56l-236 -221l-234 221l55 56l101 -96l42 -43l-3 68v243h80v-243l-4 -68l43 44z" />
<glyph unicode="&#x2194;" horiz-adv-x="723" d="M502 550l221 -234l-221 -236l-56 56l95 100l44 43l-68 -4h-311l-68 4l44 -43l95 -100l-56 -56l-221 236l221 234l56 -55l-96 -101l-43 -42l68 3h311l68 -3l-43 42l-96 101z" />
<glyph unicode="&#x2195;" horiz-adv-x="479" d="M321 160l100 95l56 -56l-236 -221l-234 221l55 56l101 -96l42 -43l-3 68v274l3 68l-42 -43l-101 -96l-55 56l234 221l236 -221l-56 -56l-100 95l-43 44l4 -68v-274l-4 -68z" />
<glyph unicode="&#x2202;" horiz-adv-x="522" d="M205 684q132 0 206.5 -100t74.5 -281q0 -141 -65.5 -227t-166.5 -86q-96 0 -157 63t-61 157q0 96 63.5 153.5t146.5 57.5q73 0 136 -38q-13 109 -60.5 166.5t-122.5 55.5q-66 1 -127 -40l-36 64q70 55 169 55zM256 69q62 0 97.5 61t32.5 165q-56 47 -134 47 q-48 0 -84 -34t-36 -98q0 -61 34.5 -101t89.5 -40z" />
<glyph unicode="&#x220f;" horiz-adv-x="690" d="M670 667v-92h-205v-772h-97v772h-57v-772h-97v772h-194v92h650z" />
<glyph unicode="&#x2211;" horiz-adv-x="370" d="M49 666h435v-78h-322l235 -352l-235 -353h323v-80h-435v77l237 356l-238 357v73z" />
<glyph unicode="&#x2212;" horiz-adv-x="570" d="M66 362h437v-76h-437v76z" />
<glyph unicode="&#x2215;" horiz-adv-x="326" d="M156 0h-65l451 667h65z" />
<glyph unicode="&#x2219;" horiz-adv-x="238" d="M51 299q0 28 17.5 46t47.5 18t48 -18t18 -46t-18 -47t-48 -19t-47.5 18.5t-17.5 47.5z" />
<glyph unicode="&#x221a;" horiz-adv-x="731" d="M260 -197l-142 359l-59 -31l-37 72l147 78l140 -358l310 749l89 -31l-348 -838h-100z" />
<glyph unicode="&#x221e;" horiz-adv-x="898" d="M650 519q84 0 138 -52t54 -129q0 -75 -54.5 -126.5t-137.5 -51.5q-55 0 -102.5 30.5t-98.5 85.5q-51 -55 -98 -85.5t-102 -30.5q-83 0 -138 52t-55 127q0 76 55 128t138 52q55 0 102 -30.5t98 -85.5q106 116 201 116zM249 243q34 0 67 25t75 72q-42 47 -75 72t-67 25 q-40 0 -67 -28.5t-27 -69.5t27 -68.5t67 -27.5zM651 243q39 0 66 27.5t27 67.5q0 41 -27 70t-66 29q-35 0 -68.5 -24.5t-76.5 -72.5q43 -47 76.5 -72t68.5 -25z" />
<glyph unicode="&#x222b;" horiz-adv-x="311" d="M217 749q54 0 96 -25l-34 -76q-26 13 -50 13q-67 0 -67 -97v-576q0 -88 -40.5 -135.5t-111.5 -47.5q-54 0 -96 26l34 76q23 -14 49 -14q68 0 68 98v576q0 88 40.5 135t111.5 47z" />
<glyph unicode="&#x2248;" horiz-adv-x="582" d="M73 411q56 48 116 48q38 0 100.5 -24.5t98.5 -24.5q60 0 121 51v-76q-60 -48 -121 -48q-37 0 -99.5 25t-99.5 25q-56 0 -116 -51v75zM73 265q56 49 116 49q38 0 100.5 -25t98.5 -25q59 0 121 51v-75q-59 -48 -121 -48q-37 0 -99.5 24.5t-99.5 24.5q-56 0 -116 -50v74z " />
<glyph unicode="&#x2260;" horiz-adv-x="582" d="M509 370h-153l-70 -99h223v-78h-279l-58 -81h-69l58 81h-88v78h144l70 99h-214v79h271l64 90h69l-64 -90h96v-79z" />
<glyph unicode="&#x2264;" horiz-adv-x="444" d="M56 419l301 117l25 -72l-246 -87l246 -90l-25 -71l-301 117v86zM56 161h315v-75h-315v75z" />
<glyph unicode="&#x2265;" horiz-adv-x="444" d="M388 419v-86l-301 -117l-25 71l246 90l-246 87l25 72zM388 161v-75h-315v75h315z" />
<glyph unicode="&#x2440;" horiz-adv-x="372" d="M352 650q-31 9 -62 9q-90 0 -90 -101v-242l-97 -1v251q0 51 16 88t43 56.5t57 28t64 8.5q37 0 69 -7v-90z" />
<glyph unicode="&#x25ca;" horiz-adv-x="554" d="M277 614l257 -257l-257 -258l-257 258zM277 503l-146 -146l147 -147l145 147z" />
<glyph unicode="&#x25fc;" horiz-adv-x="485" d="M0 485h485v-485h-485v485z" />
<glyph unicode="&#xf6be;" horiz-adv-x="209" d="M57 485h97v-483q0 -51 -16 -88t-43 -56.5t-57 -28t-64 -8.5q-38 0 -69 7v90q31 -9 62 -9q90 0 90 101v475z" />
<glyph unicode="&#xf8ff;" horiz-adv-x="735" d="M65 678h604v-395q-4 -143 -87.5 -259t-214.5 -164q-132 49 -215 164.5t-87 258.5v395zM341 596q-10 0 -18.5 -11.5t-8.5 -28.5q0 -1 1 -2q12 -6 24 -6q7 0 13 2q-2 -4 -2 -8q0 -7 5 -11.5t12 -4.5t12 4.5t5 11.5q0 4 -2 8q6 -2 13 -2q12 0 24 6q1 1 1 2q0 17 -8.5 28.5 t-18.5 11.5q-5 0 -8 -1q6 6 6 16q0 19 -23 34h-2q-23 -15 -23 -34q0 -10 6 -16q-3 1 -8 1zM206 569q-6 0 -4 -7l4 -14q0 -6 7 -4l23 6l9 -32q2 -6 7 -4l14 4q6 2 4 7l-8 32l23 6q6 2 4 7l-3 15q-2 6 -8 4l-23 -7l-6 24q-2 6 -8 4l-14 -4q-6 -2 -4 -7l6 -23zM444 570 q-2 -5 4 -7l23 -6l-8 -32q-2 -5 4 -7l14 -4q7 -2 7 4l9 32l23 -6q6 -2 8 4l3 14q2 7 -4 7l-23 7l6 23q2 5 -4 7l-14 4q-7 2 -7 -4l-7 -24l-23 7q-7 2 -7 -4zM103 575v-1l33 -58q7 -12 16 -14q-6 0 -6 -3l17 -28q8 6 8 16q0 8 -8 12q21 7 31 23v1q-15 23 -35 23q-11 0 -16 -7 q3 17 -9.5 26t-29.5 10h-1zM540 523v-1q10 -16 31 -23q-8 -4 -8 -12q0 -10 8 -16l17 28q0 3 -6 3q9 2 16 14l33 58v1h-1q-17 -1 -29.5 -10t-9.5 -26q-5 7 -16 7q-20 0 -35 -23zM173 452l21 -36v-1h1q79 47 171 47h1q92 0 172 -47q0 1 1 1l21 36q0 1 -1 1q-89 52 -193 52 t-194 -52v-1zM558 19l-191 142l286 223h-573l287 -223l-191 -143q78 -97 191 -142q112 45 191 143z" />
<glyph horiz-adv-x="228" d="M174 615q0 -26 -17.5 -42.5t-42.5 -16.5q-26 0 -43.5 16.5t-17.5 42.5t17.5 43.5t43.5 17.5q25 0 42.5 -17.5t17.5 -43.5zM161 0h-97v486h97v-486z" />
<glyph horiz-adv-x="423" d="M394 199q0 -93 -52 -150t-130 -57t-130.5 57.5t-52.5 149.5q0 93 52.5 150t130.5 57t130 -57t52 -150zM318 199q0 68 -28.5 104.5t-77.5 36.5t-78 -36.5t-29 -104.5q0 -67 29 -103t78 -36q48 0 77 36t29 103z" />
<glyph horiz-adv-x="260" d="M189 398v-398h-74v334h-86v64h160z" />
<glyph horiz-adv-x="374" d="M254 65h96v-65h-326l1 17q2 35 27 63.5t59.5 47l69 37t58 45t23.5 59.5q0 34 -21 54.5t-59 20.5q-76 0 -85 -86l-63 14q6 61 45.5 97.5t105.5 36.5q69 0 110 -38t41 -98q0 -49 -28.5 -85.5t-63 -53.5t-72.5 -36t-49 -33z" />
<glyph horiz-adv-x="365" d="M264 208q76 -25 76 -94q0 -55 -46.5 -88.5t-114.5 -33.5q-62 0 -104 26.5t-55 76.5l69 24q20 -63 92 -63q36 0 60.5 16t24.5 43q0 32 -28 46.5t-87 14.5v56q100 0 100 58q0 23 -20 38.5t-54 15.5q-31 0 -51 -14.5t-25 -37.5l-66 20q12 42 50 68t96 26q63 0 103 -30 t40 -80q0 -58 -60 -88z" />
<glyph horiz-adv-x="379" d="M357 147v-64h-52v-83h-74v83h-202l-10 39l135 276h79l-121 -251h119v116h74v-116h52z" />
<glyph horiz-adv-x="375" d="M197 281q70 0 111.5 -38t41.5 -105q0 -70 -46 -108t-114 -38q-65 0 -106 26.5t-54 75.5l67 22q19 -61 91 -61q40 0 63 22t23 59q0 38 -23.5 60.5t-63.5 22.5q-54 0 -77 -42l-64 19l25 202h253v-63h-197l-9 -75q32 21 79 21z" />
<glyph horiz-adv-x="389" d="M208 266q65 0 106 -35.5t41 -98.5t-43.5 -101.5t-107.5 -38.5q-81 0 -123.5 49t-42.5 146q0 104 47 161.5t127 57.5q90 0 130 -66l-59 -33q-22 36 -73 36q-90 0 -99 -125q33 48 97 48zM201 55q37 0 59 20.5t22 52.5q0 33 -22 53.5t-60 20.5q-40 0 -61.5 -20.5 t-21.5 -53.5q0 -31 22 -52t62 -21z" />
<glyph horiz-adv-x="330" d="M21 398h292v-55q-110 -120 -172 -343h-74q52 200 150 334h-196v64z" />
<glyph horiz-adv-x="389" d="M278 209q75 -26 75 -95q0 -53 -46 -87.5t-113 -34.5q-69 0 -114.5 34.5t-45.5 87.5q0 69 75 95q-62 29 -62 86q0 48 40.5 79.5t106.5 31.5t106 -31.5t40 -79.5q0 -57 -62 -86zM194 351q-34 0 -53.5 -15.5t-19.5 -40.5q0 -21 20 -39t53 -18t53 18t20 39q0 25 -19.5 40.5 t-53.5 15.5zM194 52q41 0 63.5 17t22.5 45q0 27 -22.5 44t-63.5 17t-63.5 -17t-22.5 -44q0 -28 22.5 -45t63.5 -17z" />
<glyph horiz-adv-x="384" d="M183 406q81 0 123.5 -49t42.5 -146q0 -104 -47 -161.5t-127 -57.5q-90 0 -130 66l59 33q22 -36 73 -36q90 0 99 125q-33 -48 -97 -48q-65 0 -106 35.5t-41 98.5t43.5 101.5t107.5 38.5zM187 196q40 0 61.5 20.5t21.5 53.5q0 31 -22 52t-62 21q-37 0 -59 -20.5t-22 -52.5 q0 -33 22 -53.5t60 -20.5z" />
<glyph horiz-adv-x="423" d="M394 461q0 -93 -52 -150t-130 -57t-130.5 57.5t-52.5 149.5q0 93 52.5 150t130.5 57t130 -57t52 -150zM318 461q0 68 -28.5 104.5t-77.5 36.5t-78 -36.5t-29 -104.5q0 -67 29 -103t78 -36q48 0 77 36t29 103z" />
<glyph horiz-adv-x="260" d="M189 660v-398h-74v334h-86v64h160z" />
<glyph horiz-adv-x="374" d="M254 327h96v-65h-326l1 17q2 35 27 63.5t59.5 47l69 37t58 45t23.5 59.5q0 34 -21 54.5t-59 20.5q-76 0 -85 -86l-63 14q6 61 45.5 97.5t105.5 36.5q69 0 110 -38t41 -98q0 -49 -28.5 -85.5t-63 -53.5t-72.5 -36t-49 -33z" />
<glyph horiz-adv-x="365" d="M264 470q76 -25 76 -94q0 -55 -46.5 -88.5t-114.5 -33.5q-62 0 -104 26.5t-55 76.5l69 24q20 -63 92 -63q36 0 60.5 16t24.5 43q0 32 -28 46.5t-87 14.5v56q100 0 100 58q0 23 -20 38.5t-54 15.5q-31 0 -51 -14.5t-25 -37.5l-66 20q12 42 50 68t96 26q63 0 103 -30 t40 -80q0 -58 -60 -88z" />
<glyph horiz-adv-x="379" d="M357 409v-64h-52v-83h-74v83h-202l-10 39l135 276h79l-121 -251h119v116h74v-116h52z" />
<glyph horiz-adv-x="375" d="M197 542q70 0 111.5 -38t41.5 -105q0 -70 -46 -108t-114 -38q-65 0 -106 26.5t-54 75.5l67 22q19 -61 91 -61q40 0 63 22t23 59q0 38 -23.5 60.5t-63.5 22.5q-54 0 -77 -42l-64 19l25 202h253v-63h-197l-9 -75q32 21 79 21z" />
<glyph horiz-adv-x="389" d="M208 528q65 0 106 -35.5t41 -98.5t-43.5 -101.5t-107.5 -38.5q-81 0 -123.5 49t-42.5 146q0 104 47 161.5t127 57.5q90 0 130 -66l-59 -33q-22 36 -73 36q-90 0 -99 -125q33 48 97 48zM201 317q37 0 59 20.5t22 52.5q0 33 -22 53.5t-60 20.5q-40 0 -61.5 -20.5 t-21.5 -53.5q0 -31 22 -52t62 -21z" />
<glyph horiz-adv-x="330" d="M21 660h292v-55q-110 -120 -172 -343h-74q52 200 150 334h-196v64z" />
<glyph horiz-adv-x="389" d="M278 470q75 -26 75 -95q0 -53 -46 -87.5t-113 -34.5q-69 0 -114.5 34.5t-45.5 87.5q0 69 75 95q-62 29 -62 86q0 48 40.5 79.5t106.5 31.5t106 -31.5t40 -79.5q0 -57 -62 -86zM194 612q-34 0 -53.5 -15.5t-19.5 -40.5q0 -21 20 -39t53 -18t53 18t20 39q0 25 -19.5 40.5 t-53.5 15.5zM194 313q41 0 63.5 17t22.5 45q0 27 -22.5 44t-63.5 17t-63.5 -17t-22.5 -44q0 -28 22.5 -45t63.5 -17z" />
<glyph horiz-adv-x="384" d="M183 668q81 0 123.5 -49t42.5 -146q0 -104 -47 -161.5t-127 -57.5q-90 0 -130 66l59 33q22 -36 73 -36q90 0 99 125q-33 -48 -97 -48q-65 0 -106 35.5t-41 98.5t43.5 101.5t107.5 38.5zM187 458q40 0 61.5 20.5t21.5 53.5q0 31 -22 52t-62 21q-37 0 -59 -20.5t-22 -52.5 q0 -33 22 -53.5t60 -20.5z" />
<glyph horiz-adv-x="613" d="M577 321q0 -154 -75.5 -243t-195.5 -89t-195 88.5t-75 243.5q0 152 75 240t195 88t195.5 -88t75.5 -240zM478 321q0 116 -44.5 177.5t-127.5 61.5t-127 -61t-44 -178q0 -119 44 -181t127 -62t127.5 62t44.5 181z" />
<glyph horiz-adv-x="351" d="M264 635v-635h-98v547h-136v88h234z" />
<glyph horiz-adv-x="563" d="M512 86v-86h-465l1 23q4 53 42 98.5t89 78.5t101 66t85 77t35 95q0 53 -32.5 88.5t-88.5 35.5q-53 0 -86.5 -35.5t-43.5 -86.5l-89 19q12 82 71.5 135.5t153.5 53.5q96 0 154 -58.5t58 -148.5q0 -58 -25.5 -106.5t-65.5 -82t-82 -60t-83.5 -55t-59.5 -52.5z" />
<glyph horiz-adv-x="546" d="M378 334q116 -41 116 -153q0 -89 -65.5 -140.5t-160.5 -51.5q-85 0 -145.5 41t-81.5 119l90 32q32 -105 138 -105q55 0 90.5 27t35.5 79q0 57 -43.5 81t-136.5 24v80q156 0 156 103q0 42 -29 67t-79 25q-44 0 -74 -23t-41 -62l-86 28q17 63 71 103.5t135 40.5 q90 0 146 -48t56 -126q0 -96 -92 -141z" />
<glyph horiz-adv-x="572" d="M544 209v-87h-82v-122h-97v122h-312l-13 56l211 458h106l-198 -427h206v223h97v-223h82z" />
<glyph horiz-adv-x="577" d="M290 441q102 0 163 -60.5t61 -162.5q0 -105 -65 -167.5t-165 -62.5q-89 0 -148 44t-77 119l89 30q34 -108 135 -108q63 0 98 37.5t35 106.5q0 63 -37 101.5t-97 38.5q-80 0 -119 -69l-84 23h-3l42 324h369v-84h-293l-20 -150q46 40 116 40z" />
<glyph horiz-adv-x="559" d="M290 432q98 -1 159 -59.5t61 -154.5q0 -98 -63 -161.5t-157 -63.5q-114 0 -177 78.5t-63 230.5q0 159 67.5 253t185.5 94q76 0 125.5 -33.5t72.5 -83.5l-77 -48q-13 33 -46.5 55.5t-77.5 22.5q-135 0 -155 -193q56 63 145 63zM285 80q62 0 95 37t33 93q0 58 -33.5 97 t-95.5 39q-65 0 -98 -38.5t-33 -97.5q0 -56 33.5 -93t98.5 -37z" />
<glyph horiz-adv-x="478" d="M35 635h415v-77q-187 -262 -248 -558h-96q67 308 240 552h-311v83z" />
<glyph horiz-adv-x="554" d="M403 334q109 -45 109 -155q0 -85 -66.5 -137t-168.5 -52q-101 0 -168 52t-67 137q0 110 108 155q-89 46 -89 137q0 79 59.5 128.5t156.5 49.5t156 -49.5t59 -128.5q0 -91 -89 -137zM277 570q-54 0 -85 -26.5t-31 -72.5q0 -41 32 -69.5t84 -28.5t84 29t32 69 q0 46 -31 72.5t-85 26.5zM277 72q63 0 99 28.5t36 79.5q0 49 -36.5 79t-98.5 30t-98.5 -30t-36.5 -79q0 -51 36 -79.5t99 -28.5z" />
<glyph horiz-adv-x="580" d="M269 651q116 0 179 -78t63 -231q0 -165 -64 -257.5t-186 -92.5q-75 0 -127.5 36t-72.5 84l80 48q15 -35 48 -58.5t76 -23.5q70 0 105.5 52t43.5 155q-56 -66 -147 -66q-100 1 -161 57t-61 152q0 98 63.5 160.5t160.5 62.5zM274 303q64 0 97 37.5t33 94.5q0 55 -33.5 93 t-97.5 38q-60 0 -94.5 -38t-34.5 -93q0 -57 34.5 -94.5t95.5 -37.5z" />
<glyph horiz-adv-x="617" d="M571 286q0 -133 -73.5 -215t-188.5 -82q-116 0 -189 82t-73 215q0 132 73.5 214t188.5 82t188.5 -82t73.5 -214zM472 286q0 96 -44.5 151t-118.5 55q-76 0 -119.5 -54.5t-43.5 -151.5q0 -98 44 -153t119 -55q74 0 118.5 55.5t44.5 152.5z" />
<glyph horiz-adv-x="366" d="M267 562v-562h-98v475h-136v87h234z" />
<glyph horiz-adv-x="551" d="M182 84l317 2v-86h-450l1 23q4 53 39 95.5t82.5 70.5t95 54.5t80 63t32.5 81.5q0 47 -31 77t-84 30q-47 0 -78.5 -30t-40.5 -79l-87 20q11 80 67.5 127.5t142.5 47.5q94 0 151 -52.5t57 -137.5q0 -54 -24 -96.5t-61.5 -69.5t-76.5 -48.5t-77 -45.5t-55 -47z" />
<glyph horiz-adv-x="553" d="M378 266q116 -41 116 -153q0 -89 -65.5 -140.5t-160.5 -51.5q-85 0 -145.5 41t-81.5 119l90 32q32 -105 138 -105q55 0 90.5 27t35.5 79q0 57 -43.5 81t-136.5 24v80q156 0 156 103q0 42 -29 67t-79 25q-44 0 -74 -23t-41 -62l-86 28q17 63 71 103.5t135 40.5 q90 0 146 -48t56 -126q0 -96 -92 -141z" />
<glyph horiz-adv-x="569" d="M546 133v-87h-82v-138h-97v138h-313l-13 56l217 468h105l-203 -437h207v207h97v-207h82z" />
<glyph horiz-adv-x="585" d="M305 352q105 0 167.5 -63.5t62.5 -168.5q0 -109 -68 -174t-169 -65q-91 0 -152.5 42.5t-81.5 120.5l90 33q32 -110 142 -110q61 0 100 40.5t39 110.5q0 68 -37.5 108t-100.5 40q-84 0 -124 -72l-85 23l39 345h371v-86h-294l-21 -165q47 41 122 41z" />
<glyph horiz-adv-x="584" d="M303 451q104 0 168 -60t64 -163q0 -105 -66 -171.5t-166 -66.5q-124 0 -188.5 82.5t-64.5 246.5q0 171 70.5 269.5t196.5 98.5q81 0 136.5 -38.5t74.5 -85.5l-79 -47q-17 37 -52 62t-83 25q-149 0 -168 -226q55 74 157 74zM298 74q67 0 103.5 42t36.5 104q0 63 -37 105 t-104 42q-69 0 -105 -42t-36 -105q0 -61 36.5 -103.5t105.5 -42.5z" />
<glyph horiz-adv-x="488" d="M35 562h423v-76q-196 -271 -250 -560h-100q61 301 241 551h-314v85z" />
<glyph horiz-adv-x="549" d="M403 334q109 -45 109 -155q0 -85 -66.5 -137t-168.5 -52q-101 0 -168 52t-67 137q0 110 108 155q-89 46 -89 137q0 79 59.5 128.5t156.5 49.5t156 -49.5t59 -128.5q0 -91 -89 -137zM277 570q-54 0 -85 -26.5t-31 -72.5q0 -41 32 -69.5t84 -28.5t84 29t32 69 q0 46 -31 72.5t-85 26.5zM277 72q63 0 99 28.5t36 79.5q0 49 -36.5 79t-98.5 30t-98.5 -30t-36.5 -79q0 -51 36 -79.5t99 -28.5z" />
<glyph horiz-adv-x="583" d="M295 580q116 0 179 -78t63 -231q0 -165 -64 -257.5t-186 -92.5q-75 0 -127.5 36t-72.5 84l80 48q15 -35 48 -58.5t76 -23.5q70 0 105.5 52t43.5 155q-56 -66 -147 -66q-100 1 -161 57t-61 152q0 98 63.5 160.5t160.5 62.5zM300 232q64 0 97 37.5t33 94.5q0 55 -33.5 93 t-97.5 38q-60 0 -94.5 -38t-34.5 -93q0 -57 34.5 -94.5t95.5 -37.5z" />
<glyph d="M565 321q0 -154 -75.5 -243t-195.5 -89t-195 88.5t-75 243.5q0 152 75 240t195 88t195.5 -88t75.5 -240zM466 321q0 116 -44.5 177.5t-127.5 61.5t-127 -61t-44 -178q0 -119 44 -181t127 -62t127.5 62t44.5 181z" />
<glyph d="M381 88h127v-88h-363v88h138v459h-136v88h234v-547z" />
<glyph d="M530 86v-86h-465l1 23q4 53 42 98.5t89 78.5t101 66t85 77t35 95q0 53 -32.5 88.5t-88.5 35.5q-53 0 -86.5 -35.5t-43.5 -86.5l-89 19q12 82 71.5 135.5t153.5 53.5q96 0 154 -58.5t58 -148.5q0 -58 -25.5 -106.5t-65.5 -82t-82 -60t-83.5 -55t-59.5 -52.5z" />
<glyph d="M398 334q116 -41 116 -153q0 -89 -65.5 -140.5t-160.5 -51.5q-85 0 -145.5 41t-81.5 119l90 32q32 -105 138 -105q55 0 90.5 27t35.5 79q0 57 -43.5 81t-136.5 24v80q156 0 156 103q0 42 -29 67t-79 25q-44 0 -74 -23t-41 -62l-86 28q17 63 71 103.5t135 40.5 q90 0 146 -48t56 -126q0 -96 -92 -141z" />
<glyph d="M550 209v-87h-82v-122h-97v122h-312l-13 56l211 458h106l-198 -427h206v223h97v-223h82z" />
<glyph d="M297 441q102 0 163 -60.5t61 -162.5q0 -105 -65 -167.5t-165 -62.5q-89 0 -148 44t-77 119l89 30q34 -108 135 -108q63 0 98 37.5t35 106.5q0 63 -37 101.5t-97 38.5q-80 0 -119 -69l-84 23h-3l42 324h369v-84h-293l-20 -150q46 40 116 40z" />
<glyph d="M307 432q98 -1 159 -59.5t61 -154.5q0 -98 -63 -161.5t-157 -63.5q-114 0 -177 78.5t-63 230.5q0 159 67.5 253t185.5 94q76 0 125.5 -33.5t72.5 -83.5l-77 -48q-13 33 -46.5 55.5t-77.5 22.5q-135 0 -155 -193q56 63 145 63zM302 80q62 0 95 37t33 93q0 58 -33.5 97 t-95.5 39q-65 0 -98 -38.5t-33 -97.5q0 -56 33.5 -93t98.5 -37z" />
<glyph d="M86 635h415v-77q-187 -262 -248 -558h-96q67 308 240 552h-311v83z" />
<glyph d="M417 334q109 -45 109 -155q0 -85 -66.5 -137t-168.5 -52q-101 0 -168 52t-67 137q0 110 108 155q-89 46 -89 137q0 79 59.5 128.5t156.5 49.5t156 -49.5t59 -128.5q0 -91 -89 -137zM291 570q-54 0 -85 -26.5t-31 -72.5q0 -41 32 -69.5t84 -28.5t84 29t32 69 q0 46 -31 72.5t-85 26.5zM291 72q63 0 99 28.5t36 79.5q0 49 -36.5 79t-98.5 30t-98.5 -30t-36.5 -79q0 -51 36 -79.5t99 -28.5z" />
<glyph d="M282 651q116 0 179 -78t63 -231q0 -165 -64 -257.5t-186 -92.5q-75 0 -127.5 36t-72.5 84l80 48q15 -35 48 -58.5t76 -23.5q70 0 105.5 52t43.5 155q-56 -66 -147 -66q-100 1 -161 57t-61 152q0 98 63.5 160.5t160.5 62.5zM287 303q64 0 97 37.5t33 94.5q0 55 -33.5 93 t-97.5 38q-60 0 -94.5 -38t-34.5 -93q0 -57 34.5 -94.5t95.5 -37.5z" />
<glyph d="M557 286q0 -133 -73.5 -215t-188.5 -82q-116 0 -189 82t-73 215q0 132 73.5 214t188.5 82t188.5 -82t73.5 -214zM458 286q0 96 -44.5 151t-118.5 55q-76 0 -119.5 -54.5t-43.5 -151.5q0 -98 44 -153t119 -55q74 0 118.5 55.5t44.5 152.5z" />
<glyph d="M354 88h126v-88h-363v88h139v387h-136v87h234v-474z" />
<glyph d="M202 84l317 2v-86h-450l1 23q4 53 39 95.5t82.5 70.5t95 54.5t80 63t32.5 81.5q0 47 -31 77t-84 30q-47 0 -78.5 -30t-40.5 -79l-87 20q11 80 67.5 127.5t142.5 47.5q94 0 151 -52.5t57 -137.5q0 -54 -24 -96.5t-61.5 -69.5t-76.5 -48.5t-77 -45.5t-55 -47z" />
<glyph d="M402 266q116 -41 116 -153q0 -89 -65.5 -140.5t-160.5 -51.5q-85 0 -145.5 41t-81.5 119l90 32q32 -105 138 -105q55 0 90.5 27t35.5 79q0 57 -43.5 81t-136.5 24v80q156 0 156 103q0 42 -29 67t-79 25q-44 0 -74 -23t-41 -62l-86 28q17 63 71 103.5t135 40.5 q90 0 146 -48t56 -126q0 -96 -92 -141z" />
<glyph d="M546 133v-87h-82v-138h-97v138h-313l-13 56l217 468h105l-203 -437h207v207h97v-207h82z" />
<glyph d="M298 367q100 0 161 -60.5t61 -162.5q0 -104 -64.5 -167t-164.5 -63q-89 0 -147 44t-76 119l89 30q33 -108 134 -108q61 0 95.5 37.5t34.5 106.5q0 64 -36 102t-95 38q-80 0 -119 -69l-84 23h-2l42 325h366v-85h-291l-19 -149q47 39 115 39z" />
<glyph d="M306 422q100 -1 161 -57t61 -152q0 -98 -63.5 -160.5t-160.5 -62.5q-116 0 -179 78t-63 231q0 165 64 257.5t186 92.5q75 0 127.5 -36t72.5 -84l-80 -48q-15 35 -48 58.5t-76 23.5q-70 0 -105.5 -52t-43.5 -155q56 66 147 66zM300 75q60 0 94.5 38t34.5 93 q0 57 -34.5 94.5t-95.5 37.5q-64 0 -97 -37.5t-33 -94.5q0 -55 33.5 -93t97.5 -38z" />
<glyph d="M86 562h423v-76q-196 -271 -250 -560h-100q61 301 241 551h-314v85z" />
<glyph d="M421 334q109 -45 109 -155q0 -85 -66.5 -137t-168.5 -52q-101 0 -168 52t-67 137q0 110 108 155q-89 46 -89 137q0 79 59.5 128.5t156.5 49.5t156 -49.5t59 -128.5q0 -91 -89 -137zM295 570q-54 0 -85 -26.5t-31 -72.5q0 -41 32 -69.5t84 -28.5t84 29t32 69 q0 46 -31 72.5t-85 26.5zM295 72q63 0 99 28.5t36 79.5q0 49 -36.5 79t-98.5 30t-98.5 -30t-36.5 -79q0 -51 36 -79.5t99 -28.5z" />
<glyph d="M285 580q116 0 179 -78t63 -231q0 -165 -64 -257.5t-186 -92.5q-75 0 -127.5 36t-72.5 84l80 48q15 -35 48 -58.5t76 -23.5q70 0 105.5 52t43.5 155q-56 -66 -147 -66q-100 1 -161 57t-61 152q0 98 63.5 160.5t160.5 62.5zM290 232q64 0 97 37.5t33 94.5q0 55 -33.5 93 t-97.5 38q-60 0 -94.5 -38t-34.5 -93q0 -57 34.5 -94.5t95.5 -37.5z" />
<glyph d="M230 58q0 28 17.5 46t47.5 18t48 -18t18 -46t-18 -47t-48 -19t-47.5 18.5t-17.5 47.5z" />
<glyph d="M230 404q0 28 17.5 46t47.5 18t48 -18t18 -46t-18 -47t-48 -19t-47.5 18.5t-17.5 47.5zM230 58q0 28 17.5 46t47.5 18t48 -18t18 -46t-18 -47t-48 -19t-47.5 18.5t-17.5 47.5z" />
<glyph d="M297 115q27 0 45 -19.5t18 -52.5q0 -35 -16 -72.5t-32 -60t-42 -54.5l-35 24q53 73 68 115h-5q-27 0 -44 17.5t-17 42.5t16.5 42.5t43.5 17.5z" />
<glyph d="M585 390h-100l-39 -142h85v-92h-110l-42 -156h-104l42 156h-134l-42 -156h-104l42 156h-74v92h99l39 142h-85v92h110l42 154h104l-42 -154h134l42 154h104l-42 -154h75v-92zM208 248h134l39 142h-134z" />
<glyph d="M230 58q0 28 17.5 46t47.5 18t48 -18t18 -46t-18 -47t-48 -19t-47.5 18.5t-17.5 47.5z" />
<glyph d="M295 338q-30 0 -47.5 18.5t-17.5 47.5q0 28 17.5 46t47.5 18t48 -18t18 -46t-18 -47t-48 -19zM297 115q27 0 45 -19.5t18 -52.5q0 -35 -16 -72.5t-32 -60t-42 -54.5l-35 24q53 73 68 115h-5q-27 0 -44 17.5t-17 42.5t16.5 42.5t43.5 17.5z" />
<glyph d="M230 404q0 28 17.5 46t47.5 18t48 -18t18 -46t-18 -47t-48 -19t-47.5 18.5t-17.5 47.5zM230 58q0 28 17.5 46t47.5 18t48 -18t18 -46t-18 -47t-48 -19t-47.5 18.5t-17.5 47.5z" />
<glyph d="M297 115q27 0 45 -19.5t18 -52.5q0 -35 -16 -72.5t-32 -60t-42 -54.5l-35 24q53 73 68 115h-5q-27 0 -44 17.5t-17 42.5t16.5 42.5t43.5 17.5z" />
<glyph d="M585 390h-100l-39 -142h85v-92h-110l-42 -156h-104l42 156h-134l-42 -156h-104l42 156h-74v92h99l39 142h-85v92h110l42 154h104l-42 -154h134l42 154h104l-42 -154h75v-92zM208 248h134l39 142h-134z" />
<glyph d="M295 338q-30 0 -47.5 18.5t-17.5 47.5q0 28 17.5 46t47.5 18t48 -18t18 -46t-18 -47t-48 -19zM297 115q27 0 45 -19.5t18 -52.5q0 -35 -16 -72.5t-32 -60t-42 -54.5l-35 24q53 73 68 115h-5q-27 0 -44 17.5t-17 42.5t16.5 42.5t43.5 17.5z" />
<glyph d="M386 -77l-83 -35q-103 202 -103 429t103 429l83 -35q-92 -187 -92 -394t92 -394z" />
<glyph d="M202 -77q92 187 92 394t-92 394l83 35q103 -202 103 -429t-103 -429z" />
<glyph d="M386 -77l-83 -35q-103 202 -103 429t103 429l83 -35q-92 -187 -92 -394t92 -394z" />
<glyph d="M202 -77q92 187 92 394t-92 394l83 35q103 -202 103 -429t-103 -429z" />
<glyph d="M122 269v92h345v-92h-345z" />
<glyph d="M122 269v92h345v-92h-345z" />
<glyph />
<glyph />
<glyph d="M309 86q42 0 77.5 27t46.5 74l87 -34q-14 -60 -61 -100t-111 -50v-70h-84v71q-89 14 -141 81t-52 170q0 102 51.5 169.5t141.5 81.5v78h84v-77q64 -10 111 -50t61 -100l-87 -34q-11 47 -46.5 74t-77.5 27q-66 0 -103 -45t-37 -124q0 -80 37.5 -124.5t102.5 -44.5z" />
<glyph d="M518 192q0 -73 -46 -122t-121 -63v-68h-81v65q-142 14 -200 139l84 51q42 -101 149 -101q51 0 83 23t32 65q0 38 -32 60t-115 50q-92 30 -133 73t-41 111q0 64 48.5 110.5t125.5 54.5l1 85h82v-89q57 -11 96 -43t57 -78l-86 -45q-12 36 -45.5 58.5t-79.5 22.5 q-47 0 -72.5 -21t-25.5 -52q0 -39 29.5 -59.5t99.5 -44.5q98 -34 144.5 -74.5t46.5 -107.5z" />
<glyph d="M326 79q61 0 101 33.5t52 91.5l92 -36q-21 -81 -85 -129.5t-160 -48.5q-90 0 -158.5 51.5t-94.5 143.5h-55l-1 69h44q-1 10 -1 32q0 24 1 35h-43v69h56q27 90 95 140.5t157 50.5q96 0 160 -48.5t85 -129.5l-93 -38q-11 60 -51 93t-101 33q-107 0 -147 -101h182v-69h-197 q-2 -22 -2 -35q0 -22 1 -32h200v-69h-185q39 -106 148 -106z" />
<glyph d="M55 -103q19 -8 47 -8q83 0 96 98l59 420h-74l11 79h73l13 86q13 86 62 131.5t125 45.5q20 0 50 -4v-95q-16 9 -46 9q-82 0 -96 -98l-10 -75h107l-10 -79h-108l-60 -432q-13 -86 -62 -131t-125 -45q-27 0 -52 5v93z" />
<glyph d="M269 80h232v-80h-413v80h83v146h-80v80h80v19q0 260 225 260q44 0 75 -7l5 -91q-34 9 -77 9q-70 0 -100 -41t-30 -134v-15h137v-80h-137v-146z" />
<glyph d="M561 636l-157 -274h91v-71h-132l-17 -30v-27h149v-72h-149v-162h-103v162h-157v72h157v27l-17 30h-140v71h99l-156 274h118l96 -169l55 -105l55 105l96 169h112z" />
<glyph d="M309 86q42 0 77.5 27t46.5 74l87 -34q-14 -60 -61 -100t-111 -50v-70h-84v71q-89 14 -141 81t-52 170q0 102 51.5 169.5t141.5 81.5v78h84v-77q64 -10 111 -50t61 -100l-87 -34q-11 47 -46.5 74t-77.5 27q-66 0 -103 -45t-37 -124q0 -80 37.5 -124.5t102.5 -44.5z" />
<glyph d="M518 192q0 -73 -46 -122t-121 -63v-68h-81v65q-142 14 -200 139l84 51q42 -101 149 -101q51 0 83 23t32 65q0 38 -32 60t-115 50q-92 30 -133 73t-41 111q0 64 48.5 110.5t125.5 54.5l1 85h82v-89q57 -11 96 -43t57 -78l-86 -45q-12 36 -45.5 58.5t-79.5 22.5 q-47 0 -72.5 -21t-25.5 -52q0 -39 29.5 -59.5t99.5 -44.5q98 -34 144.5 -74.5t46.5 -107.5z" />
<glyph d="M326 79q61 0 101 33.5t52 91.5l92 -36q-21 -81 -85 -129.5t-160 -48.5q-90 0 -158.5 51.5t-94.5 143.5h-55l-1 69h44q-1 10 -1 32q0 24 1 35h-43v69h56q27 90 95 140.5t157 50.5q96 0 160 -48.5t85 -129.5l-93 -38q-11 60 -51 93t-101 33q-107 0 -147 -101h182v-69h-197 q-2 -22 -2 -35q0 -22 1 -32h200v-69h-185q39 -106 148 -106z" />
<glyph d="M55 -103q19 -8 47 -8q83 0 96 98l59 420h-74l11 79h73l13 86q13 86 62 131.5t125 45.5q20 0 50 -4v-95q-16 9 -46 9q-82 0 -96 -98l-10 -75h107l-10 -79h-108l-60 -432q-13 -86 -62 -131t-125 -45q-27 0 -52 5v93z" />
<glyph d="M269 80h232v-80h-413v80h83v146h-80v80h80v19q0 260 225 260q44 0 75 -7l5 -91q-34 9 -77 9q-70 0 -100 -41t-30 -134v-15h137v-80h-137v-146z" />
<glyph d="M561 636l-157 -274h91v-71h-132l-17 -30v-27h149v-72h-149v-162h-103v162h-157v72h157v27l-17 30h-140v71h99l-156 274h118l96 -169l55 -105l55 105l96 169h112z" />
<glyph d="M77 449h436v-79h-436v79zM77 271h436v-78h-436v78z" />
<glyph d="M334 543v-181h180v-76h-180v-180h-77v180h-180v76h180v181h77z" />
<glyph d="M77 362h437v-76h-437v76z" />
<glyph d="M110 454l54 53l130 -132l131 132l54 -53l-132 -131l132 -132l-54 -52l-131 130l-130 -130l-54 52l132 132z" />
<glyph d="M240 502q0 23 16 39.5t39 16.5q24 0 40.5 -16.5t16.5 -39.5q0 -24 -16.5 -40t-40.5 -16q-23 0 -39 16t-16 40zM77 362h437v-76h-437v76zM240 148q0 23 16 39.5t39 16.5q24 0 40.5 -16.5t16.5 -39.5q0 -24 -16.5 -40t-40.5 -16q-23 0 -39 16t-16 40z" />
<glyph d="M77 449h436v-79h-436v79zM77 271h436v-78h-436v78z" />
<glyph d="M132 425l32 68l293 -148v-88l-293 -148l-32 68l251 124z" />
<glyph d="M455 425l-251 -124l251 -124l-32 -68l-293 148v88l293 148z" />
<glyph horiz-adv-x="1180" d="M326 534q0 -61 -42.5 -102.5t-104.5 -41.5q-60 0 -102 41.5t-42 102.5t42 103.5t102 42.5q61 0 104 -42.5t43 -103.5zM535 671h63l-437 -668h-63zM99 534q0 -34 23.5 -57.5t56.5 -23.5q35 0 59 23.5t24 57.5t-24 58.5t-59 24.5q-32 0 -56 -24.5t-24 -58.5zM661 140 q0 -61 -42 -104t-102 -43q-61 0 -104 43t-43 104t42.5 102.5t104.5 41.5q60 0 102 -41.5t42 -102.5zM596 140q0 34 -23 57t-56 23q-35 0 -59 -23t-24 -57t24 -58.5t59 -24.5q33 0 56 24t23 59z" />
<glyph horiz-adv-x="1180" d="M75 534q0 61 42 103.5t102 42.5q61 0 104 -42.5t43 -103.5t-42.5 -102.5t-104.5 -41.5q-60 0 -102 41.5t-42 102.5zM575 671h63l-437 -668h-63zM139 534q0 -34 23.5 -57.5t56.5 -23.5q35 0 59 23.5t24 57.5t-24 58.5t-59 24.5q-32 0 -56 -24.5t-24 -58.5zM701 140 q0 -61 -42 -104t-102 -43q-61 0 -104 43t-43 104t42.5 102.5t104.5 41.5q60 0 102 -41.5t42 -102.5zM1025 140q0 -61 -42.5 -104t-101.5 -43q-61 0 -104 43t-43 104q0 60 43 102t104 42q60 0 102 -42t42 -102zM636 140q0 34 -23 57t-56 23q-35 0 -59 -23t-24 -57t24 -58.5 t59 -24.5q33 0 56 24t23 59zM961 140q0 33 -23.5 56.5t-56.5 23.5q-35 0 -59 -23t-24 -57t24 -58.5t59 -24.5q32 0 56 24.5t24 58.5z" />
<glyph d="M334 543v-181h180v-76h-180v-180h-77v180h-180v76h180v181h77z" />
<glyph d="M77 362h437v-76h-437v76z" />
<glyph d="M110 454l54 53l130 -132l131 132l54 -53l-132 -131l132 -132l-54 -52l-131 130l-130 -130l-54 52l132 132z" />
<glyph d="M240 502q0 23 16 39.5t39 16.5q24 0 40.5 -16.5t16.5 -39.5q0 -24 -16.5 -40t-40.5 -16q-23 0 -39 16t-16 40zM77 362h437v-76h-437v76zM240 148q0 23 16 39.5t39 16.5q24 0 40.5 -16.5t16.5 -39.5q0 -24 -16.5 -40t-40.5 -16q-23 0 -39 16t-16 40z" />
<glyph d="M132 425l32 68l293 -148v-88l-293 -148l-32 68l251 124z" />
<glyph d="M455 425l-251 -124l251 -124l-32 -68l-293 148v88l293 148z" />
<glyph horiz-adv-x="1180" d="M326 534q0 -61 -42.5 -102.5t-104.5 -41.5q-60 0 -102 41.5t-42 102.5t42 103.5t102 42.5q61 0 104 -42.5t43 -103.5zM535 671h63l-437 -668h-63zM99 534q0 -34 23.5 -57.5t56.5 -23.5q35 0 59 23.5t24 57.5t-24 58.5t-59 24.5q-32 0 -56 -24.5t-24 -58.5zM661 140 q0 -61 -42 -104t-102 -43q-61 0 -104 43t-43 104t42.5 102.5t104.5 41.5q60 0 102 -41.5t42 -102.5zM596 140q0 34 -23 57t-56 23q-35 0 -59 -23t-24 -57t24 -58.5t59 -24.5q33 0 56 24t23 59z" />
<glyph horiz-adv-x="1180" d="M75 534q0 61 42 103.5t102 42.5q61 0 104 -42.5t43 -103.5t-42.5 -102.5t-104.5 -41.5q-60 0 -102 41.5t-42 102.5zM575 671h63l-437 -668h-63zM139 534q0 -34 23.5 -57.5t56.5 -23.5q35 0 59 23.5t24 57.5t-24 58.5t-59 24.5q-32 0 -56 -24.5t-24 -58.5zM701 140 q0 -61 -42 -104t-102 -43q-61 0 -104 43t-43 104t42.5 102.5t104.5 41.5q60 0 102 -41.5t42 -102.5zM1025 140q0 -61 -42.5 -104t-101.5 -43q-61 0 -104 43t-43 104q0 60 43 102t104 42q60 0 102 -42t42 -102zM636 140q0 34 -23 57t-56 23q-35 0 -59 -23t-24 -57t24 -58.5 t59 -24.5q33 0 56 24t23 59zM961 140q0 33 -23.5 56.5t-56.5 23.5q-35 0 -59 -23t-24 -57t24 -58.5t59 -24.5q32 0 56 24.5t24 58.5z" />
<glyph horiz-adv-x="631" d="M601 0l-113 -1l-46 55q-71 -68 -178 -68q-97 0 -162.5 57.5t-65.5 144.5q0 126 148 182q-48 70 -48 125q0 65 47 109.5t119 44.5q69 0 117.5 -37.5t48.5 -110.5q0 -54 -40.5 -94.5t-108.5 -62.5l131 -160q31 65 37 162h87q-9 -140 -70 -228zM303 569q-33 0 -53 -21 t-20 -51q0 -41 45 -101q101 34 101 105q0 29 -20.5 48.5t-52.5 19.5zM266 73q74 0 123 46l-158 190l-5 6q-93 -38 -93 -124q0 -49 37 -83.5t96 -34.5z" />
<glyph d="M296 455q-60 0 -103 40.5t-43 97.5t43 97.5t103 40.5q59 0 101.5 -40.5t42.5 -97.5t-42.5 -97.5t-101.5 -40.5zM296 528q28 0 47.5 19t19.5 46q0 28 -19.5 46.5t-47.5 18.5q-29 0 -48.5 -18.5t-19.5 -46.5q0 -27 19.5 -46t48.5 -19z" />
<glyph d="M296 455q-60 0 -103 40.5t-43 97.5t43 97.5t103 40.5q59 0 101.5 -40.5t42.5 -97.5t-42.5 -97.5t-101.5 -40.5zM296 528q28 0 47.5 19t19.5 46q0 28 -19.5 46.5t-47.5 18.5q-29 0 -48.5 -18.5t-19.5 -46.5q0 -27 19.5 -46t48.5 -19z" />
<glyph horiz-adv-x="0" />
<glyph horiz-adv-x="0" />
<glyph horiz-adv-x="0" />
<glyph horiz-adv-x="0" />
<glyph horiz-adv-x="600" d="M234 861l74 -39l-144 -121l-53 33z" />
<glyph horiz-adv-x="600" d="M178 833q0 -24 18 -40.5t47 -16.5q28 1 45 17.5t17 39.5h69q1 -52 -36.5 -86t-94.5 -34q-59 0 -96.5 34t-36.5 86h68z" />
<glyph horiz-adv-x="600" d="M400 850l-114 -139h-96l-112 139h78l82 -91l85 91h77z" />
<glyph horiz-adv-x="600" d="M392 711h-78l-77 77l-73 -77h-80l108 127h91z" />
<glyph horiz-adv-x="600" d="M140 735q-25 0 -41 16.5t-16 41.5q0 24 16 40.5t41 16.5q26 0 42.5 -16.5t16.5 -40.5q0 -25 -16.5 -41.5t-42.5 -16.5zM327 735q-25 0 -41.5 16.5t-16.5 41.5q0 24 16.5 40.5t41.5 16.5q26 0 42 -16.5t16 -40.5q0 -25 -16 -41.5t-42 -16.5z" />
<glyph horiz-adv-x="600" d="M180 726q-22 0 -36 14t-14 35t14.5 35.5t35.5 14.5q22 0 37.5 -15t15.5 -35t-15.5 -34.5t-37.5 -14.5z" />
<glyph horiz-adv-x="600" d="M312 861l123 -127l-53 -33l-144 121z" />
<glyph horiz-adv-x="600" d="M188 850h102l-116 -138h-78zM376 850h101l-116 -138h-78z" />
<glyph horiz-adv-x="600" d="M85 818h263v-73h-263v73z" />
<glyph horiz-adv-x="600" d="M197 709q-35 0 -56.5 21t-21.5 52t21.5 52t56.5 21t57 -21t22 -52t-22 -52t-57 -21zM197 757q14 0 22 7.5t8 17.5t-8 17.5t-22 7.5q-12 0 -19.5 -7.5t-7.5 -17.5t8 -17.5t19 -7.5z" />
<glyph horiz-adv-x="600" d="M330 821q-18 -115 -92 -115q-29 0 -66.5 28t-56.5 28q-42 0 -53 -53l-50 12q8 54 32 85t60 31q28 0 65.5 -28.5t57.5 -28.5q40 0 53 54z" />
<glyph horiz-adv-x="707" d="M219 866l74 -39l-144 -121l-53 33zM584 866l74 -39l-144 -121l-53 33zM181 636v-636h-104v636h104zM488 636h103v-387q0 -132 -53.5 -196t-171.5 -64q-43 0 -76 7l-5 92q34 -8 78 -8q68 0 96.5 42.5t28.5 138.5v375z" />
<glyph horiz-adv-x="434" d="M478 657l-144 -121l-53 33l123 127zM239 656l-144 -121l-53 33l123 127zM161 486v-486h-97v486h97zM285 485h97v-483q0 -51 -16 -88t-43 -56.5t-57 -28t-64 -8.5q-37 0 -69 7v90q31 -9 62 -9q90 0 90 101v475z" />
<glyph horiz-adv-x="326" />
<glyph horiz-adv-x="326" />
<glyph horiz-adv-x="626" d="M571 286q0 -118 -58 -196l28 -34l-34 -28l-24 28q-70 -67 -174 -67q-116 0 -189 82t-73 215q0 129 70 210l-22 27l35 28l19 -23q68 54 160 54q115 0 188.5 -82t73.5 -214zM309 492q-60 0 -101 -35l241 -290q23 49 23 119q0 96 -44.5 151t-118.5 55zM309 78q70 0 114 50 l-244 294q-33 -53 -33 -136q0 -98 44 -153t119 -55z" />
<glyph horiz-adv-x="228" d="M162 0h-97v671l97 13v-684z" />
<glyph horiz-adv-x="652" d="M314 500q77 0 125 -42t48 -135v-323h-97v292q0 64 -24 92t-73 28q-61 0 -99 -44q-31 -36 -31 -110l-12 107l-27 14v45h45q20 33 59 54.5t86 21.5z" />
<glyph horiz-adv-x="636" d="M308 500q92 0 154.5 -69.5t62.5 -185.5q0 -115 -63 -185t-155 -70q-104 0 -150 73h-50v365h52q46 72 149 72zM293 76q62 0 98 44t36 125t-35.5 125t-97.5 44q-65 0 -104.5 -43t-39.5 -125q0 -83 39 -126.5t104 -43.5z" />
<glyph horiz-adv-x="284" d="M65 486h90l7 -125v-361h-97v486z" />
</font>
</defs>
</svg>
