<?xml version="1.0" standalone="no"?>
<!DOCTYPE svg PUBLIC "-//W3C//DTD SVG 1.1//EN" "http://www.w3.org/Graphics/SVG/1.1/DTD/svg11.dtd" >
<svg xmlns="http://www.w3.org/2000/svg">
<metadata></metadata>
<defs>
<font id="baxter_sanssemibold" horiz-adv-x="590" >
<font-face units-per-em="1000" ascent="761" descent="-239" />
<missing-glyph horiz-adv-x="207" />
<glyph unicode="ty" horiz-adv-x="853" d="M189 194q0 -100 83 -100q30 0 59 9v-103q-33 -7 -73 -7q-34 0 -64.5 9.5t-58 29.5t-43.5 58.5t-16 91.5v214h-61v91h61v123l112 13v-136h120v-91h-119v-202zM680 68l-26 -68l-70 -185h-118l67 182l-185 490h129l121 -367l122 367h118z" />
<glyph unicode="&#xd;" horiz-adv-x="600" />
<glyph unicode=" "  horiz-adv-x="207" />
<glyph unicode="&#x09;" horiz-adv-x="207" />
<glyph unicode="&#xa0;" horiz-adv-x="207" />
<glyph unicode="!" horiz-adv-x="253" d="M82 221l-8 418h113l-9 -418h-96zM57 63q0 30 19 50t52 20t52 -20t19 -50q0 -31 -19 -51.5t-52 -20.5t-52 20.5t-19 51.5z" />
<glyph unicode="&#x22;" horiz-adv-x="316" d="M41 663h91l-11 -219h-69zM181 663h91l-11 -219h-69z" />
<glyph unicode="#" horiz-adv-x="649" d="M646 384h-111l-35 -130h94v-105h-122l-40 -149h-121l40 149h-130l-40 -149h-121l40 149h-82v105h110l35 130h-93v105h121l40 150h122l-40 -150h129l40 150h122l-40 -150h82v-105zM379 254l35 130h-130l-35 -130h130z" />
<glyph unicode="$" horiz-adv-x="540" d="M490 198q0 -73 -45.5 -123.5t-121.5 -64.5v-75h-94l1 72q-139 14 -196 139l95 59q42 -97 142 -97q45 0 74 21t29 56t-31.5 56t-110.5 46q-89 29 -132 72t-43 112q0 68 48.5 115t126.5 56l1 85h93v-90q55 -12 95 -45t57 -81l-100 -50q-12 35 -42.5 57t-72.5 22 q-43 0 -66.5 -18.5t-23.5 -47.5q0 -36 29.5 -55t98.5 -41q93 -30 141 -71.5t48 -108.5z" />
<glyph unicode="%" horiz-adv-x="706" d="M330 532q0 -62 -43.5 -105t-106.5 -43q-62 0 -104.5 43t-42.5 105t43 105.5t104 43.5q63 0 106.5 -43.5t43.5 -105.5zM535 672h71l-436 -668h-70zM105 532q0 -31 22.5 -53.5t52.5 -22.5q32 0 55 22.5t23 53.5q0 32 -23 55t-55 23q-30 0 -52.5 -23t-22.5 -55zM672 144 q0 -62 -43 -106t-104 -44q-62 0 -106 44t-44 106q0 61 44 103.5t106 42.5q61 0 104 -42.5t43 -103.5zM600 144q0 32 -22 53.5t-53 21.5q-32 0 -55 -22t-23 -53q0 -33 23 -55.5t55 -22.5t53.5 22.5t21.5 55.5z" />
<glyph unicode="&#x26;" horiz-adv-x="644" d="M599 -9q-93 0 -153 60q-72 -67 -176 -67q-101 0 -169 58t-68 147q0 124 149 179q-48 68 -48 124q0 68 51 114.5t126 46.5t125 -39t50 -115q0 -56 -41.5 -95t-110.5 -61l121 -147q26 59 32 149h98q-9 -139 -67 -224q30 -29 80 -29zM312 565q-31 0 -50 -20.5t-19 -49.5 q0 -35 43 -95q41 14 68.5 39.5t27.5 59.5q0 28 -19.5 47t-50.5 19zM146 194q0 -48 34.5 -80t91.5 -32q66 0 112 41l-154 184l-2 2q-82 -33 -82 -115z" />
<glyph unicode="'" horiz-adv-x="180" d="M41 663h93l-11 -219h-71z" />
<glyph unicode="(" horiz-adv-x="284" d="M259 -77l-92 -39q-105 206 -105 433t105 433l92 -39q-92 -187 -92 -394t92 -394z" />
<glyph unicode=")" horiz-adv-x="284" d="M25 -77q92 187 92 394t-92 394l92 39q105 -206 105 -433t-105 -433z" />
<glyph unicode="*" horiz-adv-x="290" d="M306 557l-92 -24l65 -76l-75 -45l-46 74l-47 -74l-73 45l62 75l-92 23l29 76l83 -35l-8 95h91l-7 -95l82 35z" />
<glyph unicode="+" horiz-adv-x="577" d="M332 551v-182h180v-87h-180v-180h-87v180h-181v87h181v182h87z" />
<glyph unicode="," horiz-adv-x="248" d="M194 53v-1v-1q-1 -52 -25.5 -97.5t-68.5 -97.5l-42 28q46 61 66 110h-1q-31 0 -51 20.5t-20 49.5t19.5 49.5t50.5 20.5t51.5 -22t20.5 -59z" />
<glyph unicode="-" horiz-adv-x="333" d="M28 265v105h277v-105h-277z" />
<glyph unicode="." horiz-adv-x="247" d="M48 66q0 30 20 51t53 21t53 -21t20 -51q0 -32 -19.5 -53t-53.5 -21t-53.5 21t-19.5 53z" />
<glyph unicode="/" horiz-adv-x="295" d="M121 0h-121l171 639h122z" />
<glyph unicode="0" horiz-adv-x="628" d="M584 290q0 -136 -76 -219t-194 -83q-119 0 -194.5 83t-75.5 219q0 133 75.5 215t194.5 82q118 0 194 -82t76 -215zM468 290q0 91 -41.5 142t-112.5 51t-112 -51t-41 -142q0 -93 41 -145t112 -52t112.5 52t41.5 145z" />
<glyph unicode="1" horiz-adv-x="381" d="M284 568v-568h-115v465h-133v103h248z" />
<glyph unicode="2" horiz-adv-x="558" d="M202 94l307 5v-99h-463l1 26q2 47 27.5 85.5t62 62.5t78.5 49t77.5 46t59 52t23.5 68q0 45 -28.5 72t-76.5 27q-45 0 -74 -28t-37 -76l-102 23q10 83 69 131.5t148 48.5q96 0 155 -54t59 -141q0 -54 -23.5 -96t-60.5 -69t-75 -47.5t-75 -42.5t-52 -43z" />
<glyph unicode="3" horiz-adv-x="559" d="M386 267q118 -41 118 -152q0 -92 -66.5 -143t-169.5 -51q-88 0 -150.5 42t-80.5 118l107 36q26 -95 127 -95q53 0 85 24t32 72q0 51 -40.5 74t-130.5 23v91q64 0 106 22.5t42 73.5q0 40 -27 62.5t-72 22.5q-38 0 -67 -21t-39 -59l-101 32q16 64 72.5 106t140.5 42 q91 0 150.5 -48t59.5 -128q0 -95 -96 -144z" />
<glyph unicode="4" horiz-adv-x="567" d="M549 145v-99h-81v-130h-113v130h-305l-16 61l213 466h123l-195 -428h180v195h113v-195h81z" />
<glyph unicode="5" horiz-adv-x="551" d="M291 374q97 0 159.5 -59.5t62.5 -165.5q0 -103 -66 -166.5t-167 -63.5q-93 0 -152.5 45t-77.5 124l105 33q30 -105 123 -105q56 0 87.5 35t31.5 97q0 59 -34 95t-88 36q-73 0 -108 -66l-96 26l2 1l-7 1l39 332h378v-99h-289l-15 -134q46 34 112 34z" />
<glyph unicode="6" horiz-adv-x="550" d="M294 423q98 -1 159.5 -57t61.5 -153q0 -100 -64.5 -162t-163.5 -62q-116 0 -181.5 79t-65.5 232q0 168 66 260t189 92q78 0 131.5 -37t74.5 -89l-96 -52q-15 36 -45 57.5t-69 21.5q-63 0 -95.5 -46t-40.5 -139q55 56 139 55zM282 87q54 0 86.5 33.5t32.5 84.5 q0 55 -32 88.5t-88 33.5q-58 0 -88 -33t-30 -89q0 -49 31 -83.5t88 -34.5z" />
<glyph unicode="7" horiz-adv-x="500" d="M35 568h435v-86q-195 -269 -253 -556h-115q60 299 241 543h-308v99z" />
<glyph unicode="8" horiz-adv-x="554" d="M411 337q107 -46 107 -155q0 -85 -68.5 -138.5t-173.5 -53.5q-103 0 -171.5 53.5t-68.5 138.5q0 109 106 155q-87 45 -87 136q0 78 59.5 128.5t161.5 50.5q103 0 162.5 -50.5t59.5 -128.5q0 -89 -87 -136zM276 564q-50 0 -77 -24.5t-27 -66.5q0 -37 27.5 -64t76.5 -27 q50 0 78 27t28 64q0 42 -27.5 66.5t-78.5 24.5zM276 83q61 0 93 28t32 73q0 44 -32.5 73t-92.5 29t-91.5 -29t-31.5 -73q0 -45 31.5 -73t91.5 -28z" />
<glyph unicode="9" horiz-adv-x="562" d="M275 588q116 0 181.5 -79t65.5 -232q0 -168 -66 -260t-189 -92q-78 0 -131.5 37t-74.5 89l96 52q15 -36 45 -57.5t69 -21.5q63 0 95.5 46t40.5 139q-55 -56 -139 -55q-98 1 -159.5 57t-61.5 153q0 100 64.5 162t163.5 62zM281 250q58 0 88 33t30 89q0 49 -31 83.5 t-88 34.5q-54 0 -86.5 -33.5t-32.5 -84.5q0 -55 32 -88.5t88 -33.5z" />
<glyph unicode=":" horiz-adv-x="318" d="M85 403q0 30 20 51t53 21t53 -21t20 -51q0 -32 -19.5 -53t-53.5 -21t-53.5 21t-19.5 53zM85 66q0 30 20 51t53 21t53 -21t20 -51q0 -32 -19.5 -53t-53.5 -21t-53.5 21t-19.5 53z" />
<glyph unicode=";" horiz-adv-x="318" d="M158 329q-34 0 -53.5 21t-19.5 53q0 30 20 51t53 21t53 -21t20 -51q0 -32 -19.5 -53t-53.5 -21zM231 53v-1v-1q-1 -52 -25.5 -97.5t-68.5 -97.5l-42 28q46 61 66 110h-1q-31 0 -51 20.5t-20 49.5t19.5 49.5t50.5 20.5t51.5 -22t20.5 -59z" />
<glyph unicode="&#x3c;" horiz-adv-x="447" d="M387 421l-252 -120l252 -120l-34 -79l-302 148v103l302 147z" />
<glyph unicode="=" horiz-adv-x="591" d="M71 457h449v-86h-449v86zM71 276h449v-84h-449v84z" />
<glyph unicode="&#x3e;" horiz-adv-x="447" d="M60 421l34 79l302 -147v-103l-302 -148l-34 79l252 120z" />
<glyph unicode="?" horiz-adv-x="483" d="M236 651q89 0 150.5 -53t61.5 -140q0 -84 -46 -132t-122 -62v-61h-101v142h29q134 2 134 113q0 46 -31.5 73.5t-78.5 27.5q-93 0 -111 -105l-94 25q11 78 66.5 125t142.5 47zM226 133q33 0 52 -20t19 -50q0 -31 -19 -51.5t-52 -20.5t-52 20.5t-19 51.5q0 30 19 50t52 20z " />
<glyph unicode="@" horiz-adv-x="919" d="M486 640q170 0 280.5 -101.5t110.5 -256.5q0 -114 -62 -194t-149 -80q-47 0 -78 23.5t-40 61.5q-25 -35 -68.5 -56t-89.5 -21q-72 0 -118.5 52.5t-46.5 134.5q0 105 64.5 180.5t159.5 75.5q81 0 121 -58l8 50h90l-42 -297q-1 -6 -1 -19q0 -47 44 -47q45 0 81 57t36 137 q0 124 -84 203t-216 79q-150 0 -251.5 -101.5t-101.5 -255.5q0 -140 83.5 -221.5t232.5 -83.5q73 -2 147 21l-14 -88q-58 -16 -118 -16q-191 0 -306.5 106.5t-115.5 281.5q0 185 128.5 309t315.5 124zM411 94q59 0 99.5 51.5t40.5 120.5q0 52 -27 83.5t-71 31.5 q-57 0 -97 -48t-40 -120q0 -52 27 -85.5t68 -33.5z" />
<glyph unicode="A" horiz-adv-x="658" d="M499 0l-46 134h-257l-46 -134h-130l242 640h136l240 -640h-139zM227 225h195l-97 285z" />
<glyph unicode="B" horiz-adv-x="614" d="M461 333q51 -16 84 -53.5t33 -96.5q0 -88 -57 -135.5t-169 -47.5h-278v639h260q105 0 158 -44.5t53 -125.5q0 -42 -23.5 -79t-60.5 -57zM307 545h-113v-171h113q115 0 115 86q0 43 -26.5 64t-88.5 21zM314 94q78 0 110 22.5t32 70.5t-34.5 70.5t-107.5 22.5h-120v-186 h120z" />
<glyph unicode="C" horiz-adv-x="661" d="M618 189q-23 -91 -95 -146t-181 -55q-128 0 -214 90t-86 243q0 151 86 240.5t214 89.5q109 0 181 -54.5t95 -145.5l-110 -44q-14 65 -57 100.5t-109 35.5q-82 0 -130 -58.5t-48 -164.5q0 -105 48.5 -164.5t129.5 -59.5q66 0 109 36t57 100z" />
<glyph unicode="D" horiz-adv-x="667" d="M278 639q174 0 261 -83t87 -234q0 -153 -87 -237.5t-261 -84.5h-204v639h204zM194 538v-436h84q123 0 176 54.5t53 165.5q0 110 -52.5 163t-176.5 53h-84z" />
<glyph unicode="E" horiz-adv-x="560" d="M194 535v-163h284v-105h-284v-162h322v-105h-442v640h442v-105h-322z" />
<glyph unicode="F" horiz-adv-x="528" d="M194 339h261v-105h-261v-234h-120v640h416v-106h-296v-195z" />
<glyph unicode="G" horiz-adv-x="693" d="M402 320h234v-320h-77l-12 91q-68 -103 -202 -103q-130 0 -216.5 89.5t-86.5 243.5q0 152 87 241t220 89q100 0 173.5 -51t99.5 -138l-108 -50q-15 63 -58.5 97t-106.5 34q-84 0 -134.5 -58.5t-50.5 -164.5q0 -105 50 -164.5t131 -59.5q62 0 106 32.5t60 93.5h-109v98z " />
<glyph unicode="H" horiz-adv-x="678" d="M483 639h120v-639h-120v259h-289v-259h-120v639h120v-275h289v275z" />
<glyph unicode="I" horiz-adv-x="269" d="M194 639v-639h-120v639h120z" />
<glyph unicode="J" horiz-adv-x="412" d="M221 639h119v-382q0 -137 -56.5 -202.5t-176.5 -65.5q-46 0 -79 7l-5 108q34 -8 82 -8q63 0 89.5 42.5t26.5 137.5v363z" />
<glyph unicode="K" horiz-adv-x="634" d="M485 0l-206 287l-85 -94v-193h-120v639h120v-293l269 293h148l-247 -269l266 -370h-145z" />
<glyph unicode="L" horiz-adv-x="527" d="M194 105h304v-105h-424v639h120v-534z" />
<glyph unicode="M" horiz-adv-x="821" d="M639 640h108v-640h-120v178l5 225l-188 -315h-66l-190 319l6 -229v-178h-120v640h117l224 -398z" />
<glyph unicode="N" horiz-adv-x="680" d="M486 640h120v-640h-112l-303 435l3 -143v-292h-120v640h117l299 -432l-4 139v293z" />
<glyph unicode="O" horiz-adv-x="685" d="M643 321q0 -153 -86.5 -243t-214.5 -90t-214 90t-86 243q0 151 86 240.5t214 89.5t214.5 -89.5t86.5 -240.5zM521 321q0 106 -48.5 164t-130.5 58t-130 -58t-48 -164t48.5 -165.5t129.5 -59.5q82 0 130.5 59.5t48.5 165.5z" />
<glyph unicode="P" horiz-adv-x="596" d="M317 640q120 0 183 -55t63 -157q0 -101 -63 -155.5t-184 -54.5h-122v-218h-120v640h243zM316 323q125 0 125 105q0 106 -124 106h-123v-211h122z" />
<glyph unicode="Q" horiz-adv-x="685" d="M643 321q0 -137 -70 -224t-180 -105q4 -40 28 -57t76 -17h53v-105h-51q-98 0 -143.5 44t-50.5 133q-115 13 -189 101t-74 230q0 151 86 240.5t214 89.5t214.5 -89.5t86.5 -240.5zM342 96q82 0 130.5 59.5t48.5 165.5t-48.5 164t-130.5 58t-130 -58t-48 -164t48.5 -165.5 t129.5 -59.5z" />
<glyph unicode="R" horiz-adv-x="624" d="M581 0h-135l-141 226h-111v-226h-120v640h247q117 0 182 -55t65 -153q0 -72 -36.5 -121t-104.5 -70l2 -3zM194 534v-203h127q127 0 127 101q0 102 -127 102h-127z" />
<glyph unicode="S" horiz-adv-x="531" d="M384 460q-12 36 -44 59t-75 23q-45 0 -69 -19t-24 -50q0 -37 30.5 -56.5t101.5 -42.5q97 -32 146.5 -74.5t49.5 -112.5q0 -90 -64.5 -144.5t-167.5 -54.5q-172 0 -240 146l98 60q43 -100 147 -100q47 0 77 21.5t30 58.5t-32 58t-115 48q-92 29 -136.5 74t-44.5 116 q0 78 61 128.5t154 50.5q80 0 139 -37.5t82 -99.5z" />
<glyph unicode="T" horiz-adv-x="560" d="M540 639v-105h-200v-534h-120v534h-200v105h520z" />
<glyph unicode="U" horiz-adv-x="660" d="M189 266q0 -92 32.5 -135.5t108.5 -43.5t108.5 43.5t32.5 135.5v373h120v-376q0 -137 -66 -209.5t-195 -72.5q-130 0 -195.5 72.5t-65.5 209.5v376h120v-373z" />
<glyph unicode="V" horiz-adv-x="648" d="M500 639h132l-248 -639h-122l-246 639h142l171 -491z" />
<glyph unicode="W" horiz-adv-x="966" d="M819 639h132l-195 -639h-129l-93 287l-54 184l-52 -184l-90 -287h-128l-196 639h135l67 -235l63 -229l66 229l75 235h123l77 -235l68 -230l64 230z" />
<glyph unicode="X" horiz-adv-x="603" d="M595 0h-142l-151 237l-153 -237h-141l210 321l-205 319h140l150 -234l149 234h140l-205 -318z" />
<glyph unicode="Y" horiz-adv-x="575" d="M567 639l-219 -380v-259h-120v258l-220 381h137l97 -171l50 -94l49 94l98 171h128z" />
<glyph unicode="Z" horiz-adv-x="579" d="M529 539l-298 -387l-38 -48h336v-104h-479v99l290 377l48 59h-338v104h479v-100z" />
<glyph unicode="[" horiz-adv-x="295" d="M263 633h-71v-634h71v-90h-177v814h177v-90z" />
<glyph unicode="\" horiz-adv-x="277" d="M43 0l-172 639h122l171 -639h-121z" />
<glyph unicode="]" horiz-adv-x="295" d="M209 723v-814h-177v90h71v634h-71v90h177z" />
<glyph unicode="^" horiz-adv-x="638" d="M568 425h-89l-163 168l-157 -168h-89l190 222h112z" />
<glyph unicode="_" horiz-adv-x="554" d="M554 -57v-78h-554v78h554z" />
<glyph unicode="`" horiz-adv-x="351" d="M327 866l122 -133l-64 -31l-149 128z" />
<glyph unicode="a" horiz-adv-x="522" d="M449 79h57v-79h-140l-6 68h-5q-21 -34 -63 -56t-97 -22q-74 0 -118.5 37.5t-44.5 104.5q0 125 184 150l120 15q-2 54 -23 82t-66 28q-76 0 -99 -75l-95 34q21 64 73.5 98.5t127.5 34.5q86 0 140.5 -44.5t54.5 -146.5v-229zM145 138q0 -28 19 -45t52 -17q47 0 84 30.5 t37 82.5v33l-89 -10q-55 -7 -79 -23.5t-24 -50.5z" />
<glyph unicode="b" horiz-adv-x="577" d="M326 500q91 0 155 -70t64 -185t-64 -185t-156 -70q-97 0 -144 69h-7v-59h-113v671l113 15v-254h8q47 68 144 68zM306 89q57 0 90.5 40.5t33.5 115.5q0 74 -33 115t-90 41q-60 0 -96 -39.5t-36 -115.5q0 -77 35.5 -117t95.5 -40z" />
<glyph unicode="c" horiz-adv-x="529" d="M492 145q-16 -70 -76.5 -113t-139.5 -43q-110 0 -176.5 70.5t-66.5 185.5t66 185t177 70q79 0 139.5 -43t76.5 -113l-102 -38q-9 45 -41.5 70t-72.5 25q-61 0 -95 -42t-34 -114q0 -73 34 -115t95 -42q40 0 72.5 25t41.5 71z" />
<glyph unicode="d" horiz-adv-x="577" d="M403 671l113 15v-686h-113v59h-6q-47 -69 -144 -69q-92 0 -156 70t-64 185t64 185t155 70q97 0 144 -68h7v239zM272 89q60 0 95.5 40t35.5 117q0 76 -36 115.5t-96 39.5q-57 0 -90 -41t-33 -115q0 -75 33.5 -115.5t90.5 -40.5z" />
<glyph unicode="e" horiz-adv-x="525" d="M272 500q101 0 160 -68t57 -172v-34h-342q5 -66 39 -102t87 -36q85 0 113 81l91 -51q-17 -55 -73.5 -92t-129.5 -37q-107 0 -174 69.5t-67 186.5q0 114 66 184.5t173 70.5zM267 406q-46 0 -77 -27t-40 -76h225q-5 47 -33 75t-75 28z" />
<glyph unicode="f" horiz-adv-x="354" d="M298 590q-86 0 -86 -100v-3h126v-91h-126v-396h-112v396h-77v91h77v15q0 53 16 91.5t44 58.5t59 29.5t66 9.5q43 0 75 -8v-102q-31 9 -62 9z" />
<glyph unicode="g" horiz-adv-x="579" d="M415 485h103v-414q0 -127 -68 -194t-189 -67q-71 0 -129.5 28t-92.5 77l71 69q20 -33 58.5 -55.5t85.5 -22.5q75 0 113.5 39t38.5 114v4h-8q-46 -67 -145 -67q-98 0 -159 68.5t-61 183.5q0 114 62 183t157 69q100 0 147 -68h12zM272 92q61 0 97 40t36 117 q0 76 -36.5 115.5t-97.5 39.5q-57 0 -90 -40.5t-33 -115.5t33 -115.5t91 -40.5z" />
<glyph unicode="h" horiz-adv-x="560" d="M325 500q76 0 124.5 -42.5t48.5 -135.5v-322h-113v282q0 62 -22 89t-68 27q-56 0 -91 -41q-28 -33 -28 -111v-246h-113v671l113 15v-260h4q21 33 58.5 53.5t86.5 20.5z" />
<glyph unicode="i" horiz-adv-x="235" d="M188 632q0 -31 -20 -50.5t-50 -19.5q-31 0 -51.5 19.5t-20.5 50.5t20.5 51t51.5 20q30 0 50 -20t20 -51zM174 0h-113v487h113v-487z" />
<glyph unicode="j" horiz-adv-x="236" d="M118 562q-31 0 -51.5 19.5t-20.5 50.5t20.5 51t51.5 20q30 0 50 -20t20 -51t-20 -50.5t-50 -19.5zM61 73v412h113v-482q0 -53 -16 -91.5t-44 -58.5t-59 -29.5t-66 -9.5q-43 0 -75 8v102q31 -9 62 -9q86 0 86 100v58h-1z" />
<glyph unicode="k" horiz-adv-x="524" d="M392 0l-159 222l-59 -56v-166h-113v671l113 15v-394l191 195h141l-195 -189l212 -298h-131z" />
<glyph unicode="l" horiz-adv-x="235" d="M174 0h-113v671l113 15v-686z" />
<glyph unicode="m" horiz-adv-x="849" d="M623 500q71 0 117.5 -40t46.5 -132v-328h-112v289q0 110 -83 110q-52 0 -81.5 -39t-29.5 -102v-258h-112v289q0 110 -82 110q-53 0 -82 -39.5t-29 -101.5v-258h-113v487h104l4 -61h9q20 33 56 53.5t81 20.5q110 0 147 -82h7q21 36 61 59t91 23z" />
<glyph unicode="n" horiz-adv-x="560" d="M325 500q76 0 124.5 -42.5t48.5 -135.5v-322h-113v282q0 62 -22 89t-68 27q-56 0 -91 -41q-28 -33 -28 -111v-246h-113v487h104l4 -61h9q21 33 58.5 53.5t86.5 20.5z" />
<glyph unicode="o" horiz-adv-x="549" d="M516 245q0 -116 -67 -186t-175 -70q-107 0 -174 70t-67 186t67 185.5t174 69.5q108 0 175 -69t67 -186zM402 245q0 74 -33.5 115.5t-94.5 41.5q-59 0 -93 -41.5t-34 -115.5q0 -73 34 -115t93 -42q61 0 94.5 41.5t33.5 115.5z" />
<glyph unicode="p" horiz-adv-x="579" d="M327 500q91 0 155 -70t64 -185t-64 -185t-156 -70q-97 0 -144 69h-6v-243h-113v671h113v-55h7q47 68 144 68zM307 89q57 0 90.5 40.5t33.5 115.5q0 74 -33 115t-90 41q-60 0 -96 -39.5t-36 -115.5q0 -77 35.5 -117t95.5 -40z" />
<glyph unicode="q" horiz-adv-x="579" d="M403 487h113v-671h-113v243h-6q-47 -69 -144 -69q-92 0 -156 70t-64 185t64 185t155 70q97 0 144 -68h7v55zM272 89q60 0 95.5 40t35.5 117q0 76 -36 115.5t-96 39.5q-57 0 -90 -41t-33 -115q0 -75 33.5 -115.5t90.5 -40.5z" />
<glyph unicode="r" horiz-adv-x="348" d="M309 500q14 0 34 -5l-9 -110q-12 6 -41 6q-50 0 -83.5 -32.5t-33.5 -91.5v-267h-113v485h104l5 -75h8q18 41 53.5 65.5t75.5 24.5z" />
<glyph unicode="s" horiz-adv-x="457" d="M81 158q19 -31 60 -53t89 -22q38 0 59 13.5t21 38.5t-23 39.5t-76 28.5q-80 21 -123.5 54.5t-43.5 96.5q0 67 51 106.5t135 39.5q115 0 185 -72l-51 -82q-23 26 -61 44t-77 18q-33 0 -52 -13t-19 -34q0 -25 25.5 -38t79.5 -27q76 -20 119 -54t43 -95q0 -71 -53.5 -114.5 t-140.5 -43.5q-128 0 -199 89z" />
<glyph unicode="t" horiz-adv-x="358" d="M275 94q31 0 62 9v-102q-32 -8 -75 -8q-35 0 -66 9.5t-59 29.5t-44 58.5t-16 91.5v213h-62v91l61 1v121l112 14v-135h128v-91h-127v-202q0 -100 86 -100z" />
<glyph unicode="u" horiz-adv-x="560" d="M384 487h113v-487h-104l-4 61h-9q-21 -33 -58.5 -53.5t-86.5 -20.5q-76 0 -124.5 42.5t-48.5 135.5v322h113v-282q0 -62 22 -89t68 -27q56 0 91 41q28 33 28 111v246z" />
<glyph unicode="v" horiz-adv-x="521" d="M388 487h118l-184 -487h-122l-184 487h129l121 -367z" />
<glyph unicode="w" horiz-adv-x="783" d="M650 487h117l-171 -487h-101l-103 352l-103 -352h-101l-172 487h119l106 -332l93 332h116l94 -330z" />
<glyph unicode="x" horiz-adv-x="522" d="M519 0h-130l-128 166l-130 -166h-128l187 244l-182 243h127l126 -165l124 165h126l-181 -242z" />
<glyph unicode="y" horiz-adv-x="521" d="M348 68l-26 -68l-70 -185h-118l67 182l-185 490h129l121 -367l122 367h118z" />
<glyph unicode="z" horiz-adv-x="439" d="M407 0h-377v71l246 325h-239v91h369v-71l-241 -325h242v-91z" />
<glyph unicode="{" horiz-adv-x="280" d="M202 429q0 -77 -44 -109q44 -32 44 -109v-128q0 -47 10 -60t41 -13v-95q-81 0 -117.5 32.5t-36.5 118.5v136q0 51 -10.5 64t-48.5 13v82q38 0 48.5 13t10.5 64v133q0 86 36.5 118.5t117.5 32.5v-95q-31 0 -41 -13t-10 -60v-125z" />
<glyph unicode="|" horiz-adv-x="326" d="M217 -197h-113v868l113 15v-883z" />
<glyph unicode="}" horiz-adv-x="274" d="M184 435q0 -51 10.5 -64t48.5 -13v-82q-38 0 -48.5 -13t-10.5 -64v-133q0 -86 -36.5 -118.5t-117.5 -32.5v95q31 0 41 13t10 60v125q0 77 44 109q-44 32 -44 109v128q0 47 -10 60t-41 13v95q81 0 117.5 -32.5t36.5 -118.5v-136z" />
<glyph unicode="~" horiz-adv-x="450" d="M413 375q0 -70 -28.5 -109.5t-79.5 -39.5q-29 0 -55.5 17.5t-48 35t-40.5 17.5q-47 0 -47 -65h-76q0 70 28 110t80 40q29 0 55 -17.5t48 -35t41 -17.5q46 0 46 64h77z" />
<glyph unicode="&#xa1;" horiz-adv-x="264" d="M57 459q0 31 19 51.5t52 20.5t52 -20.5t19 -51.5q0 -30 -19 -50t-52 -20t-52 20t-19 50zM82 301h96l9 -418h-113z" />
<glyph unicode="&#xa2;" horiz-adv-x="529" d="M276 98q40 0 72.5 25t41.5 71l102 -39q-13 -60 -60.5 -101t-113.5 -52v-74h-96v76q-87 17 -138 84t-51 167t50.5 166.5t138.5 83.5v84h96v-82q66 -11 113.5 -52t60.5 -101l-102 -38q-9 45 -41.5 70t-72.5 25q-61 0 -95 -42t-34 -114q0 -73 34 -115t95 -42z" />
<glyph unicode="&#xa3;" horiz-adv-x="500" d="M238 91h230v-91h-429v91h85v131h-81v92h81v8q0 267 232 267q46 0 79 -7l5 -104q-43 10 -82 10q-65 0 -92.5 -39t-27.5 -130v-5h135v-92h-135v-131z" />
<glyph unicode="&#xa4;" horiz-adv-x="492" d="M449 304q0 -68 -37 -116l47 -47l-54 -54l-51 50q-48 -25 -107 -25q-62 0 -108 26l-52 -52l-54 54l47 47q-38 51 -38 117q0 64 34 112l-43 43l54 54l46 -46q48 28 114 28q63 0 113 -28l45 46l54 -54l-43 -44q33 -47 33 -111zM246 206q45 0 70.5 26t25.5 72 q0 45 -25.5 71.5t-70.5 26.5t-71 -26.5t-26 -71.5q0 -46 26 -72t71 -26z" />
<glyph unicode="&#xa5;" horiz-adv-x="575" d="M567 639l-158 -275h82v-81h-129l-14 -24v-28h143v-82h-143v-149h-120v149h-157v82h157v27l-14 25h-143v81h96l-159 275h137l97 -171l50 -94l49 94l98 171h128z" />
<glyph unicode="&#xa6;" horiz-adv-x="326" d="M217 393h-113v278l113 15v-293zM217 -161h-113v441h113v-441z" />
<glyph unicode="&#xa7;" horiz-adv-x="508" d="M477 190q0 -79 -73 -119q30 -36 30 -88q0 -77 -58.5 -123.5t-151.5 -46.5q-72 0 -130 28v101q68 -35 132 -35q45 0 70.5 17t25.5 47q0 31 -26.5 49t-85.5 33q-87 21 -134.5 56.5t-47.5 105.5q0 80 73 117q-31 38 -31 90q0 73 55 117t144 44q63 0 118 -26v-106 q-59 38 -122 38q-39 0 -61 -16t-22 -41q0 -13 7 -24t14.5 -17.5t26.5 -14t30 -10.5t38 -11q84 -22 131.5 -58.5t47.5 -106.5zM139 225q0 -11 3.5 -20t13.5 -16.5t16.5 -12t25 -11t26.5 -8.5t32 -9q35 -9 67 -20q41 15 41 50q0 31 -26.5 49t-85.5 34q-36 9 -66 19 q-47 -18 -47 -55z" />
<glyph unicode="&#xa8;" horiz-adv-x="405" d="M141 731q-27 0 -44.5 17.5t-17.5 43.5t17.5 43t44.5 17t44.5 -17t17.5 -43t-17.5 -43.5t-44.5 -17.5zM332 731q-26 0 -43.5 17.5t-17.5 43.5t17.5 43t43.5 17q27 0 44.5 -17t17.5 -43t-17 -43.5t-45 -17.5z" />
<glyph unicode="&#xa9;" horiz-adv-x="827" d="M764 328q0 -152 -102.5 -252t-251.5 -100q-150 0 -252.5 100t-102.5 252t102.5 251.5t252.5 99.5q149 0 251.5 -99.5t102.5 -251.5zM699 327q0 133 -81.5 215t-207.5 82t-208 -82.5t-82 -214.5q0 -131 81.5 -213.5t207.5 -82.5q125 0 207.5 83t82.5 213zM580 249 q-13 -54 -59.5 -87.5t-108.5 -33.5q-84 0 -135.5 54.5t-51.5 144.5q0 89 50.5 143t136.5 54q62 0 108.5 -33.5t59.5 -87.5l-79 -29q-7 34 -32.5 53.5t-56.5 19.5q-47 0 -73 -32t-26 -88q0 -57 26.5 -89.5t72.5 -32.5q31 0 56.5 19.5t32.5 54.5z" />
<glyph unicode="&#xaa;" horiz-adv-x="389" d="M331 380h40v-63h-105l-4 43h-4q-34 -49 -113 -49q-53 0 -84.5 26t-31.5 69q0 88 134 104l76 9q-5 61 -56 61q-49 0 -61 -47l-78 25q15 46 53.5 70t92.5 24q61 0 101 -31t40 -100v-141zM120 414q0 -37 44 -37q29 0 52.5 18.5t23.5 47.5v19l-51 -4q-37 -4 -53 -13t-16 -31z " />
<glyph unicode="&#xab;" horiz-adv-x="472" d="M244 487l-103 -171l103 -171h-111l-103 169l105 173h109zM433 487l-103 -171l103 -171h-111l-103 169l105 173h109z" />
<glyph unicode="&#xac;" horiz-adv-x="545" d="M481 178h-120v105h-297v86h417v-191z" />
<glyph unicode="&#xad;" horiz-adv-x="326" d="M28 265v105h277v-105h-277z" />
<glyph unicode="&#xae;" horiz-adv-x="449" d="M224 678q82 0 139.5 -57t57.5 -142t-57.5 -142t-139.5 -57t-139.5 57t-57.5 142t57.5 142t139.5 57zM224 312q68 0 115.5 47.5t47.5 119.5q0 71 -47.5 118.5t-115.5 47.5t-115 -47.5t-47 -118.5q0 -72 47 -119.5t115 -47.5zM200 453v-73h-49v210h81q35 0 55.5 -18.5 t20.5 -52.5q0 -45 -44 -61l45 -78h-56l-39 73h-14zM258 520q0 27 -28 27h-30v-53h30q28 0 28 26z" />
<glyph unicode="&#xaf;" horiz-adv-x="351" d="M78 827h270v-84h-270v84z" />
<glyph unicode="&#xb0;" horiz-adv-x="398" d="M200 450q-62 0 -106.5 42t-44.5 101t44.5 101t106.5 42t106 -42t44 -101t-44 -101t-106 -42zM200 534q25 0 43 17.5t18 41.5q0 25 -17.5 42t-43.5 17t-44 -17t-18 -42q0 -24 18 -41.5t44 -17.5z" />
<glyph unicode="&#xb1;" horiz-adv-x="583" d="M332 576v-137h179v-79h-179v-137h-80v137h-178v79h178v137h80zM74 167h437v-80h-437v80z" />
<glyph unicode="&#xb2;" horiz-adv-x="387" d="M268 427h91v-73h-331l1 19q1 37 26 66.5t59 48.5t68 37.5t57.5 43t23.5 55.5q0 32 -20 50t-54 18q-69 0 -78 -80l-73 14q6 62 47.5 99t107.5 37q69 0 111 -38.5t42 -99.5q0 -47 -28.5 -83t-62.5 -53t-70 -34.5t-45 -30.5z" />
<glyph unicode="&#xb3;" horiz-adv-x="388" d="M281 562q76 -24 76 -91q0 -58 -48.5 -91.5t-120.5 -33.5q-64 0 -108 27.5t-56 77.5l78 25q18 -58 88 -58q35 0 59 15t24 40q0 29 -26.5 42t-86.5 13v60q98 0 98 55q0 22 -19.5 35.5t-50.5 13.5q-29 0 -49 -13.5t-25 -35.5l-74 21q12 44 51.5 71t100.5 27 q66 0 107.5 -30.5t41.5 -82.5q0 -57 -60 -87z" />
<glyph unicode="&#xb4;" horiz-adv-x="351" d="M223 866l91 -36l-149 -128l-64 31z" />
<glyph unicode="&#xb6;" horiz-adv-x="596" d="M274 640v-287q-74 0 -118 41t-44 102t44 102.5t118 41.5zM576 640v-106h-126v-531q0 -53 -16 -91.5t-44 -58.5t-59 -29.5t-66 -9.5q-43 0 -75 8v102q31 -9 62 -9q86 0 86 100v100h-1v525h239z" />
<glyph unicode="&#xb7;" horiz-adv-x="226" d="M42 312q0 30 20 51t53 21t53 -21t20 -51q0 -32 -19.5 -53t-53.5 -21t-53.5 21t-19.5 53z" />
<glyph unicode="&#xb8;" horiz-adv-x="335" d="M72 -209l-96 55l126 178l77 -15z" />
<glyph unicode="&#xb9;" horiz-adv-x="273" d="M202 754v-400h-84v327h-85v73h169z" />
<glyph unicode="&#xba;" horiz-adv-x="404" d="M375 481q0 -78 -48.5 -124.5t-124.5 -46.5q-77 0 -125 46.5t-48 124.5q0 79 48 125t125 46t125 -46t48 -125zM282 481q0 43 -21 68t-59 25t-59 -25t-21 -68t21 -68t59 -25t59 25t21 68z" />
<glyph unicode="&#xbb;" horiz-adv-x="472" d="M150 491l103 -169l-105 -173h-109l103 171l-103 171h111zM339 491l103 -169l-105 -173h-109l103 171l-103 171h111z" />
<glyph unicode="&#xbc;" horiz-adv-x="784" d="M118 254v327h-85v73h169v-400h-84zM547 654h103l-451 -654h-102zM755 152v-72h-51v-80h-83v80h-200l-12 42l135 278h91l-120 -248h106v104h83v-104h51z" />
<glyph unicode="&#xbd;" horiz-adv-x="847" d="M118 254v327h-85v73h169v-400h-84zM552 654h103l-451 -654h-102zM728 73h91v-73h-331l1 19q1 37 26 66.5t59 48.5t68 37.5t57.5 43t23.5 55.5q0 32 -20 50t-54 18q-69 0 -78 -80l-73 14q6 62 47.5 99t107.5 37q69 0 111 -38.5t42 -99.5q0 -47 -28.5 -83t-62.5 -53 t-70 -34.5t-45 -30.5z" />
<glyph unicode="&#xbe;" horiz-adv-x="904" d="M357 371q0 -58 -48.5 -91.5t-120.5 -33.5q-64 0 -108 27.5t-56 77.5l78 25q18 -58 88 -58q35 0 59 15t24 40q0 29 -26.5 42t-86.5 13v60q98 0 98 55q0 22 -19.5 35.5t-50.5 13.5q-29 0 -49 -13.5t-25 -35.5l-74 21q12 44 51.5 71t100.5 27q66 0 107.5 -30.5t41.5 -82.5 q0 -57 -60 -87q76 -24 76 -91zM648 654h103l-451 -654h-102zM875 152v-72h-51v-80h-83v80h-200l-12 42l135 278h91l-120 -248h106v104h83v-104h51z" />
<glyph unicode="&#xbf;" horiz-adv-x="483" d="M257 382q-33 0 -52 20t-19 50q0 31 19 51.5t52 20.5t52 -20.5t19 -51.5q0 -30 -19 -50t-52 -20zM362 61l94 -25q-11 -78 -66.5 -125t-142.5 -47q-89 0 -150.5 53t-61.5 140q0 84 46 132t122 62v61h101v-142h-29q-134 -2 -134 -113q0 -46 31.5 -73.5t78.5 -27.5 q93 0 111 105z" />
<glyph unicode="&#xc0;" horiz-adv-x="658" d="M405 712l-64 -31l-149 128l91 36zM499 0l-46 134h-257l-46 -134h-130l242 640h136l240 -640h-139zM227 225h195l-97 285z" />
<glyph unicode="&#xc1;" horiz-adv-x="658" d="M471 809l-149 -128l-64 31l122 133zM499 0l-46 134h-257l-46 -134h-130l242 640h136l240 -640h-139zM227 225h195l-97 285z" />
<glyph unicode="&#xc2;" horiz-adv-x="658" d="M329 764l-80 -77l-71 20l103 119h96l99 -119l-75 -20zM499 0l-46 134h-257l-46 -134h-130l242 640h136l240 -640h-139zM227 225h195l-97 285z" />
<glyph unicode="&#xc3;" horiz-adv-x="658" d="M272 736q-39 0 -53 -49l-55 15q8 56 33 88t62 32q29 0 67 -26.5t57 -26.5q38 0 53 50l56 -16q-19 -118 -96 -118q-29 0 -67 25.5t-57 25.5zM499 0l-46 134h-257l-46 -134h-130l242 640h136l240 -640h-139zM227 225h195l-97 285z" />
<glyph unicode="&#xc4;" horiz-adv-x="658" d="M236 705q-26 0 -43 17t-17 43q0 25 17 41.5t43 16.5q27 0 44 -16.5t17 -41.5q0 -26 -17 -43t-44 -17zM423 705q-25 0 -42.5 17.5t-17.5 42.5t17 41.5t43 16.5q27 0 44 -16.5t17 -41.5q0 -26 -17 -43t-44 -17zM499 0l-46 134h-257l-46 -134h-130l242 640h136l240 -640 h-139zM227 225h195l-97 285z" />
<glyph unicode="&#xc5;" horiz-adv-x="658" d="M331 684q-39 0 -63 23t-24 58q0 34 24 57t63 23q38 0 62.5 -23t24.5 -57t-24.5 -57.5t-62.5 -23.5zM330 790q-12 0 -20 -7.5t-8 -17.5t8 -18t20 -8q14 0 22.5 7.5t8.5 18.5q0 10 -8.5 17.5t-22.5 7.5zM499 0l-46 134h-257l-46 -134h-130l242 640h136l240 -640h-139z M227 225h195l-97 285z" />
<glyph unicode="&#xc6;" horiz-adv-x="905" d="M861 535h-322v-163h284v-105h-284v-162h322v-105h-442v134h-204l-73 -134h-122l355 640h486v-105zM261 219h158v294l-67 -126z" />
<glyph unicode="&#xc7;" horiz-adv-x="661" d="M342 96q66 0 109 36t57 100l110 -43q-21 -81 -80.5 -134t-149.5 -64l-98 -200l-96 55l103 145q-112 16 -183.5 103.5t-71.5 226.5q0 151 86 240.5t214 89.5q109 0 181 -54.5t95 -145.5l-110 -44q-14 65 -57 100.5t-109 35.5q-82 0 -130 -58.5t-48 -164.5 q0 -105 48.5 -164.5t129.5 -59.5z" />
<glyph unicode="&#xc8;" horiz-adv-x="560" d="M258 844l122 -133l-64 -31l-149 128zM194 535v-163h284v-105h-284v-162h322v-105h-442v640h442v-105h-322z" />
<glyph unicode="&#xc9;" horiz-adv-x="560" d="M355 844l91 -36l-149 -128l-64 31zM194 535v-163h284v-105h-284v-162h322v-105h-442v640h442v-105h-322z" />
<glyph unicode="&#xca;" horiz-adv-x="560" d="M304 763l-80 -77l-71 20l103 119h96l99 -119l-75 -20zM516 535h-322v-163h284v-105h-284v-162h322v-105h-442v640h442v-105z" />
<glyph unicode="&#xcb;" horiz-adv-x="560" d="M211 704q-26 0 -43 17t-17 43q0 25 17 41.5t43 16.5q27 0 44 -16.5t17 -41.5q0 -26 -17 -43t-44 -17zM398 704q-26 0 -43 17t-17 43q0 25 17 41.5t43 16.5q27 0 44 -16.5t17 -41.5q0 -26 -17 -43t-44 -17zM194 535v-163h284v-105h-284v-162h322v-105h-442v640h442v-105 h-322z" />
<glyph unicode="&#xcc;" horiz-adv-x="269" d="M88 844l122 -133l-64 -31l-149 128zM194 639v-639h-120v639h120z" />
<glyph unicode="&#xcd;" horiz-adv-x="269" d="M185 844l91 -36l-149 -128l-64 31zM194 639v-639h-120v639h120z" />
<glyph unicode="&#xce;" horiz-adv-x="269" d="M182 825l99 -119l-75 -20l-72 77l-80 -77l-71 20l103 119h96zM74 0v639h120v-639h-120z" />
<glyph unicode="&#xcf;" horiz-adv-x="269" d="M41 704q-26 0 -43 17t-17 43q0 25 17 41.5t43 16.5q27 0 44 -16.5t17 -41.5q0 -26 -17 -43t-44 -17zM228 704q-26 0 -43 17t-17 43q0 25 17 41.5t43 16.5q27 0 44 -16.5t17 -41.5q0 -26 -17 -43t-44 -17zM194 639v-639h-120v639h120z" />
<glyph unicode="&#xd0;" horiz-adv-x="667" d="M278 639q174 0 261 -83t87 -234q0 -153 -87 -237.5t-261 -84.5h-204v267h-42v103h42v269h204zM278 102q123 0 176 54.5t53 165.5q0 110 -52.5 163t-176.5 53h-84v-168h147v-103h-147v-165h84z" />
<glyph unicode="&#xd1;" horiz-adv-x="680" d="M288 735q-39 0 -53 -49l-55 15q8 56 33 88t62 32q29 0 66.5 -26.5t57.5 -26.5q38 0 53 50l56 -16q-19 -118 -96 -118q-29 0 -67 25.5t-57 25.5zM486 640h120v-640h-112l-303 435l3 -143v-292h-120v640h117l299 -432l-4 139v293z" />
<glyph unicode="&#xd2;" horiz-adv-x="685" d="M296 844l122 -133l-64 -31l-149 128zM643 321q0 -153 -86.5 -243t-214.5 -90t-214 90t-86 243q0 151 86 240.5t214 89.5t214.5 -89.5t86.5 -240.5zM521 321q0 106 -48.5 164t-130.5 58t-130 -58t-48 -164t48.5 -165.5t129.5 -59.5q82 0 130.5 59.5t48.5 165.5z" />
<glyph unicode="&#xd3;" horiz-adv-x="685" d="M393 844l91 -36l-149 -128l-64 31zM643 321q0 -153 -86.5 -243t-214.5 -90t-214 90t-86 243q0 151 86 240.5t214 89.5t214.5 -89.5t86.5 -240.5zM521 321q0 106 -48.5 164t-130.5 58t-130 -58t-48 -164t48.5 -165.5t129.5 -59.5q82 0 130.5 59.5t48.5 165.5z" />
<glyph unicode="&#xd4;" horiz-adv-x="685" d="M342 763l-80 -77l-71 20l103 119h96l99 -119l-75 -20zM342 651q128 0 214.5 -89.5t86.5 -240.5q0 -153 -86.5 -243t-214.5 -90t-214 90t-86 243q0 151 86 240.5t214 89.5zM342 96q82 0 130.5 59.5t48.5 165.5t-48.5 164t-130.5 58t-130 -58t-48 -164t48.5 -165.5 t129.5 -59.5z" />
<glyph unicode="&#xd5;" horiz-adv-x="685" d="M505 802q-19 -118 -96 -118q-29 0 -67 25.5t-57 25.5q-39 0 -53 -49l-55 15q8 56 33 88t62 32q28 0 66 -26.5t58 -26.5q38 0 53 50zM643 321q0 -153 -86.5 -243t-214.5 -90t-214 90t-86 243q0 151 86 240.5t214 89.5t214.5 -89.5t86.5 -240.5zM521 321q0 106 -48.5 164 t-130.5 58t-130 -58t-48 -164t48.5 -165.5t129.5 -59.5q82 0 130.5 59.5t48.5 165.5z" />
<glyph unicode="&#xd6;" horiz-adv-x="685" d="M249 704q-26 0 -43 17t-17 43q0 25 17 41.5t43 16.5q27 0 44 -16.5t17 -41.5q0 -26 -17 -43t-44 -17zM436 704q-26 0 -43 17t-17 43q0 25 17 41.5t43 16.5q27 0 44 -16.5t17 -41.5q0 -26 -17 -43t-44 -17zM643 321q0 -153 -86.5 -243t-214.5 -90t-214 90t-86 243 q0 151 86 240.5t214 89.5t214.5 -89.5t86.5 -240.5zM521 321q0 106 -48.5 164t-130.5 58t-130 -58t-48 -164t48.5 -165.5t129.5 -59.5q82 0 130.5 59.5t48.5 165.5z" />
<glyph unicode="&#xd7;" horiz-adv-x="504" d="M60 455l62 61l130 -132l131 132l61 -61l-131 -131l131 -131l-61 -60l-131 130l-130 -130l-62 60l132 131z" />
<glyph unicode="&#xd8;" horiz-adv-x="685" d="M571 545q72 -88 72 -224q0 -153 -86.5 -243t-214.5 -90q-109 0 -187 64l-46 -54l-58 49l52 62q-61 87 -61 212q0 151 86 240.5t214 89.5q97 0 173 -53l43 50l58 -49zM164 321q0 -67 20 -116l260 307q-41 31 -102 31q-82 0 -130 -58t-48 -164zM342 96q82 0 130.5 59.5 t48.5 165.5q0 79 -28 132l-265 -314q46 -43 114 -43z" />
<glyph unicode="&#xd9;" horiz-adv-x="660" d="M283 844l122 -133l-64 -31l-149 128zM189 266q0 -92 32.5 -135.5t108.5 -43.5t108.5 43.5t32.5 135.5v373h120v-376q0 -137 -66 -209.5t-195 -72.5q-130 0 -195.5 72.5t-65.5 209.5v376h120v-373z" />
<glyph unicode="&#xda;" horiz-adv-x="660" d="M380 844l91 -36l-149 -128l-64 31zM189 266q0 -92 32.5 -135.5t108.5 -43.5t108.5 43.5t32.5 135.5v373h120v-376q0 -137 -66 -209.5t-195 -72.5q-130 0 -195.5 72.5t-65.5 209.5v376h120v-373z" />
<glyph unicode="&#xdb;" horiz-adv-x="660" d="M329 763l-80 -77l-71 20l103 119h96l99 -119l-75 -20zM471 639h120v-376q0 -137 -66 -209.5t-195 -72.5q-130 0 -195.5 72.5t-65.5 209.5v376h120v-373q0 -92 32.5 -135.5t108.5 -43.5t108.5 43.5t32.5 135.5v373z" />
<glyph unicode="&#xdc;" horiz-adv-x="660" d="M236 704q-26 0 -43 17t-17 43q0 25 17 41.5t43 16.5q27 0 44 -16.5t17 -41.5q0 -26 -17 -43t-44 -17zM423 704q-25 0 -42.5 17t-17.5 43q0 25 17 41.5t43 16.5q27 0 44 -16.5t17 -41.5q0 -26 -17 -43t-44 -17zM189 266q0 -92 32.5 -135.5t108.5 -43.5t108.5 43.5 t32.5 135.5v373h120v-376q0 -137 -66 -209.5t-195 -72.5q-130 0 -195.5 72.5t-65.5 209.5v376h120v-373z" />
<glyph unicode="&#xdd;" horiz-adv-x="575" d="M428 808l-149 -128l-64 31l122 133zM567 639l-219 -380v-259h-120v258l-220 381h137l97 -171l50 -94l49 94l98 171h128z" />
<glyph unicode="&#xde;" horiz-adv-x="591" d="M317 546q120 0 183 -55t63 -156t-63 -155.5t-184 -54.5h-122v-125h-120v639h120v-93h123zM316 230q125 0 125 105t-124 105h-123v-210h122z" />
<glyph unicode="&#xdf;" horiz-adv-x="589" d="M428 365q128 -46 128 -169q0 -100 -65 -153.5t-166 -53.5q-62 0 -102 17l16 94q30 -15 83 -15q120 0 120 113q0 110 -161 110v92q45 0 79 23t34 74q0 41 -28 65.5t-80 23.5q-112 0 -112 -113v-473h-113v474q0 107 63.5 160t161.5 53t160 -49t62 -133q0 -90 -80 -140z" />
<glyph unicode="&#xe0;" horiz-adv-x="522" d="M328 564l-64 -31l-149 128l91 36zM449 79h57v-79h-140l-6 68h-5q-21 -34 -63 -56t-97 -22q-74 0 -118.5 37.5t-44.5 104.5q0 125 184 150l120 15q-2 54 -23 82t-66 28q-76 0 -99 -75l-95 34q21 64 73.5 98.5t127.5 34.5q86 0 140.5 -44.5t54.5 -146.5v-229zM145 138 q0 -28 19 -45t52 -17q47 0 84 30.5t37 82.5v33l-89 -10q-55 -7 -79 -23.5t-24 -50.5z" />
<glyph unicode="&#xe1;" horiz-adv-x="522" d="M394 661l-149 -128l-64 31l122 133zM449 79h57v-79h-140l-6 68h-5q-21 -34 -63 -56t-97 -22q-74 0 -118.5 37.5t-44.5 104.5q0 125 184 150l120 15q-2 54 -23 82t-66 28q-76 0 -99 -75l-95 34q21 64 73.5 98.5t127.5 34.5q86 0 140.5 -44.5t54.5 -146.5v-229zM145 138 q0 -28 19 -45t52 -17q47 0 84 30.5t37 82.5v33l-89 -10q-55 -7 -79 -23.5t-24 -50.5z" />
<glyph unicode="&#xe2;" horiz-adv-x="522" d="M252 616l-80 -77l-71 20l103 119h96l99 -119l-75 -20zM449 79h57v-79h-140l-6 68h-5q-21 -34 -63 -56t-97 -22q-74 0 -118.5 37.5t-44.5 104.5q0 125 184 150l120 15q-2 54 -23 82t-66 28q-76 0 -99 -75l-95 34q21 64 73.5 98.5t127.5 34.5q86 0 140.5 -44.5t54.5 -146.5 v-229zM145 138q0 -28 19 -45t52 -17q47 0 84 30.5t37 82.5v33l-89 -10q-55 -7 -79 -23.5t-24 -50.5z" />
<glyph unicode="&#xe3;" horiz-adv-x="522" d="M195 588q-39 0 -53 -49l-55 15q8 56 33 88t62 32q28 0 66 -26.5t58 -26.5q38 0 53 50l56 -16q-19 -118 -96 -118q-29 0 -67 25.5t-57 25.5zM449 79h57v-79h-140l-6 68h-5q-21 -34 -63 -56t-97 -22q-74 0 -118.5 37.5t-44.5 104.5q0 125 184 150l120 15q-2 54 -23 82 t-66 28q-76 0 -99 -75l-95 34q21 64 73.5 98.5t127.5 34.5q86 0 140.5 -44.5t54.5 -146.5v-229zM145 138q0 -28 19 -45t52 -17q47 0 84 30.5t37 82.5v33l-89 -10q-55 -7 -79 -23.5t-24 -50.5z" />
<glyph unicode="&#xe4;" horiz-adv-x="522" d="M159 557q-26 0 -43 17t-17 43q0 25 17 41.5t43 16.5q27 0 44 -16.5t17 -41.5q0 -26 -17 -43t-44 -17zM346 557q-26 0 -43 17.5t-17 42.5t17 41.5t43 16.5q27 0 44 -16.5t17 -41.5q0 -26 -17 -43t-44 -17zM449 79h57v-79h-140l-6 68h-5q-21 -34 -63 -56t-97 -22 q-74 0 -118.5 37.5t-44.5 104.5q0 125 184 150l120 15q-2 54 -23 82t-66 28q-76 0 -99 -75l-95 34q21 64 73.5 98.5t127.5 34.5q86 0 140.5 -44.5t54.5 -146.5v-229zM145 138q0 -28 19 -45t52 -17q47 0 84 30.5t37 82.5v33l-89 -10q-55 -7 -79 -23.5t-24 -50.5z" />
<glyph unicode="&#xe5;" horiz-adv-x="522" d="M254 536q-39 0 -63 23t-24 58q0 34 24 57t63 23q38 0 62.5 -23t24.5 -57t-24.5 -57.5t-62.5 -23.5zM253 642q-12 0 -20 -7.5t-8 -17.5t8 -18t20 -8q14 0 22.5 7.5t8.5 18.5q0 10 -8.5 17.5t-22.5 7.5zM449 79h57v-79h-140l-6 68h-5q-21 -34 -63 -56t-97 -22 q-74 0 -118.5 37.5t-44.5 104.5q0 125 184 150l120 15q-2 54 -23 82t-66 28q-76 0 -99 -75l-95 34q21 64 73.5 98.5t127.5 34.5q86 0 140.5 -44.5t54.5 -146.5v-229zM145 138q0 -28 19 -45t52 -17q47 0 84 30.5t37 82.5v33l-89 -10q-55 -7 -79 -23.5t-24 -50.5z" />
<glyph unicode="&#xe6;" horiz-adv-x="841" d="M589 500q102 0 160.5 -66t56.5 -174v-34h-343q4 -65 39 -101.5t88 -36.5q39 0 70 20.5t43 58.5l98 -42q-20 -59 -78 -97.5t-132 -38.5q-132 0 -188 109h-13q-62 -108 -197 -108q-72 0 -116.5 38t-44.5 101q0 128 184 153l122 16q-3 57 -24 83.5t-69 26.5q-78 0 -102 -78 l-96 35q22 63 75 98.5t132 35.5q116 0 155 -88h5q57 89 175 89zM584 406q-44 0 -75.5 -27.5t-41.5 -75.5h224q-5 47 -33.5 75t-73.5 28zM218 76q43 0 81.5 30.5t38.5 78.5v37l-90 -10q-55 -7 -79 -23.5t-24 -50.5q0 -27 18 -44.5t55 -17.5z" />
<glyph unicode="&#xe7;" horiz-adv-x="529" d="M276 88q40 0 72.5 25t41.5 71l102 -39q-13 -60 -60.5 -100.5t-112.5 -51.5l-95 -194l-96 55l99 139q-90 16 -142 83t-52 169q0 115 66 185t177 70q79 0 139.5 -43t76.5 -113l-102 -38q-9 45 -41.5 70t-72.5 25q-61 0 -95 -42t-34 -114q0 -73 34 -115t95 -42z" />
<glyph unicode="&#xe8;" horiz-adv-x="525" d="M348 564l-64 -31l-149 128l91 36zM272 500q101 0 160 -68t57 -172v-34h-342q5 -66 39 -102t87 -36q85 0 113 81l91 -51q-17 -55 -73.5 -92t-129.5 -37q-107 0 -174 69.5t-67 186.5q0 114 66 184.5t173 70.5zM267 406q-46 0 -77 -27t-40 -76h225q-5 47 -33 75t-75 28z" />
<glyph unicode="&#xe9;" horiz-adv-x="525" d="M414 661l-149 -128l-64 31l122 133zM272 500q101 0 160 -68t57 -172v-34h-342q5 -66 39 -102t87 -36q85 0 113 81l91 -51q-17 -55 -73.5 -92t-129.5 -37q-107 0 -174 69.5t-67 186.5q0 114 66 184.5t173 70.5zM267 406q-46 0 -77 -27t-40 -76h225q-5 47 -33 75t-75 28z " />
<glyph unicode="&#xea;" horiz-adv-x="525" d="M272 616l-80 -77l-71 20l103 119h96l99 -119l-75 -20zM272 500q101 0 160 -68t57 -172v-34h-342q5 -66 39 -102t87 -36q85 0 113 81l91 -51q-17 -55 -73.5 -92t-129.5 -37q-107 0 -174 69.5t-67 186.5q0 114 66 184.5t173 70.5zM267 406q-46 0 -77 -27t-40 -76h225 q-5 47 -33 75t-75 28z" />
<glyph unicode="&#xeb;" horiz-adv-x="525" d="M179 557q-26 0 -43 17t-17 43q0 25 17 41.5t43 16.5q27 0 44 -16.5t17 -41.5q0 -26 -17 -43t-44 -17zM366 557q-26 0 -43 17.5t-17 42.5t17 41.5t43 16.5q27 0 44 -16.5t17 -41.5q0 -26 -17 -43t-44 -17zM272 500q101 0 160 -68t57 -172v-34h-342q5 -66 39 -102t87 -36 q85 0 113 81l91 -51q-17 -55 -73.5 -92t-129.5 -37q-107 0 -174 69.5t-67 186.5q0 114 66 184.5t173 70.5zM267 406q-46 0 -77 -27t-40 -76h225q-5 47 -33 75t-75 28z" />
<glyph unicode="&#xec;" horiz-adv-x="235" d="M70 697l122 -133l-64 -31l-149 128zM173 0h-113v487h113v-487z" />
<glyph unicode="&#xed;" horiz-adv-x="235" d="M167 697l91 -36l-149 -128l-64 31zM173 0h-113v487h113v-487z" />
<glyph unicode="&#xee;" horiz-adv-x="235" d="M164 678l99 -119l-75 -20l-72 77l-80 -77l-71 20l103 119h96zM60 0v487h113v-487h-113z" />
<glyph unicode="&#xef;" horiz-adv-x="235" d="M23 557q-26 0 -43 17t-17 43q0 25 17 41.5t43 16.5q27 0 44 -16.5t17 -41.5q0 -26 -17 -43t-44 -17zM210 557q-26 0 -43 17.5t-17 42.5t17 41.5t43 16.5q27 0 44 -16.5t17 -41.5q0 -26 -17 -43t-44 -17zM173 0h-113v487h113v-487z" />
<glyph unicode="&#xf0;" horiz-adv-x="549" d="M516 257v-7q0 -122 -66.5 -191.5t-175.5 -69.5q-107 0 -174 67.5t-67 178.5q0 110 63.5 176.5t158.5 66.5q55 0 104 -27q-30 56 -90 108l-74 -44l-31 41l63 37q-39 28 -68 46l100 61q33 -24 63 -51l79 47l31 -41l-71 -42q155 -158 155 -356zM274 88q61 0 94.5 39 t33.5 108t-33.5 107.5t-94.5 38.5q-59 0 -93 -38.5t-34 -107.5t34 -108t93 -39z" />
<glyph unicode="&#xf1;" horiz-adv-x="560" d="M217 599q-39 0 -53 -49l-55 15q8 56 33 88t62 32q28 0 66 -26.5t58 -26.5q38 0 53 50l56 -16q-19 -118 -96 -118q-29 0 -67 25.5t-57 25.5zM325 500q76 0 124.5 -42.5t48.5 -135.5v-322h-113v282q0 62 -22 89t-68 27q-56 0 -91 -41q-28 -33 -28 -111v-246h-113v487h104 l4 -61h9q21 33 58.5 53.5t86.5 20.5z" />
<glyph unicode="&#xf2;" horiz-adv-x="549" d="M227 697l122 -133l-64 -31l-149 128zM516 245q0 -116 -67 -186t-175 -70q-107 0 -174 70t-67 186t67 185.5t174 69.5q108 0 175 -69t67 -186zM402 245q0 74 -33.5 115.5t-94.5 41.5q-59 0 -93 -41.5t-34 -115.5q0 -73 34 -115t93 -42q61 0 94.5 41.5t33.5 115.5z" />
<glyph unicode="&#xf3;" horiz-adv-x="549" d="M324 697l91 -36l-149 -128l-64 31zM516 245q0 -116 -67 -186t-175 -70q-107 0 -174 70t-67 186t67 185.5t174 69.5q108 0 175 -69t67 -186zM402 245q0 74 -33.5 115.5t-94.5 41.5q-59 0 -93 -41.5t-34 -115.5q0 -73 34 -115t93 -42q61 0 94.5 41.5t33.5 115.5z" />
<glyph unicode="&#xf4;" horiz-adv-x="549" d="M273 616l-80 -77l-71 20l103 119h96l99 -119l-75 -20zM274 500q108 0 175 -69t67 -186q0 -116 -67 -186t-175 -70q-107 0 -174 70t-67 186t67 185.5t174 69.5zM274 88q61 0 94.5 41.5t33.5 115.5t-33.5 115.5t-94.5 41.5q-59 0 -93 -41.5t-34 -115.5q0 -73 34 -115 t93 -42z" />
<glyph unicode="&#xf5;" horiz-adv-x="549" d="M436 655q-19 -118 -96 -118q-29 0 -67 25.5t-57 25.5q-39 0 -53 -49l-55 15q8 56 33 88t62 32q29 0 67 -26.5t57 -26.5q38 0 53 50zM516 245q0 -116 -67 -186t-175 -70q-107 0 -174 70t-67 186t67 185.5t174 69.5q108 0 175 -69t67 -186zM402 245q0 74 -33.5 115.5 t-94.5 41.5q-59 0 -93 -41.5t-34 -115.5q0 -73 34 -115t93 -42q61 0 94.5 41.5t33.5 115.5z" />
<glyph unicode="&#xf6;" horiz-adv-x="549" d="M180 557q-26 0 -43 17t-17 43q0 25 17 41.5t43 16.5q27 0 44 -16.5t17 -41.5q0 -26 -17 -43t-44 -17zM367 557q-25 0 -42.5 17.5t-17.5 42.5t17 41.5t43 16.5q27 0 44 -16.5t17 -41.5q0 -26 -17 -43t-44 -17zM516 245q0 -116 -67 -186t-175 -70q-107 0 -174 70t-67 186 t67 185.5t174 69.5q108 0 175 -69t67 -186zM402 245q0 74 -33.5 115.5t-94.5 41.5q-59 0 -93 -41.5t-34 -115.5q0 -73 34 -115t93 -42q61 0 94.5 41.5t33.5 115.5z" />
<glyph unicode="&#xf7;" horiz-adv-x="577" d="M226 507q0 26 18 44t44 18q27 0 45.5 -18t18.5 -44t-18.5 -44t-45.5 -18q-26 0 -44 18t-18 44zM64 369h448v-87h-448v87zM226 145q0 26 18 44.5t44 18.5q27 0 45.5 -18.5t18.5 -44.5t-18.5 -44t-45.5 -18q-26 0 -44 18t-18 44z" />
<glyph unicode="&#xf8;" horiz-adv-x="600" d="M461 417q55 -68 55 -172q0 -116 -67 -186t-175 -70q-79 0 -139 40l-26 -31l-58 49l30 35q-48 67 -48 163q0 116 67 185.5t174 69.5q72 0 130 -33l28 33l58 -49zM147 245q0 -38 10 -71l180 213q-27 15 -63 15q-59 0 -93 -41.5t-34 -115.5zM274 88q61 0 94.5 41.5 t33.5 115.5q0 49 -15 84l-184 -220q29 -21 71 -21z" />
<glyph unicode="&#xf9;" horiz-adv-x="560" d="M357 564l-64 -31l-149 128l91 36zM384 487h113v-487h-104l-4 61h-9q-21 -33 -58.5 -53.5t-86.5 -20.5q-76 0 -124.5 42.5t-48.5 135.5v322h113v-282q0 -62 22 -89t68 -27q56 0 91 41q28 33 28 111v246z" />
<glyph unicode="&#xfa;" horiz-adv-x="560" d="M423 661l-149 -128l-64 31l122 133zM384 487h113v-487h-104l-4 61h-9q-21 -33 -58.5 -53.5t-86.5 -20.5q-76 0 -124.5 42.5t-48.5 135.5v322h113v-282q0 -62 22 -89t68 -27q56 0 91 41q28 33 28 111v246z" />
<glyph unicode="&#xfb;" horiz-adv-x="560" d="M281 616l-80 -77l-71 20l103 119h96l99 -119l-75 -20zM384 487h113v-487h-104l-4 61h-9q-21 -33 -58.5 -53.5t-86.5 -20.5q-76 0 -124.5 42.5t-48.5 135.5v322h113v-282q0 -62 22 -89t68 -27q56 0 91 41q28 33 28 111v246z" />
<glyph unicode="&#xfc;" horiz-adv-x="560" d="M188 557q-26 0 -43 17t-17 43q0 25 17 41.5t43 16.5q27 0 44 -16.5t17 -41.5q0 -26 -17 -43t-44 -17zM375 557q-25 0 -42.5 17.5t-17.5 42.5t17 41.5t43 16.5q27 0 44 -16.5t17 -41.5q0 -26 -17 -43t-44 -17zM384 487h113v-487h-104l-4 61h-9q-21 -33 -58.5 -53.5 t-86.5 -20.5q-76 0 -124.5 42.5t-48.5 135.5v322h113v-282q0 -62 22 -89t68 -27q56 0 91 41q28 33 28 111v246z" />
<glyph unicode="&#xfd;" horiz-adv-x="521" d="M404 661l-149 -128l-64 31l122 133zM348 68l-26 -68l-70 -185h-118l67 182l-185 490h129l121 -367l122 367h118z" />
<glyph unicode="&#xfe;" horiz-adv-x="577" d="M325 500q91 0 155 -70t64 -185t-64 -185t-156 -70q-97 0 -144 69h-6v-243h-113v855l113 15v-254h7q47 68 144 68zM305 89q57 0 90.5 40.5t33.5 115.5q0 74 -33 115t-90 41q-60 0 -96 -39.5t-36 -115.5q0 -77 35.5 -117t95.5 -40z" />
<glyph unicode="&#xff;" horiz-adv-x="521" d="M169 557q-26 0 -43 17t-17 43q0 25 17 41.5t43 16.5q27 0 44 -16.5t17 -41.5q0 -26 -17 -43t-44 -17zM356 557q-26 0 -43 17.5t-17 42.5t17 41.5t43 16.5q27 0 44 -16.5t17 -41.5q0 -26 -17 -43t-44 -17zM348 68l-26 -68l-70 -185h-118l67 182l-185 490h129l121 -367 l122 367h118z" />
<glyph unicode="&#x100;" horiz-adv-x="658" d="M465 802v-80h-270v80h270zM499 0l-46 134h-257l-46 -134h-130l242 640h136l240 -640h-139zM227 225h195l-97 285z" />
<glyph unicode="&#x101;" horiz-adv-x="522" d="M388 654v-80h-270v80h270zM449 79h57v-79h-140l-6 68h-5q-21 -34 -63 -56t-97 -22q-74 0 -118.5 37.5t-44.5 104.5q0 125 184 150l120 15q-2 54 -23 82t-66 28q-76 0 -99 -75l-95 34q21 64 73.5 98.5t127.5 34.5q86 0 140.5 -44.5t54.5 -146.5v-229zM145 138 q0 -28 19 -45t52 -17q47 0 84 30.5t37 82.5v33l-89 -10q-55 -7 -79 -23.5t-24 -50.5z" />
<glyph unicode="&#x102;" horiz-adv-x="658" d="M330 696q-62 0 -100.5 34t-37.5 89h79q0 -21 16 -35.5t43 -14.5q26 1 41.5 15t15.5 35h79q1 -54 -37.5 -88.5t-98.5 -34.5zM499 0l-46 134h-257l-46 -134h-130l242 640h136l240 -640h-139zM227 225h195l-97 285z" />
<glyph unicode="&#x103;" horiz-adv-x="522" d="M253 548q-62 0 -100.5 34t-37.5 89h79q0 -21 16 -35.5t43 -14.5q26 1 41.5 15t15.5 35h79q1 -54 -37.5 -88.5t-98.5 -34.5zM449 79h57v-79h-140l-6 68h-5q-21 -34 -63 -56t-97 -22q-74 0 -118.5 37.5t-44.5 104.5q0 125 184 150l120 15q-2 54 -23 82t-66 28 q-76 0 -99 -75l-95 34q21 64 73.5 98.5t127.5 34.5q86 0 140.5 -44.5t54.5 -146.5v-229zM145 138q0 -28 19 -45t52 -17q47 0 84 30.5t37 82.5v33l-89 -10q-55 -7 -79 -23.5t-24 -50.5z" />
<glyph unicode="&#x104;" horiz-adv-x="658" d="M623 -81l35 -80q-37 -24 -97 -24q-47 0 -77.5 24t-30.5 69q0 53 59 92h-13l-46 134h-257l-46 -134h-130l242 640h136l240 -640h-24q-62 -20 -62 -56q0 -17 10 -26t25 -9q18 0 36 10zM227 225h195l-97 285z" />
<glyph unicode="&#x105;" horiz-adv-x="522" d="M487 -81l35 -80q-37 -24 -97 -24q-47 0 -77.5 24t-30.5 69q0 53 59 92h-10l-6 68h-5q-21 -34 -63 -56t-97 -22q-74 0 -118.5 37.5t-44.5 104.5q0 125 184 150l120 15q-2 54 -23 82t-66 28q-76 0 -99 -75l-95 34q21 64 73.5 98.5t127.5 34.5q86 0 140.5 -44.5t54.5 -146.5 v-229h57v-79h-28q-62 -20 -62 -56q0 -17 10 -26t25 -9q18 0 36 10zM145 138q0 -28 19 -45t52 -17q47 0 84 30.5t37 82.5v33l-89 -10q-55 -7 -79 -23.5t-24 -50.5z" />
<glyph unicode="&#x106;" horiz-adv-x="661" d="M393 844l91 -36l-149 -128l-64 31zM618 189q-23 -91 -95 -146t-181 -55q-128 0 -214 90t-86 243q0 151 86 240.5t214 89.5q109 0 181 -54.5t95 -145.5l-110 -44q-14 65 -57 100.5t-109 35.5q-82 0 -130 -58.5t-48 -164.5q0 -105 48.5 -164.5t129.5 -59.5q66 0 109 36 t57 100z" />
<glyph unicode="&#x107;" horiz-adv-x="529" d="M326 697l91 -36l-149 -128l-64 31zM492 145q-16 -70 -76.5 -113t-139.5 -43q-110 0 -176.5 70.5t-66.5 185.5t66 185t177 70q79 0 139.5 -43t76.5 -113l-102 -38q-9 45 -41.5 70t-72.5 25q-61 0 -95 -42t-34 -114q0 -73 34 -115t95 -42q40 0 72.5 25t41.5 71z" />
<glyph unicode="&#x108;" horiz-adv-x="661" d="M342 763l-80 -77l-71 20l103 119h96l99 -119l-75 -20zM342 96q66 0 109 36t57 100l110 -43q-23 -91 -95 -146t-181 -55q-128 0 -214 90t-86 243q0 151 86 240.5t214 89.5q109 0 181 -54.5t95 -145.5l-110 -44q-14 65 -57 100.5t-109 35.5q-82 0 -130 -58.5t-48 -164.5 q0 -105 48.5 -164.5t129.5 -59.5z" />
<glyph unicode="&#x109;" horiz-adv-x="529" d="M275 616l-80 -77l-71 20l103 119h96l99 -119l-75 -20zM276 88q40 0 72.5 25t41.5 71l102 -39q-16 -70 -76.5 -113t-139.5 -43q-110 0 -176.5 70.5t-66.5 185.5t66 185t177 70q79 0 139.5 -43t76.5 -113l-102 -38q-9 45 -41.5 70t-72.5 25q-61 0 -95 -42t-34 -114 q0 -73 34 -115t95 -42z" />
<glyph unicode="&#x10a;" horiz-adv-x="661" d="M409 762q0 -28 -19 -46.5t-46 -18.5q-28 0 -47.5 18.5t-19.5 46.5q0 29 19 47.5t48 18.5q27 0 46 -18.5t19 -47.5zM618 189q-23 -91 -95 -146t-181 -55q-128 0 -214 90t-86 243q0 151 86 240.5t214 89.5q109 0 181 -54.5t95 -145.5l-110 -44q-14 65 -57 100.5t-109 35.5 q-82 0 -130 -58.5t-48 -164.5q0 -105 48.5 -164.5t129.5 -59.5q66 0 109 36t57 100z" />
<glyph unicode="&#x10b;" horiz-adv-x="529" d="M342 615q0 -28 -19 -46.5t-46 -18.5q-28 0 -47.5 18.5t-19.5 46.5q0 29 19 47.5t48 18.5q27 0 46 -18.5t19 -47.5zM492 145q-16 -70 -76.5 -113t-139.5 -43q-110 0 -176.5 70.5t-66.5 185.5t66 185t177 70q79 0 139.5 -43t76.5 -113l-102 -38q-9 45 -41.5 70t-72.5 25 q-61 0 -95 -42t-34 -114q0 -73 34 -115t95 -42q40 0 72.5 25t41.5 71z" />
<glyph unicode="&#x10c;" horiz-adv-x="661" d="M386 697h-96l-99 119l75 20l72 -77l80 77l71 -20zM342 96q66 0 109 36t57 100l110 -43q-23 -91 -95 -146t-181 -55q-128 0 -214 90t-86 243q0 151 86 240.5t214 89.5q109 0 181 -54.5t95 -145.5l-110 -44q-14 65 -57 100.5t-109 35.5q-82 0 -130 -58.5t-48 -164.5 q0 -105 48.5 -164.5t129.5 -59.5z" />
<glyph unicode="&#x10d;" horiz-adv-x="529" d="M319 550h-96l-99 119l75 20l72 -77l80 77l71 -20zM276 88q40 0 72.5 25t41.5 71l102 -39q-16 -70 -76.5 -113t-139.5 -43q-110 0 -176.5 70.5t-66.5 185.5t66 185t177 70q79 0 139.5 -43t76.5 -113l-102 -38q-9 45 -41.5 70t-72.5 25q-61 0 -95 -42t-34 -114 q0 -73 34 -115t95 -42z" />
<glyph unicode="&#x10e;" horiz-adv-x="667" d="M328 697h-96l-99 119l75 20l72 -77l80 77l71 -20zM278 639q174 0 261 -83t87 -234q0 -153 -87 -237.5t-261 -84.5h-204v639h204zM278 102q123 0 176 54.5t53 165.5q0 110 -52.5 163t-176.5 53h-84v-436h84z" />
<glyph unicode="&#x10f;" horiz-adv-x="676" d="M403 432v239l113 15v-686h-113v59h-6q-47 -69 -144 -69q-92 0 -156 70t-64 185t64 185t155 70q97 0 144 -68h7zM580 674l93 12l-11 -231h-71zM272 89q60 0 95.5 40t35.5 117q0 76 -36 115.5t-96 39.5q-57 0 -90 -41t-33 -115q0 -75 33.5 -115.5t90.5 -40.5z" />
<glyph unicode="&#x110;" horiz-adv-x="667" d="M278 639q174 0 261 -83t87 -234q0 -153 -87 -237.5t-261 -84.5h-204v267h-42v103h42v269h204zM278 102q123 0 176 54.5t53 165.5q0 110 -52.5 163t-176.5 53h-84v-168h147v-103h-147v-165h84z" />
<glyph unicode="&#x111;" horiz-adv-x="586" d="M561 620v-75h-45v-545h-113v59h-6q-47 -69 -144 -69q-92 0 -156 70t-64 185t64 185t155 70q97 0 144 -68h7v113h-129v75h129v51l113 15v-66h45zM272 89q60 0 95.5 40t35.5 117q0 76 -36 115.5t-96 39.5q-57 0 -90 -41t-33 -115q0 -75 33.5 -115.5t90.5 -40.5z" />
<glyph unicode="&#x112;" horiz-adv-x="560" d="M170 801h270v-80h-270v80zM194 535v-163h284v-105h-284v-162h322v-105h-442v640h442v-105h-322z" />
<glyph unicode="&#x113;" horiz-adv-x="525" d="M408 654v-80h-270v80h270zM272 500q101 0 160 -68t57 -172v-34h-342q5 -66 39 -102t87 -36q85 0 113 81l91 -51q-17 -55 -73.5 -92t-129.5 -37q-107 0 -174 69.5t-67 186.5q0 114 66 184.5t173 70.5zM267 406q-46 0 -77 -27t-40 -76h225q-5 47 -33 75t-75 28z" />
<glyph unicode="&#x114;" horiz-adv-x="560" d="M246 818q0 -21 16 -35.5t43 -14.5q26 1 41.5 15t15.5 35h79q1 -54 -37.5 -88.5t-98.5 -34.5q-62 0 -100.5 34t-37.5 89h79zM194 535v-163h284v-105h-284v-162h322v-105h-442v640h442v-105h-322z" />
<glyph unicode="&#x115;" horiz-adv-x="525" d="M273 548q-62 0 -100.5 34t-37.5 89h79q0 -21 16 -35.5t43 -14.5q26 1 41.5 15t15.5 35h79q1 -54 -37.5 -88.5t-98.5 -34.5zM272 500q101 0 160 -68t57 -172v-34h-342q5 -66 39 -102t87 -36q85 0 113 81l91 -51q-17 -55 -73.5 -92t-129.5 -37q-107 0 -174 69.5t-67 186.5 q0 114 66 184.5t173 70.5zM267 406q-46 0 -77 -27t-40 -76h225q-5 47 -33 75t-75 28z" />
<glyph unicode="&#x116;" horiz-adv-x="560" d="M371 762q0 -28 -19 -46.5t-46 -18.5q-28 0 -47.5 18.5t-19.5 46.5q0 29 19 47.5t48 18.5q27 0 46 -18.5t19 -47.5zM194 535v-163h284v-105h-284v-162h322v-105h-442v640h442v-105h-322z" />
<glyph unicode="&#x117;" horiz-adv-x="525" d="M274 550q-28 0 -47.5 18.5t-19.5 46.5q0 29 19 47.5t48 18.5q27 0 46 -18.5t19 -47.5q0 -28 -19 -46.5t-46 -18.5zM272 500q101 0 160 -68t57 -172v-34h-342q5 -66 39 -102t87 -36q85 0 113 81l91 -51q-17 -55 -73.5 -92t-129.5 -37q-107 0 -174 69.5t-67 186.5 q0 114 66 184.5t173 70.5zM267 406q-46 0 -77 -27t-40 -76h225q-5 47 -33 75t-75 28z" />
<glyph unicode="&#x118;" horiz-adv-x="560" d="M523 -81l35 -80q-37 -24 -97 -24q-47 0 -77.5 24t-30.5 69q0 53 59 92h-338v640h442v-105h-322v-163h284v-105h-284v-162h322v-105h-2q-62 -20 -62 -56q0 -17 10 -26t25 -9q18 0 36 10z" />
<glyph unicode="&#x119;" horiz-adv-x="525" d="M272 500q101 0 160 -68t57 -172v-34h-342q5 -66 39 -102t87 -36q85 0 113 81l91 -51q-13 -42 -51.5 -75.5t-91.5 -46.5q-42 -19 -42 -48q0 -17 10 -26t25 -9q18 0 36 10l35 -80q-37 -24 -97 -24q-47 0 -77.5 24t-30.5 69q0 43 42 80q-91 12 -146.5 80t-55.5 173 q0 114 66 184.5t173 70.5zM267 406q-46 0 -77 -27t-40 -76h225q-5 47 -33 75t-75 28z" />
<glyph unicode="&#x11a;" horiz-adv-x="560" d="M348 697h-96l-99 119l75 20l72 -77l80 77l71 -20zM516 535h-322v-163h284v-105h-284v-162h322v-105h-442v640h442v-105z" />
<glyph unicode="&#x11b;" horiz-adv-x="525" d="M316 550h-96l-99 119l75 20l72 -77l80 77l71 -20zM272 500q101 0 160 -68t57 -172v-34h-342q5 -66 39 -102t87 -36q85 0 113 81l91 -51q-17 -55 -73.5 -92t-129.5 -37q-107 0 -174 69.5t-67 186.5q0 114 66 184.5t173 70.5zM267 406q-46 0 -77 -27t-40 -76h225 q-5 47 -33 75t-75 28z" />
<glyph unicode="&#x11c;" horiz-adv-x="693" d="M351 763l-80 -77l-71 20l103 119h96l99 -119l-75 -20zM402 320h234v-320h-77l-12 91q-68 -103 -202 -103q-130 0 -216.5 89.5t-86.5 243.5q0 152 87 241t220 89q100 0 173.5 -51t99.5 -138l-108 -50q-15 63 -58.5 97t-106.5 34q-84 0 -134.5 -58.5t-50.5 -164.5 q0 -105 50 -164.5t131 -59.5q62 0 106 32.5t60 93.5h-109v98z" />
<glyph unicode="&#x11d;" horiz-adv-x="579" d="M277 616l-80 -77l-71 20l103 119h96l99 -119l-75 -20zM415 485h103v-414q0 -127 -68 -194t-189 -67q-71 0 -129.5 28t-92.5 77l71 69q20 -33 58.5 -55.5t85.5 -22.5q75 0 113.5 39t38.5 114v4h-8q-46 -67 -145 -67q-98 0 -159 68.5t-61 183.5q0 114 62 183t157 69 q100 0 147 -68h12zM272 92q61 0 97 40t36 117q0 76 -36.5 115.5t-97.5 39.5q-57 0 -90 -40.5t-33 -115.5t33 -115.5t91 -40.5z" />
<glyph unicode="&#x11e;" horiz-adv-x="693" d="M352 695q-62 0 -100.5 34t-37.5 89h79q0 -21 16 -35.5t43 -14.5q26 1 41.5 15t15.5 35h79q1 -54 -37.5 -88.5t-98.5 -34.5zM402 320h234v-320h-77l-12 91q-68 -103 -202 -103q-130 0 -216.5 89.5t-86.5 243.5q0 152 87 241t220 89q100 0 173.5 -51t99.5 -138l-108 -50 q-15 63 -58.5 97t-106.5 34q-84 0 -134.5 -58.5t-50.5 -164.5q0 -105 50 -164.5t131 -59.5q62 0 106 32.5t60 93.5h-109v98z" />
<glyph unicode="&#x11f;" horiz-adv-x="579" d="M278 548q-62 0 -100.5 34t-37.5 89h79q0 -21 16 -35.5t43 -14.5q26 1 41.5 15t15.5 35h79q1 -54 -37.5 -88.5t-98.5 -34.5zM415 485h103v-414q0 -127 -68 -194t-189 -67q-71 0 -129.5 28t-92.5 77l71 69q20 -33 58.5 -55.5t85.5 -22.5q75 0 113.5 39t38.5 114v4h-8 q-46 -67 -145 -67q-98 0 -159 68.5t-61 183.5q0 114 62 183t157 69q100 0 147 -68h12zM272 92q61 0 97 40t36 117q0 76 -36.5 115.5t-97.5 39.5q-57 0 -90 -40.5t-33 -115.5t33 -115.5t91 -40.5z" />
<glyph unicode="&#x120;" horiz-adv-x="693" d="M353 697q-28 0 -47.5 18.5t-19.5 46.5q0 29 19 47.5t48 18.5q27 0 46 -18.5t19 -47.5q0 -28 -19 -46.5t-46 -18.5zM402 320h234v-320h-77l-12 91q-68 -103 -202 -103q-130 0 -216.5 89.5t-86.5 243.5q0 152 87 241t220 89q100 0 173.5 -51t99.5 -138l-108 -50 q-15 63 -58.5 97t-106.5 34q-84 0 -134.5 -58.5t-50.5 -164.5q0 -105 50 -164.5t131 -59.5q62 0 106 32.5t60 93.5h-109v98z" />
<glyph unicode="&#x121;" horiz-adv-x="579" d="M279 550q-28 0 -47.5 18.5t-19.5 46.5q0 29 19 47.5t48 18.5q27 0 46 -18.5t19 -47.5q0 -28 -19 -46.5t-46 -18.5zM415 485h103v-414q0 -127 -68 -194t-189 -67q-71 0 -129.5 28t-92.5 77l71 69q20 -33 58.5 -55.5t85.5 -22.5q75 0 113.5 39t38.5 114v4h-8 q-46 -67 -145 -67q-98 0 -159 68.5t-61 183.5q0 114 62 183t157 69q100 0 147 -68h12zM272 92q61 0 97 40t36 117q0 76 -36.5 115.5t-97.5 39.5q-57 0 -90 -40.5t-33 -115.5t33 -115.5t91 -40.5z" />
<glyph unicode="&#x122;" horiz-adv-x="693" d="M402 320h234v-320h-77l-12 91q-68 -103 -202 -103q-130 0 -216.5 89.5t-86.5 243.5q0 152 87 241t220 89q100 0 173.5 -51t99.5 -138l-108 -50q-15 63 -58.5 97t-106.5 34q-84 0 -134.5 -58.5t-50.5 -164.5q0 -105 50 -164.5t131 -59.5q62 0 106 32.5t60 93.5h-109v98z M343 -44q26 0 44 -19t18 -50q0 -30 -14 -62t-27 -50.5t-44 -56.5l-35 25q40 49 58 95q-26 0 -43.5 17.5t-17.5 42.5q0 24 17.5 41t43.5 17z" />
<glyph unicode="&#x123;" horiz-adv-x="579" d="M278 545q-24 0 -40.5 16t-16.5 41q0 54 74 133l40 -28q-32 -35 -44 -63q18 -2 31 -15t13 -31q0 -22 -17 -37.5t-40 -15.5zM415 485h103v-414q0 -127 -68 -194t-189 -67q-71 0 -129.5 28t-92.5 77l71 69q20 -33 58.5 -55.5t85.5 -22.5q75 0 113.5 39t38.5 114v4h-8 q-46 -67 -145 -67q-98 0 -159 68.5t-61 183.5q0 114 62 183t157 69q100 0 147 -68h12zM272 92q61 0 97 40t36 117q0 76 -36.5 115.5t-97.5 39.5q-57 0 -90 -40.5t-33 -115.5t33 -115.5t91 -40.5z" />
<glyph unicode="&#x124;" horiz-adv-x="678" d="M341 763l-80 -77l-71 20l103 119h96l99 -119l-75 -20zM483 639h120v-639h-120v259h-289v-259h-120v639h120v-275h289v275z" />
<glyph unicode="&#x125;" horiz-adv-x="560" d="M189 708l-76 73l-70 -73h-91l109 129h106l110 -129h-88zM325 500q76 0 124.5 -42.5t48.5 -135.5v-322h-113v282q0 62 -22 89t-68 27q-56 0 -91 -41q-28 -33 -28 -111v-246h-113v671l113 15v-260h4q21 33 58.5 53.5t86.5 20.5z" />
<glyph unicode="&#x126;" horiz-adv-x="678" d="M656 519v-69h-53v-450h-120v259h-289v-259h-120v450h-52v69h52v120h120v-120h289v120h120v-120h53zM483 364v86h-289v-86h289z" />
<glyph unicode="&#x127;" horiz-adv-x="576" d="M325 500q76 0 124.5 -42.5t48.5 -135.5v-322h-113v282q0 62 -22 89t-68 27q-56 0 -91 -41q-28 -33 -28 -111v-246h-113v539h-43v76h43v56l113 15v-71h131v-76h-131v-113h4q21 33 58.5 53.5t86.5 20.5z" />
<glyph unicode="&#x128;" horiz-adv-x="269" d="M297 802q-19 -118 -96 -118q-29 0 -67 25.5t-57 25.5q-39 0 -53 -49l-55 15q8 56 33 88t62 32q28 0 66 -26.5t58 -26.5q38 0 53 50zM194 639v-639h-120v639h120z" />
<glyph unicode="&#x129;" horiz-adv-x="235" d="M279 655q-19 -118 -96 -118q-29 0 -67 25.5t-57 25.5q-39 0 -53 -49l-55 15q8 56 33 88t62 32q28 0 66 -26.5t58 -26.5q38 0 53 50zM173 0h-113v487h113v-487z" />
<glyph unicode="&#x12a;" horiz-adv-x="269" d="M0 801h270v-80h-270v80zM194 639v-639h-120v639h120z" />
<glyph unicode="&#x12b;" horiz-adv-x="235" d="M-18 654h270v-80h-270v80zM173 0h-113v487h113v-487z" />
<glyph unicode="&#x12c;" horiz-adv-x="269" d="M76 818q0 -21 16 -35.5t43 -14.5q26 1 41.5 15t15.5 35h79q1 -54 -37.5 -88.5t-98.5 -34.5q-62 0 -100.5 34t-37.5 89h79zM194 639v-639h-120v639h120z" />
<glyph unicode="&#x12d;" horiz-adv-x="235" d="M58 671q0 -21 16 -35.5t43 -14.5q26 1 41.5 15t15.5 35h79q1 -54 -37.5 -88.5t-98.5 -34.5q-62 0 -100.5 34t-37.5 89h79zM173 0h-113v487h113v-487z" />
<glyph unicode="&#x12e;" horiz-adv-x="269" d="M195 -81l35 -80q-37 -24 -97 -24q-47 0 -77.5 24t-30.5 69q0 53 59 92h-10v639h120v-639h-8q-62 -20 -62 -56q0 -17 10 -26t25 -9q18 0 36 10z" />
<glyph unicode="&#x12f;" horiz-adv-x="235" d="M118 550q-28 0 -47.5 18.5t-19.5 46.5q0 29 19 47.5t48 18.5q27 0 46 -18.5t19 -47.5q0 -28 -19 -46.5t-46 -18.5zM184 -81l35 -80q-37 -24 -97 -24q-47 0 -77.5 24t-30.5 69q0 53 59 92h-13v487h113v-482l2 -5q-62 -20 -62 -56q0 -17 10 -26t25 -9q18 0 36 10z" />
<glyph unicode="&#x130;" horiz-adv-x="269" d="M201 762q0 -28 -19 -46.5t-46 -18.5q-28 0 -47.5 18.5t-19.5 46.5q0 29 19 47.5t48 18.5q27 0 46 -18.5t19 -47.5zM194 639v-639h-120v639h120z" />
<glyph unicode="&#x131;" horiz-adv-x="235" d="M173 0h-113v487h113v-487z" />
<glyph unicode="&#x132;" horiz-adv-x="673" d="M194 639v-639h-120v639h120zM485 639h119v-382q0 -137 -56.5 -202.5t-176.5 -65.5q-46 0 -79 7l-5 108q34 -8 82 -8q63 0 89.5 42.5t26.5 137.5v363z" />
<glyph unicode="&#x133;" horiz-adv-x="471" d="M118 562q-31 0 -51.5 19.5t-20.5 50.5t20.5 51t51.5 20q30 0 50 -20t20 -51t-20 -50.5t-50 -19.5zM353 562q-31 0 -51.5 19.5t-20.5 50.5t20.5 51t51.5 20q30 0 50 -20t20 -51t-20 -50.5t-50 -19.5zM174 487v-487h-113v487h113zM296 73v412h113v-482q0 -53 -16 -91.5 t-44 -58.5t-59 -29.5t-66 -9.5q-43 0 -75 8v102q31 -9 62 -9q86 0 86 100v58h-1z" />
<glyph unicode="&#x134;" horiz-adv-x="412" d="M327 825l99 -119l-75 -20l-72 77l-80 -77l-71 20l103 119h96zM221 276v363h119v-382q0 -137 -56.5 -202.5t-176.5 -65.5q-46 0 -79 7l-5 108q34 -8 82 -8q63 0 89.5 42.5t26.5 137.5z" />
<glyph unicode="&#x135;" horiz-adv-x="212" d="M149 678l99 -119l-75 -20l-72 77l-80 -77l-71 20l103 119h96zM45 485h112v-472q0 -53 -16 -91.5t-44 -58.5t-59 -29.5t-66 -9.5q-43 0 -75 8v102q31 -9 62 -9q86 0 86 100v460z" />
<glyph unicode="&#x136;" horiz-adv-x="634" d="M364 370l266 -370h-145l-206 287l-85 -94v-193h-120v639h120v-293l269 293h148zM327 -44q26 0 44 -19t18 -50q0 -30 -14 -62t-27 -50.5t-44 -56.5l-35 25q40 49 58 95q-26 0 -43.5 17.5t-17.5 42.5q0 24 17.5 41t43.5 17z" />
<glyph unicode="&#x137;" horiz-adv-x="524" d="M311 298l212 -298h-131l-159 222l-59 -56v-166h-113v671l113 15v-394l191 195h141zM274 -39q26 0 44 -19t18 -50q0 -30 -14 -62t-27 -50.5t-44 -56.5l-35 25q40 49 58 95q-26 0 -43.5 17.5t-17.5 42.5q0 24 17.5 41t43.5 17z" />
<glyph unicode="&#x138;" horiz-adv-x="518" d="M392 0l-159 222l-59 -56v-166h-113v487h113v-195l191 195h141l-195 -189l212 -298h-131z" />
<glyph unicode="&#x139;" horiz-adv-x="527" d="M306 808l-149 -128l-64 31l122 133zM194 105h304v-105h-424v639h120v-534z" />
<glyph unicode="&#x13a;" horiz-adv-x="235" d="M176 859l91 -36l-149 -128l-64 31zM174 0h-113v671l113 15v-686z" />
<glyph unicode="&#x13b;" horiz-adv-x="527" d="M194 105h304v-105h-424v639h120v-534zM305 -44q26 0 44 -19t18 -50q0 -30 -14 -62t-27 -50.5t-44 -56.5l-35 25q40 49 58 95q-26 0 -43.5 17.5t-17.5 42.5q0 24 17.5 41t43.5 17z" />
<glyph unicode="&#x13c;" horiz-adv-x="235" d="M174 686v-686h-113v671zM126 -36q26 0 44 -19t18 -50q0 -30 -14 -62t-27 -50.5t-44 -56.5l-35 25q40 49 58 95q-26 0 -43.5 17.5t-17.5 42.5q0 24 17.5 41t43.5 17z" />
<glyph unicode="&#x13d;" horiz-adv-x="527" d="M392 519q-28 -1 -47.5 16t-20.5 44q0 29 17.5 47t45.5 18q29 1 49.5 -19t21.5 -59v-1q0 -79 -80 -173l-38 24q42 52 59 103h-7zM194 105h304v-105h-424v639h120v-534z" />
<glyph unicode="&#x13e;" horiz-adv-x="329" d="M174 0h-113v671l113 15v-686zM233 674l93 12l-11 -231h-71z" />
<glyph unicode="&#x13f;" horiz-adv-x="527" d="M194 105h304v-105h-424v639h120v-534zM383 316q-34 0 -53.5 21t-19.5 53q0 30 20 51t53 21t53 -21t20 -51q0 -32 -19.5 -53t-53.5 -21z" />
<glyph unicode="&#x140;" horiz-adv-x="374" d="M174 0h-113v671l113 15v-686zM225 325q0 30 20 51t53 21t53 -21t20 -51q0 -32 -19.5 -53t-53.5 -21t-53.5 21t-19.5 53z" />
<glyph unicode="&#x141;" horiz-adv-x="527" d="M194 105h304v-105h-424v245l-28 -9l-26 81l54 17v305h120v-267l163 52l27 -81l-190 -60v-178z" />
<glyph unicode="&#x142;" horiz-adv-x="272" d="M298 340l-124 -40v-300h-113v264l-60 -19l-27 81l87 28v317l113 15v-297l97 31z" />
<glyph unicode="&#x143;" horiz-adv-x="680" d="M487 808l-149 -128l-64 31l122 133zM486 640h120v-640h-112l-303 435l3 -143v-292h-120v640h117l299 -432l-4 139v293z" />
<glyph unicode="&#x144;" horiz-adv-x="560" d="M416 672l-149 -128l-64 31l122 133zM325 500q76 0 124.5 -42.5t48.5 -135.5v-322h-113v282q0 62 -22 89t-68 27q-56 0 -91 -41q-28 -33 -28 -111v-246h-113v487h104l4 -61h9q21 33 58.5 53.5t86.5 20.5z" />
<glyph unicode="&#x145;" horiz-adv-x="680" d="M486 640h120v-640h-112l-303 435l3 -143v-292h-120v640h117l299 -432l-4 139v293zM351 -44q26 0 44 -19t18 -50q0 -30 -14 -62t-27 -50.5t-44 -56.5l-35 25q40 49 58 95q-26 0 -43.5 17.5t-17.5 42.5q0 24 17.5 41t43.5 17z" />
<glyph unicode="&#x146;" horiz-adv-x="560" d="M325 500q76 0 124.5 -42.5t48.5 -135.5v-322h-113v282q0 62 -22 89t-68 27q-56 0 -91 -41q-28 -33 -28 -111v-246h-113v487h104l4 -61h9q21 33 58.5 53.5t86.5 20.5zM281 -36q26 0 44 -19t18 -50q0 -30 -14 -62t-27 -50.5t-44 -56.5l-35 25q40 49 58 95q-26 0 -43.5 17.5 t-17.5 42.5q0 24 17.5 41t43.5 17z" />
<glyph unicode="&#x147;" horiz-adv-x="680" d="M389 697h-96l-99 119l75 20l72 -77l80 77l71 -20zM486 640h120v-640h-112l-303 435l3 -143v-292h-120v640h117l299 -432l-4 139v293z" />
<glyph unicode="&#x148;" horiz-adv-x="560" d="M318 561h-96l-99 119l75 20l72 -77l80 77l71 -20zM325 500q76 0 124.5 -42.5t48.5 -135.5v-322h-113v282q0 62 -22 89t-68 27q-56 0 -91 -41q-28 -33 -28 -111v-246h-113v487h104l4 -61h9q21 33 58.5 53.5t86.5 20.5z" />
<glyph unicode="&#x14a;" horiz-adv-x="698" d="M486 640h120v-640q-1 -98 -56.5 -142t-130.5 -44q-43 0 -75 8v105q34 -8 58 -8q80 0 84 93l-295 423l3 -143v-292h-120v640h117l295 -427v66h2l-2 68v293z" />
<glyph unicode="&#x14b;" horiz-adv-x="560" d="M325 500q76 0 124.5 -42.5t48.5 -135.5v-322q-1 -99 -55 -142.5t-130 -43.5q-43 0 -75 8v102q31 -9 62 -9q79 0 85 85v282q0 62 -22 89t-68 27q-56 0 -91 -41q-28 -33 -28 -111v-246h-113v487h104l4 -61h9q21 33 58.5 53.5t86.5 20.5z" />
<glyph unicode="&#x14c;" horiz-adv-x="685" d="M208 801h270v-80h-270v80zM643 321q0 -153 -86.5 -243t-214.5 -90t-214 90t-86 243q0 151 86 240.5t214 89.5t214.5 -89.5t86.5 -240.5zM521 321q0 106 -48.5 164t-130.5 58t-130 -58t-48 -164t48.5 -165.5t129.5 -59.5q82 0 130.5 59.5t48.5 165.5z" />
<glyph unicode="&#x14d;" horiz-adv-x="549" d="M139 654h270v-80h-270v80zM516 245q0 -116 -67 -186t-175 -70q-107 0 -174 70t-67 186t67 185.5t174 69.5q108 0 175 -69t67 -186zM402 245q0 74 -33.5 115.5t-94.5 41.5q-59 0 -93 -41.5t-34 -115.5q0 -73 34 -115t93 -42q61 0 94.5 41.5t33.5 115.5z" />
<glyph unicode="&#x14e;" horiz-adv-x="685" d="M284 818q0 -21 16 -35.5t43 -14.5q26 1 41.5 15t15.5 35h79q1 -54 -37.5 -88.5t-98.5 -34.5q-62 0 -100.5 34t-37.5 89h79zM643 321q0 -153 -86.5 -243t-214.5 -90t-214 90t-86 243q0 151 86 240.5t214 89.5t214.5 -89.5t86.5 -240.5zM521 321q0 106 -48.5 164t-130.5 58 t-130 -58t-48 -164t48.5 -165.5t129.5 -59.5q82 0 130.5 59.5t48.5 165.5z" />
<glyph unicode="&#x14f;" horiz-adv-x="549" d="M215 671q0 -21 16 -35.5t43 -14.5q26 1 41.5 15t15.5 35h79q1 -54 -37.5 -88.5t-98.5 -34.5q-62 0 -100.5 34t-37.5 89h79zM516 245q0 -116 -67 -186t-175 -70q-107 0 -174 70t-67 186t67 185.5t174 69.5q108 0 175 -69t67 -186zM402 245q0 74 -33.5 115.5t-94.5 41.5 q-59 0 -93 -41.5t-34 -115.5q0 -73 34 -115t93 -42q61 0 94.5 41.5t33.5 115.5z" />
<glyph unicode="&#x150;" horiz-adv-x="685" d="M288 830h116l-118 -139h-89zM468 830h115l-118 -139h-88zM643 321q0 -153 -86.5 -243t-214.5 -90t-214 90t-86 243q0 151 86 240.5t214 89.5t214.5 -89.5t86.5 -240.5zM521 321q0 106 -48.5 164t-130.5 58t-130 -58t-48 -164t48.5 -165.5t129.5 -59.5q82 0 130.5 59.5 t48.5 165.5z" />
<glyph unicode="&#x151;" horiz-adv-x="549" d="M219 683h116l-118 -139h-89zM399 683h115l-118 -139h-88zM516 245q0 -116 -67 -186t-175 -70q-107 0 -174 70t-67 186t67 185.5t174 69.5q108 0 175 -69t67 -186zM402 245q0 74 -33.5 115.5t-94.5 41.5q-59 0 -93 -41.5t-34 -115.5q0 -73 34 -115t93 -42q61 0 94.5 41.5 t33.5 115.5z" />
<glyph unicode="&#x152;" horiz-adv-x="1022" d="M978 535h-322v-163h284v-105h-284v-162h322v-105h-442v64q-70 -76 -192 -76q-128 0 -214 90t-86 243q0 151 86 240.5t214 89.5q122 0 192 -76v65h442v-105zM344 96q80 0 130 60t50 165t-50 163.5t-130 58.5q-79 0 -128.5 -59t-49.5 -163q0 -105 49.5 -165t128.5 -60z" />
<glyph unicode="&#x153;" horiz-adv-x="902" d="M650 500q101 0 159.5 -66t56.5 -174v-34h-342q4 -65 39 -101.5t88 -36.5q40 0 71.5 21t43.5 61l96 -38q-17 -62 -75.5 -102.5t-134.5 -40.5q-120 0 -183 97h-12q-61 -97 -183 -97q-107 0 -174 71t-67 185t66.5 184.5t174.5 70.5q121 0 184 -100h11q62 100 181 100z M645 406q-44 0 -76 -27.5t-41 -75.5h223q-5 47 -33 75t-73 28zM274 89q59 0 94 42t35 114t-35 114t-94 42q-60 0 -95 -42t-35 -114t35 -114t95 -42z" />
<glyph unicode="&#x154;" horiz-adv-x="624" d="M437 808l-149 -128l-64 31l122 133zM581 0h-135l-141 226h-111v-226h-120v640h247q117 0 182 -55t65 -153q0 -72 -36.5 -121t-104.5 -70l2 -3zM194 534v-203h127q127 0 127 101q0 102 -127 102h-127z" />
<glyph unicode="&#x155;" horiz-adv-x="348" d="M341 661l-149 -128l-64 31l122 133zM309 500q14 0 34 -5l-9 -110q-12 6 -41 6q-50 0 -83.5 -32.5t-33.5 -91.5v-267h-113v485h104l5 -75h8q18 41 53.5 65.5t75.5 24.5z" />
<glyph unicode="&#x156;" horiz-adv-x="624" d="M429 238l152 -238h-135l-141 226h-111v-226h-120v640h247q117 0 182 -55t65 -153q0 -72 -36.5 -121t-104.5 -70zM194 534v-203h127q127 0 127 101q0 102 -127 102h-127zM310 -44q26 0 44 -19t18 -50q0 -30 -14 -62t-27 -50.5t-44 -56.5l-35 25q40 49 58 95 q-26 0 -43.5 17.5t-17.5 42.5q0 24 17.5 41t43.5 17z" />
<glyph unicode="&#x157;" horiz-adv-x="348" d="M309 500q14 0 34 -5l-9 -110q-12 6 -41 6q-50 0 -83.5 -32.5t-33.5 -91.5v-267h-113v485h104l5 -75h8q18 41 53.5 65.5t75.5 24.5zM125 -36q26 0 44 -19t18 -50q0 -30 -14 -62t-27 -50.5t-44 -56.5l-35 25q40 49 58 95q-26 0 -43.5 17.5t-17.5 42.5q0 24 17.5 41t43.5 17 z" />
<glyph unicode="&#x158;" horiz-adv-x="624" d="M339 697h-96l-99 119l75 20l72 -77l80 77l71 -20zM581 0h-135l-141 226h-111v-226h-120v640h247q117 0 182 -55t65 -153q0 -72 -36.5 -121t-104.5 -70l2 -3zM194 534v-203h127q127 0 127 101q0 102 -127 102h-127z" />
<glyph unicode="&#x159;" horiz-adv-x="348" d="M243 550h-96l-99 119l75 20l72 -77l80 77l71 -20zM180 410q18 41 53.5 65.5t75.5 24.5q14 0 34 -5l-9 -110q-12 6 -41 6q-50 0 -83.5 -32.5t-33.5 -91.5v-267h-113v485h104l5 -75h8z" />
<glyph unicode="&#x15a;" horiz-adv-x="531" d="M320 844l91 -36l-149 -128l-64 31zM384 460q-12 36 -44 59t-75 23q-45 0 -69 -19t-24 -50q0 -37 30.5 -56.5t101.5 -42.5q97 -32 146.5 -74.5t49.5 -112.5q0 -90 -64.5 -144.5t-167.5 -54.5q-172 0 -240 146l98 60q43 -100 147 -100q47 0 77 21.5t30 58.5t-32 58t-115 48 q-92 29 -136.5 74t-44.5 116q0 78 61 128.5t154 50.5q80 0 139 -37.5t82 -99.5z" />
<glyph unicode="&#x15b;" horiz-adv-x="457" d="M282 697l91 -36l-149 -128l-64 31zM81 158q19 -31 60 -53t89 -22q38 0 59 13.5t21 38.5t-23 39.5t-76 28.5q-80 21 -123.5 54.5t-43.5 96.5q0 67 51 106.5t135 39.5q115 0 185 -72l-51 -82q-23 26 -61 44t-77 18q-33 0 -52 -13t-19 -34q0 -25 25.5 -38t79.5 -27 q76 -20 119 -54t43 -95q0 -71 -53.5 -114.5t-140.5 -43.5q-128 0 -199 89z" />
<glyph unicode="&#x15c;" horiz-adv-x="531" d="M269 763l-80 -77l-71 20l103 119h96l99 -119l-75 -20zM304 374q97 -32 146.5 -74.5t49.5 -112.5q0 -90 -64.5 -144.5t-167.5 -54.5q-172 0 -240 146l98 60q43 -100 147 -100q47 0 77 21.5t30 58.5t-32 58t-115 48q-92 29 -136.5 74t-44.5 116q0 78 61 128.5t154 50.5 q80 0 139 -37.5t82 -99.5l-104 -52q-12 36 -44 59t-75 23q-45 0 -69 -19t-24 -50q0 -37 30.5 -56.5t101.5 -42.5z" />
<glyph unicode="&#x15d;" horiz-adv-x="457" d="M231 616l-80 -77l-71 20l103 119h96l99 -119l-75 -20zM260 296q76 -20 119 -54t43 -95q0 -71 -53.5 -114.5t-140.5 -43.5q-128 0 -199 89l52 80q19 -31 60 -53t89 -22q38 0 59 13.5t21 38.5t-23 39.5t-76 28.5q-80 21 -123.5 54.5t-43.5 96.5q0 67 51 106.5t135 39.5 q115 0 185 -72l-51 -82q-23 26 -61 44t-77 18q-33 0 -52 -13t-19 -34q0 -25 25.5 -38t79.5 -27z" />
<glyph unicode="&#x15e;" horiz-adv-x="531" d="M500 187q0 -76 -47.5 -128t-127.5 -66l-99 -202l-96 55l102 144q-143 14 -204 144l98 60q43 -100 147 -100q47 0 77 21.5t30 58.5t-32 58t-115 48q-92 29 -136.5 74t-44.5 116q0 78 61 128.5t154 50.5q80 0 139 -37.5t82 -99.5l-104 -52q-12 36 -44 59t-75 23 q-45 0 -69 -19t-24 -50q0 -37 30.5 -56.5t101.5 -42.5q97 -32 146.5 -74.5t49.5 -112.5z" />
<glyph unicode="&#x15f;" horiz-adv-x="457" d="M422 147q0 -60 -39 -101t-106 -53l-98 -200l-96 55l102 144q-98 13 -156 86l52 80q19 -31 60 -53t89 -22q38 0 59 13.5t21 38.5t-23 39.5t-76 28.5q-80 21 -123.5 54.5t-43.5 96.5q0 67 51 106.5t135 39.5q115 0 185 -72l-51 -82q-23 26 -61 44t-77 18q-33 0 -52 -13 t-19 -34q0 -25 25.5 -38t79.5 -27q76 -20 119 -54t43 -95z" />
<glyph unicode="&#x160;" horiz-adv-x="531" d="M313 697h-96l-99 119l75 20l72 -77l80 77l71 -20zM304 374q97 -32 146.5 -74.5t49.5 -112.5q0 -90 -64.5 -144.5t-167.5 -54.5q-172 0 -240 146l98 60q43 -100 147 -100q47 0 77 21.5t30 58.5t-32 58t-115 48q-92 29 -136.5 74t-44.5 116q0 78 61 128.5t154 50.5 q80 0 139 -37.5t82 -99.5l-104 -52q-12 36 -44 59t-75 23q-45 0 -69 -19t-24 -50q0 -37 30.5 -56.5t101.5 -42.5z" />
<glyph unicode="&#x161;" horiz-adv-x="457" d="M275 550h-96l-99 119l75 20l72 -77l80 77l71 -20zM260 296q76 -20 119 -54t43 -95q0 -71 -53.5 -114.5t-140.5 -43.5q-128 0 -199 89l52 80q19 -31 60 -53t89 -22q38 0 59 13.5t21 38.5t-23 39.5t-76 28.5q-80 21 -123.5 54.5t-43.5 96.5q0 67 51 106.5t135 39.5 q115 0 185 -72l-51 -82q-23 26 -61 44t-77 18q-33 0 -52 -13t-19 -34q0 -25 25.5 -38t79.5 -27z" />
<glyph unicode="&#x162;" horiz-adv-x="560" d="M540 639v-105h-200v-534h-10l-103 -209l-96 55l109 154h-20v534h-200v105h520z" />
<glyph unicode="&#x163;" horiz-adv-x="358" d="M275 94q31 0 62 9v-102q-32 -8 -75 -8h-7l-95 -194l-96 55l110 156q-97 41 -97 172v213h-62v91l61 1v121l112 14v-135h128v-91h-127v-202q0 -100 86 -100z" />
<glyph unicode="&#x164;" horiz-adv-x="560" d="M323 697h-96l-99 119l75 20l72 -77l80 77l71 -20zM540 639v-105h-200v-534h-120v534h-200v105h520z" />
<glyph unicode="&#x165;" horiz-adv-x="358" d="M322 532h-72l-10 207l93 13zM275 94q31 0 62 9v-102q-32 -8 -75 -8q-35 0 -66 9.5t-59 29.5t-44 58.5t-16 91.5v213h-62v91l61 1v121l112 14v-135h128v-91h-127v-202q0 -100 86 -100z" />
<glyph unicode="&#x166;" horiz-adv-x="560" d="M540 534h-200v-164h95v-103h-95v-267h-120v267h-94v103h94v164h-200v105h520v-105z" />
<glyph unicode="&#x167;" horiz-adv-x="358" d="M275 94q31 0 62 9v-102q-32 -8 -75 -8q-35 0 -66 9.5t-59 29.5t-44 58.5t-16 91.5v79h-42v73h42v61h-62v91l61 1v121l112 14v-135h128v-91h-127v-62h113v-73h-113v-67q0 -100 86 -100z" />
<glyph unicode="&#x168;" horiz-adv-x="660" d="M492 802q-19 -118 -96 -118q-29 0 -67 25.5t-57 25.5q-39 0 -53 -49l-55 15q8 56 33 88t62 32q29 0 67 -26.5t57 -26.5q38 0 53 50zM189 266q0 -92 32.5 -135.5t108.5 -43.5t108.5 43.5t32.5 135.5v373h120v-376q0 -137 -66 -209.5t-195 -72.5q-130 0 -195.5 72.5 t-65.5 209.5v376h120v-373z" />
<glyph unicode="&#x169;" horiz-adv-x="560" d="M224 588q-39 0 -53 -49l-55 15q8 56 33 88t62 32q29 0 67 -26.5t57 -26.5q38 0 53 50l56 -16q-19 -118 -96 -118q-29 0 -67 25.5t-57 25.5zM384 487h113v-487h-104l-4 61h-9q-21 -33 -58.5 -53.5t-86.5 -20.5q-76 0 -124.5 42.5t-48.5 135.5v322h113v-282q0 -62 22 -89 t68 -27q56 0 91 41q28 33 28 111v246z" />
<glyph unicode="&#x16a;" horiz-adv-x="660" d="M195 801h270v-80h-270v80zM189 266q0 -92 32.5 -135.5t108.5 -43.5t108.5 43.5t32.5 135.5v373h120v-376q0 -137 -66 -209.5t-195 -72.5q-130 0 -195.5 72.5t-65.5 209.5v376h120v-373z" />
<glyph unicode="&#x16b;" horiz-adv-x="560" d="M417 654v-80h-270v80h270zM384 487h113v-487h-104l-4 61h-9q-21 -33 -58.5 -53.5t-86.5 -20.5q-76 0 -124.5 42.5t-48.5 135.5v322h113v-282q0 -62 22 -89t68 -27q56 0 91 41q28 33 28 111v246z" />
<glyph unicode="&#x16c;" horiz-adv-x="660" d="M271 818q0 -21 16 -35.5t43 -14.5q26 1 41.5 15t15.5 35h79q1 -54 -37.5 -88.5t-98.5 -34.5q-62 0 -100.5 34t-37.5 89h79zM189 266q0 -92 32.5 -135.5t108.5 -43.5t108.5 43.5t32.5 135.5v373h120v-376q0 -137 -66 -209.5t-195 -72.5q-130 0 -195.5 72.5t-65.5 209.5 v376h120v-373z" />
<glyph unicode="&#x16d;" horiz-adv-x="560" d="M282 548q-62 0 -100.5 34t-37.5 89h79q0 -21 16 -35.5t43 -14.5q26 1 41.5 15t15.5 35h79q1 -54 -37.5 -88.5t-98.5 -34.5zM384 487h113v-487h-104l-4 61h-9q-21 -33 -58.5 -53.5t-86.5 -20.5q-76 0 -124.5 42.5t-48.5 135.5v322h113v-282q0 -62 22 -89t68 -27 q56 0 91 41q28 33 28 111v246z" />
<glyph unicode="&#x16e;" horiz-adv-x="660" d="M331 683q-39 0 -63 23t-24 58q0 34 24 57t63 23q38 0 62.5 -23t24.5 -57t-24.5 -57.5t-62.5 -23.5zM330 738q14 0 22.5 7.5t8.5 18.5q0 10 -8.5 17.5t-22.5 7.5q-12 0 -20 -7.5t-8 -17.5t8 -18t20 -8zM189 266q0 -92 32.5 -135.5t108.5 -43.5t108.5 43.5t32.5 135.5v373 h120v-376q0 -137 -66 -209.5t-195 -72.5q-130 0 -195.5 72.5t-65.5 209.5v376h120v-373z" />
<glyph unicode="&#x16f;" horiz-adv-x="560" d="M283 536q-39 0 -63 23t-24 58q0 34 24 57t63 23q38 0 62.5 -23t24.5 -57t-24.5 -57.5t-62.5 -23.5zM282 642q-12 0 -20 -7.5t-8 -17.5t8 -18t20 -8q14 0 22.5 7.5t8.5 18.5q0 10 -8.5 17.5t-22.5 7.5zM384 487h113v-487h-104l-4 61h-9q-21 -33 -58.5 -53.5t-86.5 -20.5 q-76 0 -124.5 42.5t-48.5 135.5v322h113v-282q0 -62 22 -89t68 -27q56 0 91 41q28 33 28 111v246z" />
<glyph unicode="&#x170;" horiz-adv-x="660" d="M275 830h116l-118 -139h-89zM455 830h115l-118 -139h-88zM189 266q0 -92 32.5 -135.5t108.5 -43.5t108.5 43.5t32.5 135.5v373h120v-376q0 -137 -66 -209.5t-195 -72.5q-130 0 -195.5 72.5t-65.5 209.5v376h120v-373z" />
<glyph unicode="&#x171;" horiz-adv-x="560" d="M343 683l-118 -139h-89l91 139h116zM404 544h-88l91 139h115zM384 241v246h113v-487h-104l-4 61h-9q-21 -33 -58.5 -53.5t-86.5 -20.5q-76 0 -124.5 42.5t-48.5 135.5v322h113v-282q0 -62 22 -89t68 -27q56 0 91 41q28 33 28 111z" />
<glyph unicode="&#x172;" horiz-adv-x="660" d="M471 639h120v-376q0 -237 -188 -275q-35 -18 -35 -45q0 -17 10 -26t25 -9q18 0 36 10l35 -80q-37 -24 -97 -24q-47 0 -77.5 24t-30.5 69q0 41 37 75q-118 7 -177.5 79t-59.5 202v376h120v-373q0 -92 32.5 -135.5t108.5 -43.5t108.5 43.5t32.5 135.5v373z" />
<glyph unicode="&#x173;" horiz-adv-x="560" d="M498 -81l35 -80q-37 -24 -97 -24q-47 0 -77.5 24t-30.5 69q0 55 65 96l-4 57h-9q-21 -33 -58.5 -53.5t-86.5 -20.5q-76 0 -124.5 42.5t-48.5 135.5v322h113v-282q0 -62 22 -89t68 -27q56 0 91 41q28 33 28 111v246h113v-487h-8q-62 -20 -62 -56q0 -17 10 -26t25 -9 q18 0 36 10z" />
<glyph unicode="&#x174;" horiz-adv-x="966" d="M480 763l-80 -77l-71 20l103 119h96l99 -119l-75 -20zM819 639h132l-195 -639h-129l-93 287l-54 184l-52 -184l-90 -287h-128l-196 639h135l67 -235l63 -229l66 229l75 235h123l77 -235l68 -230l64 230z" />
<glyph unicode="&#x175;" horiz-adv-x="783" d="M393 616l-80 -77l-71 20l103 119h96l99 -119l-75 -20zM650 487h117l-171 -487h-101l-103 352l-103 -352h-101l-172 487h119l106 -332l93 332h116l94 -330z" />
<glyph unicode="&#x176;" horiz-adv-x="575" d="M286 763l-80 -77l-71 20l103 119h96l99 -119l-75 -20zM567 639l-219 -380v-259h-120v258l-220 381h137l97 -171l50 -94l49 94l98 171h128z" />
<glyph unicode="&#x177;" horiz-adv-x="521" d="M262 616l-80 -77l-71 20l103 119h96l99 -119l-75 -20zM348 68l-26 -68l-70 -185h-118l67 182l-185 490h129l121 -367l122 367h118z" />
<glyph unicode="&#x178;" horiz-adv-x="575" d="M193 704q-26 0 -43 17t-17 43q0 25 17 41.5t43 16.5q27 0 44 -16.5t17 -41.5q0 -26 -17 -43t-44 -17zM380 704q-26 0 -43 17t-17 43q0 25 17 41.5t43 16.5q27 0 44 -16.5t17 -41.5q0 -26 -17 -43t-44 -17zM567 639l-219 -380v-259h-120v258l-220 381h137l97 -171l50 -94 l49 94l98 171h128z" />
<glyph unicode="&#x179;" horiz-adv-x="579" d="M431 808l-149 -128l-64 31l122 133zM529 539l-298 -387l-38 -48h336v-104h-479v99l290 377l48 59h-338v104h479v-100z" />
<glyph unicode="&#x17a;" horiz-adv-x="439" d="M280 697l91 -36l-149 -128l-64 31zM407 0h-377v71l246 325h-239v91h369v-71l-241 -325h242v-91z" />
<glyph unicode="&#x17b;" horiz-adv-x="579" d="M291 697q-28 0 -47.5 18.5t-19.5 46.5q0 29 19 47.5t48 18.5q27 0 46 -18.5t19 -47.5q0 -28 -19 -46.5t-46 -18.5zM529 539l-298 -387l-38 -48h336v-104h-479v99l290 377l48 59h-338v104h479v-100z" />
<glyph unicode="&#x17c;" horiz-adv-x="439" d="M296 615q0 -28 -19 -46.5t-46 -18.5q-28 0 -47.5 18.5t-19.5 46.5q0 29 19 47.5t48 18.5q27 0 46 -18.5t19 -47.5zM407 0h-377v71l246 325h-239v91h369v-71l-241 -325h242v-91z" />
<glyph unicode="&#x17d;" horiz-adv-x="579" d="M333 697h-96l-99 119l75 20l72 -77l80 77l71 -20zM529 539l-298 -387l-38 -48h336v-104h-479v99l290 377l48 59h-338v104h479v-100z" />
<glyph unicode="&#x17e;" horiz-adv-x="439" d="M273 550h-96l-99 119l75 20l72 -77l80 77l71 -20zM165 91h242v-91h-377v71l246 325h-239v91h369v-71z" />
<glyph unicode="&#x18f;" horiz-adv-x="648" d="M312 652q135 0 215 -89.5t80 -247.5q0 -144 -80 -236t-214 -92q-129 0 -201 88.5t-70 225.5v32h444q-3 102 -49 157t-124 55q-120 0 -156 -108l-100 44q22 73 91.5 122t163.5 49zM318 92q65 0 107 38.5t55 107.5h-316q5 -67 45.5 -106.5t108.5 -39.5z" />
<glyph unicode="&#x192;" horiz-adv-x="358" d="M-82 -86q19 -8 47 -8q79 0 91 93l56 397h-74l13 91h73l12 78q13 89 64.5 137t131.5 48q28 0 54 -6v-109q-20 10 -49 10q-78 0 -91 -93l-9 -65h105l-12 -91h-106l-57 -411q-13 -89 -64 -136t-132 -47q-26 0 -53 5v107z" />
<glyph unicode="&#x19d;" horiz-adv-x="698" d="M486 640h120v-640h-112l-303 435l3 -143v-292q-1 -98 -56.5 -142t-129.5 -44q-43 0 -75 8v105q32 -8 57 -8q44 0 64 25t20 80v616h117l299 -432l-4 139v293z" />
<glyph unicode="&#x1d5;" horiz-adv-x="660" d="M195 960h270v-80h-270v80zM236 704q-26 0 -43 17t-17 43q0 25 17 41.5t43 16.5q27 0 44 -16.5t17 -41.5q0 -26 -17 -43t-44 -17zM423 704q-25 0 -42.5 17t-17.5 43q0 25 17 41.5t43 16.5q27 0 44 -16.5t17 -41.5q0 -26 -17 -43t-44 -17zM189 266q0 -92 32.5 -135.5 t108.5 -43.5t108.5 43.5t32.5 135.5v373h120v-376q0 -137 -66 -209.5t-195 -72.5q-130 0 -195.5 72.5t-65.5 209.5v376h120v-373z" />
<glyph unicode="&#x1d6;" horiz-adv-x="560" d="M417 813v-80h-270v80h270zM188 557q-26 0 -43 17t-17 43q0 25 17 41.5t43 16.5q27 0 44 -16.5t17 -41.5q0 -26 -17 -43t-44 -17zM315 617q0 25 17 41.5t43 16.5q27 0 44 -16.5t17 -41.5q0 -26 -17 -43t-44 -17q-25 0 -42.5 17.5t-17.5 42.5zM384 487h113v-487h-104l-4 61 h-9q-21 -33 -58.5 -53.5t-86.5 -20.5q-76 0 -124.5 42.5t-48.5 135.5v322h113v-282q0 -62 22 -89t68 -27q56 0 91 41q28 33 28 111v246z" />
<glyph unicode="&#x1d7;" horiz-adv-x="660" d="M380 1003l91 -36l-149 -128l-64 31zM236 704q-26 0 -43 17t-17 43q0 25 17 41.5t43 16.5q27 0 44 -16.5t17 -41.5q0 -26 -17 -43t-44 -17zM423 704q-25 0 -42.5 17t-17.5 43q0 25 17 41.5t43 16.5q27 0 44 -16.5t17 -41.5q0 -26 -17 -43t-44 -17zM189 266 q0 -92 32.5 -135.5t108.5 -43.5t108.5 43.5t32.5 135.5v373h120v-376q0 -137 -66 -209.5t-195 -72.5q-130 0 -195.5 72.5t-65.5 209.5v376h120v-373z" />
<glyph unicode="&#x1d8;" horiz-adv-x="560" d="M423 820l-149 -128l-64 31l122 133zM188 557q-26 0 -43 17t-17 43q0 25 17 41.5t43 16.5q27 0 44 -16.5t17 -41.5q0 -26 -17 -43t-44 -17zM375 675q27 0 44 -16.5t17 -41.5q0 -26 -17 -43t-44 -17q-25 0 -42.5 17.5t-17.5 42.5t17 41.5t43 16.5zM384 487h113v-487h-104 l-4 61h-9q-21 -33 -58.5 -53.5t-86.5 -20.5q-76 0 -124.5 42.5t-48.5 135.5v322h113v-282q0 -62 22 -89t68 -27q56 0 91 41q28 33 28 111v246z" />
<glyph unicode="&#x1d9;" horiz-adv-x="660" d="M373 856h-96l-99 119l75 20l72 -77l80 77l71 -20zM236 704q-26 0 -43 17t-17 43q0 25 17 41.5t43 16.5q27 0 44 -16.5t17 -41.5q0 -26 -17 -43t-44 -17zM423 822q27 0 44 -16.5t17 -41.5q0 -26 -17 -43t-44 -17q-25 0 -42.5 17t-17.5 43q0 25 17 41.5t43 16.5zM471 639 h120v-376q0 -137 -66 -209.5t-195 -72.5q-130 0 -195.5 72.5t-65.5 209.5v376h120v-373q0 -92 32.5 -135.5t108.5 -43.5t108.5 43.5t32.5 135.5v373z" />
<glyph unicode="&#x1da;" horiz-adv-x="560" d="M325 709h-96l-99 119l75 20l72 -77l80 77l71 -20zM188 557q-26 0 -43 17t-17 43q0 25 17 41.5t43 16.5q27 0 44 -16.5t17 -41.5q0 -26 -17 -43t-44 -17zM375 675q27 0 44 -16.5t17 -41.5q0 -26 -17 -43t-44 -17q-25 0 -42.5 17.5t-17.5 42.5t17 41.5t43 16.5zM384 487 h113v-487h-104l-4 61h-9q-21 -33 -58.5 -53.5t-86.5 -20.5q-76 0 -124.5 42.5t-48.5 135.5v322h113v-282q0 -62 22 -89t68 -27q56 0 91 41q28 33 28 111v246z" />
<glyph unicode="&#x1db;" horiz-adv-x="660" d="M283 1003l122 -133l-64 -31l-149 128zM236 704q-26 0 -43 17t-17 43q0 25 17 41.5t43 16.5q27 0 44 -16.5t17 -41.5q0 -26 -17 -43t-44 -17zM423 704q-25 0 -42.5 17t-17.5 43q0 25 17 41.5t43 16.5q27 0 44 -16.5t17 -41.5q0 -26 -17 -43t-44 -17zM189 266 q0 -92 32.5 -135.5t108.5 -43.5t108.5 43.5t32.5 135.5v373h120v-376q0 -137 -66 -209.5t-195 -72.5q-130 0 -195.5 72.5t-65.5 209.5v376h120v-373z" />
<glyph unicode="&#x1dc;" horiz-adv-x="560" d="M357 723l-64 -31l-149 128l91 36zM188 557q-26 0 -43 17t-17 43q0 25 17 41.5t43 16.5q27 0 44 -16.5t17 -41.5q0 -26 -17 -43t-44 -17zM315 617q0 25 17 41.5t43 16.5q27 0 44 -16.5t17 -41.5q0 -26 -17 -43t-44 -17q-25 0 -42.5 17.5t-17.5 42.5zM384 487h113v-487 h-104l-4 61h-9q-21 -33 -58.5 -53.5t-86.5 -20.5q-76 0 -124.5 42.5t-48.5 135.5v322h113v-282q0 -62 22 -89t68 -27q56 0 91 41q28 33 28 111v246z" />
<glyph unicode="&#x1e6;" horiz-adv-x="693" d="M395 697h-96l-99 119l75 20l72 -77l80 77l71 -20zM402 320h234v-320h-77l-12 91q-68 -103 -202 -103q-130 0 -216.5 89.5t-86.5 243.5q0 152 87 241t220 89q100 0 173.5 -51t99.5 -138l-108 -50q-15 63 -58.5 97t-106.5 34q-84 0 -134.5 -58.5t-50.5 -164.5 q0 -105 50 -164.5t131 -59.5q62 0 106 32.5t60 93.5h-109v98z" />
<glyph unicode="&#x1e7;" horiz-adv-x="579" d="M321 550h-96l-99 119l75 20l72 -77l80 77l71 -20zM415 485h103v-414q0 -127 -68 -194t-189 -67q-71 0 -129.5 28t-92.5 77l71 69q20 -33 58.5 -55.5t85.5 -22.5q75 0 113.5 39t38.5 114v4h-8q-46 -67 -145 -67q-98 0 -159 68.5t-61 183.5q0 114 62 183t157 69 q100 0 147 -68h12zM272 92q61 0 97 40t36 117q0 76 -36.5 115.5t-97.5 39.5q-57 0 -90 -40.5t-33 -115.5t33 -115.5t91 -40.5z" />
<glyph unicode="&#x1ea;" horiz-adv-x="685" d="M404 -6q-59 -20 -59 -55q0 -17 10 -26t25 -9q18 0 36 10l35 -80q-37 -24 -97 -24q-47 0 -77.5 24t-30.5 69q0 51 53 88q-113 15 -185 102.5t-72 227.5q0 151 86 240.5t214 89.5t214.5 -89.5t86.5 -240.5q0 -134 -66.5 -220t-172.5 -107zM164 321q0 -106 48.5 -165.5 t129.5 -59.5q82 0 130.5 59.5t48.5 165.5t-48.5 164t-130.5 58t-130 -58t-48 -164z" />
<glyph unicode="&#x1eb;" horiz-adv-x="549" d="M342 -3q-54 -20 -54 -53q0 -17 10 -26t25 -9q18 0 36 10l35 -80q-37 -24 -97 -24q-47 0 -77.5 24t-30.5 69q0 47 47 84q-92 12 -147.5 80t-55.5 173q0 116 67 185.5t174 69.5q108 0 175 -69t67 -186q0 -96 -47 -162t-127 -86zM147 245q0 -73 34 -115t93 -42 q61 0 94.5 41.5t33.5 115.5t-33.5 115.5t-94.5 41.5q-59 0 -93 -41.5t-34 -115.5z" />
<glyph unicode="&#x1fa;" horiz-adv-x="658" d="M471 994l-149 -128l-64 31l122 133zM331 684q-39 0 -63 23t-24 58q0 34 24 57t63 23q38 0 62.5 -23t24.5 -57t-24.5 -57.5t-62.5 -23.5zM330 790q-12 0 -20 -7.5t-8 -17.5t8 -18t20 -8q14 0 22.5 7.5t8.5 18.5q0 10 -8.5 17.5t-22.5 7.5zM499 0l-46 134h-257l-46 -134 h-130l242 640h136l240 -640h-139zM227 225h195l-97 285z" />
<glyph unicode="&#x1fb;" horiz-adv-x="522" d="M394 846l-149 -128l-64 31l122 133zM254 536q-39 0 -63 23t-24 58q0 34 24 57t63 23q38 0 62.5 -23t24.5 -57t-24.5 -57.5t-62.5 -23.5zM253 642q-12 0 -20 -7.5t-8 -17.5t8 -18t20 -8q14 0 22.5 7.5t8.5 18.5q0 10 -8.5 17.5t-22.5 7.5zM449 79h57v-79h-140l-6 68h-5 q-21 -34 -63 -56t-97 -22q-74 0 -118.5 37.5t-44.5 104.5q0 125 184 150l120 15q-2 54 -23 82t-66 28q-76 0 -99 -75l-95 34q21 64 73.5 98.5t127.5 34.5q86 0 140.5 -44.5t54.5 -146.5v-229zM145 138q0 -28 19 -45t52 -17q47 0 84 30.5t37 82.5v33l-89 -10 q-55 -7 -79 -23.5t-24 -50.5z" />
<glyph unicode="&#x1fc;" horiz-adv-x="905" d="M640 802l-149 -128l-64 31l122 133zM861 535h-322v-163h284v-105h-284v-162h322v-105h-442v134h-204l-73 -134h-122l355 640h486v-105zM261 219h158v294l-67 -126z" />
<glyph unicode="&#x1fd;" horiz-adv-x="841" d="M570 648l-149 -128l-64 31l122 133zM589 500q102 0 160.5 -66t56.5 -174v-34h-343q4 -65 39 -101.5t88 -36.5q39 0 70 20.5t43 58.5l98 -42q-20 -59 -78 -97.5t-132 -38.5q-132 0 -188 109h-13q-62 -108 -197 -108q-72 0 -116.5 38t-44.5 101q0 128 184 153l122 16 q-3 57 -24 83.5t-69 26.5q-78 0 -102 -78l-96 35q22 63 75 98.5t132 35.5q116 0 155 -88h5q57 89 175 89zM584 406q-44 0 -75.5 -27.5t-41.5 -75.5h224q-5 47 -33.5 75t-73.5 28zM218 76q43 0 81.5 30.5t38.5 78.5v37l-90 -10q-55 -7 -79 -23.5t-24 -50.5q0 -27 18 -44.5 t55 -17.5z" />
<glyph unicode="&#x1fe;" horiz-adv-x="685" d="M484 808l-149 -128l-64 31l122 133zM571 545q72 -88 72 -224q0 -153 -86.5 -243t-214.5 -90q-109 0 -187 64l-46 -54l-58 49l52 62q-61 87 -61 212q0 151 86 240.5t214 89.5q97 0 173 -53l43 50l58 -49zM164 321q0 -67 20 -116l260 307q-41 31 -102 31q-82 0 -130 -58 t-48 -164zM342 96q82 0 130.5 59.5t48.5 165.5q0 79 -28 132l-265 -314q46 -43 114 -43z" />
<glyph unicode="&#x1ff;" horiz-adv-x="600" d="M415 661l-149 -128l-64 31l122 133zM461 417q55 -68 55 -172q0 -116 -67 -186t-175 -70q-79 0 -139 40l-26 -31l-58 49l30 35q-48 67 -48 163q0 116 67 185.5t174 69.5q72 0 130 -33l28 33l58 -49zM147 245q0 -38 10 -71l180 213q-27 15 -63 15q-59 0 -93 -41.5 t-34 -115.5zM274 88q61 0 94.5 41.5t33.5 115.5q0 49 -15 84l-184 -220q29 -21 71 -21z" />
<glyph unicode="&#x218;" horiz-adv-x="531" d="M304 374q97 -32 146.5 -74.5t49.5 -112.5q0 -90 -64.5 -144.5t-167.5 -54.5q-172 0 -240 146l98 60q43 -100 147 -100q47 0 77 21.5t30 58.5t-32 58t-115 48q-92 29 -136.5 74t-44.5 116q0 78 61 128.5t154 50.5q80 0 139 -37.5t82 -99.5l-104 -52q-12 36 -44 59t-75 23 q-45 0 -69 -19t-24 -50q0 -37 30.5 -56.5t101.5 -42.5zM280 -44q26 0 44 -19t18 -50q0 -30 -14 -62t-27 -50.5t-44 -56.5l-35 25q40 49 58 95q-26 0 -43.5 17.5t-17.5 42.5q0 24 17.5 41t43.5 17z" />
<glyph unicode="&#x219;" horiz-adv-x="457" d="M260 296q76 -20 119 -54t43 -95q0 -71 -53.5 -114.5t-140.5 -43.5q-128 0 -199 89l52 80q19 -31 60 -53t89 -22q38 0 59 13.5t21 38.5t-23 39.5t-76 28.5q-80 21 -123.5 54.5t-43.5 96.5q0 67 51 106.5t135 39.5q115 0 185 -72l-51 -82q-23 26 -61 44t-77 18 q-33 0 -52 -13t-19 -34q0 -25 25.5 -38t79.5 -27zM233 -42q26 0 44 -19t18 -50q0 -30 -14 -62t-27 -50.5t-44 -56.5l-35 25q40 49 58 95q-26 0 -43.5 17.5t-17.5 42.5q0 24 17.5 41t43.5 17z" />
<glyph unicode="&#x21a;" horiz-adv-x="560" d="M540 639v-105h-200v-534h-120v534h-200v105h520zM281 -44q26 0 44 -19t18 -50q0 -30 -14 -62t-27 -50.5t-44 -56.5l-35 25q40 49 58 95q-26 0 -43.5 17.5t-17.5 42.5q0 24 17.5 41t43.5 17z" />
<glyph unicode="&#x21b;" horiz-adv-x="358" d="M275 94q31 0 62 9v-102q-32 -8 -75 -8q-35 0 -66 9.5t-59 29.5t-44 58.5t-16 91.5v213h-62v91l61 1v121l112 14v-135h128v-91h-127v-202q0 -100 86 -100zM214 -36q26 0 44 -19t18 -50q0 -30 -14 -62t-27 -50.5t-44 -56.5l-35 25q40 49 58 95q-26 0 -43.5 17.5t-17.5 42.5 q0 24 17.5 41t43.5 17z" />
<glyph unicode="&#x232;" horiz-adv-x="575" d="M422 801v-80h-270v80h270zM567 639l-219 -380v-259h-120v258l-220 381h137l97 -171l50 -94l49 94l98 171h128z" />
<glyph unicode="&#x233;" horiz-adv-x="521" d="M398 654v-80h-270v80h270zM348 68l-26 -68l-70 -185h-118l67 182l-185 490h129l121 -367l122 367h118z" />
<glyph unicode="&#x237;" horiz-adv-x="212" d="M45 485h112v-472q0 -53 -16 -91.5t-44 -58.5t-59 -29.5t-66 -9.5q-43 0 -75 8v102q31 -9 62 -9q86 0 86 100v460z" />
<glyph unicode="&#x259;" horiz-adv-x="536" d="M262 500q107 0 174 -69.5t67 -186.5q0 -114 -66 -184.5t-173 -70.5q-101 0 -160 68t-57 172v34h342q-5 66 -39 102t-87 36q-85 0 -113 -81l-91 51q17 55 73.5 92t129.5 37zM269 83q46 0 77 27t40 76h-225q5 -47 33 -75t75 -28z" />
<glyph unicode="&#x272;" horiz-adv-x="560" d="M325 500q76 0 124.5 -42.5t48.5 -135.5v-322h-113v282q0 62 -22 89t-68 27q-56 0 -91 -41q-28 -33 -28 -111v-246q-1 -99 -55 -142.5t-130 -43.5q-43 0 -75 8v102q31 -9 62 -9q79 0 85 85v487h104l4 -61h9q21 33 58.5 53.5t86.5 20.5z" />
<glyph unicode="&#x2c6;" horiz-adv-x="433" d="M404 715h-88l-76 73l-70 -73h-91l109 129h106z" />
<glyph unicode="&#x2c7;" horiz-adv-x="413" d="M412 854l-115 -140h-112l-113 140h90l79 -86l83 86h88z" />
<glyph unicode="&#x2c9;" horiz-adv-x="326" d="M78 827h270v-84h-270v84z" />
<glyph unicode="&#x2d8;" horiz-adv-x="360" d="M177 838q0 -21 16 -35.5t43 -14.5q26 1 41.5 15t15.5 35h79q1 -54 -37.5 -88.5t-98.5 -34.5q-62 0 -100.5 34t-37.5 89h79z" />
<glyph unicode="&#x2d9;" horiz-adv-x="277" d="M171 724q-25 0 -41.5 16.5t-16.5 39.5q0 24 16.5 40.5t41.5 16.5t42.5 -17t17.5 -40t-17.5 -39.5t-42.5 -16.5z" />
<glyph unicode="&#x2da;" horiz-adv-x="315" d="M192 706q-39 0 -63 23t-24 57t24 57.5t63 23.5q38 0 62.5 -23.5t24.5 -57.5t-24.5 -57t-62.5 -23zM192 761q14 0 22 7.5t8 17.5t-8 17.5t-22 7.5q-13 0 -21 -7.5t-8 -17.5t8 -17.5t21 -7.5z" />
<glyph unicode="&#x2db;" horiz-adv-x="308" d="M212 0q-62 -20 -62 -56q0 -17 10 -26t25 -9q18 0 36 10l35 -80q-37 -24 -97 -24q-47 0 -77.5 24t-30.5 69q0 50 46.5 83t99.5 46z" />
<glyph unicode="&#x2dc;" horiz-adv-x="389" d="M348 826q-19 -118 -96 -118q-29 0 -67 25.5t-57 25.5q-39 0 -53 -49l-55 15q8 56 33 88t62 32q29 0 66.5 -26.5t57.5 -26.5q38 0 53 50z" />
<glyph unicode="&#x2dd;" horiz-adv-x="461" d="M177 854h117l-118 -139h-89zM372 854h115l-118 -139h-88z" />
<glyph unicode="&#x300;" horiz-adv-x="0" d="M-273 866l122 -133l-64 -31l-149 128z" />
<glyph unicode="&#x301;" horiz-adv-x="0" d="M-376 866l91 -36l-149 -128l-64 31z" />
<glyph unicode="&#x302;" horiz-adv-x="0" d="M-209 715l-75 -20l-72 77l-80 -77l-71 20l103 119h96z" />
<glyph unicode="&#x303;" horiz-adv-x="0" d="M-252 826q-19 -118 -96 -118q-29 0 -67 25.5t-57 25.5q-39 0 -53 -49l-55 15q8 56 33 88t62 32q29 0 67 -26.5t57 -26.5q38 0 53 50z" />
<glyph unicode="&#x304;" horiz-adv-x="0" d="M-522 823h270v-80h-270v80z" />
<glyph unicode="&#x306;" horiz-adv-x="0" d="M-423 839q0 -21 16 -35.5t43 -14.5q26 1 41.5 15t15.5 35h79q1 -54 -37.5 -88.5t-98.5 -34.5q-62 0 -100.5 34t-37.5 89h79z" />
<glyph unicode="&#x307;" horiz-adv-x="0" d="M-417 629q0 -28 -19 -46.5t-46 -18.5q-28 0 -47.5 18.5t-19.5 46.5q0 29 19 47.5t48 18.5q27 0 46 -18.5t19 -47.5z" />
<glyph unicode="&#x308;" horiz-adv-x="0" d="M-457 727q-26 0 -43 17t-17 43q0 25 17 41.5t43 16.5q27 0 44 -16.5t17 -41.5q0 -26 -17 -43t-44 -17zM-270 727q-26 0 -43 17.5t-17 42.5t17 41.5t43 16.5q27 0 44 -16.5t17 -41.5q0 -26 -17 -43t-44 -17z" />
<glyph unicode="&#x30a;" horiz-adv-x="0" d="M-408 701q-39 0 -63 23t-24 58q0 34 24 57t63 23q38 0 62.5 -23t24.5 -57t-24.5 -57.5t-62.5 -23.5zM-409 756q14 0 22.5 7.5t8.5 18.5q0 10 -8.5 17.5t-22.5 7.5q-12 0 -20 -7.5t-8 -17.5t8 -18t20 -8z" />
<glyph unicode="&#x30b;" horiz-adv-x="0" d="M-418 854h116l-118 -139h-89zM-238 854h115l-118 -139h-88z" />
<glyph unicode="&#x30c;" horiz-adv-x="0" d="M-282 858l71 -20l-103 -119h-96l-99 119l75 20l72 -77z" />
<glyph unicode="&#x312;" horiz-adv-x="0" d="M-311 664q18 -2 31 -15t13 -31q0 -22 -17 -37.5t-40 -15.5q-24 0 -40.5 16t-16.5 41q0 54 74 133l40 -28q-32 -35 -44 -63z" />
<glyph unicode="&#x323;" horiz-adv-x="0" d="M-309 -65q25 0 42 -16.5t17 -39.5t-17 -40t-42 -17t-41.5 17t-16.5 40t16.5 39.5t41.5 16.5z" />
<glyph unicode="&#x326;" horiz-adv-x="0" d="M-127 -44q26 0 44 -19t18 -50q0 -30 -14 -62t-27 -50.5t-44 -56.5l-35 25q40 49 58 95q-26 0 -43.5 17.5t-17.5 42.5q0 24 17.5 41t43.5 17z" />
<glyph unicode="&#x327;" horiz-adv-x="0" d="M-488 -209l-96 55l126 178l77 -15z" />
<glyph unicode="&#x328;" horiz-adv-x="0" d="M-388 0q-62 -20 -62 -56q0 -17 10 -26t25 -9q18 0 36 10l35 -80q-37 -24 -97 -24q-47 0 -77.5 24t-30.5 69q0 50 46.5 83t99.5 46z" />
<glyph unicode="&#x331;" horiz-adv-x="0" />
<glyph unicode="&#x335;" horiz-adv-x="0" d="M-562 267v103h309v-103h-309z" />
<glyph unicode="&#x336;" horiz-adv-x="0" />
<glyph unicode="&#x337;" horiz-adv-x="0" d="M-580 317l337 107l27 -81l-338 -107z" />
<glyph unicode="&#x338;" horiz-adv-x="0" d="M16 599l-507 -601l-58 49l507 601z" />
<glyph unicode="&#x394;" horiz-adv-x="658" d="M499 0l-46 134h-257l-46 -134h-130l242 640h136l240 -640h-139zM227 225h195l-97 285z" />
<glyph unicode="&#x3a9;" horiz-adv-x="685" d="M643 321q0 -153 -86.5 -243t-214.5 -90t-214 90t-86 243q0 151 86 240.5t214 89.5t214.5 -89.5t86.5 -240.5zM521 321q0 106 -48.5 164t-130.5 58t-130 -58t-48 -164t48.5 -165.5t129.5 -59.5q82 0 130.5 59.5t48.5 165.5z" />
<glyph unicode="&#x3bc;" horiz-adv-x="560" d="M384 487h113v-487h-104l-4 61h-9q-21 -33 -58.5 -53.5t-86.5 -20.5q-50 0 -87 17l26 -188h-112v671h113v-282q0 -62 22 -89t68 -27q56 0 91 41q28 33 28 111v246z" />
<glyph unicode="&#x3c0;" horiz-adv-x="575" d="M463 198q0 -107 85 -107l-1 -100q-86 0 -141.5 41.5t-55.5 141.5v222h-149v-396h-112v396h-74v91h532v-91h-84v-198z" />
<glyph unicode="&#x1e80;" horiz-adv-x="966" d="M556 711l-64 -31l-149 128l91 36zM819 639h132l-195 -639h-129l-93 287l-54 184l-52 -184l-90 -287h-128l-196 639h135l67 -235l63 -229l66 229l75 235h123l77 -235l68 -230l64 230z" />
<glyph unicode="&#x1e81;" horiz-adv-x="783" d="M469 564l-64 -31l-149 128l91 36zM650 487h117l-171 -487h-101l-103 352l-103 -352h-101l-172 487h119l106 -332l93 332h116l94 -330z" />
<glyph unicode="&#x1e82;" horiz-adv-x="966" d="M622 808l-149 -128l-64 31l122 133zM819 639h132l-195 -639h-129l-93 287l-54 184l-52 -184l-90 -287h-128l-196 639h135l67 -235l63 -229l66 229l75 235h123l77 -235l68 -230l64 230z" />
<glyph unicode="&#x1e83;" horiz-adv-x="783" d="M535 661l-149 -128l-64 31l122 133zM650 487h117l-171 -487h-101l-103 352l-103 -352h-101l-172 487h119l106 -332l93 332h116l94 -330z" />
<glyph unicode="&#x1e84;" horiz-adv-x="966" d="M387 704q-26 0 -43 17t-17 43q0 25 17 41.5t43 16.5q27 0 44 -16.5t17 -41.5q0 -26 -17 -43t-44 -17zM574 704q-26 0 -43 17t-17 43q0 25 17 41.5t43 16.5q27 0 44 -16.5t17 -41.5q0 -26 -17 -43t-44 -17zM819 639h132l-195 -639h-129l-93 287l-54 184l-52 -184l-90 -287 h-128l-196 639h135l67 -235l63 -229l66 229l75 235h123l77 -235l68 -230l64 230z" />
<glyph unicode="&#x1e85;" horiz-adv-x="783" d="M300 557q-26 0 -43 17t-17 43q0 25 17 41.5t43 16.5q27 0 44 -16.5t17 -41.5q0 -26 -17 -43t-44 -17zM487 557q-25 0 -42.5 17.5t-17.5 42.5t17 41.5t43 16.5q27 0 44 -16.5t17 -41.5q0 -26 -17 -43t-44 -17zM650 487h117l-171 -487h-101l-103 352l-103 -352h-101 l-172 487h119l106 -332l93 332h116l94 -330z" />
<glyph unicode="&#x1ea0;" horiz-adv-x="658" d="M638 0h-139l-46 134h-257l-46 -134h-130l242 640h136zM227 225h195l-97 285zM329 -65q25 0 42 -16.5t17 -39.5t-17 -40t-42 -17t-41.5 17t-16.5 40t16.5 39.5t41.5 16.5z" />
<glyph unicode="&#x1ea1;" horiz-adv-x="522" d="M449 79h57v-79h-140l-6 68h-5q-21 -34 -63 -56t-97 -22q-74 0 -118.5 37.5t-44.5 104.5q0 125 184 150l120 15q-2 54 -23 82t-66 28q-76 0 -99 -75l-95 34q21 64 73.5 98.5t127.5 34.5q86 0 140.5 -44.5t54.5 -146.5v-229zM145 138q0 -28 19 -45t52 -17q47 0 84 30.5 t37 82.5v33l-89 -10q-55 -7 -79 -23.5t-24 -50.5zM239 -57q25 0 42 -16.5t17 -39.5t-17 -40t-42 -17t-41.5 17t-16.5 40t16.5 39.5t41.5 16.5z" />
<glyph unicode="&#x1eb8;" horiz-adv-x="560" d="M194 535v-163h284v-105h-284v-162h322v-105h-442v640h442v-105h-322zM299 -65q25 0 42 -16.5t17 -39.5t-17 -40t-42 -17t-41.5 17t-16.5 40t16.5 39.5t41.5 16.5z" />
<glyph unicode="&#x1eb9;" horiz-adv-x="525" d="M272 500q101 0 160 -68t57 -172v-34h-342q5 -66 39 -102t87 -36q85 0 113 81l91 -51q-17 -55 -73.5 -92t-129.5 -37q-107 0 -174 69.5t-67 186.5q0 114 66 184.5t173 70.5zM267 406q-46 0 -77 -27t-40 -76h225q-5 47 -33 75t-75 28zM272 -63q25 0 42 -16.5t17 -39.5 t-17 -40t-42 -17q-24 0 -41 17t-17 40t16.5 39.5t41.5 16.5z" />
<glyph unicode="&#x1ebc;" horiz-adv-x="560" d="M467 802q-19 -118 -96 -118q-29 0 -67 25.5t-57 25.5q-39 0 -53 -49l-55 15q8 56 33 88t62 32q28 0 66 -26.5t58 -26.5q38 0 53 50zM194 535v-163h284v-105h-284v-162h322v-105h-442v640h442v-105h-322z" />
<glyph unicode="&#x1ebd;" horiz-adv-x="525" d="M215 588q-39 0 -53 -49l-55 15q8 56 33 88t62 32q28 0 66 -26.5t58 -26.5q38 0 53 50l56 -16q-19 -118 -96 -118q-29 0 -67 25.5t-57 25.5zM272 500q101 0 160 -68t57 -172v-34h-342q5 -66 39 -102t87 -36q85 0 113 81l91 -51q-17 -55 -73.5 -92t-129.5 -37 q-107 0 -174 69.5t-67 186.5q0 114 66 184.5t173 70.5zM267 406q-46 0 -77 -27t-40 -76h225q-5 47 -33 75t-75 28z" />
<glyph unicode="&#x1eca;" horiz-adv-x="269" d="M194 639v-639h-120v639h120zM135 -65q25 0 42 -16.5t17 -39.5t-17 -40t-42 -17t-41.5 17t-16.5 40t16.5 39.5t41.5 16.5z" />
<glyph unicode="&#x1ecb;" horiz-adv-x="235" d="M188 632q0 -31 -20 -50.5t-50 -19.5q-31 0 -51.5 19.5t-20.5 50.5t20.5 51t51.5 20q30 0 50 -20t20 -51zM174 0h-113v487h113v-487zM116 -65q25 0 42 -16.5t17 -39.5t-17 -40t-42 -17q-24 0 -41 17t-17 40t16.5 39.5t41.5 16.5z" />
<glyph unicode="&#x1ecc;" horiz-adv-x="685" d="M643 321q0 -153 -86.5 -243t-214.5 -90t-214 90t-86 243q0 151 86 240.5t214 89.5t214.5 -89.5t86.5 -240.5zM521 321q0 106 -48.5 164t-130.5 58t-130 -58t-48 -164t48.5 -165.5t129.5 -59.5q82 0 130.5 59.5t48.5 165.5zM342 -65q25 0 42 -16.5t17 -39.5t-17 -40 t-42 -17q-24 0 -41 17t-17 40t16.5 39.5t41.5 16.5z" />
<glyph unicode="&#x1ecd;" horiz-adv-x="549" d="M516 245q0 -116 -67 -186t-175 -70q-107 0 -174 70t-67 186t67 185.5t174 69.5q108 0 175 -69t67 -186zM402 245q0 74 -33.5 115.5t-94.5 41.5q-59 0 -93 -41.5t-34 -115.5q0 -73 34 -115t93 -42q61 0 94.5 41.5t33.5 115.5zM273 -60q25 0 42 -16.5t17 -39.5t-17 -40 t-42 -17t-41.5 16.5t-16.5 40.5q0 23 16.5 39.5t41.5 16.5z" />
<glyph unicode="&#x1ee4;" horiz-adv-x="660" d="M189 266q0 -92 32.5 -135.5t108.5 -43.5t108.5 43.5t32.5 135.5v373h120v-376q0 -137 -66 -209.5t-195 -72.5q-130 0 -195.5 72.5t-65.5 209.5v376h120v-373zM329 -65q25 0 42 -16.5t17 -39.5t-17 -40t-42 -17t-41.5 17t-16.5 40t16.5 39.5t41.5 16.5z" />
<glyph unicode="&#x1ee5;" horiz-adv-x="560" d="M384 487h113v-487h-104l-4 61h-9q-21 -33 -58.5 -53.5t-86.5 -20.5q-76 0 -124.5 42.5t-48.5 135.5v322h113v-282q0 -62 22 -89t68 -27q56 0 91 41q28 33 28 111v246zM278 -57q25 0 42 -16.5t17 -39.5t-17 -40t-42 -17q-24 0 -41 17t-17 40t16.5 39.5t41.5 16.5z" />
<glyph unicode="&#x1ef2;" horiz-adv-x="575" d="M362 711l-64 -31l-149 128l91 36zM567 639l-219 -380v-259h-120v258l-220 381h137l97 -171l50 -94l49 94l98 171h128z" />
<glyph unicode="&#x1ef3;" horiz-adv-x="521" d="M338 564l-64 -31l-149 128l91 36zM348 68l-26 -68l-70 -185h-118l67 182l-185 490h129l121 -367l122 367h118z" />
<glyph unicode="&#x1ef8;" horiz-adv-x="575" d="M229 735q-39 0 -53 -49l-55 15q8 56 33 88t62 32q28 0 66 -26.5t58 -26.5q38 0 53 50l56 -16q-19 -118 -96 -118q-29 0 -67 25.5t-57 25.5zM567 639l-219 -380v-259h-120v258l-220 381h137l97 -171l50 -94l49 94l98 171h128z" />
<glyph unicode="&#x1ef9;" horiz-adv-x="521" d="M205 588q-39 0 -53 -49l-55 15q8 56 33 88t62 32q28 0 66 -26.5t58 -26.5q38 0 53 50l56 -16q-19 -118 -96 -118q-29 0 -67 25.5t-57 25.5zM348 68l-26 -68l-70 -185h-118l67 182l-185 490h129l121 -367l122 367h118z" />
<glyph unicode="&#x2013;" horiz-adv-x="401" d="M28 265v105h345v-105h-345z" />
<glyph unicode="&#x2014;" horiz-adv-x="626" d="M28 265v105h570v-105h-570z" />
<glyph unicode="&#x2018;" horiz-adv-x="197" d="M100 517q30 0 50.5 -18.5t20.5 -47.5q0 -31 -19 -50.5t-50 -18.5q-31 0 -52.5 22t-21.5 64v1v1q2 86 90 183l40 -27q-46 -52 -65 -109h7z" />
<glyph unicode="&#x2019;" horiz-adv-x="197" d="M169 566v-1v-1q-2 -86 -90 -183l-40 27q46 52 65 109h-7q-30 0 -50.5 18.5t-20.5 47.5q0 31 19 50.5t50 18.5q31 0 52.5 -22t21.5 -64z" />
<glyph unicode="&#x201a;" horiz-adv-x="232" d="M189 53v-1v-1q-1 -52 -25.5 -97.5t-68.5 -97.5l-42 28q46 61 66 110h-1q-31 0 -51 20.5t-20 49.5t19.5 49.5t50.5 20.5t51.5 -22t20.5 -59z" />
<glyph unicode="&#x201c;" horiz-adv-x="379" d="M100 521q30 0 50.5 -18.5t20.5 -47.5q0 -31 -19 -50.5t-50 -18.5q-31 0 -52.5 22t-21.5 64v1v1q2 86 90 183l40 -27q-46 -52 -65 -109h7zM282 521q30 0 50.5 -18.5t20.5 -47.5q0 -31 -19 -50.5t-50 -18.5q-31 0 -52.5 22t-21.5 64v1v1q2 86 90 183l40 -27 q-46 -52 -65 -109h7z" />
<glyph unicode="&#x201d;" horiz-adv-x="379" d="M169 566v-1v-1q-2 -86 -90 -183l-40 27q46 52 65 109h-7q-30 0 -50.5 18.5t-20.5 47.5q0 31 19 50.5t50 18.5q31 0 52.5 -22t21.5 -64zM351 566v-1v-1q-2 -86 -90 -183l-40 27q46 52 65 109h-7q-30 0 -50.5 18.5t-20.5 47.5q0 31 19 50.5t50 18.5q31 0 52.5 -22t21.5 -64 z" />
<glyph unicode="&#x201e;" horiz-adv-x="391" d="M171 53v-1v-1q-1 -52 -25.5 -97.5t-68.5 -97.5l-42 28q46 61 66 110h-1q-31 0 -51 20.5t-20 49.5t19.5 49.5t50.5 20.5t51.5 -22t20.5 -59zM363 53v-1v-1q-1 -52 -25.5 -97.5t-68.5 -97.5l-42 28q46 61 66 110h-1q-31 0 -51 20.5t-20 49.5t19.5 49.5t50.5 20.5t51.5 -22 t20.5 -59z" />
<glyph unicode="&#x2020;" horiz-adv-x="405" d="M385 541v-105h-129v-633h-113v633h-123v105h123v130l113 15v-145h129z" />
<glyph unicode="&#x2021;" horiz-adv-x="405" d="M385 436h-126v-173h126v-105h-126v-355h-113v355h-126v105h126v173h-126v105h126v130l113 15v-145h126v-105z" />
<glyph unicode="&#x2022;" horiz-adv-x="327" d="M166 182q-59 0 -98.5 40t-39.5 96q0 55 39.5 94.5t98.5 39.5q55 0 94 -39.5t39 -94.5q0 -56 -39 -96t-94 -40z" />
<glyph unicode="&#x2026;" horiz-adv-x="719" d="M48 66q0 30 20 51t53 21t53 -21t20 -51q0 -32 -19.5 -53t-53.5 -21t-53.5 21t-19.5 53zM284 66q0 30 20 51t53 21t53 -21t20 -51q0 -32 -19.5 -53t-53.5 -21t-53.5 21t-19.5 53zM520 66q0 30 20 51t53 21t53 -21t20 -51q0 -32 -19.5 -53t-53.5 -21t-53.5 21t-19.5 53z " />
<glyph unicode="&#x2030;" horiz-adv-x="1035" d="M33 532q0 62 43 105.5t104 43.5q63 0 106.5 -43.5t43.5 -105.5t-43.5 -105t-106.5 -43q-62 0 -104.5 43t-42.5 105zM535 672h71l-436 -668h-70zM105 532q0 -31 22.5 -53.5t52.5 -22.5q32 0 55 22.5t23 53.5q0 32 -23 55t-55 23q-30 0 -52.5 -23t-22.5 -55zM672 144 q0 -62 -43 -106t-104 -44q-62 0 -106 44t-44 106q0 61 44 103.5t106 42.5q61 0 104 -42.5t43 -103.5zM1001 144q0 -62 -43 -106t-104 -44q-62 0 -105.5 44t-43.5 106q0 61 43.5 103.5t105.5 42.5t104.5 -42.5t42.5 -103.5zM600 144q0 32 -22 53.5t-53 21.5q-32 0 -55 -22 t-23 -53q0 -33 23 -55.5t55 -22.5t53.5 22.5t21.5 55.5zM930 144q0 31 -22.5 53t-53.5 22q-32 0 -54.5 -22t-22.5 -53q0 -33 22.5 -55.5t54.5 -22.5q31 0 53.5 22.5t22.5 55.5z" />
<glyph unicode="&#x2039;" horiz-adv-x="284" d="M244 487l-103 -171l103 -171h-111l-103 169l105 173h109z" />
<glyph unicode="&#x203a;" horiz-adv-x="284" d="M149 487l105 -173l-103 -169h-111l103 171l-103 171h109z" />
<glyph unicode="&#x2044;" horiz-adv-x="595" d="M112 0h-102l450 654h103z" />
<glyph unicode="&#x20ac;" horiz-adv-x="629" d="M336 93q57 0 94.5 31.5t48.5 86.5l107 -41q-21 -83 -86 -132t-164 -49q-91 0 -161.5 51t-96.5 144h-57l-1 73h45q-1 10 -1 31q0 22 1 32h-43l-1 74h58q27 90 97 140t160 50q99 0 164 -49t86 -131l-107 -43q-11 56 -48.5 87.5t-94.5 31.5q-96 0 -134 -86h162l1 -74h-181 q-2 -22 -2 -33q0 -20 1 -30h185l1 -73h-169q39 -91 136 -91z" />
<glyph unicode="&#x2113;" horiz-adv-x="235" d="M174 0h-113v671l113 15v-686z" />
<glyph unicode="&#x2116;" horiz-adv-x="918" d="M602 330q-74 0 -125 51t-51 123t51 123t125 51t124.5 -51t50.5 -123t-50.5 -123t-124.5 -51zM133 500v-159h-86v331h92l125 -185l10 -17l-1 43v158h86v-331h-92l-126 186l-9 15zM603 592q-38 0 -62.5 -25t-24.5 -63q0 -39 24 -64.5t61 -25.5t61.5 26t24.5 64t-24 63 t-60 25zM830 415q20 0 31.5 -12t11.5 -30t-11.5 -30.5t-31.5 -12.5q-19 0 -30.5 12.5t-11.5 30.5t11.5 30t30.5 12zM47 0v102h771v-102h-771z" />
<glyph unicode="&#x2117;" horiz-adv-x="768" d="M764 328q0 -152 -102.5 -252t-251.5 -100q-150 0 -252.5 100t-102.5 252t102.5 251.5t252.5 99.5q149 0 251.5 -99.5t102.5 -251.5zM699 327q0 133 -81.5 215t-207.5 82t-208 -82.5t-82 -214.5q0 -131 81.5 -213.5t207.5 -82.5q125 0 207.5 83t82.5 213zM435 536 q76 0 117.5 -36t41.5 -102q0 -65 -42 -100.5t-118 -35.5h-74v-139h-80v413h155zM434 332q80 0 80 66q0 68 -79 68h-75v-134h74z" />
<glyph unicode="&#x2122;" horiz-adv-x="847" d="M321 640v-82h-106v-282h-89v282h-106v82h301zM680 640h93v-364h-89v117l1 89l-94 -144h-40l-96 142l2 -87v-117h-89v364h98l106 -178z" />
<glyph unicode="&#x212e;" horiz-adv-x="617" d="M317 659q88 0 148.5 -44t87 -115t23.5 -161v-12h-409v-165q54 -82 149 -82q135 0 182 120l64 -33q-20 -68 -87 -116t-157 -48q-125 0 -200.5 88.5t-75.5 239.5q0 141 73.5 234.5t201.5 93.5zM167 503v-99h297v99q-44 76 -148 76q-98 0 -149 -76z" />
<glyph unicode="&#x215b;" horiz-adv-x="842" d="M118 254v327h-85v73h169v-400h-84zM541 654h103l-451 -654h-102zM725 211q76 -26 76 -96q0 -52 -46.5 -87t-114.5 -35q-70 0 -116 35t-46 87q0 70 76 96q-63 27 -63 85q0 47 40 79.5t109 32.5t108.5 -32.5t39.5 -79.5q0 -58 -63 -85zM640 348q-33 0 -49.5 -15t-16.5 -37 q0 -18 17.5 -35t48.5 -17t48 17t17 35q0 22 -16.5 37t-48.5 15zM640 59q39 0 58.5 16.5t19.5 40.5q0 25 -19.5 41.5t-58.5 16.5t-58.5 -16.5t-19.5 -41.5q0 -24 19.5 -40.5t58.5 -16.5z" />
<glyph unicode="&#x215c;" horiz-adv-x="949" d="M357 371q0 -58 -48.5 -91.5t-120.5 -33.5q-64 0 -108 27.5t-56 77.5l78 25q18 -58 88 -58q35 0 59 15t24 40q0 29 -26.5 42t-86.5 13v60q98 0 98 55q0 22 -19.5 35.5t-50.5 13.5q-29 0 -49 -13.5t-25 -35.5l-74 21q12 44 51.5 71t100.5 27q66 0 107.5 -30.5t41.5 -82.5 q0 -57 -60 -87q76 -24 76 -91zM648 654h103l-451 -654h-102zM832 211q76 -26 76 -96q0 -52 -46.5 -87t-114.5 -35q-70 0 -116 35t-46 87q0 70 76 96q-63 27 -63 85q0 47 40 79.5t109 32.5t108.5 -32.5t39.5 -79.5q0 -58 -63 -85zM747 348q-33 0 -49.5 -15t-16.5 -37 q0 -18 17.5 -35t48.5 -17t48 17t17 35q0 22 -16.5 37t-48.5 15zM747 59q39 0 58.5 16.5t19.5 40.5q0 25 -19.5 41.5t-58.5 16.5t-58.5 -16.5t-19.5 -41.5q0 -24 19.5 -40.5t58.5 -16.5z" />
<glyph unicode="&#x215d;" horiz-adv-x="952" d="M359 392q0 -70 -46.5 -108t-113.5 -38t-108.5 27.5t-53.5 76.5l76 24q17 -58 83 -58q36 0 56 20.5t20 54.5q0 35 -21.5 55.5t-56.5 20.5q-47 0 -70 -38l-70 20l24 205h255v-70h-192l-7 -66q30 18 74 18q68 0 109.5 -37.5t41.5 -106.5zM652 654h103l-451 -654h-102z M835 211q76 -26 76 -96q0 -52 -46.5 -87t-114.5 -35q-70 0 -116 35t-46 87q0 70 76 96q-63 27 -63 85q0 47 40 79.5t109 32.5t108.5 -32.5t39.5 -79.5q0 -58 -63 -85zM750 348q-33 0 -49.5 -15t-16.5 -37q0 -18 17.5 -35t48.5 -17t48 17t17 35q0 22 -16.5 37t-48.5 15z M750 59q39 0 58.5 16.5t19.5 40.5q0 25 -19.5 41.5t-58.5 16.5t-58.5 -16.5t-19.5 -41.5q0 -24 19.5 -40.5t58.5 -16.5z" />
<glyph unicode="&#x215e;" horiz-adv-x="868" d="M149 254h-86q58 199 156 328h-191v72h294v-63q-112 -129 -173 -337zM567 654h103l-451 -654h-102zM751 211q76 -26 76 -96q0 -52 -46.5 -87t-114.5 -35q-70 0 -116 35t-46 87q0 70 76 96q-63 27 -63 85q0 47 40 79.5t109 32.5t108.5 -32.5t39.5 -79.5q0 -58 -63 -85z M666 348q-33 0 -49.5 -15t-16.5 -37q0 -18 17.5 -35t48.5 -17t48 17t17 35q0 22 -16.5 37t-48.5 15zM666 59q39 0 58.5 16.5t19.5 40.5q0 25 -19.5 41.5t-58.5 16.5t-58.5 -16.5t-19.5 -41.5q0 -24 19.5 -40.5t58.5 -16.5z" />
<glyph unicode="&#x2190;" horiz-adv-x="460" d="M459 272h-239l-61 4l40 -39l89 -96l-64 -64l-224 241l224 241l64 -65l-90 -95l-40 -38l62 3h239v-92z" />
<glyph unicode="&#x2191;" horiz-adv-x="482" d="M241 535l241 -224l-64 -64l-96 89l-39 40l4 -61v-239h-92v239l3 62l-38 -40l-95 -90l-65 64z" />
<glyph unicode="&#x2192;" horiz-adv-x="460" d="M236 559l224 -241l-224 -241l-64 64l89 96l40 39l-61 -4h-239v92h239l62 -3l-40 38l-90 95z" />
<glyph unicode="&#x2193;" horiz-adv-x="482" d="M418 382l64 -64l-241 -224l-241 224l65 64l95 -90l38 -40l-3 62v239h92v-239l-4 -61l39 40z" />
<glyph unicode="&#x2194;" horiz-adv-x="732" d="M508 559l224 -241l-224 -241l-64 64l89 96l40 39l-61 -4h-292l-61 4l40 -39l89 -96l-64 -64l-224 241l224 241l64 -65l-90 -95l-40 -38l62 3h292l62 -3l-40 38l-90 95z" />
<glyph unicode="&#x2195;" horiz-adv-x="489" d="M326 177l96 89l64 -64l-241 -224l-241 224l65 64l95 -90l38 -40l-3 62v246l3 62l-38 -40l-95 -90l-65 64l241 224l241 -224l-64 -64l-96 89l-39 40l4 -61v-246l-4 -61z" />
<glyph unicode="&#x2202;" horiz-adv-x="525" d="M206 688q134 0 210 -100t76 -279q0 -144 -67 -231.5t-170 -87.5q-96 0 -159 63t-63 160q0 98 64.5 155.5t149.5 57.5q65 0 125 -33q-13 101 -58.5 153.5t-116.5 50.5q-65 1 -123 -39l-41 74q71 56 173 56zM258 81q59 0 92.5 58t27.5 156q-52 41 -124 41q-44 0 -77 -31.5 t-33 -91.5q0 -58 32 -95t82 -37z" />
<glyph unicode="&#x220f;" horiz-adv-x="706" d="M686 669v-105h-264v-761h-151v761h-251v105h666z" />
<glyph unicode="&#x2211;" horiz-adv-x="411" d="M47 669h444v-90h-313l227 -342l-228 -343h315v-91h-444v88l230 346l-231 347v85z" />
<glyph unicode="&#x2212;" horiz-adv-x="577" d="M64 369h448v-87h-448v87z" />
<glyph unicode="&#x2215;" horiz-adv-x="326" d="M165 0h-72l452 667h72z" />
<glyph unicode="&#x2219;" horiz-adv-x="253" d="M52 316q0 30 20 51t53 21t53 -21t20 -51q0 -32 -19.5 -53t-53.5 -21t-53.5 21t-19.5 53z" />
<glyph unicode="&#x221a;" horiz-adv-x="752" d="M266 -197l-144 351l-61 -31l-41 84l160 82l141 -349l308 734l103 -35l-351 -836h-115z" />
<glyph unicode="&#x221e;" horiz-adv-x="917" d="M658 522q88 0 144.5 -53.5t56.5 -133.5q0 -77 -57 -130.5t-144 -53.5q-95 0 -200 113q-49 -53 -96 -83t-102 -30q-88 0 -145 53.5t-57 131.5q0 79 57 132.5t145 53.5q93 0 198 -113q104 113 200 113zM260 246q32 0 63 23t71 68q-40 45 -71 68t-63 23q-37 0 -62 -26.5 t-25 -65.5q0 -38 25 -64t62 -26zM659 246q36 0 61 26t25 63q0 39 -24.5 66t-61.5 27q-34 0 -65.5 -23.5t-71.5 -67.5q40 -44 71.5 -67.5t65.5 -23.5z" />
<glyph unicode="&#x222b;" horiz-adv-x="319" d="M224 750q56 0 100 -27l-36 -89q-24 13 -48 13q-65 0 -65 -93v-558q0 -91 -42 -140t-117 -49q-58 0 -102 26l37 89q29 -13 47 -13q66 0 66 93v559q0 91 42.5 140t117.5 49z" />
<glyph unicode="&#x2248;" horiz-adv-x="591" d="M71 422q58 47 120 47q39 0 103 -23.5t101 -23.5q62 0 125 49v-85q-64 -47 -125 -47q-37 0 -101.5 24t-102.5 24q-59 0 -120 -49v84zM71 267q57 49 120 49q39 0 103 -25t101 -25q60 0 125 51v-85q-62 -47 -125 -47q-37 0 -101.5 23.5t-102.5 23.5q-59 0 -120 -48v83z" />
<glyph unicode="&#x2260;" horiz-adv-x="591" d="M520 371h-157l-66 -95h223v-84h-281l-61 -87h-76l60 87h-91v84h150l66 95h-216v86h275l65 93h77l-65 -93h97v-86z" />
<glyph unicode="&#x2264;" horiz-adv-x="452" d="M55 432l308 117l29 -81l-248 -85l248 -86l-29 -82l-308 117v100zM55 161h324v-85h-324v85z" />
<glyph unicode="&#x2265;" horiz-adv-x="452" d="M397 432v-100l-308 -117l-29 82l248 86l-248 85l29 81zM397 161v-85h-324v85h324z" />
<glyph unicode="&#x2440;" horiz-adv-x="380" d="M360 634q-31 9 -62 9q-86 0 -86 -100v-226l-112 -1v239q0 53 16 91.5t44 58.5t59 29.5t66 9.5q43 0 75 -8v-102z" />
<glyph unicode="&#x25ca;" horiz-adv-x="565" d="M283 620l262 -263l-262 -263l-263 263zM283 491l-135 -134l135 -135l134 135z" />
<glyph unicode="&#x25fc;" horiz-adv-x="485" d="M0 485h485v-485h-485v485z" />
<glyph unicode="&#xf6be;" horiz-adv-x="212" d="M45 485h112v-472q0 -53 -16 -91.5t-44 -58.5t-59 -29.5t-66 -9.5q-43 0 -75 8v102q31 -9 62 -9q86 0 86 100v460z" />
<glyph unicode="&#xf8ff;" horiz-adv-x="726" d="M61 678h604v-395q-4 -143 -87.5 -259t-214.5 -164q-132 49 -215 164.5t-87 258.5v395zM337 596q-10 0 -18.5 -11.5t-8.5 -28.5q0 -1 1 -2q12 -6 24 -6q7 0 13 2q-2 -4 -2 -8q0 -7 5 -11.5t12 -4.5t12 4.5t5 11.5q0 4 -2 8q6 -2 13 -2q12 0 24 6q1 1 1 2q0 17 -8.5 28.5 t-18.5 11.5q-5 0 -8 -1q6 6 6 16q0 19 -23 34h-2q-23 -15 -23 -34q0 -10 6 -16q-3 1 -8 1zM202 569q-6 0 -4 -7l4 -14q0 -6 7 -4l23 6l9 -32q2 -6 7 -4l14 4q6 2 4 7l-8 32l23 6q6 2 4 7l-3 15q-2 6 -8 4l-23 -7l-6 24q-2 6 -8 4l-14 -4q-6 -2 -4 -7l6 -23zM440 570 q-2 -5 4 -7l23 -6l-8 -32q-2 -5 4 -7l14 -4q7 -2 7 4l9 32l23 -6q6 -2 8 4l3 14q2 7 -4 7l-23 7l6 23q2 5 -4 7l-14 4q-7 2 -7 -4l-7 -24l-23 7q-7 2 -7 -4zM99 575v-1l33 -58q7 -12 16 -14q-6 0 -6 -3l17 -28q8 6 8 16q0 8 -8 12q21 7 31 23v1q-15 23 -35 23q-11 0 -16 -7 q3 17 -9.5 26t-29.5 10h-1zM536 523v-1q10 -16 31 -23q-8 -4 -8 -12q0 -10 8 -16l17 28q0 3 -6 3q9 2 16 14l33 58v1h-1q-17 -1 -29.5 -10t-9.5 -26q-5 7 -16 7q-20 0 -35 -23zM169 452l21 -36v-1h1q79 47 171 47h1q92 0 172 -47q0 1 1 1l21 36q0 1 -1 1q-89 52 -193 52 t-194 -52v-1zM554 19l-191 142l286 223h-573l287 -223l-191 -143q78 -97 191 -142q112 45 191 143z" />
<glyph horiz-adv-x="235" d="M183 615q0 -28 -19 -46.5t-46 -18.5q-28 0 -47.5 18.5t-19.5 46.5q0 29 19 47.5t48 18.5q27 0 46 -18.5t19 -47.5zM173 0h-113v487h113v-487z" />
<glyph horiz-adv-x="444" d="M410 200q0 -95 -53.5 -151.5t-135.5 -56.5q-80 0 -134 57t-54 151q0 95 54 151.5t134 56.5q82 0 135.5 -56.5t53.5 -151.5zM324 200q0 65 -28.5 98.5t-74.5 33.5q-44 0 -72 -33.5t-28 -98.5q0 -63 28 -97t72 -34q46 0 74.5 33.5t28.5 97.5z" />
<glyph horiz-adv-x="273" d="M202 400v-400h-84v327h-85v73h169z" />
<glyph horiz-adv-x="387" d="M268 73h91v-73h-331l1 19q1 37 26 66.5t59 48.5t68 37.5t57.5 43t23.5 55.5q0 32 -20 50t-54 18q-69 0 -78 -80l-73 14q6 62 47.5 99t107.5 37q69 0 111 -38.5t42 -99.5q0 -47 -28.5 -83t-62.5 -53t-70 -34.5t-45 -30.5z" />
<glyph horiz-adv-x="388" d="M281 208q76 -24 76 -91q0 -58 -48.5 -91.5t-120.5 -33.5q-64 0 -108 27.5t-56 77.5l78 25q18 -58 88 -58q35 0 59 15t24 40q0 29 -26.5 42t-86.5 13v60q98 0 98 55q0 22 -19.5 35.5t-50.5 13.5q-29 0 -49 -13.5t-25 -35.5l-74 21q12 44 51.5 71t100.5 27 q66 0 107.5 -30.5t41.5 -82.5q0 -57 -60 -87z" />
<glyph horiz-adv-x="398" d="M369 152v-72h-51v-80h-83v80h-200l-12 42l135 278h91l-120 -248h106v104h83v-104h51z" />
<glyph horiz-adv-x="393" d="M208 282q68 0 109.5 -37.5t41.5 -106.5q0 -70 -46.5 -108t-113.5 -38t-108.5 27.5t-53.5 76.5l76 24q17 -58 83 -58q36 0 56 20.5t20 54.5q0 35 -21.5 55.5t-56.5 20.5q-47 0 -70 -38l-70 20l24 205h255v-70h-192l-7 -66q30 18 74 18z" />
<glyph horiz-adv-x="397" d="M215 264q63 0 103.5 -34.5t40.5 -98.5q0 -63 -43.5 -101t-108.5 -38q-81 0 -124 49t-43 146q0 106 48 163.5t127 57.5q50 0 85 -21.5t49 -53.5l-68 -32q-20 36 -68 36q-81 0 -88 -115q34 42 90 42zM205 63q32 0 51.5 17.5t19.5 46.5q0 31 -20 48.5t-53 17.5 q-35 0 -54.5 -17.5t-19.5 -48.5q0 -27 20.5 -45.5t55.5 -18.5z" />
<glyph horiz-adv-x="341" d="M28 400h294v-63q-112 -129 -173 -337h-86q58 199 156 328h-191v72z" />
<glyph horiz-adv-x="404" d="M287 211q76 -26 76 -96q0 -52 -46.5 -87t-114.5 -35q-70 0 -116 35t-46 87q0 70 76 96q-63 27 -63 85q0 47 40 79.5t109 32.5t108.5 -32.5t39.5 -79.5q0 -58 -63 -85zM202 348q-33 0 -49.5 -15t-16.5 -37q0 -18 17.5 -35t48.5 -17t48 17t17 35q0 22 -16.5 37t-48.5 15z M202 59q39 0 58.5 16.5t19.5 40.5q0 25 -19.5 41.5t-58.5 16.5t-58.5 -16.5t-19.5 -41.5q0 -24 19.5 -40.5t58.5 -16.5z" />
<glyph horiz-adv-x="394" d="M189 408q81 0 124 -49t43 -146q0 -106 -48 -163.5t-127 -57.5q-50 0 -85 21.5t-49 53.5l68 32q20 -36 68 -36q81 0 88 115q-34 -42 -90 -42q-63 0 -103.5 34.5t-40.5 98.5q0 63 43.5 101t108.5 38zM193 207q35 0 54.5 17.5t19.5 48.5q0 27 -20.5 45.5t-55.5 18.5 q-32 0 -51.5 -17.5t-19.5 -46.5q0 -31 20 -48.5t53 -17.5z" />
<glyph horiz-adv-x="444" d="M410 454q0 -95 -53.5 -151.5t-135.5 -56.5q-80 0 -134 57t-54 151q0 95 54 151.5t134 56.5q82 0 135.5 -56.5t53.5 -151.5zM324 454q0 65 -28.5 98.5t-74.5 33.5q-44 0 -72 -33.5t-28 -98.5q0 -63 28 -97t72 -34q46 0 74.5 33.5t28.5 97.5z" />
<glyph horiz-adv-x="273" d="M202 654v-400h-84v327h-85v73h169z" />
<glyph horiz-adv-x="387" d="M268 327h91v-73h-331l1 19q1 37 26 66.5t59 48.5t68 37.5t57.5 43t23.5 55.5q0 32 -20 50t-54 18q-69 0 -78 -80l-73 14q6 62 47.5 99t107.5 37q69 0 111 -38.5t42 -99.5q0 -47 -28.5 -83t-62.5 -53t-70 -34.5t-45 -30.5z" />
<glyph horiz-adv-x="388" d="M281 462q76 -24 76 -91q0 -58 -48.5 -91.5t-120.5 -33.5q-64 0 -108 27.5t-56 77.5l78 25q18 -58 88 -58q35 0 59 15t24 40q0 29 -26.5 42t-86.5 13v60q98 0 98 55q0 22 -19.5 35.5t-50.5 13.5q-29 0 -49 -13.5t-25 -35.5l-74 21q12 44 51.5 71t100.5 27 q66 0 107.5 -30.5t41.5 -82.5q0 -57 -60 -87z" />
<glyph horiz-adv-x="398" d="M369 406v-72h-51v-80h-83v80h-200l-12 42l135 278h91l-120 -248h106v104h83v-104h51z" />
<glyph horiz-adv-x="393" d="M208 536q68 0 109.5 -37.5t41.5 -106.5q0 -70 -46.5 -108t-113.5 -38t-108.5 27.5t-53.5 76.5l76 24q17 -58 83 -58q36 0 56 20.5t20 54.5q0 35 -21.5 55.5t-56.5 20.5q-47 0 -70 -38l-70 20l24 205h255v-70h-192l-7 -66q30 18 74 18z" />
<glyph horiz-adv-x="397" d="M215 518q63 0 103.5 -34.5t40.5 -98.5q0 -63 -43.5 -101t-108.5 -38q-81 0 -124 49t-43 146q0 106 48 163.5t127 57.5q50 0 85 -21.5t49 -53.5l-68 -32q-20 36 -68 36q-81 0 -88 -115q34 42 90 42zM205 317q32 0 51.5 17.5t19.5 46.5q0 31 -20 48.5t-53 17.5 q-35 0 -54.5 -17.5t-19.5 -48.5q0 -27 20.5 -45.5t55.5 -18.5z" />
<glyph horiz-adv-x="341" d="M28 654h294v-63q-112 -129 -173 -337h-86q58 199 156 328h-191v72z" />
<glyph horiz-adv-x="404" d="M287 464q76 -26 76 -96q0 -52 -46.5 -87t-114.5 -35q-70 0 -116 35t-46 87q0 70 76 96q-63 27 -63 85q0 47 40 79.5t109 32.5t108.5 -32.5t39.5 -79.5q0 -58 -63 -85zM202 601q-33 0 -49.5 -15t-16.5 -37q0 -18 17.5 -35t48.5 -17t48 17t17 35q0 22 -16.5 37t-48.5 15z M202 312q39 0 58.5 16.5t19.5 40.5q0 25 -19.5 41.5t-58.5 16.5t-58.5 -16.5t-19.5 -41.5q0 -24 19.5 -40.5t58.5 -16.5z" />
<glyph horiz-adv-x="394" d="M189 662q81 0 124 -49t43 -146q0 -106 -48 -163.5t-127 -57.5q-50 0 -85 21.5t-49 53.5l68 32q20 -36 68 -36q81 0 88 115q-34 -42 -90 -42q-63 0 -103.5 34.5t-40.5 98.5q0 63 43.5 101t108.5 38zM193 461q35 0 54.5 17.5t19.5 48.5q0 27 -20.5 45.5t-55.5 18.5 q-32 0 -51.5 -17.5t-19.5 -46.5q0 -31 20 -48.5t53 -17.5z" />
<glyph horiz-adv-x="626" d="M591 322q0 -156 -77.5 -245t-201.5 -89q-123 0 -200 89t-77 245q0 154 77 242.5t200 88.5q124 0 201.5 -88.5t77.5 -242.5zM474 322q0 112 -43 169t-119 57q-75 0 -117.5 -57t-42.5 -169q0 -113 42.5 -171t117.5 -58q76 0 119 58t43 171z" />
<glyph horiz-adv-x="353" d="M279 639v-639h-116v536h-133v103h249z" />
<glyph horiz-adv-x="567" d="M359 99h161v-99h-478l1 26q4 56 42 101.5t89 77.5t101.5 63.5t85 74t34.5 93.5q0 53 -31.5 85.5t-80.5 32.5q-50 0 -82.5 -34t-40.5 -87l-106 20q12 88 74.5 143.5t161.5 55.5q98 0 158 -60t60 -153q0 -58 -24.5 -106t-64 -81t-79.5 -58t-81.5 -51.5t-59.5 -47.5z" />
<glyph horiz-adv-x="545" d="M386 335q118 -41 118 -152q0 -92 -66.5 -143t-169.5 -51q-88 0 -150.5 42t-80.5 118l107 36q26 -95 127 -95q53 0 85 24t32 72q0 51 -40.5 74t-130.5 23v91q64 0 106 22.5t42 73.5q0 40 -27 62.5t-72 22.5q-38 0 -67 -21t-39 -59l-101 32q16 64 72.5 106t140.5 42 q91 0 150.5 -48t59.5 -128q0 -95 -96 -144z" />
<glyph horiz-adv-x="574" d="M546 218v-99h-81v-119h-112v119h-305l-15 62l209 459h123l-192 -422h180v206h112v-206h81z" />
<glyph horiz-adv-x="571" d="M294 442q99 0 162.5 -59.5t63.5 -165.5q0 -107 -66.5 -168.5t-170.5 -61.5q-94 0 -154 44.5t-78 123.5l105 33q30 -105 126 -105q57 0 89 35t32 97q0 59 -34.5 95t-89.5 36q-75 0 -111 -66l-96 27l-5 1l40 331h383v-97h-294l-15 -135q46 35 113 35z" />
<glyph horiz-adv-x="566" d="M299 430q97 -2 158.5 -59t61.5 -155q0 -99 -64 -161.5t-162 -62.5q-114 0 -179.5 79.5t-65.5 230.5q0 164 69 257.5t188 93.5q79 0 130 -35.5t73 -89.5l-92 -50q-13 33 -42.5 54t-70.5 21q-123 0 -142 -178q56 56 138 55zM289 91q54 0 85.5 33t31.5 85q0 55 -31.5 89 t-86.5 34q-59 0 -89 -33.5t-30 -89.5q0 -50 31 -84t89 -34z" />
<glyph horiz-adv-x="481" d="M36 639h418v-88q-179 -256 -247 -550h-113q73 307 238 542h-296v96z" />
<glyph horiz-adv-x="552" d="M411 337q107 -46 107 -155q0 -85 -68.5 -138.5t-173.5 -53.5q-103 0 -171.5 53.5t-68.5 138.5q0 109 106 155q-87 45 -87 136q0 78 59.5 128.5t161.5 50.5q103 0 162.5 -50.5t59.5 -128.5q0 -89 -87 -136zM276 564q-50 0 -77 -24.5t-27 -66.5q0 -37 27.5 -64t76.5 -27 q50 0 78 27t28 64q0 42 -27.5 66.5t-78.5 24.5zM276 83q61 0 93 28t32 73q0 44 -32.5 73t-92.5 29t-91.5 -29t-31.5 -73q0 -45 31.5 -73t91.5 -28z" />
<glyph horiz-adv-x="572" d="M269 658q116 0 181.5 -79t65.5 -232q0 -168 -66 -260t-189 -92q-78 0 -131.5 37t-74.5 89l96 52q15 -36 45 -57.5t69 -21.5q63 0 95.5 46t40.5 139q-55 -56 -139 -55q-98 1 -159.5 57t-61.5 153q0 100 64.5 162t163.5 62zM275 320q58 0 88 33t30 89q0 49 -31 83.5 t-88 34.5q-54 0 -86.5 -33.5t-32.5 -84.5q0 -55 32 -88.5t88 -33.5z" />
<glyph horiz-adv-x="628" d="M584 290q0 -136 -76 -219t-194 -83q-119 0 -194.5 83t-75.5 219q0 133 75.5 215t194.5 82q118 0 194 -82t76 -215zM468 290q0 91 -41.5 142t-112.5 51t-112 -51t-41 -142q0 -93 41 -145t112 -52t112.5 52t41.5 145z" />
<glyph horiz-adv-x="381" d="M284 568v-568h-115v465h-133v103h248z" />
<glyph horiz-adv-x="558" d="M202 94l307 5v-99h-463l1 26q2 47 27.5 85.5t62 62.5t78.5 49t77.5 46t59 52t23.5 68q0 45 -28.5 72t-76.5 27q-45 0 -74 -28t-37 -76l-102 23q10 83 69 131.5t148 48.5q96 0 155 -54t59 -141q0 -54 -23.5 -96t-60.5 -69t-75 -47.5t-75 -42.5t-52 -43z" />
<glyph horiz-adv-x="559" d="M386 267q118 -41 118 -152q0 -92 -66.5 -143t-169.5 -51q-88 0 -150.5 42t-80.5 118l107 36q26 -95 127 -95q53 0 85 24t32 72q0 51 -40.5 74t-130.5 23v91q64 0 106 22.5t42 73.5q0 40 -27 62.5t-72 22.5q-38 0 -67 -21t-39 -59l-101 32q16 64 72.5 106t140.5 42 q91 0 150.5 -48t59.5 -128q0 -95 -96 -144z" />
<glyph horiz-adv-x="567" d="M549 145v-99h-81v-130h-113v130h-305l-16 61l213 466h123l-195 -428h180v195h113v-195h81z" />
<glyph horiz-adv-x="578" d="M310 358q104 0 168.5 -64t64.5 -174q0 -111 -71.5 -176.5t-172.5 -65.5q-96 0 -159.5 44t-82.5 124l106 37q29 -106 134 -106q57 0 92 38.5t35 103.5q0 63 -35.5 101.5t-92.5 38.5q-79 0 -115 -68l-99 27l39 350h384v-99h-295l-17 -147q49 36 117 36z" />
<glyph horiz-adv-x="581" d="M309 451q100 0 164 -59.5t64 -163.5q0 -106 -67 -172t-168 -66q-125 0 -191 83t-66 246q0 176 71 274t199 98q83 0 140 -40t75 -91l-97 -49q-37 81 -121 81q-69 0 -106 -50t-46 -152q58 61 149 61zM297 88q59 0 93 37t34 94q0 60 -34 97t-94 37q-63 0 -95.5 -36.5 t-32.5 -97.5q0 -55 33.5 -93t95.5 -38z" />
<glyph horiz-adv-x="500" d="M35 568h435v-86q-195 -269 -253 -556h-115q60 299 241 543h-308v99z" />
<glyph horiz-adv-x="543" d="M411 337q107 -46 107 -155q0 -85 -68.5 -138.5t-173.5 -53.5q-103 0 -171.5 53.5t-68.5 138.5q0 109 106 155q-87 45 -87 136q0 78 59.5 128.5t161.5 50.5q103 0 162.5 -50.5t59.5 -128.5q0 -89 -87 -136zM276 564q-50 0 -77 -24.5t-27 -66.5q0 -37 27.5 -64t76.5 -27 q50 0 78 27t28 64q0 42 -27.5 66.5t-78.5 24.5zM276 83q61 0 93 28t32 73q0 44 -32.5 73t-92.5 29t-91.5 -29t-31.5 -73q0 -45 31.5 -73t91.5 -28z" />
<glyph horiz-adv-x="577" d="M290 583q116 0 181.5 -79t65.5 -232q0 -168 -66 -260t-189 -92q-78 0 -131.5 37t-74.5 89l96 52q15 -36 45 -57.5t69 -21.5q63 0 95.5 46t40.5 139q-55 -56 -139 -55q-98 1 -159.5 57t-61.5 153q0 100 64.5 162t163.5 62zM296 245q58 0 88 33t30 89q0 49 -31 83.5 t-88 34.5q-54 0 -86.5 -33.5t-32.5 -84.5q0 -55 32 -88.5t88 -33.5z" />
<glyph d="M573 322q0 -156 -77.5 -245t-201.5 -89q-123 0 -200 89t-77 245q0 154 77 242.5t200 88.5q124 0 201.5 -88.5t77.5 -242.5zM456 322q0 112 -43 169t-119 57q-75 0 -117.5 -57t-42.5 -169q0 -113 42.5 -171t117.5 -58q76 0 119 58t43 171z" />
<glyph d="M389 103h124v-103h-378v103h138v433h-133v103h249v-536z" />
<glyph d="M378 99h161v-99h-478l1 26q4 56 42 101.5t89 77.5t101.5 63.5t85 74t34.5 93.5q0 53 -31.5 85.5t-80.5 32.5q-50 0 -82.5 -34t-40.5 -87l-106 20q12 88 74.5 143.5t161.5 55.5q98 0 158 -60t60 -153q0 -58 -24.5 -106t-64 -81t-79.5 -58t-81.5 -51.5t-59.5 -47.5z" />
<glyph d="M404 335q118 -41 118 -152q0 -92 -66.5 -143t-169.5 -51q-88 0 -150.5 42t-80.5 118l107 36q26 -95 127 -95q53 0 85 24t32 72q0 51 -40.5 74t-130.5 23v91q64 0 106 22.5t42 73.5q0 40 -27 62.5t-72 22.5q-38 0 -67 -21t-39 -59l-101 32q16 64 72.5 106t140.5 42 q91 0 150.5 -48t59.5 -128q0 -95 -96 -144z" />
<glyph d="M555 218v-99h-81v-119h-112v119h-305l-15 62l209 459h123l-192 -422h180v206h112v-206h81z" />
<glyph d="M303 442q99 0 162.5 -59.5t63.5 -165.5q0 -107 -66.5 -168.5t-170.5 -61.5q-94 0 -154 44.5t-78 123.5l105 33q30 -105 126 -105q57 0 89 35t32 97q0 59 -34.5 95t-89.5 36q-75 0 -111 -66l-96 27l-5 1l40 331h383v-97h-294l-15 -135q46 35 113 35z" />
<glyph d="M314 430q97 -2 158.5 -59t61.5 -155q0 -99 -64 -161.5t-162 -62.5q-114 0 -179.5 79.5t-65.5 230.5q0 164 69 257.5t188 93.5q79 0 130 -35.5t73 -89.5l-92 -50q-13 33 -42.5 54t-70.5 21q-123 0 -142 -178q56 56 138 55zM304 91q54 0 85.5 33t31.5 85q0 55 -31.5 89 t-86.5 34q-59 0 -89 -33.5t-30 -89.5q0 -50 31 -84t89 -34z" />
<glyph d="M87 639h418v-88q-179 -256 -247 -550h-113q73 307 238 542h-296v96z" />
<glyph d="M427 337q107 -46 107 -155q0 -85 -68.5 -138.5t-173.5 -53.5q-103 0 -171.5 53.5t-68.5 138.5q0 109 106 155q-87 45 -87 136q0 78 59.5 128.5t161.5 50.5q103 0 162.5 -50.5t59.5 -128.5q0 -89 -87 -136zM292 564q-50 0 -77 -24.5t-27 -66.5q0 -37 27.5 -64t76.5 -27 q50 0 78 27t28 64q0 42 -27.5 66.5t-78.5 24.5zM292 83q61 0 93 28t32 73q0 44 -32.5 73t-92.5 29t-91.5 -29t-31.5 -73q0 -45 31.5 -73t91.5 -28z" />
<glyph d="M282 658q116 0 181.5 -79t65.5 -232q0 -168 -66 -260t-189 -92q-78 0 -131.5 37t-74.5 89l96 52q15 -36 45 -57.5t69 -21.5q63 0 95.5 46t40.5 139q-55 -56 -139 -55q-98 1 -159.5 57t-61.5 153q0 100 64.5 162t163.5 62zM288 320q58 0 88 33t30 89q0 49 -31 83.5 t-88 34.5q-54 0 -86.5 -33.5t-32.5 -84.5q0 -55 32 -88.5t88 -33.5z" />
<glyph d="M565 290q0 -136 -76 -219t-194 -83q-119 0 -194.5 83t-75.5 219q0 133 75.5 215t194.5 82q118 0 194 -82t76 -215zM449 290q0 91 -41.5 142t-112.5 51t-112 -51t-41 -142q0 -93 41 -145t112 -52t112.5 52t41.5 145z" />
<glyph d="M374 103h123v-103h-377v103h139v362h-133v103h248v-465z" />
<glyph d="M217 94l307 5v-99h-463l1 26q2 47 27.5 85.5t62 62.5t78.5 49t77.5 46t59 52t23.5 68q0 45 -28.5 72t-76.5 27q-45 0 -74 -28t-37 -76l-102 23q10 83 69 131.5t148 48.5q96 0 155 -54t59 -141q0 -54 -23.5 -96t-60.5 -69t-75 -47.5t-75 -42.5t-52 -43z" />
<glyph d="M404 267q118 -41 118 -152q0 -92 -66.5 -143t-169.5 -51q-88 0 -150.5 42t-80.5 118l107 36q26 -95 127 -95q53 0 85 24t32 72q0 51 -40.5 74t-130.5 23v91q64 0 106 22.5t42 73.5q0 40 -27 62.5t-72 22.5q-38 0 -67 -21t-39 -59l-101 32q16 64 72.5 106t140.5 42 q91 0 150.5 -48t59.5 -128q0 -95 -96 -144z" />
<glyph d="M549 145v-99h-81v-130h-113v130h-305l-16 61l213 466h123l-195 -428h180v195h113v-195h81z" />
<glyph d="M304 368q97 0 159.5 -59.5t62.5 -165.5q0 -103 -66 -166.5t-167 -63.5q-93 0 -152.5 45t-77.5 124l105 33q30 -105 123 -105q56 0 87.5 35t31.5 97q0 59 -34 95t-88 36q-73 0 -108 -66l-96 26l2 1l-7 1l39 332h378v-99h-289l-15 -134q46 34 112 34z" />
<glyph d="M312 423q98 -1 159.5 -57t61.5 -153q0 -100 -64.5 -162t-163.5 -62q-116 0 -181.5 79t-65.5 232q0 168 66 260t189 92q78 0 131.5 -37t74.5 -89l-96 -52q-15 36 -45 57.5t-69 21.5q-63 0 -95.5 -46t-40.5 -139q55 56 139 55zM300 87q54 0 86.5 33.5t32.5 84.5 q0 55 -32 88.5t-88 33.5q-58 0 -88 -33t-30 -89q0 -49 31 -83.5t88 -34.5z" />
<glyph d="M74 568h435v-86q-195 -269 -253 -556h-115q60 299 241 543h-308v99z" />
<glyph d="M430 337q107 -46 107 -155q0 -85 -68.5 -138.5t-173.5 -53.5q-103 0 -171.5 53.5t-68.5 138.5q0 109 106 155q-87 45 -87 136q0 78 59.5 128.5t161.5 50.5q103 0 162.5 -50.5t59.5 -128.5q0 -89 -87 -136zM295 564q-50 0 -77 -24.5t-27 -66.5q0 -37 27.5 -64t76.5 -27 q50 0 78 27t28 64q0 42 -27.5 66.5t-78.5 24.5zM295 83q61 0 93 28t32 73q0 44 -32.5 73t-92.5 29t-91.5 -29t-31.5 -73q0 -45 31.5 -73t91.5 -28z" />
<glyph d="M285 583q116 0 181.5 -79t65.5 -232q0 -168 -66 -260t-189 -92q-78 0 -131.5 37t-74.5 89l96 52q15 -36 45 -57.5t69 -21.5q63 0 95.5 46t40.5 139q-55 -56 -139 -55q-98 1 -159.5 57t-61.5 153q0 100 64.5 162t163.5 62zM291 245q58 0 88 33t30 89q0 49 -31 83.5 t-88 34.5q-54 0 -86.5 -33.5t-32.5 -84.5q0 -55 32 -88.5t88 -33.5z" />
<glyph d="M222 66q0 30 20 51t53 21t53 -21t20 -51q0 -32 -19.5 -53t-53.5 -21t-53.5 21t-19.5 53z" />
<glyph d="M222 404q0 30 20 51t53 21t53 -21t20 -51q0 -32 -19.5 -53t-53.5 -21t-53.5 21t-19.5 53zM222 67q0 30 20 51t53 21t53 -21t20 -51q0 -32 -19.5 -53t-53.5 -21t-53.5 21t-19.5 53z" />
<glyph d="M368 53v-1v-1q-1 -52 -25.5 -97.5t-68.5 -97.5l-42 28q46 61 66 110h-1q-31 0 -51 20.5t-20 49.5t19.5 49.5t50.5 20.5t51.5 -22t20.5 -59z" />
<glyph d="M585 386h-90l-35 -129h71v-105h-99l-41 -152h-121l41 152h-118l-41 -152h-121l41 152h-67v105h95l34 129h-76v105h104l40 148h122l-40 -148h117l40 148h122l-40 -148h62v-105zM221 257h118l34 129h-117z" />
<glyph d="M222 66q0 30 20 51t53 21t53 -21t20 -51q0 -32 -19.5 -53t-53.5 -21t-53.5 21t-19.5 53z" />
<glyph d="M296 329q-34 0 -53.5 21t-19.5 53q0 30 20 51t53 21t53 -21t20 -51q0 -32 -19.5 -53t-53.5 -21zM369 53v-1v-1q-1 -52 -25.5 -97.5t-68.5 -97.5l-42 28q46 61 66 110h-1q-31 0 -51 20.5t-20 49.5t19.5 49.5t50.5 20.5t51.5 -22t20.5 -59z" />
<glyph d="M222 404q0 30 20 51t53 21t53 -21t20 -51q0 -32 -19.5 -53t-53.5 -21t-53.5 21t-19.5 53zM222 67q0 30 20 51t53 21t53 -21t20 -51q0 -32 -19.5 -53t-53.5 -21t-53.5 21t-19.5 53z" />
<glyph d="M368 53v-1v-1q-1 -52 -25.5 -97.5t-68.5 -97.5l-42 28q46 61 66 110h-1q-31 0 -51 20.5t-20 49.5t19.5 49.5t50.5 20.5t51.5 -22t20.5 -59z" />
<glyph d="M585 386h-90l-35 -129h71v-105h-99l-41 -152h-121l41 152h-118l-41 -152h-121l41 152h-67v105h95l34 129h-76v105h104l40 148h122l-40 -148h117l40 148h122l-40 -148h62v-105zM221 257h118l34 129h-117z" />
<glyph d="M296 329q-34 0 -53.5 21t-19.5 53q0 30 20 51t53 21t53 -21t20 -51q0 -32 -19.5 -53t-53.5 -21zM369 53v-1v-1q-1 -52 -25.5 -97.5t-68.5 -97.5l-42 28q46 61 66 110h-1q-31 0 -51 20.5t-20 49.5t19.5 49.5t50.5 20.5t51.5 -22t20.5 -59z" />
<glyph d="M392 -77l-92 -39q-105 206 -105 433t105 433l92 -39q-92 -187 -92 -394t92 -394z" />
<glyph d="M197 -77q92 187 92 394t-92 394l92 39q105 -206 105 -433t-105 -433z" />
<glyph d="M392 -77l-92 -39q-105 206 -105 433t105 433l92 -39q-92 -187 -92 -394t92 -394z" />
<glyph d="M197 -77q92 187 92 394t-92 394l92 39q105 -206 105 -433t-105 -433z" />
<glyph d="M122 265v105h345v-105h-345z" />
<glyph d="M122 265v105h345v-105h-345z" />
<glyph />
<glyph />
<glyph d="M309 98q40 0 72.5 25t41.5 71l102 -39q-13 -60 -60.5 -101t-113.5 -52v-74h-96v76q-87 17 -138 84t-51 167t50.5 166.5t138.5 83.5v84h96v-82q66 -11 113.5 -52t60.5 -101l-102 -38q-9 45 -41.5 70t-72.5 25q-61 0 -95 -42t-34 -114q0 -73 34 -115t95 -42z" />
<glyph d="M523 198q0 -73 -45.5 -123.5t-121.5 -64.5v-75h-94l1 72q-139 14 -196 139l95 59q42 -97 142 -97q45 0 74 21t29 56t-31.5 56t-110.5 46q-89 29 -132 72t-43 112q0 68 48.5 115t126.5 56l1 85h93v-90q55 -12 95 -45t57 -81l-100 -50q-12 35 -42.5 57t-72.5 22 q-43 0 -66.5 -18.5t-23.5 -47.5q0 -36 29.5 -55t98.5 -41q93 -30 141 -71.5t48 -108.5z" />
<glyph d="M328 93q57 0 94.5 31.5t48.5 86.5l107 -41q-21 -83 -86 -132t-164 -49q-91 0 -161.5 51t-96.5 144h-57l-1 73h45q-1 10 -1 31q0 22 1 32h-43l-1 74h58q27 90 97 140t160 50q99 0 164 -49t86 -131l-107 -43q-11 56 -48.5 87.5t-94.5 31.5q-96 0 -134 -86h162l1 -74h-181 q-2 -22 -2 -33q0 -20 1 -30h185l1 -73h-169q39 -91 136 -91z" />
<glyph d="M56 -86q19 -8 47 -8q79 0 91 93l56 397h-74l13 91h73l12 78q13 89 64.5 137t131.5 48q28 0 54 -6v-109q-20 10 -49 10q-78 0 -91 -93l-9 -65h105l-12 -91h-106l-57 -411q-13 -89 -64 -136t-132 -47q-26 0 -53 5v107z" />
<glyph d="M279 91h230v-91h-429v91h85v131h-81v92h81v8q0 267 232 267q46 0 79 -7l5 -104q-43 10 -82 10q-65 0 -92.5 -39t-27.5 -130v-5h135v-92h-135v-131z" />
<glyph d="M575 639l-158 -275h82v-81h-129l-14 -24v-28h143v-82h-143v-149h-120v149h-157v82h157v27l-14 25h-143v81h96l-159 275h137l97 -171l50 -94l49 94l98 171h128z" />
<glyph d="M309 98q40 0 72.5 25t41.5 71l102 -39q-13 -60 -60.5 -101t-113.5 -52v-74h-96v76q-87 17 -138 84t-51 167t50.5 166.5t138.5 83.5v84h96v-82q66 -11 113.5 -52t60.5 -101l-102 -38q-9 45 -41.5 70t-72.5 25q-61 0 -95 -42t-34 -114q0 -73 34 -115t95 -42z" />
<glyph d="M523 198q0 -73 -45.5 -123.5t-121.5 -64.5v-75h-94l1 72q-139 14 -196 139l95 59q42 -97 142 -97q45 0 74 21t29 56t-31.5 56t-110.5 46q-89 29 -132 72t-43 112q0 68 48.5 115t126.5 56l1 85h93v-90q55 -12 95 -45t57 -81l-100 -50q-12 35 -42.5 57t-72.5 22 q-43 0 -66.5 -18.5t-23.5 -47.5q0 -36 29.5 -55t98.5 -41q93 -30 141 -71.5t48 -108.5z" />
<glyph d="M328 93q57 0 94.5 31.5t48.5 86.5l107 -41q-21 -83 -86 -132t-164 -49q-91 0 -161.5 51t-96.5 144h-57l-1 73h45q-1 10 -1 31q0 22 1 32h-43l-1 74h58q27 90 97 140t160 50q99 0 164 -49t86 -131l-107 -43q-11 56 -48.5 87.5t-94.5 31.5q-96 0 -134 -86h162l1 -74h-181 q-2 -22 -2 -33q0 -20 1 -30h185l1 -73h-169q39 -91 136 -91z" />
<glyph d="M56 -86q19 -8 47 -8q79 0 91 93l56 397h-74l13 91h73l12 78q13 89 64.5 137t131.5 48q28 0 54 -6v-109q-20 10 -49 10q-78 0 -91 -93l-9 -65h105l-12 -91h-106l-57 -411q-13 -89 -64 -136t-132 -47q-26 0 -53 5v107z" />
<glyph d="M279 91h230v-91h-429v91h85v131h-81v92h81v8q0 267 232 267q46 0 79 -7l5 -104q-43 10 -82 10q-65 0 -92.5 -39t-27.5 -130v-5h135v-92h-135v-131z" />
<glyph d="M575 639l-158 -275h82v-81h-129l-14 -24v-28h143v-82h-143v-149h-120v149h-157v82h157v27l-14 25h-143v81h96l-159 275h137l97 -171l50 -94l49 94l98 171h128z" />
<glyph d="M71 457h449v-86h-449v86zM71 276h449v-84h-449v84z" />
<glyph d="M339 551v-182h180v-87h-180v-180h-87v180h-181v87h181v182h87z" />
<glyph d="M71 369h448v-87h-448v87z" />
<glyph d="M102 455l62 61l130 -132l131 132l61 -61l-131 -131l131 -131l-61 -60l-131 130l-130 -130l-62 60l132 131z" />
<glyph d="M233 507q0 26 18 44t44 18q27 0 45.5 -18t18.5 -44t-18.5 -44t-45.5 -18q-26 0 -44 18t-18 44zM71 369h448v-87h-448v87zM233 145q0 26 18 44.5t44 18.5q27 0 45.5 -18.5t18.5 -44.5t-18.5 -44t-45.5 -18q-26 0 -44 18t-18 44z" />
<glyph d="M71 457h449v-86h-449v86zM71 276h449v-84h-449v84z" />
<glyph d="M127 421l34 79l302 -147v-103l-302 -148l-34 79l252 120z" />
<glyph d="M461 421l-252 -120l252 -120l-34 -79l-302 148v103l302 147z" />
<glyph horiz-adv-x="1180" d="M330 532q0 -62 -43.5 -105t-106.5 -43q-62 0 -104.5 43t-42.5 105t43 105.5t104 43.5q63 0 106.5 -43.5t43.5 -105.5zM535 672h71l-436 -668h-70zM105 532q0 -31 22.5 -53.5t52.5 -22.5q32 0 55 22.5t23 53.5q0 32 -23 55t-55 23q-30 0 -52.5 -23t-22.5 -55zM672 144 q0 -62 -43 -106t-104 -44q-62 0 -106 44t-44 106q0 61 44 103.5t106 42.5q61 0 104 -42.5t43 -103.5zM600 144q0 32 -22 53.5t-53 21.5q-32 0 -55 -22t-23 -53q0 -33 23 -55.5t55 -22.5t53.5 22.5t21.5 55.5z" />
<glyph horiz-adv-x="1180" d="M73 532q0 62 43 105.5t104 43.5q63 0 106.5 -43.5t43.5 -105.5t-43.5 -105t-106.5 -43q-62 0 -104.5 43t-42.5 105zM575 672h71l-436 -668h-70zM145 532q0 -31 22.5 -53.5t52.5 -22.5q32 0 55 22.5t23 53.5q0 32 -23 55t-55 23q-30 0 -52.5 -23t-22.5 -55zM712 144 q0 -62 -43 -106t-104 -44q-62 0 -106 44t-44 106q0 61 44 103.5t106 42.5q61 0 104 -42.5t43 -103.5zM1041 144q0 -62 -43 -106t-104 -44q-62 0 -105.5 44t-43.5 106q0 61 43.5 103.5t105.5 42.5t104.5 -42.5t42.5 -103.5zM640 144q0 32 -22 53.5t-53 21.5q-32 0 -55 -22 t-23 -53q0 -33 23 -55.5t55 -22.5t53.5 22.5t21.5 55.5zM970 144q0 31 -22.5 53t-53.5 22q-32 0 -54.5 -22t-22.5 -53q0 -33 22.5 -55.5t54.5 -22.5q31 0 53.5 22.5t22.5 55.5z" />
<glyph d="M339 551v-182h180v-87h-180v-180h-87v180h-181v87h181v182h87z" />
<glyph d="M71 369h448v-87h-448v87z" />
<glyph d="M102 455l62 61l130 -132l131 132l61 -61l-131 -131l131 -131l-61 -60l-131 130l-130 -130l-62 60l132 131z" />
<glyph d="M233 507q0 26 18 44t44 18q27 0 45.5 -18t18.5 -44t-18.5 -44t-45.5 -18q-26 0 -44 18t-18 44zM71 369h448v-87h-448v87zM233 145q0 26 18 44.5t44 18.5q27 0 45.5 -18.5t18.5 -44.5t-18.5 -44t-45.5 -18q-26 0 -44 18t-18 44z" />
<glyph d="M127 421l34 79l302 -147v-103l-302 -148l-34 79l252 120z" />
<glyph d="M461 421l-252 -120l252 -120l-34 -79l-302 148v103l302 147z" />
<glyph horiz-adv-x="1180" d="M330 532q0 -62 -43.5 -105t-106.5 -43q-62 0 -104.5 43t-42.5 105t43 105.5t104 43.5q63 0 106.5 -43.5t43.5 -105.5zM535 672h71l-436 -668h-70zM105 532q0 -31 22.5 -53.5t52.5 -22.5q32 0 55 22.5t23 53.5q0 32 -23 55t-55 23q-30 0 -52.5 -23t-22.5 -55zM672 144 q0 -62 -43 -106t-104 -44q-62 0 -106 44t-44 106q0 61 44 103.5t106 42.5q61 0 104 -42.5t43 -103.5zM600 144q0 32 -22 53.5t-53 21.5q-32 0 -55 -22t-23 -53q0 -33 23 -55.5t55 -22.5t53.5 22.5t21.5 55.5z" />
<glyph horiz-adv-x="1180" d="M73 532q0 62 43 105.5t104 43.5q63 0 106.5 -43.5t43.5 -105.5t-43.5 -105t-106.5 -43q-62 0 -104.5 43t-42.5 105zM575 672h71l-436 -668h-70zM145 532q0 -31 22.5 -53.5t52.5 -22.5q32 0 55 22.5t23 53.5q0 32 -23 55t-55 23q-30 0 -52.5 -23t-22.5 -55zM712 144 q0 -62 -43 -106t-104 -44q-62 0 -106 44t-44 106q0 61 44 103.5t106 42.5q61 0 104 -42.5t43 -103.5zM1041 144q0 -62 -43 -106t-104 -44q-62 0 -105.5 44t-43.5 106q0 61 43.5 103.5t105.5 42.5t104.5 -42.5t42.5 -103.5zM640 144q0 32 -22 53.5t-53 21.5q-32 0 -55 -22 t-23 -53q0 -33 23 -55.5t55 -22.5t53.5 22.5t21.5 55.5zM970 144q0 31 -22.5 53t-53.5 22q-32 0 -54.5 -22t-22.5 -53q0 -33 22.5 -55.5t54.5 -22.5q31 0 53.5 22.5t22.5 55.5z" />
<glyph horiz-adv-x="644" d="M616 0l-129 -1l-42 50q-73 -65 -175 -65q-101 0 -169 58t-68 147q0 124 149 179q-48 68 -48 124q0 68 51 114.5t126 46.5t125 -39t50 -115q0 -108 -152 -156l121 -147q24 55 32 149h98q-9 -140 -67 -225zM312 565q-31 0 -50 -20t-19 -47q0 -38 43 -98q41 14 68.5 39.5 t27.5 59.5q0 28 -19.5 47t-50.5 19zM272 82q65 0 111 41l-153 184l-2 2q-82 -33 -82 -115q0 -48 34.5 -80t91.5 -32z" />
<glyph d="M295 450q-62 0 -106.5 42t-44.5 101t44.5 101t106.5 42t106 -42t44 -101t-44 -101t-106 -42zM295 534q25 0 43 17.5t18 41.5q0 25 -17.5 42t-43.5 17t-44 -17t-18 -42q0 -24 18 -41.5t44 -17.5z" />
<glyph d="M295 450q-62 0 -106.5 42t-44.5 101t44.5 101t106.5 42t106 -42t44 -101t-44 -101t-106 -42zM295 534q25 0 43 17.5t18 41.5q0 25 -17.5 42t-43.5 17t-44 -17t-18 -42q0 -24 18 -41.5t44 -17.5z" />
<glyph horiz-adv-x="0" />
<glyph horiz-adv-x="0" />
<glyph horiz-adv-x="0" />
<glyph horiz-adv-x="0" />
<glyph horiz-adv-x="600" d="M223 866l91 -36l-149 -128l-64 31z" />
<glyph horiz-adv-x="600" d="M177 838q0 -21 16 -35.5t43 -14.5q26 1 41.5 15t15.5 35h79q1 -54 -37.5 -88.5t-98.5 -34.5q-62 0 -100.5 34t-37.5 89h79z" />
<glyph horiz-adv-x="600" d="M412 854l-115 -140h-112l-113 140h90l79 -86l83 86h88z" />
<glyph horiz-adv-x="600" d="M404 715h-88l-76 73l-70 -73h-91l109 129h106z" />
<glyph horiz-adv-x="600" d="M141 731q-27 0 -44.5 17.5t-17.5 43.5t17.5 43t44.5 17t44.5 -17t17.5 -43t-17.5 -43.5t-44.5 -17.5zM332 731q-26 0 -43.5 17.5t-17.5 43.5t17.5 43t43.5 17q27 0 44.5 -17t17.5 -43t-17 -43.5t-45 -17.5z" />
<glyph horiz-adv-x="600" d="M171 724q-25 0 -41.5 16.5t-16.5 39.5q0 24 16.5 40.5t41.5 16.5t42.5 -17t17.5 -40t-17.5 -39.5t-42.5 -16.5z" />
<glyph horiz-adv-x="600" d="M327 866l122 -133l-64 -31l-149 128z" />
<glyph horiz-adv-x="600" d="M177 854h117l-118 -139h-89zM372 854h115l-118 -139h-88z" />
<glyph horiz-adv-x="600" d="M78 827h270v-84h-270v84z" />
<glyph horiz-adv-x="600" d="M192 706q-39 0 -63 23t-24 57t24 57.5t63 23.5q38 0 62.5 -23.5t24.5 -57.5t-24.5 -57t-62.5 -23zM192 761q14 0 22 7.5t8 17.5t-8 17.5t-22 7.5q-13 0 -21 -7.5t-8 -17.5t8 -17.5t21 -7.5z" />
<glyph horiz-adv-x="600" d="M348 826q-19 -118 -96 -118q-29 0 -67 25.5t-57 25.5q-39 0 -53 -49l-55 15q8 56 33 88t62 32q29 0 66.5 -26.5t57.5 -26.5q38 0 53 50z" />
<glyph horiz-adv-x="713" d="M218 871l91 -36l-149 -128l-64 31zM575 871l91 -36l-149 -128l-64 31zM194 639v-639h-120v639h120zM485 639h119v-382q0 -137 -56.5 -202.5t-176.5 -65.5q-46 0 -79 7l-5 108q34 -8 82 -8q63 0 89.5 42.5t26.5 137.5v363z" />
<glyph horiz-adv-x="453" d="M503 663l-149 -128l-64 31l122 133zM258 661l-149 -128l-64 31l122 133zM173 487v-487h-113v487h113zM280 485h112v-472q0 -53 -16 -91.5t-44 -58.5t-59 -29.5t-66 -9.5q-43 0 -75 8v102q31 -9 62 -9q86 0 86 100v460z" />
<glyph horiz-adv-x="326" />
<glyph horiz-adv-x="326" />
<glyph horiz-adv-x="627" d="M584 290q0 -119 -61 -201l24 -29l-37 -30l-20 23q-71 -65 -176 -65q-119 0 -194.5 83t-75.5 219q0 126 70 209l-21 25l38 30l18 -22q69 55 165 55q118 0 194 -82t76 -215zM314 483q-56 0 -95 -33l228 -271q21 45 21 111q0 91 -41.5 142t-112.5 51zM314 93q65 0 106 44 l-232 274q-27 -49 -27 -121q0 -93 41 -145t112 -52z" />
<glyph horiz-adv-x="235" d="M174 0h-113v671l113 15v-686z" />
<glyph horiz-adv-x="652" d="M324 500q76 0 124.5 -42.5t48.5 -135.5v-322h-113v282q0 62 -22 89t-68 27q-56 0 -91 -41q-28 -33 -28 -111l-14 118l-25 18v44h43q21 33 58.5 53.5t86.5 20.5z" />
<glyph horiz-adv-x="622" d="M302 500q91 0 155 -70t64 -185t-64 -185t-156 -70q-97 0 -144 69h-56v373h57q47 68 144 68zM282 89q57 0 90.5 40.5t33.5 115.5q0 74 -33 115t-90 41q-60 0 -96 -39.5t-36 -115.5q0 -77 35.5 -117t95.5 -40z" />
<glyph horiz-adv-x="363" d="M61 487h104l9 -126v-361h-113v487z" />
</font>
</defs>
</svg>
