<?xml version="1.0" standalone="no"?>
<!DOCTYPE svg PUBLIC "-//W3C//DTD SVG 1.1//EN" "http://www.w3.org/Graphics/SVG/1.1/DTD/svg11.dtd" >
<svg xmlns="http://www.w3.org/2000/svg">
<metadata></metadata>
<defs>
<font id="baxter_sansitalic" horiz-adv-x="590" >
<font-face units-per-em="1000" ascent="761" descent="-239" />
<missing-glyph horiz-adv-x="220" />
<glyph unicode="ty" horiz-adv-x="818" d="M220 614l-18 -129h123l-10 -67h-123l-30 -218q-10 -71 5.5 -99t61.5 -28q26 0 62 10l-19 -76q-19 -7 -53 -7q-69 0 -111.5 41t-28.5 142l33 235h-66l10 67h65l17 119zM832 485l-256 -485l-93 -177h-82l91 178l-120 484h91l85 -404l200 404h84z" />
<glyph unicode="&#xd;" horiz-adv-x="600" />
<glyph unicode=" "  horiz-adv-x="220" />
<glyph unicode="&#x09;" horiz-adv-x="220" />
<glyph unicode="&#xa0;" horiz-adv-x="220" />
<glyph unicode="!" horiz-adv-x="230" d="M74 233l49 399h81l-64 -399h-66zM28 49q0 24 15.5 40t41.5 16t41.5 -16t15.5 -40q0 -25 -15.5 -41t-41.5 -16t-41.5 16t-15.5 41z" />
<glyph unicode="&#x22;" horiz-adv-x="276" d="M104 660h68l-37 -189h-46zM223 660h67l-37 -189h-45z" />
<glyph unicode="#" horiz-adv-x="602" d="M627 632l-78 -161h74l-10 -76h-101l-77 -158h124l-10 -76h-151l-78 -161h-86l78 161h-165l-78 -161h-86l78 161h-62l10 76h89l77 158h-113l10 76h140l78 161h86l-78 -161h165l78 161h86zM349 237l77 158h-165l-77 -158h165z" />
<glyph unicode="$" horiz-adv-x="524" d="M293 365q87 -33 130.5 -74t43.5 -99q0 -81 -59.5 -132t-148.5 -58l-9 -59h-69l9 61q-127 19 -171 140l78 40q15 -50 51.5 -78.5t86.5 -28.5q63 0 104.5 27.5t41.5 74.5q0 38 -31.5 66t-100.5 53q-153 57 -153 165q0 68 53 116t130 57l13 88h70l-13 -89q59 -9 98.5 -43.5 t53.5 -79.5l-75 -37q-9 39 -41 63t-81 24q-58 0 -90 -27t-32 -60q0 -69 111 -110z" />
<glyph unicode="%" horiz-adv-x="687" d="M322 536q0 -59 -42 -100t-102 -41q-59 0 -100 41t-41 100t41.5 101t99.5 42q60 0 102 -42t42 -101zM535 670h55l-439 -668h-55zM92 536q0 -36 25.5 -61t60.5 -25q37 0 62.5 25t25.5 61q0 37 -25.5 62.5t-62.5 25.5q-35 0 -60.5 -26t-25.5 -62zM649 136 q0 -59 -41.5 -101.5t-99.5 -42.5q-60 0 -102 42.5t-42 101.5t42 100t102 41q59 0 100 -41t41 -100zM593 136q0 36 -25 61t-60 25q-37 0 -62.5 -25t-25.5 -61q0 -37 25.5 -62.5t62.5 -25.5q35 0 60 25.5t25 62.5z" />
<glyph unicode="&#x26;" horiz-adv-x="627" d="M470 112q32 -43 96 -43l-10 -76q-85 0 -140 67q-82 -71 -183 -71q-92 0 -148 52.5t-56 129.5q0 73 48 124t128 77q-35 62 -35 113q0 69 50 114.5t123 45.5q60 0 102 -35t42 -96q0 -64 -48 -107t-126 -64l119 -175q47 69 70 179h74q-30 -146 -106 -235zM335 574 q-39 0 -62 -25t-23 -64q0 -41 30 -93q50 12 87 40.5t38 71.5q1 31 -17.5 50.5t-52.5 19.5zM110 184q0 -48 35.5 -84.5t97.5 -36.5q74 0 134 52l-136 198q-4 6 -6 10q-61 -22 -93 -54t-32 -85z" />
<glyph unicode="'" horiz-adv-x="161" d="M104 660h71l-37 -189h-49z" />
<glyph unicode="(" horiz-adv-x="252" d="M165 -77l-78 -31q-52 142 -52 295q0 289 171 556l69 -32q-157 -249 -157 -523q0 -133 47 -265z" />
<glyph unicode=")" horiz-adv-x="252" d="M87 712l78 31q52 -142 52 -295q0 -289 -171 -556l-69 32q157 249 157 523q0 133 -47 265z" />
<glyph unicode="*" horiz-adv-x="302" d="M304 567l-103 -30l70 -86l-55 -33l-56 85l-57 -85l-53 33l67 85l-103 29l21 56l97 -37l-6 107h66l-4 -107l96 37z" />
<glyph unicode="+" horiz-adv-x="562" d="M313 535v-180h179v-65h-179v-179h-65v179h-180v65h180v180h65z" />
<glyph unicode="," horiz-adv-x="215" d="M72 105q27 0 45 -19.5t18 -54.5q0 -11 -2 -22t-4 -20.5t-7.5 -21.5t-8.5 -19.5t-11.5 -20.5t-12 -19t-14.5 -20.5t-14.5 -19.5t-16.5 -21t-16 -20l-34 24q70 84 87 141h-9q-26 0 -41.5 16.5t-15.5 40.5q0 23 16 39.5t41 16.5z" />
<glyph unicode="-" horiz-adv-x="334" d="M33 274l10 76h277l-10 -76h-277z" />
<glyph unicode="." horiz-adv-x="204" d="M55 49q0 24 15.5 40t41.5 16t41.5 -16t15.5 -40q0 -25 -15.5 -41t-41.5 -16t-41.5 16t-15.5 41z" />
<glyph unicode="/" horiz-adv-x="324" d="M62 0h-86l307 632h86z" />
<glyph unicode="0" horiz-adv-x="606" d="M287 -11q-114 0 -173.5 71t-59.5 185q0 140 81 235.5t199 95.5q111 0 170 -71.5t59 -184.5q0 -140 -80.5 -235.5t-195.5 -95.5zM481 319q0 83 -39.5 133.5t-111.5 50.5q-88 0 -141 -73.5t-53 -184.5q0 -82 39.5 -132.5t110.5 -50.5q87 0 141 73t54 184z" />
<glyph unicode="1" horiz-adv-x="349" d="M294 562l-79 -562h-80l68 489h-139l11 73h219z" />
<glyph unicode="2" horiz-adv-x="545" d="M485 404q0 -50 -18 -90t-46.5 -65.5t-66 -49t-72.5 -40.5t-71.5 -40t-58.5 -46h313l-9 -73h-438l4 20q11 51 55 91.5t97.5 67t106 54.5t88 69t35.5 94q0 52 -31 79t-83 27t-86.5 -32t-45.5 -83l-73 18q18 78 75.5 124t139.5 46q81 0 133 -49.5t52 -121.5z" />
<glyph unicode="3" horiz-adv-x="549" d="M374 258q93 -41 93 -135q0 -93 -66 -147.5t-159 -54.5q-89 0 -148.5 44.5t-71.5 118.5l75 28q14 -60 48.5 -89t97.5 -29q58 0 101 31t43 96q0 101 -174 101l5 36l4 32q81 1 130.5 29.5t49.5 88.5q0 44 -30 69t-83 25q-89 0 -127 -90l-68 25q23 61 77.5 99.5t121.5 38.5 q87 0 138.5 -45t51.5 -114q0 -115 -109 -158z" />
<glyph unicode="4" horiz-adv-x="570" d="M526 120l-10 -73h-83l-21 -148h-80l21 148h-322l-3 50l287 470h89l-273 -447h232l31 220h80l-31 -220h83z" />
<glyph unicode="5" horiz-adv-x="556" d="M502 482h-292l-46 -160q48 41 115 41q94 0 148.5 -55.5t54.5 -143.5q0 -109 -69.5 -180.5t-172.5 -71.5q-90 0 -141 42t-68 112l67 32q31 -113 138 -113q75 0 120 48.5t45 122.5q0 60 -34 97.5t-98 37.5q-85 0 -131 -73l-68 19l89 317h353z" />
<glyph unicode="6" horiz-adv-x="564" d="M311 421q83 0 141 -53t58 -136q0 -104 -67 -173t-170 -69q-102 0 -159.5 62.5t-57.5 186.5q0 109 33 199.5t103 148.5t165 58q68 0 117 -35.5t65 -78.5l-67 -41q-13 36 -46.5 59.5t-78.5 23.5q-155 0 -206 -229q59 77 170 77zM275 61q67 0 109.5 46.5t42.5 111.5 q0 56 -34 93t-94 37q-79 0 -120 -41.5t-41 -108.5q0 -61 34.5 -99.5t102.5 -38.5z" />
<glyph unicode="7" horiz-adv-x="475" d="M80 562h410l-9 -67q-235 -277 -328 -570h-82q101 299 317 561l-318 4z" />
<glyph unicode="8" horiz-adv-x="560" d="M409 327q43 -22 68 -59t25 -82q0 -93 -69 -144.5t-168 -51.5q-105 0 -165.5 49t-60.5 128q0 63 37.5 105t100.5 62q-77 49 -77 128q0 85 65.5 134t151.5 49q95 0 150.5 -46.5t55.5 -118.5q0 -54 -31 -92.5t-83 -60.5zM315 575q-59 0 -95.5 -29t-36.5 -82 q0 -42 32.5 -71.5t84.5 -29.5q57 0 98.5 30.5t41.5 82.5q0 45 -33.5 72t-91.5 27zM264 61q67 0 110.5 31.5t43.5 91.5q0 51 -37.5 80.5t-103.5 29.5q-68 0 -111 -33t-43 -91q0 -50 38.5 -79.5t102.5 -29.5z" />
<glyph unicode="9" horiz-adv-x="560" d="M301 577q102 0 159.5 -62.5t57.5 -186.5q0 -109 -33 -199.5t-103 -148.5t-165 -58q-68 0 -117 35.5t-65 78.5l67 41q13 -36 46.5 -59.5t78.5 -23.5q155 0 206 229q-59 -77 -170 -77q-83 0 -141 53t-58 136q0 104 67 173t170 69zM275 218q79 0 120 41.5t41 108.5 q0 61 -34.5 99.5t-102.5 38.5q-67 0 -109.5 -46.5t-42.5 -111.5q0 -56 34 -93t94 -37z" />
<glyph unicode=":" horiz-adv-x="277" d="M103 404q0 24 15.5 40t41.5 16t41.5 -16t15.5 -40q0 -25 -15.5 -41t-41.5 -16t-41.5 16t-15.5 41zM54 49q0 24 15.5 40t41.5 16t41.5 -16t15.5 -40q0 -25 -15.5 -41t-41.5 -16t-41.5 16t-15.5 41z" />
<glyph unicode=";" horiz-adv-x="297" d="M171 460q26 0 41.5 -16t15.5 -40q0 -25 -15.5 -41t-41.5 -16t-41.5 16t-15.5 41q0 24 15.5 40t41.5 16zM82 105q27 0 45 -19.5t18 -54.5q0 -11 -2 -22t-4 -20.5t-7.5 -21.5t-8.5 -19.5t-11.5 -20.5t-12 -19t-14.5 -20.5t-14.5 -19.5t-16.5 -21t-16 -20l-34 24 q70 84 87 141h-9q-26 0 -41.5 16.5t-15.5 40.5q0 23 16 39.5t41 16.5z" />
<glyph unicode="&#x3c;" horiz-adv-x="433" d="M388 448l-270 -130l232 -129l-37 -53l-264 149l10 72l306 148z" />
<glyph unicode="=" horiz-adv-x="572" d="M74 440h424v-72h-424v72zM74 265h424v-72h-424v72z" />
<glyph unicode="&#x3e;" horiz-adv-x="433" d="M45 193l270 130l-232 129l37 53l264 -149l-10 -72l-306 -148z" />
<glyph unicode="?" horiz-adv-x="469" d="M455 462q0 -92 -54 -145.5t-147 -64.5l-9 -61h-73l17 127h27q76 1 118.5 36.5t42.5 103.5q0 49 -32 78.5t-83 29.5q-48 0 -82 -26.5t-50 -68.5l-66 22q20 67 76 105t130 38q78 0 131.5 -48t53.5 -126zM190 105q26 0 41.5 -16t15.5 -40q0 -25 -15.5 -41t-41.5 -16 t-41.5 16t-15.5 41q0 24 15.5 40t41.5 16z" />
<glyph unicode="@" horiz-adv-x="909" d="M480 629q168 0 277 -100t109 -252q0 -112 -59.5 -187t-143.5 -75q-50 0 -80.5 26t-36.5 67q-23 -38 -67.5 -61.5t-92.5 -23.5q-70 0 -114.5 51t-44.5 130q0 101 62.5 175.5t156.5 74.5q42 0 74.5 -18.5t48.5 -50.5l10 61h77l-40 -291q0 -3 -0.5 -9.5t-0.5 -9.5 q0 -53 51 -53q47 0 84 55t37 139q0 126 -86 207t-221 81q-151 0 -255 -103.5t-104 -259.5q0 -142 85 -225.5t237 -86.5q68 -1 139 19l-11 -74q-55 -15 -113 -15q-188 0 -301.5 104t-113.5 278q0 182 126.5 304.5t310.5 122.5zM408 89q62 0 103.5 54t41.5 124q0 55 -28.5 88 t-74.5 33q-60 0 -102 -50t-42 -124q0 -55 29 -90t73 -35z" />
<glyph unicode="A" horiz-adv-x="593" d="M450 0l-35 156h-264l-79 -156h-90l327 633h85l149 -633h-93zM186 225h214l-36 162l-30 134l-66 -134z" />
<glyph unicode="B" horiz-adv-x="620" d="M471 329q42 -17 68.5 -53t26.5 -86q0 -90 -72 -140t-183 -50h-264l88 632h256q86 0 132.5 -44t46.5 -111q0 -49 -28 -88.5t-71 -59.5zM371 556h-159l-26 -191h154q137 2 137 109q0 82 -106 82zM309 76q165 0 165 123q0 41 -33.5 65.5t-97.5 24.5h-168l-29 -213h163z" />
<glyph unicode="C" horiz-adv-x="659" d="M598 179q-36 -87 -110 -138.5t-164 -51.5q-123 0 -196.5 82t-73.5 209q0 154 93.5 258.5t230.5 104.5q94 0 159 -53.5t86 -141.5l-79 -32q-14 70 -61.5 110.5t-117.5 40.5q-104 0 -164.5 -84.5t-60.5 -208.5q0 -94 50 -151.5t137 -57.5q68 0 119 40t78 108z" />
<glyph unicode="D" horiz-adv-x="650" d="M320 632q150 0 224 -73t74 -194q0 -180 -100 -272.5t-286 -92.5h-185l88 632h185zM213 559l-68 -485h96q148 0 219.5 73t71.5 220q0 192 -223 192h-96z" />
<glyph unicode="E" horiz-adv-x="549" d="M214 557l-28 -200h290l-11 -76h-290l-29 -205h330l-10 -76h-419l88 633h419l-10 -76h-330z" />
<glyph unicode="F" horiz-adv-x="524" d="M181 333h271l-10 -76h-271l-36 -257h-88l88 633h399l-10 -76h-311z" />
<glyph unicode="G" horiz-adv-x="682" d="M393 216l10 70h219l-40 -286h-56v85q-72 -96 -202 -96q-123 0 -196.5 82t-73.5 209q0 157 91.5 260t222.5 103q96 0 165.5 -53.5t89.5 -141.5l-79 -32q-14 70 -61.5 110.5t-117.5 40.5q-104 0 -164.5 -84.5t-60.5 -208.5q0 -94 50 -151.5t137 -57.5q68 0 121 40.5 t76 110.5h-131z" />
<glyph unicode="H" horiz-adv-x="663" d="M549 632h88l-88 -632h-88l38 273h-326l-38 -273h-88l88 632h88l-40 -285h326z" />
<glyph unicode="I" horiz-adv-x="249" d="M223 632l-88 -632h-88l88 632h88z" />
<glyph unicode="J" horiz-adv-x="392" d="M286 632h86l-56 -402q-17 -119 -77 -180t-174 -61q-41 0 -71 7l6 76q30 -8 71 -8q74 0 110.5 42.5t50.5 139.5z" />
<glyph unicode="K" horiz-adv-x="610" d="M633 632l-272 -260l211 -372h-93l-183 317l-135 -130l-26 -187h-88l88 632h88l-46 -333l348 333h108z" />
<glyph unicode="L" horiz-adv-x="516" d="M146 76h311l-10 -76h-400l88 632h88z" />
<glyph unicode="M" horiz-adv-x="802" d="M701 633h75l-88 -633h-88l24 173l48 293l-264 -367h-57l-160 366l-32 -292l-24 -173h-88l88 633h76l185 -434z" />
<glyph unicode="N" horiz-adv-x="673" d="M559 632h88l-88 -632h-73l-285 492l-19 -156l-47 -336h-88l88 632h83l276 -483l18 144z" />
<glyph unicode="O" horiz-adv-x="673" d="M640 353q0 -154 -92.5 -259t-223.5 -105q-123 0 -196.5 82t-73.5 209q0 155 94.5 259t237.5 104q111 0 182.5 -82.5t71.5 -207.5zM555 358q0 95 -51 152t-139 57q-104 0 -164.5 -84.5t-60.5 -208.5q0 -94 50 -151.5t137 -57.5q106 0 167 84t61 209z" />
<glyph unicode="P" horiz-adv-x="573" d="M361 632q100 0 155 -48t55 -127q0 -102 -69.5 -155.5t-191.5 -53.5h-140l-35 -248h-88l88 632h226zM317 324q83 0 124.5 30t41.5 104q0 98 -129 98h-141l-33 -232h137z" />
<glyph unicode="Q" horiz-adv-x="673" d="M640 353q0 -148 -85.5 -251.5t-210.5 -111.5q-3 -46 15 -66.5t71 -20.5h60l-11 -76h-49q-83 0 -123 44.5t-33 121.5q-102 16 -161 95t-59 192q0 155 94.5 259t237.5 104q111 0 182.5 -82.5t71.5 -207.5zM140 274q0 -94 50 -151.5t137 -57.5q106 0 167 84t61 209 q0 95 -51 152t-139 57q-104 0 -164.5 -84.5t-60.5 -208.5z" />
<glyph unicode="R" horiz-adv-x="617" d="M394 256l123 -256h-98l-117 248h-132l-34 -248h-88l87 632h226q100 0 154 -47.5t54 -127.5q0 -83 -45.5 -134t-129.5 -67zM214 556l-33 -232h137q83 0 124.5 30t41.5 104q0 98 -129 98h-141z" />
<glyph unicode="S" horiz-adv-x="520" d="M435 475q-8 40 -42 65t-84 25q-59 0 -92.5 -28t-33.5 -62q0 -70 115 -113q89 -34 134 -76.5t45 -101.5q0 -89 -70.5 -143t-171.5 -54q-83 0 -139.5 40t-79.5 107l80 41q16 -52 53 -81t89 -29q65 0 108 28t43 77q0 39 -32.5 68t-103.5 55q-158 58 -158 170q0 77 66 128.5 t156 51.5q75 0 127.5 -38t68.5 -91z" />
<glyph unicode="T" horiz-adv-x="535" d="M569 632l-10 -76h-202l-77 -556h-88l77 556h-204l10 76h494z" />
<glyph unicode="U" horiz-adv-x="639" d="M130 632h87l-55 -388q-4 -27 -4 -42q0 -142 135 -142q85 0 128 46t56 138l55 388h87l-55 -388q-18 -125 -89 -193t-193 -68q-104 0 -158 60.5t-54 158.5q0 7 5 42z" />
<glyph unicode="V" horiz-adv-x="607" d="M553 632h93l-341 -632h-71l-163 632h101l121 -498z" />
<glyph unicode="W" horiz-adv-x="904" d="M850 632h91l-265 -632h-91l-62 325l-35 196l-87 -196l-147 -325h-90l-89 632h91l42 -307l24 -197l86 197l145 307h90l60 -307l31 -195l78 195z" />
<glyph unicode="X" horiz-adv-x="574" d="M609 633l-254 -311l173 -321h-101l-137 260l-215 -260l-97 -1l265 322l-167 311h98l132 -251l204 251h99z" />
<glyph unicode="Y" horiz-adv-x="534" d="M574 632l-260 -367l-37 -265h-86l37 263l-158 369h97l71 -166l44 -116l78 116l117 166h97z" />
<glyph unicode="Z" horiz-adv-x="547" d="M547 556l-356 -402l-78 -80h366l-10 -74h-458l10 76l359 406l73 76h-364l10 74h458z" />
<glyph unicode="[" horiz-adv-x="290" d="M296 644h-72l-92 -657h72l-10 -73h-159l112 803h159z" />
<glyph unicode="\" horiz-adv-x="277" d="M102 0l-307 632h86l307 -632h-86z" />
<glyph unicode="]" horiz-adv-x="268" d="M254 717l-112 -803h-159l10 73h72l92 657h-72l10 73h159z" />
<glyph unicode="^" horiz-adv-x="604" d="M535 429h-67l-168 176l-164 -176h-66l191 218h78z" />
<glyph unicode="_" horiz-adv-x="554" d="M462 -72l-8 -56h-458l8 56h458z" />
<glyph unicode="`" horiz-adv-x="322" d="M288 852l137 -118l-40 -36l-150 109z" />
<glyph unicode="a" horiz-adv-x="573" d="M458 485h77l-68 -485h-77l7 66h-9q-57 -76 -169 -76q-79 0 -130 61t-51 157q0 123 72 207.5t182 84.5q107 0 145 -77h11zM239 63q68 0 116 41.5t63 122.5l4 29q1 8 1 20q0 70 -35.5 110.5t-95.5 40.5q-84 0 -129 -61.5t-45 -156.5q0 -67 32 -106.5t89 -39.5z" />
<glyph unicode="b" horiz-adv-x="570" d="M352 500q79 0 130 -61t51 -157q0 -123 -72 -207.5t-182 -84.5q-107 0 -145 77h-9l-9 -67h-80l94 671l82 11l-36 -258h7q57 76 169 76zM279 63q84 0 129 61.5t45 156.5q0 67 -32 106.5t-89 39.5q-68 0 -116 -41.5t-63 -122.5l-4 -29q-1 -8 -1 -20q0 -70 35.5 -110.5 t95.5 -40.5z" />
<glyph unicode="c" horiz-adv-x="529" d="M468 136q-30 -68 -88.5 -107t-138.5 -39q-87 0 -145 61.5t-58 155.5q0 126 73 209.5t192 83.5q73 0 123 -40.5t66 -108.5l-76 -31q-11 49 -44 78t-79 29q-83 0 -128.5 -60t-45.5 -151q0 -68 36.5 -110t96.5 -42q106 0 149 103z" />
<glyph unicode="d" horiz-adv-x="570" d="M480 671l82 11l-96 -682h-80l9 66h-7q-57 -76 -169 -76q-79 0 -130 61t-51 157q0 123 72 207.5t182 84.5q107 0 145 -77h8zM239 63q68 0 116 41.5t63 122.5l4 29q1 8 1 20q0 70 -35.5 110.5t-95.5 40.5q-84 0 -129 -61.5t-45 -156.5q0 -67 32 -106.5t89 -39.5z" />
<glyph unicode="e" horiz-adv-x="536" d="M303 500q86 0 139.5 -57.5t53.5 -147.5q0 -17 -4 -45l-2 -13h-370q-1 -7 -1 -21q0 -68 36.5 -110t96.5 -42q99 0 145 96l68 -31q-66 -139 -219 -139q-91 0 -149.5 61.5t-58.5 155.5q0 126 73 209.5t192 83.5zM292 427q-61 0 -101.5 -34t-58.5 -91h282q1 55 -32 90t-90 35 z" />
<glyph unicode="f" horiz-adv-x="348" d="M335 617q-51 0 -77 -29t-36 -100v-3h141l-10 -67h-141l-21 -153l-37 -265h-80l58 418h-80l10 67h80l3 24q7 53 28 90.5t49.5 56t57 26.5t60.5 8q36 0 56 -8v-74q-31 9 -61 9z" />
<glyph unicode="g" horiz-adv-x="574" d="M456 485h80l-58 -410q-18 -126 -87.5 -191.5t-181.5 -65.5q-68 0 -119 25t-76 65l49 56q49 -73 146 -73q161 0 188 175h-9q-57 -76 -169 -76q-79 0 -130 61t-51 157q0 123 72 207.5t182 84.5q107 0 145 -77h10zM239 63q68 0 116 41.5t63 122.5l4 29q1 8 1 20 q0 70 -35.5 110.5t-95.5 40.5q-84 0 -129 -61.5t-45 -156.5q0 -67 32 -106.5t89 -39.5z" />
<glyph unicode="h" horiz-adv-x="547" d="M339 500q63 0 107 -37t44 -108q0 -9 -2 -31l-45 -324h-80l41 292q3 22 3 42q0 51 -22.5 73.5t-68.5 22.5q-63 0 -112 -47q-35 -33 -46 -102l-40 -281h-80l94 671l82 11l-37 -261h5q23 34 64.5 56.5t92.5 22.5z" />
<glyph unicode="i" horiz-adv-x="222" d="M221 633q0 -23 -16 -38.5t-39 -15.5q-24 0 -40 15.5t-16 38.5q0 25 16 41t40 16q23 0 39 -16t16 -41zM116 0h-80l68 485h80z" />
<glyph unicode="j" horiz-adv-x="220" d="M164 690q23 0 39 -16t16 -41q0 -23 -16 -38.5t-39 -15.5q-24 0 -40 15.5t-16 38.5q0 25 16 41t40 16zM104 485h80l-34 -242l-34 -244q-7 -53 -28 -90.5t-49.5 -56t-57 -26.5t-60.5 -8q-36 0 -56 8v74q31 -9 61 -9q51 0 77 29t36 100l12 89z" />
<glyph unicode="k" horiz-adv-x="492" d="M511 485l-224 -197l170 -288h-103l-134 231l-82 -71l-22 -160h-80l94 671l82 11l-58 -413l241 216h116z" />
<glyph unicode="l" horiz-adv-x="220" d="M116 0h-80l94 671l82 11z" />
<glyph unicode="m" horiz-adv-x="831" d="M628 500q59 0 102.5 -37t43.5 -108q0 -20 -2 -31l-45 -324h-80l41 292q3 22 3 42q0 95 -81 95q-58 0 -95.5 -36.5t-51.5 -102.5l-40 -290h-80l41 292q3 22 3 42q0 95 -81 95q-59 0 -97 -38t-51 -107l-40 -284h-80l68 485h74l-6 -64h4q50 79 149 79q43 0 80.5 -23 t53.5 -66h6q22 38 65 63.5t96 25.5z" />
<glyph unicode="n" horiz-adv-x="547" d="M339 500q63 0 107 -37t44 -108q0 -9 -2 -31l-45 -324h-80l41 292q3 22 3 42q0 51 -22.5 73.5t-68.5 22.5q-63 0 -112 -47q-34 -32 -46 -98l-40 -285h-80l68 485h74l-6 -64h8q23 34 64.5 56.5t92.5 22.5z" />
<glyph unicode="o" horiz-adv-x="543" d="M506 284q0 -126 -74 -210t-191 -84q-91 0 -147 60t-56 157q0 125 74 209t191 84q91 0 147 -59.5t56 -156.5zM425 275q0 70 -33.5 111t-98.5 41q-77 0 -125.5 -61t-48.5 -150q0 -70 33.5 -111t99.5 -41q77 0 125 60.5t48 150.5z" />
<glyph unicode="p" horiz-adv-x="572" d="M354 500q79 0 130 -61t51 -157q0 -123 -72 -207.5t-182 -84.5q-107 0 -145 77h-9l-34 -244h-80l93 662h80l-9 -61h8q57 76 169 76zM281 63q84 0 129 61.5t45 156.5q0 67 -32 106.5t-89 39.5q-68 0 -116 -41.5t-63 -122.5l-4 -29q-1 -8 -1 -20q0 -70 35.5 -110.5 t95.5 -40.5z" />
<glyph unicode="q" horiz-adv-x="573" d="M455 485h80l-93 -662h-80l34 243h-8q-57 -76 -169 -76q-79 0 -130 61t-51 157q0 123 72 207.5t182 84.5q107 0 145 -77h9zM239 63q68 0 116 41.5t63 122.5l4 29q1 8 1 20q0 70 -35.5 110.5t-95.5 40.5q-84 0 -129 -61.5t-45 -156.5q0 -67 32 -106.5t89 -39.5z" />
<glyph unicode="r" horiz-adv-x="324" d="M319 499q14 0 28 -4l-13 -75q-9 3 -27 3q-58 0 -98.5 -35t-49.5 -103l-40 -285h-81l68 485h75l-6 -63h7q24 36 61 56.5t76 20.5z" />
<glyph unicode="s" horiz-adv-x="457" d="M84 144q42 -83 128 -83q44 0 74 19.5t30 55.5q0 10 -3 19t-6.5 15.5t-12 13t-13.5 10.5t-18 9.5t-18 8t-21 8t-20 7.5q-62 23 -95 51t-33 80q0 64 50.5 103.5t124.5 39.5q58 0 103 -25t71 -67l-64 -43q-15 26 -46 45t-71 19q-39 0 -63 -18.5t-24 -47.5q0 -28 23 -44 t75 -34q68 -25 105 -56t37 -88q0 -69 -55 -110.5t-131 -41.5q-71 0 -122.5 35.5t-68.5 80.5z" />
<glyph unicode="t" horiz-adv-x="347" d="M192 415l-31 -213q-10 -71 8 -100t69 -29q31 0 63 9l-21 -74q-22 -8 -58 -8q-32 0 -58 8t-50 26.5t-33.5 56t-2.5 90.5l34 234h-67l10 70h66l16 119l82 10l-18 -129h134l-10 -70h-133z" />
<glyph unicode="u" horiz-adv-x="548" d="M430 485h80l-68 -485h-74l6 64h-8q-23 -34 -64.5 -56.5t-92.5 -22.5q-63 0 -107 37t-44 108q0 9 2 31l45 324h80l-41 -292q-3 -23 -3 -42q0 -51 22.5 -73.5t68.5 -22.5q63 0 112 47q34 32 46 98z" />
<glyph unicode="v" horiz-adv-x="500" d="M430 485h84l-256 -485h-84l-120 485h91l85 -404z" />
<glyph unicode="w" horiz-adv-x="734" d="M668 485h85l-235 -485h-74l-58 378l-161 -378h-74l-102 485h86l67 -370l156 370h86l53 -369z" />
<glyph unicode="x" horiz-adv-x="495" d="M516 485l-214 -240l154 -245h-92l-120 193l-178 -193h-95l227 250l-144 235h90l114 -184l165 184h93z" />
<glyph unicode="y" horiz-adv-x="500" d="M514 485l-256 -485l-93 -177h-82l91 178l-120 484h91l85 -404l200 404h84z" />
<glyph unicode="z" horiz-adv-x="443" d="M373 0h-376l6 46l324 372h-255l9 67h360l-6 -47l-320 -371h267z" />
<glyph unicode="{" horiz-adv-x="260" d="M134 566q13 89 44 120t108 31l-11 -78q-32 0 -43 -12t-18 -61l-21 -149q-10 -69 -69 -98q52 -28 42 -98l-22 -156q-7 -49 1 -61t40 -12l-11 -78q-77 0 -100 31t-10 120l19 136q7 51 -1.5 64t-46.5 13l3 24l8 58q38 0 50.5 13t19.5 64z" />
<glyph unicode="|" horiz-adv-x="316" d="M137 -197h-80l120 868l82 11z" />
<glyph unicode="}" horiz-adv-x="260" d="M245 353l-3 -24l-8 -58q-38 0 -50.5 -13t-19.5 -64l-18 -129q-13 -89 -44 -120t-108 -31l11 78q32 0 43 12t18 61l21 149q10 69 69 98q-52 28 -42 98l22 156q7 49 -1 61t-40 12l11 78q77 0 100 -31t10 -120l-19 -136q-7 -51 1.5 -64t46.5 -13z" />
<glyph unicode="~" horiz-adv-x="442" d="M403 366q0 -62 -26.5 -97.5t-74.5 -35.5q-30 0 -57 18.5t-50 37t-43 18.5q-25 0 -38.5 -19t-13.5 -51h-60q0 62 27 98t75 36q37 0 82 -37.5t68 -37.5q51 0 51 70h60z" />
<glyph unicode="&#xa1;" horiz-adv-x="246" d="M208 479q0 -24 -15.5 -40t-41.5 -16t-41.5 16t-15.5 40q0 25 15.5 41t41.5 16t41.5 -16t15.5 -41zM162 295l-49 -399h-81l64 399h66z" />
<glyph unicode="&#xa2;" horiz-adv-x="529" d="M253 74q106 0 149 103l67 -31q-27 -61 -77.5 -99t-119.5 -45l-9 -63h-71l9 65q-72 14 -117 72.5t-45 140.5q0 116 63.5 197.5t169.5 93.5l10 71h71l-10 -72q58 -10 97 -49t53 -97l-76 -31q-11 49 -44 78t-79 29q-83 0 -128.5 -60t-45.5 -151q0 -68 36.5 -110t96.5 -42z " />
<glyph unicode="&#xa3;" horiz-adv-x="462" d="M375 505q-75 0 -113.5 -44.5t-52.5 -141.5l-3 -22h141l-11 -67h-140l-23 -163h237l-11 -67h-396l11 67h78l23 163h-78l11 67h77l5 38q17 119 77 180t174 61q41 0 71 -7l-6 -72q-30 8 -71 8z" />
<glyph unicode="&#xa4;" horiz-adv-x="525" d="M425 411q35 -50 35 -112t-35 -112l47 -47l-41 -42l-48 47q-50 -36 -112.5 -36.5t-112.5 35.5l-47 -47l-42 42l47 48q-36 50 -36.5 112.5t35.5 112.5l-46 47l42 42l46 -47q50 36 113.5 36t112.5 -37l48 48l41 -42zM360 209q38 37 38 90t-38 91q-37 38 -89.5 38t-90.5 -38 t-38 -91t38 -90t90.5 -37t89.5 37z" />
<glyph unicode="&#xa5;" horiz-adv-x="534" d="M574 632l-200 -283h105l-9 -59h-138l-18 -25l-5 -38h153l-9 -60h-153l-23 -167h-86l23 167h-158l9 60h158l5 36l-12 27h-143l9 59h109l-121 283h97l71 -166l44 -116l78 116l117 166h97z" />
<glyph unicode="&#xa6;" horiz-adv-x="316" d="M219 389h-81l39 282l82 11zM137 -197h-80l66 480h81z" />
<glyph unicode="&#xa7;" horiz-adv-x="478" d="M434 177q0 -44 -21.5 -77t-59.5 -47q20 -29 20 -72q0 -74 -58.5 -118.5t-137.5 -44.5q-69 0 -129 32v83q1 -1 12.5 -8t16.5 -10t17.5 -9t22.5 -9t25.5 -5.5t31.5 -2.5q52 0 87 23t35 66q0 14 -3.5 25.5t-12.5 21t-15.5 16t-22.5 14t-23 10.5t-27 10.5t-25 9.5 q-67 26 -102 56t-35 87q0 43 22.5 75t63.5 46q-25 30 -25 75q0 68 54 110t132 42q61 0 111 -26v-83q-53 39 -118 39q-45 0 -73 -22.5t-28 -56.5q0 -23 16 -40.5t35.5 -27t57.5 -23.5q36 -13 59.5 -24.5t48 -30t36.5 -44.5t12 -60zM306 99q51 24 51 75q0 14 -3.5 25.5 t-12.5 21t-15 15.5t-22.5 14t-22.5 11t-27 10.5t-25 9.5q-35 14 -57 25q-30 -8 -47.5 -28.5t-17.5 -46.5q0 -18 7.5 -31.5t25 -24.5t33 -17.5t44.5 -17.5q62 -23 89 -41z" />
<glyph unicode="&#xa8;" horiz-adv-x="354" d="M141 740q-24 0 -39 15t-15 39q0 23 15 38.5t39 15.5t39 -15.5t15 -38.5q0 -24 -15 -39t-39 -15zM322 740q-24 0 -39 15t-15 39q0 23 15 38.5t39 15.5t39 -15.5t15 -38.5q0 -24 -15 -39t-39 -15z" />
<glyph unicode="&#xa9;" horiz-adv-x="820" d="M764 328q0 -152 -102.5 -252t-251.5 -100q-150 0 -252.5 100t-102.5 252t102.5 251.5t252.5 99.5q149 0 251.5 -99.5t102.5 -251.5zM699 327q0 133 -81.5 215t-207.5 82t-208 -82.5t-82 -214.5q0 -131 81.5 -213.5t207.5 -82.5q125 0 207.5 83t82.5 213zM565 240 q-24 -53 -70.5 -84t-109.5 -31q-68 0 -114 49t-46 123q0 99 58 165t151 66q58 0 97.5 -32t52.5 -86l-60 -24q-9 38 -35 61t-62 23q-66 0 -102 -47t-36 -119q0 -53 29 -86.5t76 -33.5q83 0 118 81z" />
<glyph unicode="&#xaa;" horiz-adv-x="393" d="M335 632h62l-39 -282h-62l3 34h-5q-31 -40 -93 -40q-50 0 -83.5 36t-33.5 94q0 71 44.5 118.5t112.5 47.5q60 0 83 -40h5zM217 400q73 0 92 75l4 29v6q0 35 -18.5 54.5t-50.5 19.5q-44 0 -68 -31.5t-24 -77.5q0 -35 17 -55t48 -20z" />
<glyph unicode="&#xab;" horiz-adv-x="429" d="M254 493l-129 -174l78 -168h-83l-79 169l129 173h84zM414 493l-129 -174l78 -168h-83l-79 169l129 173h84z" />
<glyph unicode="&#xac;" horiz-adv-x="536" d="M449 176h-86l16 114h-320l10 65h406z" />
<glyph unicode="&#xad;" horiz-adv-x="326" d="M33 274l10 76h277l-10 -76h-277z" />
<glyph unicode="&#xae;" horiz-adv-x="453" d="M226 677q82 0 139.5 -57t57.5 -142t-57.5 -142t-139.5 -57t-139.5 57t-57.5 142t57.5 142t139.5 57zM226 310q69 0 117 48t48 120t-48.5 120.5t-116.5 48.5q-69 0 -117 -48t-48 -121t48 -120.5t117 -47.5zM199 457v-79h-41v212h75q32 0 52 -18t20 -50q0 -45 -45 -61 l48 -83h-49l-43 79h-17zM263 522q0 31 -34 31h-30v-61h30q34 0 34 30z" />
<glyph unicode="&#xaf;" horiz-adv-x="322" d="M101 808h255l-18 -61h-255z" />
<glyph unicode="&#xb0;" horiz-adv-x="368" d="M185 460q-58 0 -98.5 39t-40.5 94t40.5 94t98.5 39q56 0 97 -39t41 -94t-40.5 -94t-97.5 -39zM185 521q31 0 52.5 21t21.5 51q0 31 -21.5 51.5t-52.5 20.5q-32 0 -53 -20.5t-21 -51.5q0 -30 21.5 -51t52.5 -21z" />
<glyph unicode="&#xb1;" horiz-adv-x="565" d="M314 553v-135h178v-60h-178v-136h-61v136h-178v60h178v135h61zM75 163h417v-61h-417v61z" />
<glyph unicode="&#xb2;" horiz-adv-x="341" d="M365 652q0 -43 -27 -78.5t-60.5 -56t-74 -45.5t-57.5 -43l201 2l-8 -61h-301l2 16l3 2h-2q7 35 35.5 65.5t64.5 53t71 44.5t58.5 49t23.5 58q0 55 -63 55q-33 0 -55 -18.5t-28 -48.5l-65 19q14 52 52 80.5t95 28.5q60 0 97.5 -34t37.5 -88z" />
<glyph unicode="&#xb3;" horiz-adv-x="336" d="M290 573q60 -26 60 -85q0 -60 -44 -93t-110 -33q-60 0 -100.5 29t-47.5 74l65 24q17 -64 85 -64q33 0 56.5 15.5t23.5 48.5q0 55 -103 55l4 29l4 27q105 2 105 64q0 23 -17 36t-44 13q-52 0 -72 -48l-60 21q15 40 52.5 64.5t86.5 24.5q57 0 92 -28.5t35 -74.5 q0 -70 -71 -99z" />
<glyph unicode="&#xb4;" horiz-adv-x="322" d="M253 852l53 -45l-150 -109l-40 36z" />
<glyph unicode="&#xb6;" horiz-adv-x="473" d="M497 557h-98l-44 -314l-34 -244q-7 -53 -28 -90.5t-49.5 -56t-57 -26.5t-60.5 -8q-36 0 -56 8v74q31 -9 61 -9q51 0 77 29t36 100l18 131l68 482h178zM224 363q-64 0 -101.5 33.5t-37.5 84.5q0 62 49.5 107t126.5 45z" />
<glyph unicode="&#xb7;" horiz-adv-x="198" d="M52 278q0 24 15.5 40t41.5 16t41.5 -16t15.5 -40q0 -25 -15.5 -41t-41.5 -16t-41.5 16t-15.5 41z" />
<glyph unicode="&#xb8;" horiz-adv-x="312" d="M-18 -192l-63 43l138 164l57 -10z" />
<glyph unicode="&#xb9;" horiz-adv-x="253" d="M255 767l-56 -397h-71l47 333h-86l9 64h157z" />
<glyph unicode="&#xba;" horiz-adv-x="387" d="M373 512q0 -74 -43.5 -121t-117.5 -47q-55 0 -91.5 37.5t-36.5 91.5q0 73 44 120t117 47q55 0 91.5 -37t36.5 -91zM309 504q0 34 -19.5 56t-51.5 22q-43 0 -66 -28.5t-23 -73.5q0 -34 19.5 -56t51.5 -22q43 0 66 28.5t23 73.5z" />
<glyph unicode="&#xbb;" horiz-adv-x="429" d="M171 493l79 -169l-129 -173h-84l129 174l-78 168h83zM331 493l79 -169l-129 -173h-84l129 174l-78 168h83z" />
<glyph unicode="&#xbc;" horiz-adv-x="725" d="M538 665h74l-458 -665h-74zM113 267l47 333h-86l9 64h157l-56 -397h-71zM696 135l-9 -61h-54l-10 -74h-70l10 74h-187l-11 38l175 285h76l-161 -262h117l18 128h70l-18 -128h54z" />
<glyph unicode="&#xbd;" horiz-adv-x="769" d="M538 665h74l-458 -665h-74zM113 267l47 333h-86l9 64h157l-56 -397h-71zM741 282q0 -43 -27 -78.5t-60.5 -56t-74 -45.5t-57.5 -43l201 2l-8 -61h-301l2 16l3 2h-2q7 35 35.5 65.5t64.5 53t71 44.5t58.5 49t23.5 58q0 55 -63 55q-33 0 -55 -18.5t-28 -48.5l-65 19 q14 52 52 80.5t95 28.5q60 0 97.5 -34t37.5 -88z" />
<glyph unicode="&#xbe;" horiz-adv-x="846" d="M336 385q0 -60 -44 -93t-110 -33q-60 0 -100.5 29t-47.5 74l65 24q17 -64 85 -64q33 0 56.5 15.5t23.5 48.5q0 55 -103 55l4 29l4 27q105 2 105 64q0 23 -17 36t-44 13q-52 0 -72 -48l-60 21q15 40 52.5 64.5t86.5 24.5q57 0 92 -28.5t35 -74.5q0 -70 -71 -99 q60 -26 60 -85zM628 665h74l-458 -665h-74zM817 135l-9 -61h-54l-10 -74h-70l10 74h-187l-11 38l175 285h76l-161 -262h117l18 128h70l-18 -128h54z" />
<glyph unicode="&#xbf;" horiz-adv-x="460" d="M270 410q-26 0 -41.5 16t-15.5 40q0 25 15.5 41t41.5 16t41.5 -16t15.5 -41q0 -24 -15.5 -40t-41.5 -16zM330 44l66 -22q-20 -67 -76 -105t-130 -38q-78 0 -131.5 48t-53.5 126q0 92 54 145.5t147 64.5l9 61h73l-17 -127h-27q-76 -1 -118.5 -36.5t-42.5 -103.5 q0 -49 32 -78.5t83 -29.5q48 0 82 26.5t50 68.5z" />
<glyph unicode="&#xc0;" horiz-adv-x="593" d="M421 704l-40 -36l-150 109l53 45zM450 0l-35 156h-264l-79 -156h-90l327 633h85l149 -633h-93zM186 225h214l-36 162l-30 134l-66 -134z" />
<glyph unicode="&#xc1;" horiz-adv-x="593" d="M455 783l-139 -113l-41 34l125 122zM450 0l-35 156h-264l-79 -156h-90l327 633h85l149 -633h-93zM186 225h214l-36 162l-30 134l-66 -134z" />
<glyph unicode="&#xc2;" horiz-adv-x="593" d="M367 760l-94 -86l-49 20l115 115h65l82 -115l-52 -20zM450 0l-35 156h-264l-79 -156h-90l327 633h85l149 -633h-93zM186 225h214l-36 162l-30 134l-66 -134z" />
<glyph unicode="&#xc3;" horiz-adv-x="593" d="M315 735q-42 0 -61 -58l-43 14q15 49 43 78t62 29q29 0 61.5 -31t51.5 -31q42 0 61 59l43 -14q-15 -50 -42 -78.5t-62 -28.5q-30 0 -62.5 30.5t-51.5 30.5zM450 0l-35 156h-264l-79 -156h-90l327 633h85l149 -633h-93zM186 225h214l-36 162l-30 134l-66 -134z" />
<glyph unicode="&#xc4;" horiz-adv-x="593" d="M273 700q-23 0 -37 14t-14 37q0 22 14 36.5t37 14.5t37 -14.5t14 -36.5q0 -23 -14 -37t-37 -14zM444 700q-23 0 -37 14t-14 37q0 22 14 36.5t37 14.5t37 -14.5t14 -36.5q0 -23 -14 -37t-37 -14zM450 0l-35 156h-264l-79 -156h-90l327 633h85l149 -633h-93zM186 225h214 l-36 162l-30 134l-66 -134z" />
<glyph unicode="&#xc5;" horiz-adv-x="593" d="M358 681q-27 0 -46 18.5t-19 42.5q0 29 22 49t54 20q28 0 46.5 -18.5t18.5 -42.5q0 -30 -21.5 -49.5t-54.5 -19.5zM337 748q-2 -9 5 -17t18 -9q28 -2 32 22q2 9 -5.5 17t-20.5 9q-11 1 -19 -6t-10 -16zM450 0l-35 156h-264l-79 -156h-90l327 633h85l149 -633h-93z M186 225h214l-36 162l-30 134l-66 -134z" />
<glyph unicode="&#xc6;" horiz-adv-x="876" d="M871 557h-330l-28 -200h290l-11 -76h-290l-29 -205h330l-10 -76h-419l22 156h-220l-106 -156h-88l439 633h460zM223 225h182l47 338l-118 -176z" />
<glyph unicode="&#xc7;" horiz-adv-x="659" d="M327 65q68 0 119 40t78 108l74 -34q-36 -85 -107 -136.5t-159 -53.5l-127 -187l-63 43l126 149q-99 19 -156.5 96.5t-57.5 189.5q0 154 93.5 258.5t230.5 104.5q94 0 159 -53.5t86 -141.5l-79 -32q-14 70 -61.5 110.5t-117.5 40.5q-104 0 -164.5 -84.5t-60.5 -208.5 q0 -94 50 -151.5t137 -57.5z" />
<glyph unicode="&#xc8;" horiz-adv-x="549" d="M288 821l137 -118l-40 -36l-150 109zM214 557l-28 -200h290l-11 -76h-290l-29 -205h330l-10 -76h-419l88 633h419l-10 -76h-330z" />
<glyph unicode="&#xc9;" horiz-adv-x="549" d="M404 825l55 -43l-139 -113l-41 34zM214 557l-28 -200h290l-11 -76h-290l-29 -205h330l-10 -76h-419l88 633h419l-10 -76h-330z" />
<glyph unicode="&#xca;" horiz-adv-x="549" d="M371 759l-94 -86l-49 20l115 115h65l82 -115l-52 -20zM544 557h-330l-28 -200h290l-11 -76h-290l-29 -205h330l-10 -76h-419l88 633h419z" />
<glyph unicode="&#xcb;" horiz-adv-x="549" d="M277 699q-23 0 -37 14t-14 37q0 22 14 36.5t37 14.5t37 -14.5t14 -36.5q0 -23 -14 -37t-37 -14zM448 699q-23 0 -37 14t-14 37q0 22 14 36.5t37 14.5t37 -14.5t14 -36.5q0 -23 -14 -37t-37 -14zM214 557l-28 -200h290l-11 -76h-290l-29 -205h330l-10 -76h-419l88 633h419 l-10 -76h-330z" />
<glyph unicode="&#xcc;" horiz-adv-x="249" d="M118 821l137 -118l-40 -36l-150 109zM223 632l-88 -632h-88l88 632h88z" />
<glyph unicode="&#xcd;" horiz-adv-x="249" d="M234 825l55 -43l-139 -113l-41 34zM223 632l-88 -632h-88l88 632h88z" />
<glyph unicode="&#xce;" horiz-adv-x="249" d="M238 808l82 -115l-52 -20l-67 86l-94 -86l-49 20l115 115h65zM47 0l88 632h88l-88 -632h-88z" />
<glyph unicode="&#xcf;" horiz-adv-x="249" d="M107 699q-23 0 -37 14t-14 37q0 22 14 36.5t37 14.5t37 -14.5t14 -36.5q0 -23 -14 -37t-37 -14zM278 699q-23 0 -37 14t-14 37q0 22 14 36.5t37 14.5t37 -14.5t14 -36.5q0 -23 -14 -37t-37 -14zM223 632l-88 -632h-88l88 632h88z" />
<glyph unicode="&#xd0;" horiz-adv-x="650" d="M320 632q150 0 224 -73t74 -194q0 -180 -100 -272.5t-286 -92.5h-185l39 278h-53l10 72h53l39 282h185zM241 74q148 0 219.5 73t71.5 220q0 192 -223 192h-96l-29 -209h146l-10 -72h-146l-29 -204h96z" />
<glyph unicode="&#xd1;" horiz-adv-x="673" d="M374 734q-42 0 -61 -58l-43 14q15 49 43 78t62 29q29 0 61.5 -31t51.5 -31q42 0 61 59l43 -14q-15 -50 -42 -78.5t-62 -28.5q-30 0 -62.5 30.5t-51.5 30.5zM559 632h88l-88 -632h-73l-285 492l-19 -156l-47 -336h-88l88 632h83l276 -483l18 144z" />
<glyph unicode="&#xd2;" horiz-adv-x="673" d="M322 821l137 -118l-40 -36l-150 109zM640 353q0 -154 -92.5 -259t-223.5 -105q-123 0 -196.5 82t-73.5 209q0 155 94.5 259t237.5 104q111 0 182.5 -82.5t71.5 -207.5zM555 358q0 95 -51 152t-139 57q-104 0 -164.5 -84.5t-60.5 -208.5q0 -94 50 -151.5t137 -57.5 q106 0 167 84t61 209z" />
<glyph unicode="&#xd3;" horiz-adv-x="673" d="M438 825l55 -43l-139 -113l-41 34zM640 353q0 -154 -92.5 -259t-223.5 -105q-123 0 -196.5 82t-73.5 209q0 155 94.5 259t237.5 104q111 0 182.5 -82.5t71.5 -207.5zM555 358q0 95 -51 152t-139 57q-104 0 -164.5 -84.5t-60.5 -208.5q0 -94 50 -151.5t137 -57.5 q106 0 167 84t61 209z" />
<glyph unicode="&#xd4;" horiz-adv-x="673" d="M405 759l-94 -86l-49 20l115 115h65l82 -115l-52 -20zM386 643q111 0 182.5 -82.5t71.5 -207.5q0 -154 -92.5 -259t-223.5 -105q-123 0 -196.5 82t-73.5 209q0 155 94.5 259t237.5 104zM327 65q106 0 167 84t61 209q0 95 -51 152t-139 57q-104 0 -164.5 -84.5 t-60.5 -208.5q0 -94 50 -151.5t137 -57.5z" />
<glyph unicode="&#xd5;" horiz-adv-x="673" d="M571 780q-15 -50 -42 -78.5t-62 -28.5q-30 0 -62.5 30.5t-51.5 30.5q-42 0 -61 -58l-43 14q15 49 43 78t62 29q29 0 61.5 -31t51.5 -31q42 0 61 59zM640 353q0 -154 -92.5 -259t-223.5 -105q-123 0 -196.5 82t-73.5 209q0 155 94.5 259t237.5 104q111 0 182.5 -82.5 t71.5 -207.5zM555 358q0 95 -51 152t-139 57q-104 0 -164.5 -84.5t-60.5 -208.5q0 -94 50 -151.5t137 -57.5q106 0 167 84t61 209z" />
<glyph unicode="&#xd6;" horiz-adv-x="673" d="M311 699q-23 0 -37 14t-14 37q0 22 14 36.5t37 14.5t37 -14.5t14 -36.5q0 -23 -14 -37t-37 -14zM482 699q-23 0 -37 14t-14 37q0 22 14 36.5t37 14.5t37 -14.5t14 -36.5q0 -23 -14 -37t-37 -14zM640 353q0 -154 -92.5 -259t-223.5 -105q-123 0 -196.5 82t-73.5 209 q0 155 94.5 259t237.5 104q111 0 182.5 -82.5t71.5 -207.5zM555 358q0 95 -51 152t-139 57q-104 0 -164.5 -84.5t-60.5 -208.5q0 -94 50 -151.5t137 -57.5q106 0 167 84t61 209z" />
<glyph unicode="&#xd7;" horiz-adv-x="486" d="M67 452l46 45l130 -132l131 132l46 -45l-132 -131l132 -132l-46 -44l-131 130l-130 -130l-46 44l132 132z" />
<glyph unicode="&#xd8;" horiz-adv-x="673" d="M573 556q67 -83 67 -203q0 -154 -92.5 -259t-223.5 -105q-106 0 -177 63l-44 -53l-46 38l50 59q-53 78 -53 184q0 155 94.5 259t237.5 104q80 0 143 -46l35 41l46 -38zM140 274q0 -63 23 -111l314 371q-47 33 -112 33q-104 0 -164.5 -84.5t-60.5 -208.5zM327 65 q106 0 167 84t61 209q0 80 -37 134l-319 -379q50 -48 128 -48z" />
<glyph unicode="&#xd9;" horiz-adv-x="639" d="M310 821l137 -118l-40 -36l-150 109zM130 632h87l-55 -388q-4 -27 -4 -42q0 -142 135 -142q85 0 128 46t56 138l55 388h87l-55 -388q-18 -125 -89 -193t-193 -68q-104 0 -158 60.5t-54 158.5q0 7 5 42z" />
<glyph unicode="&#xda;" horiz-adv-x="639" d="M426 825l55 -43l-139 -113l-41 34zM130 632h87l-55 -388q-4 -27 -4 -42q0 -142 135 -142q85 0 128 46t56 138l55 388h87l-55 -388q-18 -125 -89 -193t-193 -68q-104 0 -158 60.5t-54 158.5q0 7 5 42z" />
<glyph unicode="&#xdb;" horiz-adv-x="639" d="M393 759l-94 -86l-49 20l115 115h65l82 -115l-52 -20zM532 632h87l-55 -388q-18 -125 -89 -193t-193 -68q-104 0 -158 60.5t-54 158.5q0 7 5 42l55 388h87l-55 -388q-4 -27 -4 -42q0 -142 135 -142q85 0 128 46t56 138z" />
<glyph unicode="&#xdc;" horiz-adv-x="639" d="M299 699q-23 0 -37 14t-14 37q0 22 14 36.5t37 14.5t37 -14.5t14 -36.5q0 -23 -14 -37t-37 -14zM470 699q-23 0 -37 14t-14 37q0 22 14 36.5t37 14.5t37 -14.5t14 -36.5q0 -23 -14 -37t-37 -14zM130 632h87l-55 -388q-4 -27 -4 -42q0 -142 135 -142q85 0 128 46t56 138 l55 388h87l-55 -388q-18 -125 -89 -193t-193 -68q-104 0 -158 60.5t-54 158.5q0 7 5 42z" />
<glyph unicode="&#xdd;" horiz-adv-x="534" d="M431 782l-139 -113l-41 34l125 122zM574 632l-260 -367l-37 -265h-86l37 263l-158 369h97l71 -166l44 -116l78 116l117 166h97z" />
<glyph unicode="&#xde;" horiz-adv-x="573" d="M347 534q100 0 155 -48t55 -127q0 -102 -69.5 -155.5t-191.5 -53.5h-140l-21 -150h-88l88 632h88l-14 -98h138zM303 226q83 0 124.5 30t41.5 104q0 98 -129 98h-141l-33 -232h137z" />
<glyph unicode="&#xdf;" horiz-adv-x="568" d="M412 362q110 -45 110 -154q0 -100 -69 -159t-178 -59q-61 0 -102 17l31 70q29 -14 82 -14q70 0 112.5 38t42.5 105q0 61 -49 89t-123 28l2 11h-1l8 59q157 0 157 123q0 45 -29.5 73.5t-88.5 28.5q-114 0 -131 -120l-32 -233l-37 -265h-80l53 380l16 119q14 97 76.5 143.5 t146.5 46.5q85 0 135.5 -47.5t50.5 -118.5q0 -114 -103 -161z" />
<glyph unicode="&#xe0;" horiz-adv-x="573" d="M388 574l-40 -36l-150 109l53 45zM458 485h77l-68 -485h-77l7 66h-9q-57 -76 -169 -76q-79 0 -130 61t-51 157q0 123 72 207.5t182 84.5q107 0 145 -77h11zM239 63q68 0 116 41.5t63 122.5l4 29q1 8 1 20q0 70 -35.5 110.5t-95.5 40.5q-84 0 -129 -61.5t-45 -156.5 q0 -67 32 -106.5t89 -39.5z" />
<glyph unicode="&#xe1;" horiz-adv-x="573" d="M422 653l-139 -113l-41 34l125 122zM458 485h77l-68 -485h-77l7 66h-9q-57 -76 -169 -76q-79 0 -130 61t-51 157q0 123 72 207.5t182 84.5q107 0 145 -77h11zM239 63q68 0 116 41.5t63 122.5l4 29q1 8 1 20q0 70 -35.5 110.5t-95.5 40.5q-84 0 -129 -61.5t-45 -156.5 q0 -67 32 -106.5t89 -39.5z" />
<glyph unicode="&#xe2;" horiz-adv-x="573" d="M334 630l-94 -86l-49 20l115 115h65l82 -115l-52 -20zM458 485h77l-68 -485h-77l7 66h-9q-57 -76 -169 -76q-79 0 -130 61t-51 157q0 123 72 207.5t182 84.5q107 0 145 -77h11zM239 63q68 0 116 41.5t63 122.5l4 29q1 8 1 20q0 70 -35.5 110.5t-95.5 40.5 q-84 0 -129 -61.5t-45 -156.5q0 -67 32 -106.5t89 -39.5z" />
<glyph unicode="&#xe3;" horiz-adv-x="573" d="M282 605q-42 0 -61 -58l-43 14q15 49 43 78t62 29q29 0 61.5 -31t51.5 -31q42 0 61 59l43 -14q-15 -50 -42 -78.5t-62 -28.5q-30 0 -62.5 30.5t-51.5 30.5zM458 485h77l-68 -485h-77l7 66h-9q-57 -76 -169 -76q-79 0 -130 61t-51 157q0 123 72 207.5t182 84.5 q107 0 145 -77h11zM239 63q68 0 116 41.5t63 122.5l4 29q1 8 1 20q0 70 -35.5 110.5t-95.5 40.5q-84 0 -129 -61.5t-45 -156.5q0 -67 32 -106.5t89 -39.5z" />
<glyph unicode="&#xe4;" horiz-adv-x="573" d="M240 570q-23 0 -37 14t-14 37q0 22 14 36.5t37 14.5t37 -14.5t14 -36.5q0 -23 -14 -37t-37 -14zM411 570q-23 0 -37 14t-14 37q0 22 14 36.5t37 14.5t37 -14.5t14 -36.5q0 -23 -14 -37t-37 -14zM458 485h77l-68 -485h-77l7 66h-9q-57 -76 -169 -76q-79 0 -130 61t-51 157 q0 123 72 207.5t182 84.5q107 0 145 -77h11zM239 63q68 0 116 41.5t63 122.5l4 29q1 8 1 20q0 70 -35.5 110.5t-95.5 40.5q-84 0 -129 -61.5t-45 -156.5q0 -67 32 -106.5t89 -39.5z" />
<glyph unicode="&#xe5;" horiz-adv-x="573" d="M325 551q-27 0 -46 18.5t-19 42.5q0 29 22 49t54 20q28 0 46.5 -18.5t18.5 -42.5q0 -30 -21.5 -49.5t-54.5 -19.5zM304 618q-2 -9 5 -17t18 -9q28 -2 32 22q2 9 -5.5 17t-20.5 9q-11 1 -19 -6t-10 -16zM458 485h77l-68 -485h-77l7 66h-9q-57 -76 -169 -76q-79 0 -130 61 t-51 157q0 123 72 207.5t182 84.5q107 0 145 -77h11zM239 63q68 0 116 41.5t63 122.5l4 29q1 8 1 20q0 70 -35.5 110.5t-95.5 40.5q-84 0 -129 -61.5t-45 -156.5q0 -67 32 -106.5t89 -39.5z" />
<glyph unicode="&#xe6;" horiz-adv-x="931" d="M698 500q86 0 139.5 -57.5t53.5 -147.5q0 -17 -4 -45l-2 -13h-370q-1 -7 -1 -21q0 -68 36.5 -110t96.5 -42q99 0 145 96l68 -31q-66 -139 -219 -139q-113 0 -153 76h-12l-9 -66h-77l7 66h-9q-57 -76 -169 -76q-79 0 -130 61t-51 157q0 123 72 207.5t182 84.5 q107 0 145 -77h11l10 62h77l-9 -62h7q66 77 165 77zM239 63q68 0 116 41.5t63 122.5l4 29q1 8 1 20q0 70 -35.5 110.5t-95.5 40.5q-84 0 -129 -61.5t-45 -156.5q0 -67 32 -106.5t89 -39.5zM687 427q-61 0 -101.5 -34t-58.5 -91h281q-3 56 -34 90.5t-87 34.5z" />
<glyph unicode="&#xe7;" horiz-adv-x="529" d="M252 64q106 0 149 103l67 -31q-27 -61 -78 -99.5t-120 -45.5l-125 -184l-63 43l121 143q-73 14 -119 73t-46 141q0 126 73 209.5t192 83.5q73 0 123 -40.5t66 -108.5l-76 -31q-11 49 -44 78t-79 29q-83 0 -128.5 -60t-45.5 -151q0 -68 36.5 -110t96.5 -42z" />
<glyph unicode="&#xe8;" horiz-adv-x="536" d="M377 570l-40 -36l-150 109l53 45zM303 500q86 0 139.5 -57.5t53.5 -147.5q0 -17 -4 -45l-2 -13h-370q-1 -7 -1 -21q0 -68 36.5 -110t96.5 -42q99 0 145 96l68 -31q-66 -139 -219 -139q-91 0 -149.5 61.5t-58.5 155.5q0 126 73 209.5t192 83.5zM292 427q-61 0 -101.5 -34 t-58.5 -91h282q1 55 -32 90t-90 35z" />
<glyph unicode="&#xe9;" horiz-adv-x="536" d="M411 649l-139 -113l-41 34l125 122zM303 500q86 0 139.5 -57.5t53.5 -147.5q0 -17 -4 -45l-2 -13h-370q-1 -7 -1 -21q0 -68 36.5 -110t96.5 -42q99 0 145 96l68 -31q-66 -139 -219 -139q-91 0 -149.5 61.5t-58.5 155.5q0 126 73 209.5t192 83.5zM292 427 q-61 0 -101.5 -34t-58.5 -91h282q1 55 -32 90t-90 35z" />
<glyph unicode="&#xea;" horiz-adv-x="536" d="M323 626l-94 -86l-49 20l115 115h65l82 -115l-52 -20zM303 500q86 0 139.5 -57.5t53.5 -147.5q0 -17 -4 -45l-2 -13h-370q-1 -7 -1 -21q0 -68 36.5 -110t96.5 -42q99 0 145 96l68 -31q-66 -139 -219 -139q-91 0 -149.5 61.5t-58.5 155.5q0 126 73 209.5t192 83.5z M292 427q-61 0 -101.5 -34t-58.5 -91h282q1 55 -32 90t-90 35z" />
<glyph unicode="&#xeb;" horiz-adv-x="536" d="M229 566q-23 0 -37 14t-14 37q0 22 14 36.5t37 14.5t37 -14.5t14 -36.5q0 -23 -14 -37t-37 -14zM400 566q-23 0 -37 14t-14 37q0 22 14 36.5t37 14.5t37 -14.5t14 -36.5q0 -23 -14 -37t-37 -14zM303 500q86 0 139.5 -57.5t53.5 -147.5q0 -17 -4 -45l-2 -13h-370 q-1 -7 -1 -21q0 -68 36.5 -110t96.5 -42q99 0 145 96l68 -31q-66 -139 -219 -139q-91 0 -149.5 61.5t-58.5 155.5q0 126 73 209.5t192 83.5zM292 427q-61 0 -101.5 -34t-58.5 -91h282q1 55 -32 90t-90 35z" />
<glyph unicode="&#xec;" horiz-adv-x="220" d="M79 688l137 -118l-40 -36l-150 109zM114 0h-80l68 485h80z" />
<glyph unicode="&#xed;" horiz-adv-x="220" d="M195 692l55 -43l-139 -113l-41 34zM114 0h-80l68 485h80z" />
<glyph unicode="&#xee;" horiz-adv-x="220" d="M199 675l82 -115l-52 -20l-67 86l-94 -86l-49 20l115 115h65zM34 0l68 485h80l-68 -485h-80z" />
<glyph unicode="&#xef;" horiz-adv-x="220" d="M68 566q-23 0 -37 14t-14 37q0 22 14 36.5t37 14.5t37 -14.5t14 -36.5q0 -23 -14 -37t-37 -14zM239 566q-23 0 -37 14t-14 37q0 22 14 36.5t37 14.5t37 -14.5t14 -36.5q0 -23 -14 -37t-37 -14zM114 0h-80l68 485h80z" />
<glyph unicode="&#xf0;" horiz-adv-x="545" d="M401 611q107 -136 107 -325q0 -133 -72 -214.5t-191 -81.5q-92 0 -150 62t-58 155q0 119 73 196.5t178 77.5q78 0 122 -36q-22 69 -76 129l-85 -46l-20 34l76 42q-33 31 -60 52l77 39q36 -34 53 -53l98 54l21 -34zM257 64q78 0 123 56t45 144q0 67 -36 107t-103 40 q-77 0 -123 -57.5t-46 -143.5q0 -67 36.5 -106.5t103.5 -39.5z" />
<glyph unicode="&#xf1;" horiz-adv-x="547" d="M277 612q-42 0 -61 -58l-43 14q15 49 43 78t62 29q29 0 61.5 -31t51.5 -31q42 0 61 59l43 -14q-15 -50 -42 -78.5t-62 -28.5q-30 0 -62.5 30.5t-51.5 30.5zM339 500q63 0 107 -37t44 -108q0 -9 -2 -31l-45 -324h-80l41 292q3 22 3 42q0 51 -22.5 73.5t-68.5 22.5 q-63 0 -112 -47q-34 -32 -46 -98l-40 -285h-80l68 485h74l-6 -64h8q23 34 64.5 56.5t92.5 22.5z" />
<glyph unicode="&#xf2;" horiz-adv-x="543" d="M244 688l137 -118l-40 -36l-150 109zM506 284q0 -126 -74 -210t-191 -84q-91 0 -147 60t-56 157q0 125 74 209t191 84q91 0 147 -59.5t56 -156.5zM425 275q0 70 -33.5 111t-98.5 41q-77 0 -125.5 -61t-48.5 -150q0 -70 33.5 -111t99.5 -41q77 0 125 60.5t48 150.5z" />
<glyph unicode="&#xf3;" horiz-adv-x="543" d="M360 692l55 -43l-139 -113l-41 34zM506 284q0 -126 -74 -210t-191 -84q-91 0 -147 60t-56 157q0 125 74 209t191 84q91 0 147 -59.5t56 -156.5zM425 275q0 70 -33.5 111t-98.5 41q-77 0 -125.5 -61t-48.5 -150q0 -70 33.5 -111t99.5 -41q77 0 125 60.5t48 150.5z" />
<glyph unicode="&#xf4;" horiz-adv-x="543" d="M327 626l-94 -86l-49 20l115 115h65l82 -115l-52 -20zM303 500q91 0 147 -59.5t56 -156.5q0 -126 -74 -210t-191 -84q-91 0 -147 60t-56 157q0 125 74 209t191 84zM252 64q77 0 125 60.5t48 150.5q0 70 -33.5 111t-98.5 41q-77 0 -125.5 -61t-48.5 -150q0 -70 33.5 -111 t99.5 -41z" />
<glyph unicode="&#xf5;" horiz-adv-x="543" d="M493 647q-15 -50 -42 -78.5t-62 -28.5q-30 0 -62.5 30.5t-51.5 30.5q-42 0 -61 -58l-43 14q15 49 43 78t62 29q29 0 61.5 -31t51.5 -31q42 0 61 59zM506 284q0 -126 -74 -210t-191 -84q-91 0 -147 60t-56 157q0 125 74 209t191 84q91 0 147 -59.5t56 -156.5zM425 275 q0 70 -33.5 111t-98.5 41q-77 0 -125.5 -61t-48.5 -150q0 -70 33.5 -111t99.5 -41q77 0 125 60.5t48 150.5z" />
<glyph unicode="&#xf6;" horiz-adv-x="543" d="M233 566q-23 0 -37 14t-14 37q0 22 14 36.5t37 14.5t37 -14.5t14 -36.5q0 -23 -14 -37t-37 -14zM404 566q-23 0 -37 14t-14 37q0 22 14 36.5t37 14.5t37 -14.5t14 -36.5q0 -23 -14 -37t-37 -14zM506 284q0 -126 -74 -210t-191 -84q-91 0 -147 60t-56 157q0 125 74 209 t191 84q91 0 147 -59.5t56 -156.5zM425 275q0 70 -33.5 111t-98.5 41q-77 0 -125.5 -61t-48.5 -150q0 -70 33.5 -111t99.5 -41q77 0 125 60.5t48 150.5z" />
<glyph unicode="&#xf7;" horiz-adv-x="562" d="M231 496q0 20 14 34.5t34 14.5q21 0 35.5 -14.5t14.5 -34.5q0 -21 -14.5 -35t-35.5 -14q-20 0 -34 14t-14 35zM68 355h424v-65h-424v65zM231 151q0 20 14 34.5t34 14.5q21 0 35.5 -14.5t14.5 -34.5q0 -21 -14.5 -35.5t-35.5 -14.5q-20 0 -34 14.5t-14 35.5z" />
<glyph unicode="&#xf8;" horiz-adv-x="543" d="M463 425q43 -57 43 -141q0 -126 -74 -210t-191 -84q-67 0 -118 35l-31 -36l-46 38l34 40q-42 58 -42 140q0 125 74 209t191 84q66 0 116 -33l32 37l46 -38zM119 216q0 -49 16 -84l233 275q-29 20 -75 20q-77 0 -125.5 -61t-48.5 -150zM252 64q77 0 125 60.5t48 150.5 q0 49 -17 86l-234 -275q31 -22 78 -22z" />
<glyph unicode="&#xf9;" horiz-adv-x="548" d="M383 570l-40 -36l-150 109l53 45zM430 485h80l-68 -485h-74l6 64h-8q-23 -34 -64.5 -56.5t-92.5 -22.5q-63 0 -107 37t-44 108q0 9 2 31l45 324h80l-41 -292q-3 -23 -3 -42q0 -51 22.5 -73.5t68.5 -22.5q63 0 112 47q34 32 46 98z" />
<glyph unicode="&#xfa;" horiz-adv-x="548" d="M417 649l-139 -113l-41 34l125 122zM430 485h80l-68 -485h-74l6 64h-8q-23 -34 -64.5 -56.5t-92.5 -22.5q-63 0 -107 37t-44 108q0 9 2 31l45 324h80l-41 -292q-3 -23 -3 -42q0 -51 22.5 -73.5t68.5 -22.5q63 0 112 47q34 32 46 98z" />
<glyph unicode="&#xfb;" horiz-adv-x="548" d="M329 626l-94 -86l-49 20l115 115h65l82 -115l-52 -20zM430 485h80l-68 -485h-74l6 64h-8q-23 -34 -64.5 -56.5t-92.5 -22.5q-63 0 -107 37t-44 108q0 9 2 31l45 324h80l-41 -292q-3 -23 -3 -42q0 -51 22.5 -73.5t68.5 -22.5q63 0 112 47q34 32 46 98z" />
<glyph unicode="&#xfc;" horiz-adv-x="548" d="M235 566q-23 0 -37 14t-14 37q0 22 14 36.5t37 14.5t37 -14.5t14 -36.5q0 -23 -14 -37t-37 -14zM406 566q-23 0 -37 14t-14 37q0 22 14 36.5t37 14.5t37 -14.5t14 -36.5q0 -23 -14 -37t-37 -14zM430 485h80l-68 -485h-74l6 64h-8q-23 -34 -64.5 -56.5t-92.5 -22.5 q-63 0 -107 37t-44 108q0 9 2 31l45 324h80l-41 -292q-3 -23 -3 -42q0 -51 22.5 -73.5t68.5 -22.5q63 0 112 47q34 32 46 98z" />
<glyph unicode="&#xfd;" horiz-adv-x="500" d="M397 649l-139 -113l-41 34l125 122zM514 485l-256 -485l-93 -177h-82l91 178l-120 484h91l85 -404l200 404h84z" />
<glyph unicode="&#xfe;" horiz-adv-x="570" d="M352 500q79 0 130 -61t51 -157q0 -123 -72 -207.5t-182 -84.5q-107 0 -145 77h-9l-34 -244h-80l119 848l81 11l-36 -258h8q57 76 169 76zM279 63q84 0 129 61.5t45 156.5q0 67 -32 106.5t-89 39.5q-68 0 -116 -41.5t-63 -122.5l-4 -29q-1 -8 -1 -20q0 -70 35.5 -110.5 t95.5 -40.5z" />
<glyph unicode="&#xff;" horiz-adv-x="500" d="M215 566q-23 0 -37 14t-14 37q0 22 14 36.5t37 14.5t37 -14.5t14 -36.5q0 -23 -14 -37t-37 -14zM386 566q-23 0 -37 14t-14 37q0 22 14 36.5t37 14.5t37 -14.5t14 -36.5q0 -23 -14 -37t-37 -14zM514 485l-256 -485l-93 -177h-82l91 178l-120 484h91l85 -404l200 404h84z " />
<glyph unicode="&#x100;" horiz-adv-x="593" d="M495 778l-8 -61h-255l8 61h255zM450 0l-35 156h-264l-79 -156h-90l327 633h85l149 -633h-93zM186 225h214l-36 162l-30 134l-66 -134z" />
<glyph unicode="&#x101;" horiz-adv-x="573" d="M462 648l-8 -61h-255l8 61h255zM458 485h77l-68 -485h-77l7 66h-9q-57 -76 -169 -76q-79 0 -130 61t-51 157q0 123 72 207.5t182 84.5q107 0 145 -77h11zM239 63q68 0 116 41.5t63 122.5l4 29q1 8 1 20q0 70 -35.5 110.5t-95.5 40.5q-84 0 -129 -61.5t-45 -156.5 q0 -67 32 -106.5t89 -39.5z" />
<glyph unicode="&#x102;" horiz-adv-x="593" d="M362 689q-56 0 -89.5 33.5t-26.5 82.5h57q-4 -26 13.5 -44.5t47.5 -18.5q30 1 51.5 19t25.5 44h58q-6 -50 -44.5 -83t-92.5 -33zM450 0l-35 156h-264l-79 -156h-90l327 633h85l149 -633h-93zM186 225h214l-36 162l-30 134l-66 -134z" />
<glyph unicode="&#x103;" horiz-adv-x="573" d="M329 559q-56 0 -89.5 33.5t-26.5 82.5h57q-4 -26 13.5 -44.5t47.5 -18.5q30 1 51.5 19t25.5 44h58q-6 -50 -44.5 -83t-92.5 -33zM458 485h77l-68 -485h-77l7 66h-9q-57 -76 -169 -76q-79 0 -130 61t-51 157q0 123 72 207.5t182 84.5q107 0 145 -77h11zM239 63 q68 0 116 41.5t63 122.5l4 29q1 8 1 20q0 70 -35.5 110.5t-95.5 40.5q-84 0 -129 -61.5t-45 -156.5q0 -67 32 -106.5t89 -39.5z" />
<glyph unicode="&#x104;" horiz-adv-x="593" d="M464 -106q22 0 40 12l26 -54q-33 -24 -85 -24q-39 0 -66 21.5t-27 62.5q0 65 94 105l-31 139h-264l-79 -156h-90l327 633h85l149 -633h-51q-32 -9 -50 -25.5t-18 -37.5q0 -22 11.5 -32.5t28.5 -10.5zM186 225h214l-36 162l-30 134l-66 -134z" />
<glyph unicode="&#x105;" horiz-adv-x="573" d="M426 -106q22 0 40 12l26 -54q-33 -24 -85 -24q-39 0 -66 21.5t-27 62.5q0 58 77 97l6 57h-9q-57 -76 -169 -76q-79 0 -130 61t-51 157q0 123 72 207.5t182 84.5q107 0 145 -77h11l10 62h77l-68 -485h-13q-32 -9 -50 -25.5t-18 -37.5q0 -22 11.5 -32.5t28.5 -10.5zM239 63 q68 0 116 41.5t63 122.5l4 29q1 8 1 20q0 70 -35.5 110.5t-95.5 40.5q-84 0 -129 -61.5t-45 -156.5q0 -67 32 -106.5t89 -39.5z" />
<glyph unicode="&#x106;" horiz-adv-x="659" d="M430 825l55 -43l-139 -113l-41 34zM598 179q-36 -87 -110 -138.5t-164 -51.5q-123 0 -196.5 82t-73.5 209q0 154 93.5 258.5t230.5 104.5q94 0 159 -53.5t86 -141.5l-79 -32q-14 70 -61.5 110.5t-117.5 40.5q-104 0 -164.5 -84.5t-60.5 -208.5q0 -94 50 -151.5t137 -57.5 q68 0 119 40t78 108z" />
<glyph unicode="&#x107;" horiz-adv-x="529" d="M363 692l55 -43l-139 -113l-41 34zM468 136q-30 -68 -88.5 -107t-138.5 -39q-87 0 -145 61.5t-58 155.5q0 126 73 209.5t192 83.5q73 0 123 -40.5t66 -108.5l-76 -31q-11 49 -44 78t-79 29q-83 0 -128.5 -60t-45.5 -151q0 -68 36.5 -110t96.5 -42q106 0 149 103z" />
<glyph unicode="&#x108;" horiz-adv-x="659" d="M397 759l-94 -86l-49 20l115 115h65l82 -115l-52 -20zM327 65q68 0 119 40t78 108l74 -34q-36 -87 -110 -138.5t-164 -51.5q-123 0 -196.5 82t-73.5 209q0 154 93.5 258.5t230.5 104.5q94 0 159 -53.5t86 -141.5l-79 -32q-14 70 -61.5 110.5t-117.5 40.5 q-104 0 -164.5 -84.5t-60.5 -208.5q0 -94 50 -151.5t137 -57.5z" />
<glyph unicode="&#x109;" horiz-adv-x="529" d="M330 626l-94 -86l-49 20l115 115h65l82 -115l-52 -20zM252 64q106 0 149 103l67 -31q-30 -68 -88.5 -107t-138.5 -39q-87 0 -145 61.5t-58 155.5q0 126 73 209.5t192 83.5q73 0 123 -40.5t66 -108.5l-76 -31q-11 49 -44 78t-79 29q-83 0 -128.5 -60t-45.5 -151 q0 -68 36.5 -110t96.5 -42z" />
<glyph unicode="&#x10a;" horiz-adv-x="659" d="M446 746q0 -21 -14.5 -35.5t-36.5 -14.5t-37 14.5t-15 35.5q0 23 14.5 38t37.5 15q22 0 36.5 -15t14.5 -38zM598 179q-36 -87 -110 -138.5t-164 -51.5q-123 0 -196.5 82t-73.5 209q0 154 93.5 258.5t230.5 104.5q94 0 159 -53.5t86 -141.5l-79 -32q-14 70 -61.5 110.5 t-117.5 40.5q-104 0 -164.5 -84.5t-60.5 -208.5q0 -94 50 -151.5t137 -57.5q68 0 119 40t78 108z" />
<glyph unicode="&#x10b;" horiz-adv-x="529" d="M379 613q0 -21 -14.5 -35.5t-36.5 -14.5t-37 14.5t-15 35.5q0 23 14.5 38t37.5 15q22 0 36.5 -15t14.5 -38zM468 136q-30 -68 -88.5 -107t-138.5 -39q-87 0 -145 61.5t-58 155.5q0 126 73 209.5t192 83.5q73 0 123 -40.5t66 -108.5l-76 -31q-11 49 -44 78t-79 29 q-83 0 -128.5 -60t-45.5 -151q0 -68 36.5 -110t96.5 -42q106 0 149 103z" />
<glyph unicode="&#x10c;" horiz-adv-x="659" d="M412 683h-65l-82 115l52 20l67 -86l94 86l49 -20zM327 65q68 0 119 40t78 108l74 -34q-36 -87 -110 -138.5t-164 -51.5q-123 0 -196.5 82t-73.5 209q0 154 93.5 258.5t230.5 104.5q94 0 159 -53.5t86 -141.5l-79 -32q-14 70 -61.5 110.5t-117.5 40.5q-104 0 -164.5 -84.5 t-60.5 -208.5q0 -94 50 -151.5t137 -57.5z" />
<glyph unicode="&#x10d;" horiz-adv-x="529" d="M345 550h-65l-82 115l52 20l67 -86l94 86l49 -20zM252 64q106 0 149 103l67 -31q-30 -68 -88.5 -107t-138.5 -39q-87 0 -145 61.5t-58 155.5q0 126 73 209.5t192 83.5q73 0 123 -40.5t66 -108.5l-76 -31q-11 49 -44 78t-79 29q-83 0 -128.5 -60t-45.5 -151 q0 -68 36.5 -110t96.5 -42z" />
<glyph unicode="&#x10e;" horiz-adv-x="650" d="M373 683h-65l-82 115l52 20l67 -86l94 86l49 -20zM320 632q150 0 224 -73t74 -194q0 -180 -100 -272.5t-286 -92.5h-185l88 632h185zM241 74q148 0 219.5 73t71.5 220q0 192 -223 192h-96l-68 -485h96z" />
<glyph unicode="&#x10f;" horiz-adv-x="644" d="M445 423l35 248l82 11l-96 -682h-80l9 66h-7q-57 -76 -169 -76q-79 0 -130 61t-51 157q0 123 72 207.5t182 84.5q107 0 145 -77h8zM623 672l72 10l-39 -199h-49zM239 63q68 0 116 41.5t63 122.5l4 29q1 8 1 20q0 70 -35.5 110.5t-95.5 40.5q-84 0 -129 -61.5t-45 -156.5 q0 -67 32 -106.5t89 -39.5z" />
<glyph unicode="&#x110;" horiz-adv-x="650" d="M320 632q150 0 224 -73t74 -194q0 -180 -100 -272.5t-286 -92.5h-185l39 278h-53l10 72h53l39 282h185zM241 74q148 0 219.5 73t71.5 220q0 192 -223 192h-96l-29 -209h146l-10 -72h-146l-29 -204h96z" />
<glyph unicode="&#x111;" horiz-adv-x="600" d="M614 615l-7 -59h-63l-78 -556h-80l9 66h-7q-57 -76 -169 -76q-79 0 -130 61t-51 157q0 123 72 207.5t182 84.5q107 0 145 -77h8l19 133h-144l7 59h145l8 56l82 11l-9 -67h61zM239 63q68 0 116 41.5t63 122.5l4 29q1 8 1 20q0 70 -35.5 110.5t-95.5 40.5q-84 0 -129 -61.5 t-45 -156.5q0 -67 32 -106.5t89 -39.5z" />
<glyph unicode="&#x112;" horiz-adv-x="549" d="M244 777h255l-8 -61h-255zM214 557l-28 -200h290l-11 -76h-290l-29 -205h330l-10 -76h-419l88 633h419l-10 -76h-330z" />
<glyph unicode="&#x113;" horiz-adv-x="536" d="M451 644l-8 -61h-255l8 61h255zM303 500q86 0 139.5 -57.5t53.5 -147.5q0 -17 -4 -45l-2 -13h-370q-1 -7 -1 -21q0 -68 36.5 -110t96.5 -42q99 0 145 96l68 -31q-66 -139 -219 -139q-91 0 -149.5 61.5t-58.5 155.5q0 126 73 209.5t192 83.5zM292 427q-61 0 -101.5 -34 t-58.5 -91h282q1 55 -32 90t-90 35z" />
<glyph unicode="&#x114;" horiz-adv-x="549" d="M307 804q-4 -26 13.5 -44.5t47.5 -18.5q30 1 51.5 19t25.5 44h58q-6 -50 -44.5 -83t-92.5 -33q-56 0 -89.5 33.5t-26.5 82.5h57zM214 557l-28 -200h290l-11 -76h-290l-29 -205h330l-10 -76h-419l88 633h419l-10 -76h-330z" />
<glyph unicode="&#x115;" horiz-adv-x="536" d="M318 555q-56 0 -89.5 33.5t-26.5 82.5h57q-4 -26 13.5 -44.5t47.5 -18.5q30 1 51.5 19t25.5 44h58q-6 -50 -44.5 -83t-92.5 -33zM303 500q86 0 139.5 -57.5t53.5 -147.5q0 -17 -4 -45l-2 -13h-370q-1 -7 -1 -21q0 -68 36.5 -110t96.5 -42q99 0 145 96l68 -31 q-66 -139 -219 -139q-91 0 -149.5 61.5t-58.5 155.5q0 126 73 209.5t192 83.5zM292 427q-61 0 -101.5 -34t-58.5 -91h282q1 55 -32 90t-90 35z" />
<glyph unicode="&#x116;" horiz-adv-x="549" d="M420 746q0 -21 -14.5 -35.5t-36.5 -14.5t-37 14.5t-15 35.5q0 23 14.5 38t37.5 15q22 0 36.5 -15t14.5 -38zM214 557l-28 -200h290l-11 -76h-290l-29 -205h330l-10 -76h-419l88 633h419l-10 -76h-330z" />
<glyph unicode="&#x117;" horiz-adv-x="536" d="M321 563q-22 0 -37 14.5t-15 35.5q0 23 14.5 38t37.5 15q22 0 36.5 -15t14.5 -38q0 -21 -14.5 -35.5t-36.5 -14.5zM303 500q86 0 139.5 -57.5t53.5 -147.5q0 -17 -4 -45l-2 -13h-370q-1 -7 -1 -21q0 -68 36.5 -110t96.5 -42q99 0 145 96l68 -31q-66 -139 -219 -139 q-91 0 -149.5 61.5t-58.5 155.5q0 126 73 209.5t192 83.5zM292 427q-61 0 -101.5 -34t-58.5 -91h282q1 55 -32 90t-90 35z" />
<glyph unicode="&#x118;" horiz-adv-x="549" d="M544 557h-330l-28 -200h290l-11 -76h-290l-29 -205h330l-10 -76q-32 -9 -50 -25.5t-18 -37.5q0 -22 11.5 -32.5t28.5 -10.5q22 0 40 12l26 -54q-33 -24 -85 -24q-39 0 -66 21.5t-27 62.5q0 52 60 88h-339l88 633h419z" />
<glyph unicode="&#x119;" horiz-adv-x="536" d="M303 500q86 0 139.5 -57.5t53.5 -147.5q0 -17 -4 -45l-2 -13h-370q-1 -7 -1 -21q0 -68 36.5 -110t96.5 -42q99 0 145 96l68 -31q-59 -124 -188 -137q-50 -21 -50 -57q0 -22 11.5 -32.5t28.5 -10.5q22 0 40 12l26 -54q-33 -24 -85 -24q-39 0 -66 21.5t-27 62.5q0 48 53 83 q-77 13 -123.5 71.5t-46.5 142.5q0 126 73 209.5t192 83.5zM292 427q-61 0 -101.5 -34t-58.5 -91h282q1 55 -32 90t-90 35z" />
<glyph unicode="&#x11a;" horiz-adv-x="549" d="M386 683h-65l-82 115l52 20l67 -86l94 86l49 -20zM544 557h-330l-28 -200h290l-11 -76h-290l-29 -205h330l-10 -76h-419l88 633h419z" />
<glyph unicode="&#x11b;" horiz-adv-x="536" d="M338 550h-65l-82 115l52 20l67 -86l94 86l49 -20zM303 500q86 0 139.5 -57.5t53.5 -147.5q0 -17 -4 -45l-2 -13h-370q-1 -7 -1 -21q0 -68 36.5 -110t96.5 -42q99 0 145 96l68 -31q-66 -139 -219 -139q-91 0 -149.5 61.5t-58.5 155.5q0 126 73 209.5t192 83.5zM292 427 q-61 0 -101.5 -34t-58.5 -91h282q1 55 -32 90t-90 35z" />
<glyph unicode="&#x11c;" horiz-adv-x="682" d="M391 759l-94 -86l-49 20l115 115h65l82 -115l-52 -20zM393 216l10 70h219l-40 -286h-56v85q-72 -96 -202 -96q-123 0 -196.5 82t-73.5 209q0 157 91.5 260t222.5 103q96 0 165.5 -53.5t89.5 -141.5l-79 -32q-14 70 -61.5 110.5t-117.5 40.5q-104 0 -164.5 -84.5 t-60.5 -208.5q0 -94 50 -151.5t137 -57.5q68 0 121 40.5t76 110.5h-131z" />
<glyph unicode="&#x11d;" horiz-adv-x="574" d="M319 626l-94 -86l-49 20l115 115h65l82 -115l-52 -20zM456 485h80l-58 -410q-18 -126 -87.5 -191.5t-181.5 -65.5q-68 0 -119 25t-76 65l49 56q49 -73 146 -73q161 0 188 175h-9q-57 -76 -169 -76q-79 0 -130 61t-51 157q0 123 72 207.5t182 84.5q107 0 145 -77h10z M239 63q68 0 116 41.5t63 122.5l4 29q1 8 1 20q0 70 -35.5 110.5t-95.5 40.5q-84 0 -129 -61.5t-45 -156.5q0 -67 32 -106.5t89 -39.5z" />
<glyph unicode="&#x11e;" horiz-adv-x="682" d="M386 688q-56 0 -89.5 33.5t-26.5 82.5h57q-4 -26 13.5 -44.5t47.5 -18.5q30 1 51.5 19t25.5 44h58q-6 -50 -44.5 -83t-92.5 -33zM393 216l10 70h219l-40 -286h-56v85q-72 -96 -202 -96q-123 0 -196.5 82t-73.5 209q0 157 91.5 260t222.5 103q96 0 165.5 -53.5 t89.5 -141.5l-79 -32q-14 70 -61.5 110.5t-117.5 40.5q-104 0 -164.5 -84.5t-60.5 -208.5q0 -94 50 -151.5t137 -57.5q68 0 121 40.5t76 110.5h-131z" />
<glyph unicode="&#x11f;" horiz-adv-x="574" d="M314 555q-56 0 -89.5 33.5t-26.5 82.5h57q-4 -26 13.5 -44.5t47.5 -18.5q30 1 51.5 19t25.5 44h58q-6 -50 -44.5 -83t-92.5 -33zM456 485h80l-58 -410q-18 -126 -87.5 -191.5t-181.5 -65.5q-68 0 -119 25t-76 65l49 56q49 -73 146 -73q161 0 188 175h-9q-57 -76 -169 -76 q-79 0 -130 61t-51 157q0 123 72 207.5t182 84.5q107 0 145 -77h10zM239 63q68 0 116 41.5t63 122.5l4 29q1 8 1 20q0 70 -35.5 110.5t-95.5 40.5q-84 0 -129 -61.5t-45 -156.5q0 -67 32 -106.5t89 -39.5z" />
<glyph unicode="&#x120;" horiz-adv-x="682" d="M389 696q-22 0 -37 14.5t-15 35.5q0 23 14.5 38t37.5 15q22 0 36.5 -15t14.5 -38q0 -21 -14.5 -35.5t-36.5 -14.5zM393 216l10 70h219l-40 -286h-56v85q-72 -96 -202 -96q-123 0 -196.5 82t-73.5 209q0 157 91.5 260t222.5 103q96 0 165.5 -53.5t89.5 -141.5l-79 -32 q-14 70 -61.5 110.5t-117.5 40.5q-104 0 -164.5 -84.5t-60.5 -208.5q0 -94 50 -151.5t137 -57.5q68 0 121 40.5t76 110.5h-131z" />
<glyph unicode="&#x121;" horiz-adv-x="574" d="M317 563q-22 0 -37 14.5t-15 35.5q0 23 14.5 38t37.5 15q22 0 36.5 -15t14.5 -38q0 -21 -14.5 -35.5t-36.5 -14.5zM456 485h80l-58 -410q-18 -126 -87.5 -191.5t-181.5 -65.5q-68 0 -119 25t-76 65l49 56q49 -73 146 -73q161 0 188 175h-9q-57 -76 -169 -76 q-79 0 -130 61t-51 157q0 123 72 207.5t182 84.5q107 0 145 -77h10zM239 63q68 0 116 41.5t63 122.5l4 29q1 8 1 20q0 70 -35.5 110.5t-95.5 40.5q-84 0 -129 -61.5t-45 -156.5q0 -67 32 -106.5t89 -39.5z" />
<glyph unicode="&#x122;" horiz-adv-x="682" d="M393 216l10 70h219l-40 -286h-56v85q-72 -96 -202 -96q-123 0 -196.5 82t-73.5 209q0 157 91.5 260t222.5 103q96 0 165.5 -53.5t89.5 -141.5l-79 -32q-14 70 -61.5 110.5t-117.5 40.5q-104 0 -164.5 -84.5t-60.5 -208.5q0 -94 50 -151.5t137 -57.5q68 0 121 40.5 t76 110.5h-131zM292 -40q21 0 36 -15t11 -38q-3 -21 -11.5 -41t-26.5 -43t-29 -35t-38 -40l-21 18q60 64 79 108q-21 0 -33.5 12.5t-12.5 31.5q0 17 12.5 29.5t33.5 12.5z" />
<glyph unicode="&#x123;" horiz-adv-x="574" d="M314 561q-20 0 -34 13.5t-14 33.5q0 47 89 131l30 -25q-40 -37 -56 -69q15 -3 24.5 -14t9.5 -26q0 -20 -14 -32t-35 -12zM456 485h80l-58 -410q-18 -126 -87.5 -191.5t-181.5 -65.5q-68 0 -119 25t-76 65l49 56q49 -73 146 -73q161 0 188 175h-9q-57 -76 -169 -76 q-79 0 -130 61t-51 157q0 123 72 207.5t182 84.5q107 0 145 -77h10zM239 63q68 0 116 41.5t63 122.5l4 29q1 8 1 20q0 70 -35.5 110.5t-95.5 40.5q-84 0 -129 -61.5t-45 -156.5q0 -67 32 -106.5t89 -39.5z" />
<glyph unicode="&#x124;" horiz-adv-x="663" d="M402 759l-94 -86l-49 20l115 115h65l82 -115l-52 -20zM549 632h88l-88 -632h-88l38 273h-326l-38 -273h-88l88 632h88l-40 -285h326z" />
<glyph unicode="&#x125;" horiz-adv-x="547" d="M186 792l-94 -86l-49 20l115 115h65l82 -115l-52 -20zM339 500q63 0 107 -37t44 -108q0 -9 -2 -31l-45 -324h-80l41 292q3 22 3 42q0 51 -22.5 73.5t-68.5 22.5q-63 0 -112 -47q-35 -33 -46 -102l-40 -281h-80l94 671l82 11l-37 -261h5q23 34 64.5 56.5t92.5 22.5z" />
<glyph unicode="&#x126;" horiz-adv-x="663" d="M687 497l-8 -58h-69l-61 -439h-88l38 273h-326l-38 -273h-88l61 439h-69l8 58h69l19 135h88l-19 -135h326l19 135h88l-19 -135h69zM509 347l13 92h-326l-13 -92h326z" />
<glyph unicode="&#x127;" horiz-adv-x="600" d="M339 500q63 0 107 -37t44 -108q0 -9 -2 -31l-45 -324h-80l41 292q3 22 3 42q0 51 -22.5 73.5t-68.5 22.5q-63 0 -112 -47q-35 -33 -46 -102l-40 -281h-80l78 556h-74l7 59h75l8 56l82 11l-9 -67h131l-7 -59h-133l-19 -135h5q23 34 64.5 56.5t92.5 22.5z" />
<glyph unicode="&#x128;" horiz-adv-x="249" d="M367 780q-15 -50 -42 -78.5t-62 -28.5q-30 0 -62.5 30.5t-51.5 30.5q-42 0 -61 -58l-43 14q15 49 43 78t62 29q29 0 61.5 -31t51.5 -31q42 0 61 59zM223 632l-88 -632h-88l88 632h88z" />
<glyph unicode="&#x129;" horiz-adv-x="220" d="M328 647q-15 -50 -42 -78.5t-62 -28.5q-30 0 -62.5 30.5t-51.5 30.5q-42 0 -61 -58l-43 14q15 49 43 78t62 29q29 0 61.5 -31t51.5 -31q42 0 61 59zM114 0h-80l68 485h80z" />
<glyph unicode="&#x12a;" horiz-adv-x="249" d="M74 777h255l-8 -61h-255zM223 632l-88 -632h-88l88 632h88z" />
<glyph unicode="&#x12b;" horiz-adv-x="220" d="M35 644h255l-8 -61h-255zM114 0h-80l68 485h80z" />
<glyph unicode="&#x12c;" horiz-adv-x="249" d="M137 804q-4 -26 13.5 -44.5t47.5 -18.5q30 1 51.5 19t25.5 44h58q-6 -50 -44.5 -83t-92.5 -33q-56 0 -89.5 33.5t-26.5 82.5h57zM223 632l-88 -632h-88l88 632h88z" />
<glyph unicode="&#x12d;" horiz-adv-x="220" d="M98 671q-4 -26 13.5 -44.5t47.5 -18.5q30 1 51.5 19t25.5 44h58q-6 -50 -44.5 -83t-92.5 -33q-56 0 -89.5 33.5t-26.5 82.5h57zM114 0h-80l68 485h80z" />
<glyph unicode="&#x12e;" horiz-adv-x="249" d="M105 -106q22 0 40 12l26 -54q-33 -24 -85 -24q-39 0 -66 21.5t-27 62.5q0 52 60 88h-6l88 632h88l-88 -632h-2q-32 -9 -50 -25.5t-18 -37.5q0 -22 11.5 -32.5t28.5 -10.5z" />
<glyph unicode="&#x12f;" horiz-adv-x="220" d="M160 666q22 0 36.5 -15t14.5 -38q0 -21 -14.5 -35.5t-36.5 -14.5t-37 14.5t-15 35.5q0 23 14.5 38t37.5 15zM97 0q-32 -9 -50 -25.5t-18 -37.5q0 -22 11.5 -32.5t28.5 -10.5q22 0 40 12l26 -54q-33 -24 -85 -24q-39 0 -66 21.5t-27 62.5q0 59 78 98l67 475h80l-68 -485 h-17z" />
<glyph unicode="&#x130;" horiz-adv-x="249" d="M250 746q0 -21 -14.5 -35.5t-36.5 -14.5t-37 14.5t-15 35.5q0 23 14.5 38t37.5 15q22 0 36.5 -15t14.5 -38zM223 632l-88 -632h-88l88 632h88z" />
<glyph unicode="&#x131;" horiz-adv-x="220" d="M114 0h-80l68 485h80z" />
<glyph unicode="&#x132;" horiz-adv-x="644" d="M223 632l-88 -632h-88l88 632h88zM537 632h86l-56 -402q-17 -119 -77 -180t-174 -61q-41 0 -71 7l6 76q30 -8 71 -8q74 0 110.5 42.5t50.5 139.5z" />
<glyph unicode="&#x133;" horiz-adv-x="442" d="M166 579q-24 0 -40 15.5t-16 38.5q0 25 16 41t40 16q23 0 39 -16t16 -41q0 -23 -16 -38.5t-39 -15.5zM386 690q23 0 39 -16t16 -41q0 -23 -16 -38.5t-39 -15.5q-24 0 -40 15.5t-16 38.5q0 25 16 41t40 16zM184 485l-68 -485h-80l68 485h80zM326 485h80l-34 -242l-34 -244 q-7 -53 -28 -90.5t-49.5 -56t-57 -26.5t-60.5 -8q-36 0 -56 8v74q31 -9 61 -9q51 0 77 29t36 100l12 89z" />
<glyph unicode="&#x134;" horiz-adv-x="392" d="M385 808l82 -115l-52 -20l-67 86l-94 -86l-49 20l115 115h65zM232 246l54 386h86l-56 -402q-17 -119 -77 -180t-174 -61q-41 0 -71 7l6 76q30 -8 71 -8q74 0 110.5 42.5t50.5 139.5z" />
<glyph unicode="&#x135;" horiz-adv-x="220" d="M198 679l82 -115l-52 -20l-67 86l-94 -86l-49 20l115 115h65zM104 485h80l-34 -242l-34 -244q-7 -53 -28 -90.5t-49.5 -56t-57 -26.5t-60.5 -8q-36 0 -56 8v74q31 -9 61 -9q51 0 77 29t36 100l12 89z" />
<glyph unicode="&#x136;" horiz-adv-x="610" d="M633 632l-272 -260l211 -372h-93l-183 317l-135 -130l-26 -187h-88l88 632h88l-46 -333l348 333h108zM279 -40q21 0 36 -15t11 -38q-3 -21 -11.5 -41t-26.5 -43t-29 -35t-38 -40l-21 18q60 64 79 108q-21 0 -33.5 12.5t-12.5 31.5q0 17 12.5 29.5t33.5 12.5z" />
<glyph unicode="&#x137;" horiz-adv-x="492" d="M511 485l-224 -197l170 -288h-103l-134 231l-82 -71l-22 -160h-80l94 671l82 11l-58 -413l241 216h116zM215 -35q21 0 36 -15t11 -38q-3 -21 -11.5 -41t-26.5 -43t-29 -35t-38 -40l-21 18q60 64 79 108q-21 0 -33.5 12.5t-12.5 31.5q0 17 12.5 29.5t33.5 12.5z" />
<glyph unicode="&#x138;" horiz-adv-x="506" d="M511 485l-224 -197l170 -288h-103l-134 231l-82 -72l-22 -159h-80l68 485h80l-30 -216l241 216h116z" />
<glyph unicode="&#x139;" horiz-adv-x="516" d="M328 782l-139 -113l-41 34l125 122zM146 76h311l-10 -76h-400l88 632h88z" />
<glyph unicode="&#x13a;" horiz-adv-x="220" d="M257 854l53 -45l-150 -109l-40 36zM116 0h-80l94 671l82 11z" />
<glyph unicode="&#x13b;" horiz-adv-x="516" d="M146 76h311l-10 -76h-400l88 632h88zM230 -40q21 0 36 -15t11 -38q-3 -21 -11.5 -41t-26.5 -43t-29 -35t-38 -40l-21 18q60 64 79 108q-21 0 -33.5 12.5t-12.5 31.5q0 17 12.5 29.5t33.5 12.5z" />
<glyph unicode="&#x13c;" horiz-adv-x="220" d="M212 682l-96 -682h-80l94 671zM75 -35q21 0 36 -15t11 -38q-3 -21 -11.5 -41t-26.5 -43t-29 -35t-38 -40l-21 18q60 64 79 108q-21 0 -33.5 12.5t-12.5 31.5q0 17 12.5 29.5t33.5 12.5z" />
<glyph unicode="&#x13d;" horiz-adv-x="516" d="M453 548q-21 -1 -34.5 12t-14.5 32t11 33t34 15q22 2 37 -13t15 -43q3 -69 -62 -152l-28 17q42 58 52 99h-10zM223 632l-77 -556h311l-10 -76h-400l88 632h88z" />
<glyph unicode="&#x13e;" horiz-adv-x="281" d="M116 0h-80l94 671l82 11zM260 672l72 10l-39 -199h-49z" />
<glyph unicode="&#x13f;" horiz-adv-x="516" d="M146 76h311l-10 -76h-400l88 632h88zM389 331q-26 0 -41.5 16t-15.5 41q0 24 15.5 40t41.5 16t41.5 -16t15.5 -40q0 -25 -15.5 -41t-41.5 -16z" />
<glyph unicode="&#x140;" horiz-adv-x="327" d="M116 0h-80l94 671l82 11zM213 308q0 24 15.5 40t41.5 16t41.5 -16t15.5 -40q0 -25 -15.5 -41t-41.5 -16t-41.5 16t-15.5 41z" />
<glyph unicode="&#x141;" horiz-adv-x="600" d="M146 76h311l-10 -76h-400l34 247l-29 -9l-20 59l59 19l44 316h88l-40 -287l168 53l20 -59l-198 -63z" />
<glyph unicode="&#x142;" horiz-adv-x="247" d="M267 343l-108 -34l-43 -309h-80l40 282l-76 -24l-20 59l105 33l45 321l82 11l-43 -305l78 25z" />
<glyph unicode="&#x143;" horiz-adv-x="673" d="M514 782l-139 -113l-41 34l125 122zM559 632h88l-88 -632h-73l-285 492l-19 -156l-47 -336h-88l88 632h83l276 -483l18 144z" />
<glyph unicode="&#x144;" horiz-adv-x="547" d="M417 660l-139 -113l-41 34l125 122zM339 500q63 0 107 -37t44 -108q0 -9 -2 -31l-45 -324h-80l41 292q3 22 3 42q0 51 -22.5 73.5t-68.5 22.5q-63 0 -112 -47q-34 -32 -46 -98l-40 -285h-80l68 485h74l-6 -64h8q23 34 64.5 56.5t92.5 22.5z" />
<glyph unicode="&#x145;" horiz-adv-x="673" d="M559 632h88l-88 -632h-73l-285 492l-19 -156l-47 -336h-88l88 632h83l276 -483l18 144zM301 -40q21 0 36 -15t11 -38q-3 -21 -11.5 -41t-26.5 -43t-29 -35t-38 -40l-21 18q60 64 79 108q-21 0 -33.5 12.5t-12.5 31.5q0 17 12.5 29.5t33.5 12.5z" />
<glyph unicode="&#x146;" horiz-adv-x="547" d="M339 500q63 0 107 -37t44 -108q0 -9 -2 -31l-45 -324h-80l41 292q3 22 3 42q0 51 -22.5 73.5t-68.5 22.5q-63 0 -112 -47q-34 -32 -46 -98l-40 -285h-80l68 485h74l-6 -64h8q23 34 64.5 56.5t92.5 22.5zM229 -35q21 0 36 -15t11 -38q-3 -21 -11.5 -41t-26.5 -43t-29 -35 t-38 -40l-21 18q60 64 79 108q-21 0 -33.5 12.5t-12.5 31.5q0 17 12.5 29.5t33.5 12.5z" />
<glyph unicode="&#x147;" horiz-adv-x="673" d="M441 683h-65l-82 115l52 20l67 -86l94 86l49 -20zM559 632h88l-88 -632h-73l-285 492l-19 -156l-47 -336h-88l88 632h83l276 -483l18 144z" />
<glyph unicode="&#x148;" horiz-adv-x="547" d="M344 561h-65l-82 115l52 20l67 -86l94 86l49 -20zM339 500q63 0 107 -37t44 -108q0 -9 -2 -31l-45 -324h-80l41 292q3 22 3 42q0 51 -22.5 73.5t-68.5 22.5q-63 0 -112 -47q-34 -32 -46 -98l-40 -285h-80l68 485h74l-6 -64h8q23 34 64.5 56.5t92.5 22.5z" />
<glyph unicode="&#x14a;" horiz-adv-x="673" d="M647 632l-54 -389l-34 -243q-7 -53 -28.5 -91t-51 -56.5t-58.5 -26.5t-61 -8q-36 0 -56 8v76q31 -9 61 -9q46 0 72 28t35 89l2 11l-273 471l-19 -156l-47 -336h-88l88 632h83l274 -479l13 90h1l6 50l47 339h88z" />
<glyph unicode="&#x14b;" horiz-adv-x="547" d="M490 355q0 -9 -2 -31l-11 -81l-34 -244q-7 -53 -28 -90.5t-49.5 -56t-57 -26.5t-60.5 -8q-36 0 -56 8v74q31 -9 61 -9q49 0 74.5 26.5t36.5 91.5l21 148l12 86l7 49q3 22 3 42q0 51 -22.5 73.5t-68.5 22.5q-63 0 -112 -47q-34 -32 -46 -98l-40 -285h-80l68 485h74l-6 -64 h8q23 34 64.5 56.5t92.5 22.5q63 0 107 -37t44 -108z" />
<glyph unicode="&#x14c;" horiz-adv-x="673" d="M278 777h255l-8 -61h-255zM640 353q0 -154 -92.5 -259t-223.5 -105q-123 0 -196.5 82t-73.5 209q0 155 94.5 259t237.5 104q111 0 182.5 -82.5t71.5 -207.5zM555 358q0 95 -51 152t-139 57q-104 0 -164.5 -84.5t-60.5 -208.5q0 -94 50 -151.5t137 -57.5q106 0 167 84 t61 209z" />
<glyph unicode="&#x14d;" horiz-adv-x="543" d="M200 644h255l-8 -61h-255zM506 284q0 -126 -74 -210t-191 -84q-91 0 -147 60t-56 157q0 125 74 209t191 84q91 0 147 -59.5t56 -156.5zM425 275q0 70 -33.5 111t-98.5 41q-77 0 -125.5 -61t-48.5 -150q0 -70 33.5 -111t99.5 -41q77 0 125 60.5t48 150.5z" />
<glyph unicode="&#x14e;" horiz-adv-x="673" d="M341 804q-4 -26 13.5 -44.5t47.5 -18.5q30 1 51.5 19t25.5 44h58q-6 -50 -44.5 -83t-92.5 -33q-56 0 -89.5 33.5t-26.5 82.5h57zM640 353q0 -154 -92.5 -259t-223.5 -105q-123 0 -196.5 82t-73.5 209q0 155 94.5 259t237.5 104q111 0 182.5 -82.5t71.5 -207.5zM555 358 q0 95 -51 152t-139 57q-104 0 -164.5 -84.5t-60.5 -208.5q0 -94 50 -151.5t137 -57.5q106 0 167 84t61 209z" />
<glyph unicode="&#x14f;" horiz-adv-x="543" d="M263 671q-4 -26 13.5 -44.5t47.5 -18.5q30 1 51.5 19t25.5 44h58q-6 -50 -44.5 -83t-92.5 -33q-56 0 -89.5 33.5t-26.5 82.5h57zM506 284q0 -126 -74 -210t-191 -84q-91 0 -147 60t-56 157q0 125 74 209t191 84q91 0 147 -59.5t56 -156.5zM425 275q0 70 -33.5 111 t-98.5 41q-77 0 -125.5 -61t-48.5 -150q0 -70 33.5 -111t99.5 -41q77 0 125 60.5t48 150.5z" />
<glyph unicode="&#x150;" horiz-adv-x="673" d="M365 815h88l-134 -137h-68zM546 815h87l-134 -137h-67zM640 353q0 -154 -92.5 -259t-223.5 -105q-123 0 -196.5 82t-73.5 209q0 155 94.5 259t237.5 104q111 0 182.5 -82.5t71.5 -207.5zM555 358q0 95 -51 152t-139 57q-104 0 -164.5 -84.5t-60.5 -208.5q0 -94 50 -151.5 t137 -57.5q106 0 167 84t61 209z" />
<glyph unicode="&#x151;" horiz-adv-x="543" d="M287 682h88l-134 -137h-68zM468 682h87l-134 -137h-67zM506 284q0 -126 -74 -210t-191 -84q-91 0 -147 60t-56 157q0 125 74 209t191 84q91 0 147 -59.5t56 -156.5zM425 275q0 70 -33.5 111t-98.5 41q-77 0 -125.5 -61t-48.5 -150q0 -70 33.5 -111t99.5 -41 q77 0 125 60.5t48 150.5z" />
<glyph unicode="&#x152;" horiz-adv-x="1011" d="M1006 557h-330l-28 -200h290l-11 -76h-290l-29 -205h330l-10 -76h-419l12 84q-82 -95 -208 -95q-123 0 -196.5 82t-73.5 209q0 155 94.5 259t237.5 104q148 0 205 -132l17 122h419zM316 65q106 0 167 84t61 209q0 95 -51 152t-139 57q-104 0 -164.5 -84.5t-60.5 -208.5 q0 -94 50 -151.5t137 -57.5z" />
<glyph unicode="&#x153;" horiz-adv-x="927" d="M694 500q86 0 139.5 -57.5t53.5 -147.5q0 -17 -4 -45l-2 -13h-370q-1 -7 -1 -21q0 -68 36.5 -110t96.5 -42q99 0 145 96l68 -31q-66 -139 -219 -139q-65 0 -110.5 33t-66.5 91h-9q-67 -124 -210 -124q-91 0 -147 60t-56 157q0 125 74 209t191 84q65 0 109.5 -32t63.5 -89 h9q65 121 209 121zM252 64q77 0 125 60.5t48 150.5q0 70 -33.5 111t-98.5 41q-77 0 -125.5 -61t-48.5 -150q0 -70 33.5 -111t99.5 -41zM683 427q-61 0 -101.5 -34t-58.5 -91h282q1 55 -32 90t-90 35z" />
<glyph unicode="&#x154;" horiz-adv-x="617" d="M446 782l-139 -113l-41 34l125 122zM394 256l123 -256h-98l-117 248h-132l-34 -248h-88l87 632h226q100 0 154 -47.5t54 -127.5q0 -83 -45.5 -134t-129.5 -67zM214 556l-33 -232h137q83 0 124.5 30t41.5 104q0 98 -129 98h-141z" />
<glyph unicode="&#x155;" horiz-adv-x="324" d="M342 649l-139 -113l-41 34l125 122zM319 499q14 0 28 -4l-13 -75q-9 3 -27 3q-58 0 -98.5 -35t-49.5 -103l-40 -285h-81l68 485h75l-6 -63h7q24 36 61 56.5t76 20.5z" />
<glyph unicode="&#x156;" horiz-adv-x="617" d="M394 256l123 -256h-98l-117 248h-132l-34 -248h-88l87 632h226q100 0 154 -47.5t54 -127.5q0 -83 -45.5 -134t-129.5 -67zM214 556l-33 -232h137q83 0 124.5 30t41.5 104q0 98 -129 98h-141zM258 -40q21 0 36 -15t11 -38q-3 -21 -11.5 -41t-26.5 -43t-29 -35t-38 -40 l-21 18q60 64 79 108q-21 0 -33.5 12.5t-12.5 31.5q0 17 12.5 29.5t33.5 12.5z" />
<glyph unicode="&#x157;" horiz-adv-x="324" d="M319 499q14 0 28 -4l-13 -75q-9 3 -27 3q-58 0 -98.5 -35t-49.5 -103l-40 -285h-81l68 485h75l-6 -63h7q24 36 61 56.5t76 20.5zM63 -35q21 0 36 -15t11 -38q-3 -21 -11.5 -41t-26.5 -43t-29 -35t-38 -40l-21 18q60 64 79 108q-21 0 -33.5 12.5t-12.5 31.5 q0 17 12.5 29.5t33.5 12.5z" />
<glyph unicode="&#x158;" horiz-adv-x="617" d="M373 683h-65l-82 115l52 20l67 -86l94 86l49 -20zM394 256l123 -256h-98l-117 248h-132l-34 -248h-88l87 632h226q100 0 154 -47.5t54 -127.5q0 -83 -45.5 -134t-129.5 -67zM214 556l-33 -232h137q83 0 124.5 30t41.5 104q0 98 -129 98h-141z" />
<glyph unicode="&#x159;" horiz-adv-x="324" d="M269 550h-65l-82 115l52 20l67 -86l94 86l49 -20zM182 422q24 36 61 56.5t76 20.5q14 0 28 -4l-13 -75q-9 3 -27 3q-58 0 -98.5 -35t-49.5 -103l-40 -285h-81l68 485h75l-6 -63h7z" />
<glyph unicode="&#x15a;" horiz-adv-x="520" d="M376 825l55 -43l-139 -113l-41 34zM435 475q-8 40 -42 65t-84 25q-59 0 -92.5 -28t-33.5 -62q0 -70 115 -113q89 -34 134 -76.5t45 -101.5q0 -89 -70.5 -143t-171.5 -54q-83 0 -139.5 40t-79.5 107l80 41q16 -52 53 -81t89 -29q65 0 108 28t43 77q0 39 -32.5 68 t-103.5 55q-158 58 -158 170q0 77 66 128.5t156 51.5q75 0 127.5 -38t68.5 -91z" />
<glyph unicode="&#x15b;" horiz-adv-x="457" d="M319 692l55 -43l-139 -113l-41 34zM84 144q42 -83 128 -83q44 0 74 19.5t30 55.5q0 10 -3 19t-6.5 15.5t-12 13t-13.5 10.5t-18 9.5t-18 8t-21 8t-20 7.5q-62 23 -95 51t-33 80q0 64 50.5 103.5t124.5 39.5q58 0 103 -25t71 -67l-64 -43q-15 26 -46 45t-71 19 q-39 0 -63 -18.5t-24 -47.5q0 -28 23 -44t75 -34q68 -25 105 -56t37 -88q0 -69 -55 -110.5t-131 -41.5q-71 0 -122.5 35.5t-68.5 80.5z" />
<glyph unicode="&#x15c;" horiz-adv-x="520" d="M343 759l-94 -86l-49 20l115 115h65l82 -115l-52 -20zM298 362q89 -34 134 -76.5t45 -101.5q0 -89 -70.5 -143t-171.5 -54q-83 0 -139.5 40t-79.5 107l80 41q16 -52 53 -81t89 -29q65 0 108 28t43 77q0 39 -32.5 68t-103.5 55q-158 58 -158 170q0 77 66 128.5t156 51.5 q75 0 127.5 -38t68.5 -91l-78 -39q-8 40 -42 65t-84 25q-59 0 -92.5 -28t-33.5 -62q0 -70 115 -113z" />
<glyph unicode="&#x15d;" horiz-adv-x="457" d="M286 626l-94 -86l-49 20l115 115h65l82 -115l-52 -20zM255 286q68 -25 105 -56t37 -88q0 -69 -55 -110.5t-131 -41.5q-71 0 -122.5 35.5t-68.5 80.5l64 38q42 -83 128 -83q44 0 74 19.5t30 55.5q0 10 -3 19t-6.5 15.5t-12 13t-13.5 10.5t-18 9.5t-18 8t-21 8t-20 7.5 q-62 23 -95 51t-33 80q0 64 50.5 103.5t124.5 39.5q58 0 103 -25t71 -67l-64 -43q-15 26 -46 45t-71 19q-39 0 -63 -18.5t-24 -47.5q0 -28 23 -44t75 -34z" />
<glyph unicode="&#x15e;" horiz-adv-x="520" d="M298 362q89 -34 134 -76.5t45 -101.5q0 -81 -58 -133t-147 -62l-127 -187l-63 43l122 144q-71 7 -119 45.5t-69 99.5l80 41q16 -52 53 -81t89 -29q65 0 108 28t43 77q0 39 -32.5 68t-103.5 55q-158 58 -158 170q0 77 66 128.5t156 51.5q75 0 127.5 -38t68.5 -91l-78 -39 q-8 40 -42 65t-84 25q-59 0 -92.5 -28t-33.5 -62q0 -70 115 -113z" />
<glyph unicode="&#x15f;" horiz-adv-x="457" d="M255 286q68 -25 105 -56t37 -88q0 -66 -50 -107t-123 -45l-125 -183l-63 43l123 146q-52 11 -89 42.5t-50 67.5l64 38q42 -83 128 -83q44 0 74 19.5t30 55.5q0 10 -3 19t-6.5 15.5t-12 13t-13.5 10.5t-18 9.5t-18 8t-21 8t-20 7.5q-62 23 -95 51t-33 80q0 64 50.5 103.5 t124.5 39.5q58 0 103 -25t71 -67l-64 -43q-15 26 -46 45t-71 19q-39 0 -63 -18.5t-24 -47.5q0 -28 23 -44t75 -34z" />
<glyph unicode="&#x160;" horiz-adv-x="520" d="M358 683h-65l-82 115l52 20l67 -86l94 86l49 -20zM298 362q89 -34 134 -76.5t45 -101.5q0 -89 -70.5 -143t-171.5 -54q-83 0 -139.5 40t-79.5 107l80 41q16 -52 53 -81t89 -29q65 0 108 28t43 77q0 39 -32.5 68t-103.5 55q-158 58 -158 170q0 77 66 128.5t156 51.5 q75 0 127.5 -38t68.5 -91l-78 -39q-8 40 -42 65t-84 25q-59 0 -92.5 -28t-33.5 -62q0 -70 115 -113z" />
<glyph unicode="&#x161;" horiz-adv-x="457" d="M301 550h-65l-82 115l52 20l67 -86l94 86l49 -20zM255 286q68 -25 105 -56t37 -88q0 -69 -55 -110.5t-131 -41.5q-71 0 -122.5 35.5t-68.5 80.5l64 38q42 -83 128 -83q44 0 74 19.5t30 55.5q0 10 -3 19t-6.5 15.5t-12 13t-13.5 10.5t-18 9.5t-18 8t-21 8t-20 7.5 q-62 23 -95 51t-33 80q0 64 50.5 103.5t124.5 39.5q58 0 103 -25t71 -67l-64 -43q-15 26 -46 45t-71 19q-39 0 -63 -18.5t-24 -47.5q0 -28 23 -44t75 -34z" />
<glyph unicode="&#x162;" horiz-adv-x="535" d="M569 632l-10 -76h-202l-77 -556h-10l-135 -198l-63 43l131 155h-11l77 556h-204l10 76h494z" />
<glyph unicode="&#x163;" horiz-adv-x="347" d="M192 415l-31 -213q-10 -71 8 -100t69 -29q31 0 63 9l-21 -74q-22 -8 -58 -8q-17 0 -25 1l-132 -194l-63 43l140 166q-82 38 -64 165l34 234h-67l10 70h66l16 119l82 10l-18 -129h134l-10 -70h-133z" />
<glyph unicode="&#x164;" horiz-adv-x="535" d="M357 683h-65l-82 115l52 20l67 -86l94 86l49 -20zM569 632l-10 -76h-202l-77 -556h-88l77 556h-204l10 76h494z" />
<glyph unicode="&#x165;" horiz-adv-x="347" d="M337 730l-39 -199h-49l16 189zM219 614l-18 -129h134l-10 -70h-133l-31 -213q-10 -71 8 -100t69 -29q31 0 63 9l-21 -74q-22 -8 -58 -8q-32 0 -58 8t-50 26.5t-33.5 56t-2.5 90.5l34 234h-67l10 70h66l16 119z" />
<glyph unicode="&#x166;" horiz-adv-x="600" d="M559 556h-202l-28 -206h102l-10 -72h-102l-39 -278h-88l39 278h-97l10 72h97l28 206h-204l10 76h494z" />
<glyph unicode="&#x167;" horiz-adv-x="347" d="M325 415h-133l-11 -75h99l-8 -62h-100l-11 -76q-10 -71 8 -100t69 -29q31 0 63 9l-21 -74q-22 -8 -58 -8q-32 0 -58 8t-50 26.5t-33.5 56t-2.5 90.5l14 97h-57l8 62h58l11 75h-67l10 70h66l16 119l82 10l-18 -129h134z" />
<glyph unicode="&#x168;" horiz-adv-x="639" d="M559 780q-15 -50 -42 -78.5t-62 -28.5q-30 0 -62.5 30.5t-51.5 30.5q-42 0 -61 -58l-43 14q15 49 43 78t62 29q29 0 61.5 -31t51.5 -31q42 0 61 59zM130 632h87l-55 -388q-4 -27 -4 -42q0 -142 135 -142q85 0 128 46t56 138l55 388h87l-55 -388q-18 -125 -89 -193 t-193 -68q-104 0 -158 60.5t-54 158.5q0 7 5 42z" />
<glyph unicode="&#x169;" horiz-adv-x="548" d="M277 601q-42 0 -61 -58l-43 14q15 49 43 78t62 29q29 0 61.5 -31t51.5 -31q42 0 61 59l43 -14q-15 -50 -42 -78.5t-62 -28.5q-30 0 -62.5 30.5t-51.5 30.5zM430 485h80l-68 -485h-74l6 64h-8q-23 -34 -64.5 -56.5t-92.5 -22.5q-63 0 -107 37t-44 108q0 9 2 31l45 324h80 l-41 -292q-3 -23 -3 -42q0 -51 22.5 -73.5t68.5 -22.5q63 0 112 47q34 32 46 98z" />
<glyph unicode="&#x16a;" horiz-adv-x="639" d="M266 777h255l-8 -61h-255zM130 632h87l-55 -388q-4 -27 -4 -42q0 -142 135 -142q85 0 128 46t56 138l55 388h87l-55 -388q-18 -125 -89 -193t-193 -68q-104 0 -158 60.5t-54 158.5q0 7 5 42z" />
<glyph unicode="&#x16b;" horiz-adv-x="548" d="M457 644l-8 -61h-255l8 61h255zM430 485h80l-68 -485h-74l6 64h-8q-23 -34 -64.5 -56.5t-92.5 -22.5q-63 0 -107 37t-44 108q0 9 2 31l45 324h80l-41 -292q-3 -23 -3 -42q0 -51 22.5 -73.5t68.5 -22.5q63 0 112 47q34 32 46 98z" />
<glyph unicode="&#x16c;" horiz-adv-x="639" d="M329 804q-4 -26 13.5 -44.5t47.5 -18.5q30 1 51.5 19t25.5 44h58q-6 -50 -44.5 -83t-92.5 -33q-56 0 -89.5 33.5t-26.5 82.5h57zM130 632h87l-55 -388q-4 -27 -4 -42q0 -142 135 -142q85 0 128 46t56 138l55 388h87l-55 -388q-18 -125 -89 -193t-193 -68 q-104 0 -158 60.5t-54 158.5q0 7 5 42z" />
<glyph unicode="&#x16d;" horiz-adv-x="548" d="M324 555q-56 0 -89.5 33.5t-26.5 82.5h57q-4 -26 13.5 -44.5t47.5 -18.5q30 1 51.5 19t25.5 44h58q-6 -50 -44.5 -83t-92.5 -33zM430 485h80l-68 -485h-74l6 64h-8q-23 -34 -64.5 -56.5t-92.5 -22.5q-63 0 -107 37t-44 108q0 9 2 31l45 324h80l-41 -292q-3 -23 -3 -42 q0 -51 22.5 -73.5t68.5 -22.5q63 0 112 47q34 32 46 98z" />
<glyph unicode="&#x16e;" horiz-adv-x="639" d="M384 680q-27 0 -46 18.5t-19 42.5q0 29 22 49t54 20q28 0 46.5 -18.5t18.5 -42.5q0 -30 -21.5 -49.5t-54.5 -19.5zM386 721q28 -2 32 22q2 9 -5.5 17t-20.5 9q-11 1 -19 -6t-10 -16t5 -17t18 -9zM130 632h87l-55 -388q-4 -27 -4 -42q0 -142 135 -142q85 0 128 46t56 138 l55 388h87l-55 -388q-18 -125 -89 -193t-193 -68q-104 0 -158 60.5t-54 158.5q0 7 5 42z" />
<glyph unicode="&#x16f;" horiz-adv-x="548" d="M320 547q-27 0 -46 18.5t-19 42.5q0 29 22 49t54 20q28 0 46.5 -18.5t18.5 -42.5q0 -30 -21.5 -49.5t-54.5 -19.5zM299 614q-2 -9 5 -17t18 -9q28 -2 32 22q2 9 -5.5 17t-20.5 9q-11 1 -19 -6t-10 -16zM430 485h80l-68 -485h-74l6 64h-8q-23 -34 -64.5 -56.5t-92.5 -22.5 q-63 0 -107 37t-44 108q0 9 2 31l45 324h80l-41 -292q-3 -23 -3 -42q0 -51 22.5 -73.5t68.5 -22.5q63 0 112 47q34 32 46 98z" />
<glyph unicode="&#x170;" horiz-adv-x="639" d="M353 815h88l-134 -137h-68zM534 815h87l-134 -137h-67zM130 632h87l-55 -388q-4 -27 -4 -42q0 -142 135 -142q85 0 128 46t56 138l55 388h87l-55 -388q-18 -125 -89 -193t-193 -68q-104 0 -158 60.5t-54 158.5q0 7 5 42z" />
<glyph unicode="&#x171;" horiz-adv-x="548" d="M377 682l-134 -137h-68l114 137h88zM423 545h-67l114 137h87zM390 200l40 285h80l-68 -485h-74l6 64h-8q-23 -34 -64.5 -56.5t-92.5 -22.5q-63 0 -107 37t-44 108q0 9 2 31l45 324h80l-41 -292q-3 -23 -3 -42q0 -51 22.5 -73.5t68.5 -22.5q63 0 112 47q34 32 46 98z" />
<glyph unicode="&#x172;" horiz-adv-x="639" d="M532 632h87l-55 -388q-30 -211 -200 -252q-32 -9 -50 -25.5t-18 -37.5q0 -22 11.5 -32.5t28.5 -10.5q22 0 40 12l26 -54q-33 -24 -85 -24q-39 0 -66 21.5t-27 62.5q0 46 47 79q-98 4 -149.5 63.5t-51.5 155.5q0 7 5 42l55 388h87l-55 -388q-4 -27 -4 -42q0 -142 135 -142 q85 0 128 46t56 138z" />
<glyph unicode="&#x173;" horiz-adv-x="548" d="M415 -106q22 0 40 12l26 -54q-33 -24 -85 -24q-39 0 -66 21.5t-27 62.5q0 54 65 91l6 61h-8q-23 -34 -64.5 -56.5t-92.5 -22.5q-63 0 -107 37t-44 108q0 9 2 31l45 324h80l-41 -292q-3 -23 -3 -42q0 -51 22.5 -73.5t68.5 -22.5q63 0 112 47q34 32 46 98l40 285h80 l-68 -483l1 -2q-32 -9 -50 -25.5t-18 -37.5q0 -22 11.5 -32.5t28.5 -10.5z" />
<glyph unicode="&#x174;" horiz-adv-x="904" d="M529 759l-94 -86l-49 20l115 115h65l82 -115l-52 -20zM850 632h91l-265 -632h-91l-62 325l-35 196l-87 -196l-147 -325h-90l-89 632h91l42 -307l24 -197l86 197l145 307h90l60 -307l31 -195l78 195z" />
<glyph unicode="&#x175;" horiz-adv-x="734" d="M421 626l-94 -86l-49 20l115 115h65l82 -115l-52 -20zM668 485h85l-235 -485h-74l-58 378l-161 -378h-74l-102 485h86l67 -370l156 370h86l53 -369z" />
<glyph unicode="&#x176;" horiz-adv-x="534" d="M343 759l-94 -86l-49 20l115 115h65l82 -115l-52 -20zM574 632l-260 -367l-37 -265h-86l37 263l-158 369h97l71 -166l44 -116l78 116l117 166h97z" />
<glyph unicode="&#x177;" horiz-adv-x="500" d="M309 626l-94 -86l-49 20l115 115h65l82 -115l-52 -20zM514 485l-256 -485l-93 -177h-82l91 178l-120 484h91l85 -404l200 404h84z" />
<glyph unicode="&#x178;" horiz-adv-x="534" d="M249 699q-23 0 -37 14t-14 37q0 22 14 36.5t37 14.5t37 -14.5t14 -36.5q0 -23 -14 -37t-37 -14zM420 699q-23 0 -37 14t-14 37q0 22 14 36.5t37 14.5t37 -14.5t14 -36.5q0 -23 -14 -37t-37 -14zM574 632l-260 -367l-37 -265h-86l37 263l-158 369h97l71 -166l44 -116 l78 116l117 166h97z" />
<glyph unicode="&#x179;" horiz-adv-x="547" d="M438 782l-139 -113l-41 34l125 122zM547 556l-356 -402l-78 -80h366l-10 -74h-458l10 76l359 406l73 76h-364l10 74h458z" />
<glyph unicode="&#x17a;" horiz-adv-x="443" d="M320 692l55 -43l-139 -113l-41 34zM373 0h-376l6 46l324 372h-255l9 67h360l-6 -47l-320 -371h267z" />
<glyph unicode="&#x17b;" horiz-adv-x="547" d="M348 696q-22 0 -37 14.5t-15 35.5q0 23 14.5 38t37.5 15q22 0 36.5 -15t14.5 -38q0 -21 -14.5 -35.5t-36.5 -14.5zM547 556l-356 -402l-78 -80h366l-10 -74h-458l10 76l359 406l73 76h-364l10 74h458z" />
<glyph unicode="&#x17c;" horiz-adv-x="443" d="M336 613q0 -21 -14.5 -35.5t-36.5 -14.5t-37 14.5t-15 35.5q0 23 14.5 38t37.5 15q22 0 36.5 -15t14.5 -38zM373 0h-376l6 46l324 372h-255l9 67h360l-6 -47l-320 -371h267z" />
<glyph unicode="&#x17d;" horiz-adv-x="547" d="M365 683h-65l-82 115l52 20l67 -86l94 86l49 -20zM547 556l-356 -402l-78 -80h366l-10 -74h-458l10 76l359 406l73 76h-364l10 74h458z" />
<glyph unicode="&#x17e;" horiz-adv-x="443" d="M302 550h-65l-82 115l52 20l67 -86l94 86l49 -20zM441 485l-6 -47l-320 -371h267l-9 -67h-376l6 46l324 372h-255l9 67h360z" />
<glyph unicode="&#x18f;" horiz-adv-x="625" d="M359 644q107 0 171 -76.5t64 -199.5q0 -161 -87.5 -270.5t-230.5 -109.5q-111 0 -170.5 65.5t-59.5 172.5q0 37 8 82l2 12h452q4 38 4 54q0 90 -44.5 141.5t-117.5 51.5q-68 0 -111.5 -28t-77.5 -92l-69 33q29 68 103 116t164 48zM278 68q77 0 132 46.5t80 128.5h-361 q-1 -8 -1 -23q0 -71 38 -111.5t112 -40.5z" />
<glyph unicode="&#x192;" horiz-adv-x="323" d="M295 674q-74 0 -90 -103l-12 -86h111l-8 -67h-112l-63 -454q-12 -82 -57 -125t-110 -43q-58 0 -95 28l34 66q27 -19 58 -19q77 0 90 103l62 444h-74l9 67h74l14 95q12 82 57 125.5t110 43.5q54 0 94 -29l-35 -67q-25 21 -57 21z" />
<glyph unicode="&#x19d;" horiz-adv-x="673" d="M559 632h88l-88 -632h-73l-285 492l-19 -156l-13 -93l-34 -243q-7 -53 -28.5 -91t-51 -56.5t-58.5 -26.5t-61 -8q-36 0 -56 8v76q31 -9 61 -9q46 0 72 28t35 89l23 164l64 458h83l276 -483l18 144z" />
<glyph unicode="&#x1d5;" horiz-adv-x="639" d="M279 934h255l-8 -61h-255zM299 699q-23 0 -37 14t-14 37q0 22 14 36.5t37 14.5t37 -14.5t14 -36.5q0 -23 -14 -37t-37 -14zM470 699q-23 0 -37 14t-14 37q0 22 14 36.5t37 14.5t37 -14.5t14 -36.5q0 -23 -14 -37t-37 -14zM130 632h87l-55 -388q-4 -27 -4 -42 q0 -142 135 -142q85 0 128 46t56 138l55 388h87l-55 -388q-18 -125 -89 -193t-193 -68q-104 0 -158 60.5t-54 158.5q0 7 5 42z" />
<glyph unicode="&#x1d6;" horiz-adv-x="548" d="M470 801l-8 -61h-255l8 61h255zM235 566q-23 0 -37 14t-14 37q0 22 14 36.5t37 14.5t37 -14.5t14 -36.5q0 -23 -14 -37t-37 -14zM355 617q0 22 14 36.5t37 14.5t37 -14.5t14 -36.5q0 -23 -14 -37t-37 -14t-37 14t-14 37zM430 485h80l-68 -485h-74l6 64h-8 q-23 -34 -64.5 -56.5t-92.5 -22.5q-63 0 -107 37t-44 108q0 9 2 31l45 324h80l-41 -292q-3 -23 -3 -42q0 -51 22.5 -73.5t68.5 -22.5q63 0 112 47q34 32 46 98z" />
<glyph unicode="&#x1d7;" horiz-adv-x="639" d="M439 982l55 -43l-139 -113l-41 34zM299 699q-23 0 -37 14t-14 37q0 22 14 36.5t37 14.5t37 -14.5t14 -36.5q0 -23 -14 -37t-37 -14zM470 699q-23 0 -37 14t-14 37q0 22 14 36.5t37 14.5t37 -14.5t14 -36.5q0 -23 -14 -37t-37 -14zM130 632h87l-55 -388q-4 -27 -4 -42 q0 -142 135 -142q85 0 128 46t56 138l55 388h87l-55 -388q-18 -125 -89 -193t-193 -68q-104 0 -158 60.5t-54 158.5q0 7 5 42z" />
<glyph unicode="&#x1d8;" horiz-adv-x="548" d="M430 806l-139 -113l-41 34l125 122zM235 566q-23 0 -37 14t-14 37q0 22 14 36.5t37 14.5t37 -14.5t14 -36.5q0 -23 -14 -37t-37 -14zM355 617q0 22 14 36.5t37 14.5t37 -14.5t14 -36.5q0 -23 -14 -37t-37 -14t-37 14t-14 37zM430 485h80l-68 -485h-74l6 64h-8 q-23 -34 -64.5 -56.5t-92.5 -22.5q-63 0 -107 37t-44 108q0 9 2 31l45 324h80l-41 -292q-3 -23 -3 -42q0 -51 22.5 -73.5t68.5 -22.5q63 0 112 47q34 32 46 98z" />
<glyph unicode="&#x1d9;" horiz-adv-x="639" d="M421 840h-65l-82 115l52 20l67 -86l94 86l49 -20zM299 699q-23 0 -37 14t-14 37q0 22 14 36.5t37 14.5t37 -14.5t14 -36.5q0 -23 -14 -37t-37 -14zM419 750q0 22 14 36.5t37 14.5t37 -14.5t14 -36.5q0 -23 -14 -37t-37 -14t-37 14t-14 37zM532 632h87l-55 -388 q-18 -125 -89 -193t-193 -68q-104 0 -158 60.5t-54 158.5q0 7 5 42l55 388h87l-55 -388q-4 -27 -4 -42q0 -142 135 -142q85 0 128 46t56 138z" />
<glyph unicode="&#x1da;" horiz-adv-x="548" d="M357 707h-65l-82 115l52 20l67 -86l94 86l49 -20zM235 566q-23 0 -37 14t-14 37q0 22 14 36.5t37 14.5t37 -14.5t14 -36.5q0 -23 -14 -37t-37 -14zM355 617q0 22 14 36.5t37 14.5t37 -14.5t14 -36.5q0 -23 -14 -37t-37 -14t-37 14t-14 37zM430 485h80l-68 -485h-74l6 64 h-8q-23 -34 -64.5 -56.5t-92.5 -22.5q-63 0 -107 37t-44 108q0 9 2 31l45 324h80l-41 -292q-3 -23 -3 -42q0 -51 22.5 -73.5t68.5 -22.5q63 0 112 47q34 32 46 98z" />
<glyph unicode="&#x1db;" horiz-adv-x="639" d="M323 978l137 -118l-40 -36l-150 109zM299 699q-23 0 -37 14t-14 37q0 22 14 36.5t37 14.5t37 -14.5t14 -36.5q0 -23 -14 -37t-37 -14zM470 699q-23 0 -37 14t-14 37q0 22 14 36.5t37 14.5t37 -14.5t14 -36.5q0 -23 -14 -37t-37 -14zM130 632h87l-55 -388q-4 -27 -4 -42 q0 -142 135 -142q85 0 128 46t56 138l55 388h87l-55 -388q-18 -125 -89 -193t-193 -68q-104 0 -158 60.5t-54 158.5q0 7 5 42z" />
<glyph unicode="&#x1dc;" horiz-adv-x="548" d="M396 727l-40 -36l-150 109l53 45zM235 566q-23 0 -37 14t-14 37q0 22 14 36.5t37 14.5t37 -14.5t14 -36.5q0 -23 -14 -37t-37 -14zM355 617q0 22 14 36.5t37 14.5t37 -14.5t14 -36.5q0 -23 -14 -37t-37 -14t-37 14t-14 37zM430 485h80l-68 -485h-74l6 64h-8 q-23 -34 -64.5 -56.5t-92.5 -22.5q-63 0 -107 37t-44 108q0 9 2 31l45 324h80l-41 -292q-3 -23 -3 -42q0 -51 22.5 -73.5t68.5 -22.5q63 0 112 47q34 32 46 98z" />
<glyph unicode="&#x1e6;" horiz-adv-x="682" d="M406 683h-65l-82 115l52 20l67 -86l94 86l49 -20zM393 216l10 70h219l-40 -286h-56v85q-72 -96 -202 -96q-123 0 -196.5 82t-73.5 209q0 157 91.5 260t222.5 103q96 0 165.5 -53.5t89.5 -141.5l-79 -32q-14 70 -61.5 110.5t-117.5 40.5q-104 0 -164.5 -84.5t-60.5 -208.5 q0 -94 50 -151.5t137 -57.5q68 0 121 40.5t76 110.5h-131z" />
<glyph unicode="&#x1e7;" horiz-adv-x="574" d="M334 550h-65l-82 115l52 20l67 -86l94 86l49 -20zM456 485h80l-58 -410q-18 -126 -87.5 -191.5t-181.5 -65.5q-68 0 -119 25t-76 65l49 56q49 -73 146 -73q161 0 188 175h-9q-57 -76 -169 -76q-79 0 -130 61t-51 157q0 123 72 207.5t182 84.5q107 0 145 -77h10zM239 63 q68 0 116 41.5t63 122.5l4 29q1 8 1 20q0 70 -35.5 110.5t-95.5 40.5q-84 0 -129 -61.5t-45 -156.5q0 -67 32 -106.5t89 -39.5z" />
<glyph unicode="&#x1ea;" horiz-adv-x="673" d="M344 -10q-52 -21 -52 -58q0 -22 11.5 -32.5t28.5 -10.5q22 0 40 12l26 -54q-33 -24 -85 -24q-39 0 -66 21.5t-27 62.5q0 50 57 86q-103 16 -163 94.5t-60 192.5q0 155 94.5 259t237.5 104q111 0 182.5 -82.5t71.5 -207.5q0 -148 -85.5 -251.5t-210.5 -111.5zM140 274 q0 -94 50 -151.5t137 -57.5q106 0 167 84t61 209q0 95 -51 152t-139 57q-104 0 -164.5 -84.5t-60.5 -208.5z" />
<glyph unicode="&#x1eb;" horiz-adv-x="543" d="M296 -4q-54 -21 -54 -59q0 -22 11.5 -32.5t28.5 -10.5q22 0 40 12l26 -54q-33 -24 -85 -24q-39 0 -66 21.5t-27 62.5q0 46 47 79q-81 8 -130 67t-49 149q0 125 74 209t191 84q91 0 147 -59.5t56 -156.5q0 -110 -57.5 -189.5t-152.5 -98.5zM119 216q0 -70 33.5 -111 t99.5 -41q77 0 125 60.5t48 150.5q0 70 -33.5 111t-98.5 41q-77 0 -125.5 -61t-48.5 -150z" />
<glyph unicode="&#x1fa;" horiz-adv-x="593" d="M473 938l-139 -113l-41 34l125 122zM358 681q-27 0 -46 18.5t-19 42.5q0 29 22 49t54 20q28 0 46.5 -18.5t18.5 -42.5q0 -30 -21.5 -49.5t-54.5 -19.5zM337 748q-2 -9 5 -17t18 -9q28 -2 32 22q2 9 -5.5 17t-20.5 9q-11 1 -19 -6t-10 -16zM450 0l-35 156h-264l-79 -156 h-90l327 633h85l149 -633h-93zM186 225h214l-36 162l-30 134l-66 -134z" />
<glyph unicode="&#x1fb;" horiz-adv-x="573" d="M440 808l-139 -113l-41 34l125 122zM325 551q-27 0 -46 18.5t-19 42.5q0 29 22 49t54 20q28 0 46.5 -18.5t18.5 -42.5q0 -30 -21.5 -49.5t-54.5 -19.5zM304 618q-2 -9 5 -17t18 -9q28 -2 32 22q2 9 -5.5 17t-20.5 9q-11 1 -19 -6t-10 -16zM458 485h77l-68 -485h-77l7 66 h-9q-57 -76 -169 -76q-79 0 -130 61t-51 157q0 123 72 207.5t182 84.5q107 0 145 -77h11zM239 63q68 0 116 41.5t63 122.5l4 29q1 8 1 20q0 70 -35.5 110.5t-95.5 40.5q-84 0 -129 -61.5t-45 -156.5q0 -67 32 -106.5t89 -39.5z" />
<glyph unicode="&#x1fc;" horiz-adv-x="876" d="M607 783l-139 -113l-41 34l125 122zM871 557h-330l-28 -200h290l-11 -76h-290l-29 -205h330l-10 -76h-419l22 156h-220l-106 -156h-88l439 633h460zM223 225h182l47 338l-118 -176z" />
<glyph unicode="&#x1fd;" horiz-adv-x="931" d="M636 653l-139 -113l-41 34l125 122zM698 500q86 0 139.5 -57.5t53.5 -147.5q0 -17 -4 -45l-2 -13h-370q-1 -7 -1 -21q0 -68 36.5 -110t96.5 -42q99 0 145 96l68 -31q-66 -139 -219 -139q-113 0 -153 76h-12l-9 -66h-77l7 66h-9q-57 -76 -169 -76q-79 0 -130 61t-51 157 q0 123 72 207.5t182 84.5q107 0 145 -77h11l10 62h77l-9 -62h7q66 77 165 77zM239 63q68 0 116 41.5t63 122.5l4 29q1 8 1 20q0 70 -35.5 110.5t-95.5 40.5q-84 0 -129 -61.5t-45 -156.5q0 -67 32 -106.5t89 -39.5zM687 427q-61 0 -101.5 -34t-58.5 -91h281q-3 56 -34 90.5 t-87 34.5z" />
<glyph unicode="&#x1fe;" horiz-adv-x="673" d="M493 782l-139 -113l-41 34l125 122zM573 556q67 -83 67 -203q0 -154 -92.5 -259t-223.5 -105q-106 0 -177 63l-44 -53l-46 38l50 59q-53 78 -53 184q0 155 94.5 259t237.5 104q80 0 143 -46l35 41l46 -38zM140 274q0 -63 23 -111l314 371q-47 33 -112 33 q-104 0 -164.5 -84.5t-60.5 -208.5zM327 65q106 0 167 84t61 209q0 80 -37 134l-319 -379q50 -48 128 -48z" />
<glyph unicode="&#x1ff;" horiz-adv-x="543" d="M415 649l-139 -113l-41 34l125 122zM463 425q43 -57 43 -141q0 -126 -74 -210t-191 -84q-67 0 -118 35l-31 -36l-46 38l34 40q-42 58 -42 140q0 125 74 209t191 84q66 0 116 -33l32 37l46 -38zM119 216q0 -49 16 -84l233 275q-29 20 -75 20q-77 0 -125.5 -61t-48.5 -150z M252 64q77 0 125 60.5t48 150.5q0 49 -17 86l-234 -275q31 -22 78 -22z" />
<glyph unicode="&#x218;" horiz-adv-x="520" d="M298 362q89 -34 134 -76.5t45 -101.5q0 -89 -70.5 -143t-171.5 -54q-83 0 -139.5 40t-79.5 107l80 41q16 -52 53 -81t89 -29q65 0 108 28t43 77q0 39 -32.5 68t-103.5 55q-158 58 -158 170q0 77 66 128.5t156 51.5q75 0 127.5 -38t68.5 -91l-78 -39q-8 40 -42 65t-84 25 q-59 0 -92.5 -28t-33.5 -62q0 -70 115 -113zM232 -40q21 0 36 -15t11 -38q-3 -21 -11.5 -41t-26.5 -43t-29 -35t-38 -40l-21 18q60 64 79 108q-21 0 -33.5 12.5t-12.5 31.5q0 17 12.5 29.5t33.5 12.5z" />
<glyph unicode="&#x219;" horiz-adv-x="457" d="M255 286q68 -25 105 -56t37 -88q0 -69 -55 -110.5t-131 -41.5q-71 0 -122.5 35.5t-68.5 80.5l64 38q42 -83 128 -83q44 0 74 19.5t30 55.5q0 10 -3 19t-6.5 15.5t-12 13t-13.5 10.5t-18 9.5t-18 8t-21 8t-20 7.5q-62 23 -95 51t-33 80q0 64 50.5 103.5t124.5 39.5 q58 0 103 -25t71 -67l-64 -43q-15 26 -46 45t-71 19q-39 0 -63 -18.5t-24 -47.5q0 -28 23 -44t75 -34zM186 -35q21 0 36 -15t11 -38q-3 -21 -11.5 -41t-26.5 -43t-29 -35t-38 -40l-21 18q60 64 79 108q-21 0 -33.5 12.5t-12.5 31.5q0 17 12.5 29.5t33.5 12.5z" />
<glyph unicode="&#x21a;" horiz-adv-x="535" d="M569 632l-10 -76h-202l-77 -556h-88l77 556h-204l10 76h494zM222 -40q21 0 36 -15t11 -38q-3 -21 -11.5 -41t-26.5 -43t-29 -35t-38 -40l-21 18q60 64 79 108q-21 0 -33.5 12.5t-12.5 31.5q0 17 12.5 29.5t33.5 12.5z" />
<glyph unicode="&#x21b;" horiz-adv-x="347" d="M192 415l-31 -213q-10 -71 8 -100t69 -29q31 0 63 9l-21 -74q-22 -8 -58 -8q-32 0 -58 8t-50 26.5t-33.5 56t-2.5 90.5l34 234h-67l10 70h66l16 119l82 10l-18 -129h134l-10 -70h-133zM152 -35q21 0 36 -15t11 -38q-3 -21 -11.5 -41t-26.5 -43t-29 -35t-38 -40l-21 18 q60 64 79 108q-21 0 -33.5 12.5t-12.5 31.5q0 17 12.5 29.5t33.5 12.5z" />
<glyph unicode="&#x232;" horiz-adv-x="534" d="M471 777l-8 -61h-255l8 61h255zM574 632l-260 -367l-37 -265h-86l37 263l-158 369h97l71 -166l44 -116l78 116l117 166h97z" />
<glyph unicode="&#x233;" horiz-adv-x="500" d="M437 644l-8 -61h-255l8 61h255zM514 485l-256 -485l-93 -177h-82l91 178l-120 484h91l85 -404l200 404h84z" />
<glyph unicode="&#x237;" horiz-adv-x="220" d="M184 485l-34 -242l-34 -244q-7 -53 -28 -90.5t-49.5 -56t-57 -26.5t-60.5 -8q-36 0 -56 8v74q31 -9 61 -9q51 0 77 29t36 100l12 89l53 376h80z" />
<glyph unicode="&#x259;" horiz-adv-x="535" d="M290 500q91 0 149.5 -61.5t58.5 -155.5q0 -126 -73 -209.5t-192 -83.5q-86 0 -139.5 57.5t-53.5 147.5q0 17 4 45l2 13h370q1 7 1 21q0 68 -36.5 110t-96.5 42q-99 0 -145 -96l-68 31q66 139 219 139zM244 63q61 0 101.5 34t58.5 91h-282q-1 -55 32 -90t90 -35z" />
<glyph unicode="&#x272;" horiz-adv-x="547" d="M339 500q63 0 107 -37t44 -108q0 -9 -2 -31l-45 -324h-80l41 292q3 22 3 42q0 51 -22.5 73.5t-68.5 22.5q-63 0 -112 -47q-34 -32 -46 -98l-30 -213l-10 -73q-7 -53 -28 -90.5t-49.5 -56t-57 -26.5t-60.5 -8q-36 0 -56 8v74q31 -9 61 -9q49 0 74.5 26.5t36.5 91.5l25 175 l8 59l34 242h74l-6 -64h8q23 34 64.5 56.5t92.5 22.5z" />
<glyph unicode="&#x2c6;" horiz-adv-x="390" d="M361 695l-52 -20l-67 86l-94 -86l-49 20l115 115h65z" />
<glyph unicode="&#x2c7;" horiz-adv-x="359" d="M398 846l-134 -138h-78l-93 138h65l72 -97l102 97h66z" />
<glyph unicode="&#x2c9;" horiz-adv-x="326" d="M101 808h255l-18 -61h-255z" />
<glyph unicode="&#x2d8;" horiz-adv-x="327" d="M188 827q-4 -26 13.5 -44.5t47.5 -18.5q30 1 51.5 19t25.5 44h58q-6 -50 -44.5 -83t-92.5 -33q-56 0 -89.5 33.5t-26.5 82.5h57z" />
<glyph unicode="&#x2d9;" horiz-adv-x="277" d="M190 728q-18 0 -30.5 12t-12.5 30t12.5 30.5t30.5 12.5q19 0 32 -13t13 -30t-13 -29.5t-32 -12.5z" />
<glyph unicode="&#x2da;" horiz-adv-x="300" d="M198 713q-27 0 -46 18.5t-19 42.5q0 29 22 49t54 20q28 0 46.5 -18.5t18.5 -42.5q0 -30 -21.5 -49.5t-54.5 -19.5zM200 754q28 -2 32 22q2 9 -5.5 17t-20.5 9q-11 1 -19 -6t-10 -16t5 -17t18 -9z" />
<glyph unicode="&#x2db;" horiz-adv-x="273" d="M199 0q-71 -19 -77 -63q-3 -22 7 -32.5t27 -10.5q22 0 42 12l18 -54q-36 -24 -88 -24q-35 0 -58.5 21t-23.5 55q0 49 43.5 79.5t101.5 44.5z" />
<glyph unicode="&#x2dc;" horiz-adv-x="355" d="M318 812q-15 -50 -42 -78.5t-62 -28.5q-30 0 -62.5 30.5t-51.5 30.5q-42 0 -61 -58l-43 14q15 49 43 78t62 29q29 0 61.5 -31t51.5 -31q42 0 61 59z" />
<glyph unicode="&#x2dd;" horiz-adv-x="388" d="M209 846h88l-134 -137h-68zM390 846h87l-134 -137h-67z" />
<glyph unicode="&#x300;" horiz-adv-x="0" d="M-312 852l137 -118l-40 -36l-150 109z" />
<glyph unicode="&#x301;" horiz-adv-x="0" d="M-353 856l55 -43l-139 -113l-41 34z" />
<glyph unicode="&#x302;" horiz-adv-x="0" d="M-239 695l-52 -20l-67 86l-94 -86l-49 20l115 115h65z" />
<glyph unicode="&#x303;" horiz-adv-x="0" d="M-282 812q-15 -50 -42 -78.5t-62 -28.5q-30 0 -62.5 30.5t-51.5 30.5q-42 0 -61 -58l-43 14q15 49 43 78t62 29q29 0 61.5 -31t51.5 -31q42 0 61 59z" />
<glyph unicode="&#x304;" horiz-adv-x="0" d="M-504 808h255l-8 -61h-255z" />
<glyph unicode="&#x306;" horiz-adv-x="0" d="M-409 829q-4 -26 13.5 -44.5t47.5 -18.5q30 1 51.5 19t25.5 44h58q-6 -50 -44.5 -83t-92.5 -33q-56 0 -89.5 33.5t-26.5 82.5h57z" />
<glyph unicode="&#x307;" horiz-adv-x="0" d="M-439 620q0 -21 -14.5 -35.5t-36.5 -14.5t-37 14.5t-15 35.5q0 23 14.5 38t37.5 15q22 0 36.5 -15t14.5 -38z" />
<glyph unicode="&#x308;" horiz-adv-x="0" d="M-455 731q-23 0 -37 14t-14 37q0 22 14 36.5t37 14.5t37 -14.5t14 -36.5q0 -23 -14 -37t-37 -14zM-284 731q-23 0 -37 14t-14 37q0 22 14 36.5t37 14.5t37 -14.5t14 -36.5q0 -23 -14 -37t-37 -14z" />
<glyph unicode="&#x30a;" horiz-adv-x="0" d="M-402 713q-27 0 -46 18.5t-19 42.5q0 29 22 49t54 20q28 0 46.5 -18.5t18.5 -42.5q0 -30 -21.5 -49.5t-54.5 -19.5zM-400 754q28 -2 32 22q2 9 -5.5 17t-20.5 9q-11 1 -19 -6t-10 -16t5 -17t18 -9z" />
<glyph unicode="&#x30b;" horiz-adv-x="0" d="M-381 846h88l-134 -137h-68zM-200 846h87l-134 -137h-67z" />
<glyph unicode="&#x30c;" horiz-adv-x="0" d="M-279 849l49 -20l-115 -115h-65l-82 115l52 20l67 -86z" />
<glyph unicode="&#x312;" horiz-adv-x="0" d="M-116 721q-40 -37 -56 -69q15 -3 24.5 -14t9.5 -26q0 -20 -14 -32t-35 -12q-20 0 -34 13.5t-14 33.5q0 47 89 131z" />
<glyph unicode="&#x323;" horiz-adv-x="0" d="M-145 -73q19 0 32 -12.5t13 -29.5t-13 -30t-32 -13q-18 0 -30.5 12.5t-12.5 30.5q0 17 12 29.5t31 12.5z" />
<glyph unicode="&#x326;" horiz-adv-x="0" d="M-109 -40q21 0 36 -15t11 -38q-3 -21 -11.5 -41t-26.5 -43t-29 -35t-38 -40l-21 18q60 64 79 108q-21 0 -33.5 12.5t-12.5 31.5q0 17 12.5 29.5t33.5 12.5z" />
<glyph unicode="&#x327;" horiz-adv-x="0" d="M-619 -198l-63 43l144 170l57 -10z" />
<glyph unicode="&#x328;" horiz-adv-x="0" d="M-411 0q-32 -9 -50 -25.5t-18 -37.5q0 -22 11.5 -32.5t28.5 -10.5q22 0 40 12l26 -54q-33 -24 -85 -24q-39 0 -66 21.5t-27 62.5q0 44 40 74t88 42z" />
<glyph unicode="&#x331;" horiz-adv-x="0" />
<glyph unicode="&#x335;" horiz-adv-x="0" d="M-567 278l10 72h287l-10 -72h-287z" />
<glyph unicode="&#x336;" horiz-adv-x="0" />
<glyph unicode="&#x337;" horiz-adv-x="0" d="M-568 297l319 101l20 -59l-319 -101z" />
<glyph unicode="&#x338;" horiz-adv-x="0" d="M9 600l-507 -601l-46 38l507 601z" />
<glyph unicode="&#x394;" horiz-adv-x="593" d="M394 633l149 -633h-561l327 633h85zM112 79h320l-68 308l-30 134l-66 -134z" />
<glyph unicode="&#x3bc;" horiz-adv-x="548" d="M430 485h80l-68 -485h-74l6 64h-8q-23 -34 -64.5 -56.5t-92.5 -22.5q-60 0 -100 31l-17 -193h-80l68 485l25 177h80l-41 -292q-3 -23 -3 -42q0 -51 22.5 -73.5t68.5 -22.5q63 0 112 47q34 32 46 98z" />
<glyph unicode="&#x3c0;" horiz-adv-x="553" d="M450 418l-34 -246q-9 -61 11 -85t68 -24l-11 -73q-35 0 -61.5 6t-51.5 22t-35 49.5t-3 83.5l37 267h-164l-58 -418h-80l58 418h-80l10 67h508l-10 -67h-104z" />
<glyph unicode="&#x1e80;" horiz-adv-x="904" d="M583 703l-40 -36l-150 109l53 45zM850 632h91l-265 -632h-91l-62 325l-35 196l-87 -196l-147 -325h-90l-89 632h91l42 -307l24 -197l86 197l145 307h90l60 -307l31 -195l78 195z" />
<glyph unicode="&#x1e81;" horiz-adv-x="734" d="M475 570l-40 -36l-150 109l53 45zM668 485h85l-235 -485h-74l-58 378l-161 -378h-74l-102 485h86l67 -370l156 370h86l53 -369z" />
<glyph unicode="&#x1e82;" horiz-adv-x="904" d="M617 782l-139 -113l-41 34l125 122zM850 632h91l-265 -632h-91l-62 325l-35 196l-87 -196l-147 -325h-90l-89 632h91l42 -307l24 -197l86 197l145 307h90l60 -307l31 -195l78 195z" />
<glyph unicode="&#x1e83;" horiz-adv-x="734" d="M509 649l-139 -113l-41 34l125 122zM668 485h85l-235 -485h-74l-58 378l-161 -378h-74l-102 485h86l67 -370l156 370h86l53 -369z" />
<glyph unicode="&#x1e84;" horiz-adv-x="904" d="M435 699q-23 0 -37 14t-14 37q0 22 14 36.5t37 14.5t37 -14.5t14 -36.5q0 -23 -14 -37t-37 -14zM606 699q-23 0 -37 14t-14 37q0 22 14 36.5t37 14.5t37 -14.5t14 -36.5q0 -23 -14 -37t-37 -14zM850 632h91l-265 -632h-91l-62 325l-35 196l-87 -196l-147 -325h-90 l-89 632h91l42 -307l24 -197l86 197l145 307h90l60 -307l31 -195l78 195z" />
<glyph unicode="&#x1e85;" horiz-adv-x="734" d="M327 566q-23 0 -37 14t-14 37q0 22 14 36.5t37 14.5t37 -14.5t14 -36.5q0 -23 -14 -37t-37 -14zM498 566q-23 0 -37 14t-14 37q0 22 14 36.5t37 14.5t37 -14.5t14 -36.5q0 -23 -14 -37t-37 -14zM668 485h85l-235 -485h-74l-58 378l-161 -378h-74l-102 485h86l67 -370 l156 370h86l53 -369z" />
<glyph unicode="&#x1ea0;" horiz-adv-x="593" d="M543 0h-93l-35 156h-264l-79 -156h-90l327 633h85zM186 225h214l-36 162l-30 134l-66 -134zM241 -73q19 0 32 -12.5t13 -29.5t-13 -30t-32 -13q-18 0 -30.5 12.5t-12.5 30.5q0 17 12 29.5t31 12.5z" />
<glyph unicode="&#x1ea1;" horiz-adv-x="573" d="M458 485h77l-68 -485h-77l7 66h-9q-57 -76 -169 -76q-79 0 -130 61t-51 157q0 123 72 207.5t182 84.5q107 0 145 -77h11zM239 63q68 0 116 41.5t63 122.5l4 29q1 8 1 20q0 70 -35.5 110.5t-95.5 40.5q-84 0 -129 -61.5t-45 -156.5q0 -67 32 -106.5t89 -39.5zM236 -73 q19 0 32 -12.5t13 -29.5t-13 -30t-32 -13q-18 0 -30.5 12.5t-12.5 30.5q0 17 12.5 29.5t30.5 12.5z" />
<glyph unicode="&#x1eb8;" horiz-adv-x="549" d="M214 557l-28 -200h290l-11 -76h-290l-29 -205h330l-10 -76h-419l88 633h419l-10 -76h-330zM243 -73q19 0 32 -12.5t13 -29.5t-13 -30t-32 -13q-18 0 -30.5 12.5t-12.5 30.5q0 17 12 29.5t31 12.5z" />
<glyph unicode="&#x1eb9;" horiz-adv-x="536" d="M303 500q86 0 139.5 -57.5t53.5 -147.5q0 -17 -4 -45l-2 -13h-370q-1 -7 -1 -21q0 -68 36.5 -110t96.5 -42q99 0 145 96l68 -31q-66 -139 -219 -139q-91 0 -149.5 61.5t-58.5 155.5q0 126 73 209.5t192 83.5zM292 427q-61 0 -101.5 -34t-58.5 -91h282q1 55 -32 90t-90 35 zM201 -68q19 0 32 -12.5t13 -29.5t-13 -30t-32 -13q-18 0 -30.5 12.5t-12.5 30.5t12 30t31 12z" />
<glyph unicode="&#x1ebc;" horiz-adv-x="549" d="M537 780q-15 -50 -42 -78.5t-62 -28.5q-30 0 -62.5 30.5t-51.5 30.5q-42 0 -61 -58l-43 14q15 49 43 78t62 29q29 0 61.5 -31t51.5 -31q42 0 61 59zM214 557l-28 -200h290l-11 -76h-290l-29 -205h330l-10 -76h-419l88 633h419l-10 -76h-330z" />
<glyph unicode="&#x1ebd;" horiz-adv-x="536" d="M271 601q-42 0 -61 -58l-43 14q15 49 43 78t62 29q29 0 61.5 -31t51.5 -31q42 0 61 59l43 -14q-15 -50 -42 -78.5t-62 -28.5q-30 0 -62.5 30.5t-51.5 30.5zM303 500q86 0 139.5 -57.5t53.5 -147.5q0 -17 -4 -45l-2 -13h-370q-1 -7 -1 -21q0 -68 36.5 -110t96.5 -42 q99 0 145 96l68 -31q-66 -139 -219 -139q-91 0 -149.5 61.5t-58.5 155.5q0 126 73 209.5t192 83.5zM292 427q-61 0 -101.5 -34t-58.5 -91h282q1 55 -32 90t-90 35z" />
<glyph unicode="&#x1eca;" horiz-adv-x="249" d="M223 632l-88 -632h-88l88 632h88zM75 -73q19 0 32 -12.5t13 -29.5t-13 -30t-32 -13q-18 0 -30.5 12.5t-12.5 30.5q0 17 12 29.5t31 12.5z" />
<glyph unicode="&#x1ecb;" horiz-adv-x="222" d="M221 633q0 -23 -16 -38.5t-39 -15.5q-24 0 -40 15.5t-16 38.5q0 25 16 41t40 16q23 0 39 -16t16 -41zM116 0h-80l68 485h80zM46 -73q19 0 32 -12.5t13 -29.5t-13 -30t-32 -13q-18 0 -30.5 12.5t-12.5 30.5q0 17 12.5 29.5t30.5 12.5z" />
<glyph unicode="&#x1ecc;" horiz-adv-x="673" d="M640 353q0 -154 -92.5 -259t-223.5 -105q-123 0 -196.5 82t-73.5 209q0 155 94.5 259t237.5 104q111 0 182.5 -82.5t71.5 -207.5zM555 358q0 95 -51 152t-139 57q-104 0 -164.5 -84.5t-60.5 -208.5q0 -94 50 -151.5t137 -57.5q106 0 167 84t61 209zM284 -73 q19 0 32 -12.5t13 -29.5t-13 -30t-32 -13q-18 0 -30.5 12.5t-12.5 30.5q0 17 12.5 29.5t30.5 12.5z" />
<glyph unicode="&#x1ecd;" horiz-adv-x="543" d="M506 284q0 -126 -74 -210t-191 -84q-91 0 -147 60t-56 157q0 125 74 209t191 84q91 0 147 -59.5t56 -156.5zM425 275q0 70 -33.5 111t-98.5 41q-77 0 -125.5 -61t-48.5 -150q0 -70 33.5 -111t99.5 -41q77 0 125 60.5t48 150.5zM210 -68q19 0 32 -12.5t13 -29.5t-13 -30 t-32 -13q-18 0 -30.5 12.5t-12.5 30.5t12.5 30t30.5 12z" />
<glyph unicode="&#x1ee4;" horiz-adv-x="639" d="M130 632h87l-55 -388q-4 -27 -4 -42q0 -142 135 -142q85 0 128 46t56 138l55 388h87l-55 -388q-18 -125 -89 -193t-193 -68q-104 0 -158 60.5t-54 158.5q0 7 5 42zM267 -73q19 0 32 -12.5t13 -29.5t-13 -30t-32 -13q-18 0 -30.5 12.5t-12.5 30.5q0 17 12 29.5t31 12.5z " />
<glyph unicode="&#x1ee5;" horiz-adv-x="548" d="M430 485h80l-68 -485h-74l6 64h-8q-23 -34 -64.5 -56.5t-92.5 -22.5q-63 0 -107 37t-44 108q0 9 2 31l45 324h80l-41 -292q-3 -23 -3 -42q0 -51 22.5 -73.5t68.5 -22.5q63 0 112 47q34 32 46 98zM216 -68q19 0 32 -12.5t13 -29.5t-13 -30t-32 -13q-18 0 -30.5 12.5 t-12.5 30.5t12.5 30t30.5 12z" />
<glyph unicode="&#x1ef2;" horiz-adv-x="534" d="M397 703l-40 -36l-150 109l53 45zM574 632l-260 -367l-37 -265h-86l37 263l-158 369h97l71 -166l44 -116l78 116l117 166h97z" />
<glyph unicode="&#x1ef3;" horiz-adv-x="500" d="M363 570l-40 -36l-150 109l53 45zM514 485l-256 -485l-93 -177h-82l91 178l-120 484h91l85 -404l200 404h84z" />
<glyph unicode="&#x1ef8;" horiz-adv-x="534" d="M291 734q-42 0 -61 -58l-43 14q15 49 43 78t62 29q29 0 61.5 -31t51.5 -31q42 0 61 59l43 -14q-15 -50 -42 -78.5t-62 -28.5q-30 0 -62.5 30.5t-51.5 30.5zM574 632l-260 -367l-37 -265h-86l37 263l-158 369h97l71 -166l44 -116l78 116l117 166h97z" />
<glyph unicode="&#x1ef9;" horiz-adv-x="500" d="M257 601q-42 0 -61 -58l-43 14q15 49 43 78t62 29q29 0 61.5 -31t51.5 -31q42 0 61 59l43 -14q-15 -50 -42 -78.5t-62 -28.5q-30 0 -62.5 30.5t-51.5 30.5zM514 485l-256 -485l-93 -177h-82l91 178l-120 484h91l85 -404l200 404h84z" />
<glyph unicode="&#x2013;" horiz-adv-x="401" d="M33 274l10 76h345l-10 -76h-345z" />
<glyph unicode="&#x2014;" horiz-adv-x="626" d="M33 274l10 76h570l-10 -76h-570z" />
<glyph unicode="&#x2018;" horiz-adv-x="167" d="M119 522q22 -1 36 -15.5t14 -35.5q0 -20 -14 -34.5t-37 -14.5t-38.5 17t-14.5 48v1q2 74 76 158l29 -20q-49 -61 -61 -104h10z" />
<glyph unicode="&#x2019;" horiz-adv-x="168" d="M131 646q23 0 38.5 -17t14.5 -48v-1q-2 -74 -76 -158l-29 20q49 61 61 104h-10q-22 1 -36 15.5t-14 35.5q0 20 14 34.5t37 14.5z" />
<glyph unicode="&#x201a;" horiz-adv-x="216" d="M72 105q27 0 45 -19.5t18 -54.5q0 -11 -2 -22t-4 -20.5t-7.5 -21.5t-8.5 -19.5t-11.5 -20.5t-12 -19t-14.5 -20.5t-14.5 -19.5t-16.5 -21t-16 -20l-34 24q70 84 87 141h-9q-26 0 -41.5 16.5t-15.5 40.5q0 23 16 39.5t41 16.5z" />
<glyph unicode="&#x201c;" horiz-adv-x="314" d="M141 646l29 -20q-49 -61 -61 -104h10q22 -1 36 -15.5t14 -35.5q0 -20 -14 -34.5t-37 -14.5t-38.5 17t-14.5 48v1q2 74 76 158zM266 522q22 -1 36 -15.5t14 -35.5q0 -20 -14 -34.5t-37 -14.5t-38.5 17t-14.5 48v1q2 74 76 158l29 -20q-49 -61 -61 -104h10z" />
<glyph unicode="&#x201d;" horiz-adv-x="315" d="M131 646q23 0 38.5 -17t14.5 -48v-1q-2 -74 -76 -158l-29 20q49 61 61 104h-10q-22 1 -36 15.5t-14 35.5q0 20 14 34.5t37 14.5zM278 646q23 0 38.5 -17t14.5 -48v-1q-2 -74 -76 -158l-29 20q49 61 61 104h-10q-22 1 -36 15.5t-14 35.5q0 20 14 34.5t37 14.5z" />
<glyph unicode="&#x201e;" horiz-adv-x="363" d="M72 105q27 0 45 -19.5t18 -54.5q0 -11 -2 -22t-4 -20.5t-7.5 -21.5t-8.5 -19.5t-11.5 -20.5t-12 -19t-14.5 -20.5t-14.5 -19.5t-16.5 -21t-16 -20l-34 24q70 84 87 141h-9q-26 0 -41.5 16.5t-15.5 40.5q0 23 16 39.5t41 16.5zM220 105q27 0 45 -19.5t18 -54.5 q0 -11 -2 -22t-4 -20.5t-7.5 -21.5t-8.5 -19.5t-11.5 -20.5t-12 -19t-14.5 -20.5t-14.5 -19.5t-16.5 -21t-16 -20l-34 24q70 84 87 141h-9q-26 0 -41.5 16.5t-15.5 40.5q0 23 16 39.5t41 16.5z" />
<glyph unicode="&#x2020;" horiz-adv-x="393" d="M411 521l-10 -76h-143l-89 -642h-80l89 642h-129l10 76h129l21 150l82 11l-22 -161h142z" />
<glyph unicode="&#x2021;" horiz-adv-x="392" d="M400 445h-142l-28 -202h142l-11 -76h-141l-51 -364h-80l50 364h-130l11 76h130l28 202h-130l11 76h129l21 150l82 11l-22 -161h142z" />
<glyph unicode="&#x2022;" horiz-adv-x="280" d="M152 200q-48 0 -81 33t-33 79t33 79t81 33q46 0 78 -33t32 -79t-32 -79t-78 -33z" />
<glyph unicode="&#x2026;" horiz-adv-x="602" d="M55 49q0 24 15.5 40t41.5 16t41.5 -16t15.5 -40q0 -25 -15.5 -41t-41.5 -16t-41.5 16t-15.5 41zM254 49q0 24 15.5 40t41.5 16t41.5 -16t15.5 -40q0 -25 -15.5 -41t-41.5 -16t-41.5 16t-15.5 41zM453 49q0 24 15.5 40t41.5 16t41.5 -16t15.5 -40q0 -25 -15.5 -41 t-41.5 -16t-41.5 16t-15.5 41z" />
<glyph unicode="&#x2030;" horiz-adv-x="1005" d="M37 536q0 59 41.5 101t99.5 42q60 0 102 -42t42 -101t-42 -100t-102 -41q-59 0 -100 41t-41 100zM535 670h55l-439 -668h-55zM92 536q0 -36 25.5 -61t60.5 -25q37 0 62.5 25t25.5 61q0 37 -25.5 62.5t-62.5 25.5q-35 0 -60.5 -26t-25.5 -62zM649 136q0 -59 -41.5 -101.5 t-99.5 -42.5q-60 0 -102 42.5t-42 101.5t42 100t102 41q59 0 100 -41t41 -100zM967 136q0 -59 -41.5 -101.5t-99.5 -42.5q-59 0 -101 42.5t-42 101.5t42 100t101 41t100 -41t41 -100zM593 136q0 36 -25 61t-60 25q-37 0 -62.5 -25t-25.5 -61q0 -37 25.5 -62.5t62.5 -25.5 q35 0 60 25.5t25 62.5zM912 136q0 36 -25.5 61t-60.5 25q-37 0 -62.5 -25t-25.5 -61q0 -37 25.5 -62.5t62.5 -25.5q35 0 60.5 25.5t25.5 62.5z" />
<glyph unicode="&#x2039;" horiz-adv-x="269" d="M254 493l-129 -174l78 -168h-83l-79 169l129 173h84z" />
<glyph unicode="&#x203a;" horiz-adv-x="269" d="M171 493l79 -169l-129 -173h-84l129 174l-78 168h83z" />
<glyph unicode="&#x2044;" horiz-adv-x="569" d="M84 0h-74l458 665h74z" />
<glyph unicode="&#x20ac;" horiz-adv-x="623" d="M301 64q60 0 104.5 34.5t68.5 94.5l72 -32q-32 -78 -99 -124.5t-150 -46.5q-93 0 -155.5 53.5t-80.5 142.5h-67l9 65h52q0 39 7 71h-49l9 65h58q34 86 106 138t162 52q84 0 143.5 -48t77.5 -127l-78 -31q-11 61 -52 96.5t-103 35.5q-115 0 -169 -116h198l-9 -65h-210 q-7 -40 -7 -71h207l-9 -65h-191q14 -57 54.5 -89.5t100.5 -32.5z" />
<glyph unicode="&#x2113;" horiz-adv-x="220" d="M116 0h-80l94 671l82 11z" />
<glyph unicode="&#x2116;" horiz-adv-x="964" d="M734 641q75 0 123 -49.5t48 -127.5q0 -94 -60.5 -157t-148.5 -63q-79 0 -128 49.5t-49 128.5q0 94 61 156.5t154 62.5zM375 456l26 178h70l-53 -383h-63l-166 266l-11 -88l-26 -178h-70l53 383h67l163 -265zM700 307q62 0 98 45t36 113q0 51 -30 82t-81 31 q-62 0 -97.5 -44.5t-35.5 -112.5q0 -52 29.5 -83t80.5 -31zM933 298q13 0 20.5 -7.5t7.5 -19.5q0 -11 -7.5 -19t-20.5 -8q-12 0 -19.5 8t-7.5 19q0 12 7.5 19.5t19.5 7.5z" />
<glyph unicode="&#x2117;" horiz-adv-x="770" d="M764 328q0 -152 -102.5 -252t-251.5 -100q-150 0 -252.5 100t-102.5 252t102.5 251.5t252.5 99.5q149 0 251.5 -99.5t102.5 -251.5zM699 327q0 133 -81.5 215t-207.5 82t-208 -82.5t-82 -214.5q0 -131 81.5 -213.5t207.5 -82.5q125 0 207.5 83t82.5 213zM432 532 q151 0 151 -127q0 -62 -38.5 -94t-112.5 -32h-89v-154h-60v407h149zM432 333q49 0 70.5 17t21.5 55q0 39 -21.5 56.5t-70.5 17.5h-89v-146h89z" />
<glyph unicode="&#x2122;" horiz-adv-x="809" d="M358 632l-8 -56h-110l-42 -297h-63l42 297h-110l8 56h283zM726 632h58l-50 -353h-63l15 104l20 124l-134 -174h-35l-87 176l-14 -126l-15 -104h-63l50 353h58l99 -217z" />
<glyph unicode="&#x212e;" horiz-adv-x="636" d="M336 659q88 0 148.5 -44t87 -115t23.5 -161v-12h-409v-165q54 -82 149 -82q135 0 182 120l64 -33q-20 -68 -87 -116t-157 -48q-125 0 -200.5 88.5t-75.5 239.5q0 141 73.5 234.5t201.5 93.5zM186 503v-99h297v99q-44 76 -148 76q-98 0 -149 -76z" />
<glyph unicode="&#x215b;" horiz-adv-x="798" d="M538 665h74l-458 -665h-74zM113 267l47 333h-86l9 64h157l-56 -397h-71zM691 206q58 -28 58 -87q0 -58 -46.5 -91.5t-112.5 -33.5q-70 0 -110 33t-40 82q0 73 87 102q-49 29 -49 78q0 53 43 84t101 31q67 0 103 -31t36 -75q0 -63 -70 -92zM622 350q-33 0 -52.5 -15.5 t-19.5 -43.5q0 -23 17.5 -38.5t46.5 -15.5q32 0 53.5 16t21.5 43q0 24 -18 39t-49 15zM589 51q39 0 63 18t24 50q0 25 -20 42t-57 17q-39 0 -63 -18.5t-24 -49.5q0 -28 21.5 -43.5t55.5 -15.5z" />
<glyph unicode="&#x215c;" horiz-adv-x="878" d="M336 385q0 -60 -44 -93t-110 -33q-60 0 -100.5 29t-47.5 74l65 24q17 -64 85 -64q33 0 56.5 15.5t23.5 48.5q0 55 -103 55l4 29l4 27q105 2 105 64q0 23 -17 36t-44 13q-52 0 -72 -48l-60 21q15 40 52.5 64.5t86.5 24.5q57 0 92 -28.5t35 -74.5q0 -70 -71 -99 q60 -26 60 -85zM628 665h74l-458 -665h-74zM771 206q58 -28 58 -87q0 -58 -46.5 -91.5t-112.5 -33.5q-70 0 -110 33t-40 82q0 73 87 102q-49 29 -49 78q0 53 43 84t101 31q67 0 103 -31t36 -75q0 -63 -70 -92zM702 350q-33 0 -52.5 -15.5t-19.5 -43.5q0 -23 17.5 -38.5 t46.5 -15.5q32 0 53.5 16t21.5 43q0 24 -18 39t-49 15zM669 51q39 0 63 18t24 50q0 25 -20 42t-57 17q-39 0 -63 -18.5t-24 -49.5q0 -28 21.5 -43.5t55.5 -15.5z" />
<glyph unicode="&#x215d;" horiz-adv-x="908" d="M342 418q0 -71 -45 -114t-117 -43q-59 0 -95.5 29.5t-44.5 75.5l63 21q17 -67 78 -67q41 0 64.5 26t23.5 66q0 32 -19 52t-53 20q-46 0 -73 -41l-57 16h1l-4 1l54 206h240l-8 -61h-185l-21 -81q30 19 67 19q58 0 94.5 -34t36.5 -91zM651 665h74l-458 -665h-74zM801 206 q58 -28 58 -87q0 -58 -46.5 -91.5t-112.5 -33.5q-70 0 -110 33t-40 82q0 73 87 102q-49 29 -49 78q0 53 43 84t101 31q67 0 103 -31t36 -75q0 -63 -70 -92zM732 350q-33 0 -52.5 -15.5t-19.5 -43.5q0 -23 17.5 -38.5t46.5 -15.5q32 0 53.5 16t21.5 43q0 24 -18 39t-49 15z M699 51q39 0 63 18t24 50q0 25 -20 42t-57 17q-39 0 -63 -18.5t-24 -49.5q0 -28 21.5 -43.5t55.5 -15.5z" />
<glyph unicode="&#x215e;" horiz-adv-x="828" d="M558 665h74l-458 -665h-74zM126 267h-70q73 189 197 336h-189l8 60h267l-7 -54q-138 -159 -206 -342zM721 206q58 -28 58 -87q0 -58 -46.5 -91.5t-112.5 -33.5q-70 0 -110 33t-40 82q0 73 87 102q-49 29 -49 78q0 53 43 84t101 31q67 0 103 -31t36 -75q0 -63 -70 -92z M652 350q-33 0 -52.5 -15.5t-19.5 -43.5q0 -23 17.5 -38.5t46.5 -15.5q32 0 53.5 16t21.5 43q0 24 -18 39t-49 15zM619 51q39 0 63 18t24 50q0 25 -20 42t-57 17q-39 0 -63 -18.5t-24 -49.5q0 -28 21.5 -43.5t55.5 -15.5z" />
<glyph unicode="&#x2190;" horiz-adv-x="440" d="M434 279h-248l-74 3l40 -46l87 -106l-52 -46l-187 229l249 228l42 -46l-116 -106l-54 -45l75 2h248z" />
<glyph unicode="&#x2191;" horiz-adv-x="458" d="M259 526l201 -217l-53 -46l-93 101l-40 46l-7 -73l-35 -246l-67 -1l34 246l13 74l-53 -47l-121 -100l-39 48z" />
<glyph unicode="&#x2192;" horiz-adv-x="440" d="M253 541l187 -229l-249 -228l-42 46l116 106l54 45l-75 -2h-248l10 67h248l74 -3l-40 46l-87 106z" />
<glyph unicode="&#x2193;" horiz-adv-x="458" d="M419 359l39 -48l-260 -215l-201 217l53 46l93 -101l40 -46l7 73l35 246l67 1l-34 -246l-13 -74l53 47z" />
<glyph unicode="&#x2194;" horiz-adv-x="713" d="M526 541l187 -229l-249 -228l-42 46l116 106l54 45l-75 -2h-331l-74 3l40 -46l87 -106l-52 -46l-187 229l249 228l42 -46l-116 -106l-54 -45l75 2h331l74 -3l-40 46l-87 106z" />
<glyph unicode="&#x2195;" horiz-adv-x="468" d="M290 144l121 100l39 -48l-260 -215l-201 217l53 46l93 -101l40 -46l7 73l35 246l8 55l13 74l-53 -47l-121 -100l-39 48l260 215l201 -217l-53 -46l-93 101l-40 46l-7 -73l-35 -246l-8 -55l-13 -74z" />
<glyph unicode="&#x2202;" horiz-adv-x="570" d="M259 680q128 0 201.5 -101t73.5 -282q0 -138 -64 -222.5t-163 -84.5q-97 0 -155.5 62t-58.5 155q0 95 63 151.5t143 56.5q77 0 147 -44q-12 117 -62.5 180.5t-129.5 62.5q-67 1 -129 -42l-32 53q67 55 166 55zM307 57q66 0 103.5 64t38.5 173q-62 55 -145 55 q-52 0 -91.5 -36t-39.5 -106q0 -64 36.5 -107t97.5 -43z" />
<glyph unicode="&#x220f;" horiz-adv-x="675" d="M713 663l-10 -76h-126l-113 -784h-80l112 784h-218l-113 -784h-80l112 784h-128l10 76h634z" />
<glyph unicode="&#x2211;" horiz-adv-x="326" d="M50 663h426v-66h-330l242 -362l-243 -364h332v-68h-426v65l245 367l-246 368v60z" />
<glyph unicode="&#x2212;" horiz-adv-x="562" d="M68 355h424v-65h-424v65z" />
<glyph unicode="&#x2215;" horiz-adv-x="326" d="M147 0h-57l449 667h57z" />
<glyph unicode="&#x2219;" horiz-adv-x="221" d="M55 280q0 24 15.5 40t41.5 16t41.5 -16t15.5 -40q0 -25 -15.5 -41t-41.5 -16t-41.5 16t-15.5 41z" />
<glyph unicode="&#x221a;" horiz-adv-x="708" d="M255 -197l-140 368l-58 -31l-32 60l133 72l138 -367l313 765l74 -27l-345 -840h-83z" />
<glyph unicode="&#x221e;" horiz-adv-x="877" d="M641 515q84 0 133 -49.5t49 -124.5q0 -73 -49.5 -122t-132.5 -49q-55 0 -102.5 31t-99.5 87q-52 -56 -99.5 -87t-102.5 -31q-84 0 -133.5 49t-49.5 123t49.5 123.5t133.5 49.5q54 0 101.5 -31t99.5 -87q110 118 203 118zM237 239q36 0 70.5 26.5t81.5 77.5 q-47 50 -82 76.5t-70 26.5q-44 0 -72.5 -27.5t-28.5 -76.5t28.5 -76t72.5 -27zM642 239q44 0 72 27t28 75q0 50 -28 77.5t-72 27.5q-37 0 -72.5 -26.5t-81.5 -77.5q32 -34 52 -52.5t48.5 -34.5t53.5 -16z" />
<glyph unicode="&#x222b;" horiz-adv-x="310" d="M302 690q36 0 56 -8v-74q-31 9 -61 9q-51 0 -77 -29t-36 -100l-31 -223h-1l-3 -26l-34 -244q-7 -53 -28 -90.5t-49.5 -56t-57 -26.5t-60.5 -8q-36 0 -56 8v74q31 -9 61 -9q51 0 77 29t36 100l9 68l46 329h1l13 96q7 53 28 90.5t49.5 56t57 26.5t60.5 8z" />
<glyph unicode="&#x2248;" horiz-adv-x="572" d="M84 399q61 49 120 49q37 0 94.5 -25t91.5 -25q59 0 126 52l-10 -66q-65 -49 -125 -49q-35 0 -92 25.5t-93 25.5q-56 0 -121 -52zM65 263q62 50 120 50q37 0 94.5 -25.5t91.5 -25.5q57 0 126 52l-10 -65q-64 -49 -124 -49q-35 0 -92.5 25t-93.5 25q-55 0 -121 -51z" />
<glyph unicode="&#x2260;" horiz-adv-x="572" d="M498 368h-149l-76 -103h225v-72h-278l-54 -73h-61l54 73h-85v72h138l75 103h-213v72h266l64 87h62l-64 -87h96v-72z" />
<glyph unicode="&#x2264;" horiz-adv-x="436" d="M70 404l310 117l12 -63l-257 -91l232 -93l-30 -57l-276 117zM36 160h305l-9 -64h-305z" />
<glyph unicode="&#x2265;" horiz-adv-x="436" d="M383 334l-310 -117l-12 63l257 91l-232 93l30 57l276 -117zM36 160h305l-9 -64h-305z" />
<glyph unicode="&#x2440;" horiz-adv-x="600" d="M362 668q-31 9 -61 9q-51 0 -77 -29t-36 -100l-31 -223h-80l34 244q7 53 28 90.5t49.5 56t57 26.5t60.5 8q36 0 56 -8v-74z" />
<glyph unicode="&#x25ca;" horiz-adv-x="542" d="M287 608l251 -251l-251 -252l-251 252zM287 515l-158 -158l159 -159l158 159z" />
<glyph unicode="&#x25fc;" horiz-adv-x="485" d="M0 485h485v-485h-485v485z" />
<glyph unicode="&#xf6be;" horiz-adv-x="220" d="M184 485l-34 -242l-34 -244q-7 -53 -28 -90.5t-49.5 -56t-57 -26.5t-60.5 -8q-36 0 -56 8v74q31 -9 61 -9q51 0 77 29t36 100l12 89l53 376h80z" />
<glyph unicode="&#xf8ff;" horiz-adv-x="802" d="M131 678h604v-395q-4 -143 -87.5 -259t-214.5 -164q-132 49 -215 164.5t-87 258.5v395zM407 596q-10 0 -18.5 -11.5t-8.5 -28.5q0 -1 1 -2q12 -6 24 -6q7 0 13 2q-2 -4 -2 -8q0 -7 5 -11.5t12 -4.5t12 4.5t5 11.5q0 4 -2 8q6 -2 13 -2q12 0 24 6q1 1 1 2q0 17 -8.5 28.5 t-18.5 11.5q-5 0 -8 -1q6 6 6 16q0 19 -23 34h-2q-23 -15 -23 -34q0 -10 6 -16q-3 1 -8 1zM272 569q-6 0 -4 -7l4 -14q0 -6 7 -4l23 6l9 -32q2 -6 7 -4l14 4q6 2 4 7l-8 32l23 6q6 2 4 7l-3 15q-2 6 -8 4l-23 -7l-6 24q-2 6 -8 4l-14 -4q-6 -2 -4 -7l6 -23zM510 570 q-2 -5 4 -7l23 -6l-8 -32q-2 -5 4 -7l14 -4q7 -2 7 4l9 32l23 -6q6 -2 8 4l3 14q2 7 -4 7l-23 7l6 23q2 5 -4 7l-14 4q-7 2 -7 -4l-7 -24l-23 7q-7 2 -7 -4zM169 575v-1l33 -58q7 -12 16 -14q-6 0 -6 -3l17 -28q8 6 8 16q0 8 -8 12q21 7 31 23v1q-15 23 -35 23q-11 0 -16 -7 q3 17 -9.5 26t-29.5 10h-1zM606 523v-1q10 -16 31 -23q-8 -4 -8 -12q0 -10 8 -16l17 28q0 3 -6 3q9 2 16 14l33 58v1h-1q-17 -1 -29.5 -10t-9.5 -26q-5 7 -16 7q-20 0 -35 -23zM239 452l21 -36v-1h1q79 47 171 47h1q92 0 172 -47q0 1 1 1l21 36q0 1 -1 1q-89 52 -193 52 t-194 -52v-1zM624 19l-191 142l286 223h-573l287 -223l-191 -143q78 -97 191 -142q112 45 191 143z" />
<glyph horiz-adv-x="220" d="M211 613q0 -21 -14.5 -35.5t-36.5 -14.5t-37 14.5t-15 35.5q0 23 14.5 38t37.5 15q22 0 36.5 -15t14.5 -38zM114 0h-80l68 485h80z" />
<glyph horiz-adv-x="407" d="M377 228q0 -100 -56.5 -167.5t-145.5 -67.5q-72 0 -114.5 48.5t-42.5 128.5q0 100 56.5 167.5t144.5 67.5q73 0 115.5 -48.5t42.5 -128.5zM306 232q0 50 -24 79t-65 29q-63 0 -95 -50t-32 -124q0 -51 23.5 -80t64.5 -29q63 0 95.5 50.5t32.5 124.5z" />
<glyph horiz-adv-x="253" d="M203 397l-56 -397h-71l47 333h-86l9 64h157z" />
<glyph horiz-adv-x="341" d="M313 282q0 -43 -27 -78.5t-60.5 -56t-74 -45.5t-57.5 -43l201 2l-8 -61h-301l2 16l3 2h-2q7 35 35.5 65.5t64.5 53t71 44.5t58.5 49t23.5 58q0 55 -63 55q-33 0 -55 -18.5t-28 -48.5l-65 19q14 52 52 80.5t95 28.5q60 0 97.5 -34t37.5 -88z" />
<glyph horiz-adv-x="336" d="M238 203q60 -26 60 -85q0 -60 -44 -93t-110 -33q-60 0 -100.5 29t-47.5 74l65 24q17 -64 85 -64q33 0 56.5 15.5t23.5 48.5q0 55 -103 55l4 29l4 27q105 2 105 64q0 23 -17 36t-44 13q-52 0 -72 -48l-60 21q15 40 52.5 64.5t86.5 24.5q57 0 92 -28.5t35 -74.5 q0 -70 -71 -99z" />
<glyph horiz-adv-x="357" d="M328 135l-9 -61h-54l-10 -74h-70l10 74h-187l-11 38l175 285h76l-161 -262h117l18 128h70l-18 -128h54z" />
<glyph horiz-adv-x="336" d="M313 338h-185l-21 -81q30 19 67 19q58 0 94.5 -34t36.5 -91q0 -71 -45 -114t-117 -43q-59 0 -95.5 29.5t-44.5 75.5l63 21q17 -67 78 -67q41 0 64.5 26t23.5 66q0 32 -19 52t-53 20q-46 0 -73 -41l-57 16h1l-4 1l54 206h240z" />
<glyph horiz-adv-x="372" d="M199 262q54 0 90.5 -33t36.5 -85q0 -66 -44.5 -108.5t-110.5 -42.5q-68 0 -106.5 41t-38.5 117q0 108 51 180.5t145 72.5q47 0 78.5 -22.5t42.5 -55.5l-61 -31q-7 22 -25 35t-44 13q-83 0 -109 -116q37 35 95 35zM171 53q36 0 59.5 23.5t23.5 58.5q0 30 -19 48.5 t-51 18.5q-41 0 -64 -21t-23 -57q0 -32 19.5 -51.5t54.5 -19.5z" />
<glyph horiz-adv-x="298" d="M35 396h267l-7 -54q-138 -159 -206 -342h-70q73 189 197 336h-189z" />
<glyph horiz-adv-x="368" d="M261 206q58 -28 58 -87q0 -58 -46.5 -91.5t-112.5 -33.5q-70 0 -110 33t-40 82q0 73 87 102q-49 29 -49 78q0 53 43 84t101 31q67 0 103 -31t36 -75q0 -63 -70 -92zM192 350q-33 0 -52.5 -15.5t-19.5 -43.5q0 -23 17.5 -38.5t46.5 -15.5q32 0 53.5 16t21.5 43 q0 24 -18 39t-49 15zM159 51q39 0 63 18t24 50q0 25 -20 42t-57 17q-39 0 -63 -18.5t-24 -49.5q0 -28 21.5 -43.5t55.5 -15.5z" />
<glyph horiz-adv-x="364" d="M186 405q68 0 106.5 -41.5t38.5 -117.5q0 -107 -51.5 -179.5t-145.5 -72.5q-46 0 -77.5 22.5t-42.5 55.5l61 31q7 -22 25 -35t44 -13q85 0 109 117q-36 -36 -95 -36q-54 0 -90.5 32.5t-36.5 85.5q0 66 44 108.5t111 42.5zM172 195q42 0 65 21.5t23 57.5q0 32 -19.5 51 t-54.5 19q-36 0 -60 -23t-24 -59q0 -30 19 -48.5t51 -18.5z" />
<glyph horiz-adv-x="407" d="M414 495q0 -100 -56.5 -167.5t-145.5 -67.5q-72 0 -114.5 48.5t-42.5 128.5q0 100 56.5 167.5t144.5 67.5q73 0 115.5 -48.5t42.5 -128.5zM343 499q0 50 -24 79t-65 29q-63 0 -95 -50t-32 -124q0 -51 23.5 -80t64.5 -29q63 0 95.5 50.5t32.5 124.5z" />
<glyph horiz-adv-x="253" d="M240 664l-56 -397h-71l47 333h-86l9 64h157z" />
<glyph horiz-adv-x="342" d="M351 549q0 -43 -27 -78.5t-60.5 -56t-74 -45.5t-57.5 -43l201 2l-8 -61h-301l2 16l3 2h-2q7 35 35.5 65.5t64.5 53t71 44.5t58.5 49t23.5 58q0 55 -63 55q-33 0 -55 -18.5t-28 -48.5l-65 19q14 52 52 80.5t95 28.5q60 0 97.5 -34t37.5 -88z" />
<glyph horiz-adv-x="336" d="M276 470q60 -26 60 -85q0 -60 -44 -93t-110 -33q-60 0 -100.5 29t-47.5 74l65 24q17 -64 85 -64q33 0 56.5 15.5t23.5 48.5q0 55 -103 55l4 29l4 27q105 2 105 64q0 23 -17 36t-44 13q-52 0 -72 -48l-60 21q15 40 52.5 64.5t86.5 24.5q57 0 92 -28.5t35 -74.5 q0 -70 -71 -99z" />
<glyph horiz-adv-x="357" d="M365 402l-9 -61h-54l-10 -74h-70l10 74h-187l-11 38l175 285h76l-161 -262h117l18 128h70l-18 -128h54z" />
<glyph horiz-adv-x="335" d="M350 605h-185l-21 -81q30 19 67 19q58 0 94.5 -34t36.5 -91q0 -71 -45 -114t-117 -43q-59 0 -95.5 29.5t-44.5 75.5l63 21q17 -67 78 -67q41 0 64.5 26t23.5 66q0 32 -19 52t-53 20q-46 0 -73 -41l-57 16h1l-4 1l54 206h240z" />
<glyph horiz-adv-x="372" d="M237 529q54 0 90.5 -33t36.5 -85q0 -66 -44.5 -108.5t-110.5 -42.5q-68 0 -106.5 41t-38.5 117q0 108 51 180.5t145 72.5q47 0 78.5 -22.5t42.5 -55.5l-61 -31q-7 22 -25 35t-44 13q-83 0 -109 -116q37 35 95 35zM209 320q36 0 59.5 23.5t23.5 58.5q0 30 -19 48.5 t-51 18.5q-41 0 -64 -21t-23 -57q0 -32 19.5 -51.5t54.5 -19.5z" />
<glyph horiz-adv-x="297" d="M72 663h267l-7 -54q-138 -159 -206 -342h-70q73 189 197 336h-189z" />
<glyph horiz-adv-x="368" d="M299 473q58 -28 58 -87q0 -58 -46.5 -91.5t-112.5 -33.5q-70 0 -110 33t-40 82q0 73 87 102q-49 29 -49 78q0 53 43 84t101 31q67 0 103 -31t36 -75q0 -63 -70 -92zM230 617q-33 0 -52.5 -15.5t-19.5 -43.5q0 -23 17.5 -38.5t46.5 -15.5q32 0 53.5 16t21.5 43 q0 24 -18 39t-49 15zM197 318q39 0 63 18t24 50q0 25 -20 42t-57 17q-39 0 -63 -18.5t-24 -49.5q0 -28 21.5 -43.5t55.5 -15.5z" />
<glyph horiz-adv-x="365" d="M224 672q68 0 106.5 -41.5t38.5 -117.5q0 -107 -51.5 -179.5t-145.5 -72.5q-46 0 -77.5 22.5t-42.5 55.5l61 31q7 -22 25 -35t44 -13q85 0 109 117q-36 -36 -95 -36q-54 0 -90.5 32.5t-36.5 85.5q0 66 44 108.5t111 42.5zM210 462q42 0 65 21.5t23 57.5q0 32 -19.5 51 t-54.5 19q-36 0 -60 -23t-24 -59q0 -30 19 -48.5t51 -18.5z" />
<glyph horiz-adv-x="600" d="M588 371q0 -161 -84.5 -271.5t-220.5 -110.5q-107 0 -169 76t-62 201q0 161 84.5 270.5t218.5 109.5q107 0 170 -76.5t63 -198.5zM509 376q0 90 -40 143.5t-114 53.5q-110 0 -167 -89.5t-57 -225.5q0 -91 38.5 -143.5t113.5 -52.5q111 0 168.5 89.5t57.5 224.5z" />
<glyph horiz-adv-x="347" d="M307 634l-88 -634h-80l78 561h-139l10 73h219z" />
<glyph horiz-adv-x="534" d="M497 464q0 -59 -27.5 -109t-73 -86.5t-92.5 -66t-97 -64t-76 -65.5h330l-9 -73h-444l4 20q10 43 44.5 83.5t78.5 69.5t94 62.5t91.5 63.5t68.5 71t27 86q0 54 -33 85t-89 31q-57 0 -92.5 -32t-46.5 -83l-73 18q18 78 76.5 124t145.5 46q86 0 139.5 -53.5t53.5 -127.5z " />
<glyph horiz-adv-x="508" d="M371 327q93 -41 93 -135q0 -93 -66 -147.5t-159 -54.5q-89 0 -148.5 44.5t-71.5 118.5l75 28q14 -60 48.5 -89t97.5 -29q58 0 101 31t43 96q0 101 -174 101l5 36l4 32q81 1 130.5 29.5t49.5 88.5q0 44 -30 69t-83 25q-46 0 -78 -25t-49 -65l-68 25q23 61 77.5 99.5 t121.5 38.5q87 0 138.5 -45t51.5 -114q0 -115 -109 -158z" />
<glyph horiz-adv-x="543" d="M516 197l-10 -73h-90l-17 -124h-80l17 124h-295l-23 50l279 458h87l-267 -435h230l34 244h80l-34 -244h89z" />
<glyph horiz-adv-x="527" d="M502 560h-292l-46 -160q48 41 115 41q94 0 148.5 -55.5t54.5 -143.5q0 -109 -69.5 -180.5t-172.5 -71.5q-90 0 -141 42t-68 112l67 32q31 -113 138 -113q75 0 120 48.5t45 122.5q0 60 -34 97.5t-98 37.5q-85 0 -131 -73l-68 19l89 317h353z" />
<glyph horiz-adv-x="544" d="M305 421q83 0 141 -53t58 -136q0 -104 -67 -173t-170 -69q-102 0 -159.5 62.5t-57.5 186.5q0 109 33 199.5t103 148.5t165 58q68 0 117 -35.5t65 -78.5l-67 -41q-13 36 -46.5 59.5t-78.5 23.5q-155 0 -206 -229q59 77 170 77zM269 61q67 0 109.5 46.5t42.5 111.5 q0 56 -34 93t-94 37q-79 0 -120 -41.5t-41 -108.5q0 -61 34.5 -99.5t102.5 -38.5z" />
<glyph horiz-adv-x="450" d="M70 632h410l-9 -67q-233 -267 -327 -565h-78q101 304 320 562h-326z" />
<glyph horiz-adv-x="578" d="M409 327q43 -22 68 -59t25 -82q0 -93 -69 -144.5t-168 -51.5q-105 0 -165.5 49t-60.5 128q0 63 37.5 105t100.5 62q-77 49 -77 128q0 85 65.5 134t151.5 49q95 0 150.5 -46.5t55.5 -118.5q0 -54 -31 -92.5t-83 -60.5zM315 575q-59 0 -95.5 -29t-36.5 -82 q0 -42 32.5 -71.5t84.5 -29.5q57 0 98.5 30.5t41.5 82.5q0 45 -33.5 72t-91.5 27zM264 61q67 0 110.5 31.5t43.5 91.5q0 51 -37.5 80.5t-103.5 29.5q-68 0 -111 -33t-43 -91q0 -50 38.5 -79.5t102.5 -29.5z" />
<glyph horiz-adv-x="544" d="M298 645q102 0 159.5 -62.5t57.5 -186.5q0 -109 -33 -199.5t-103 -148.5t-165 -58q-68 0 -117 35.5t-65 78.5l67 41q13 -36 46.5 -59.5t78.5 -23.5q155 0 206 229q-60 -77 -170 -77q-83 0 -141 53t-58 136q0 104 67 173t170 69zM272 286q79 0 120 41.5t41 108.5 q0 61 -34.5 99.5t-102.5 38.5q-67 0 -109.5 -46.5t-42.5 -111.5q0 -56 34 -93t94 -37z" />
<glyph horiz-adv-x="626" d="M287 -11q-114 0 -173.5 71t-59.5 185q0 140 81 235.5t199 95.5q111 0 170 -71.5t59 -184.5q0 -140 -80.5 -235.5t-195.5 -95.5zM481 319q0 83 -39.5 133.5t-111.5 50.5q-88 0 -141 -73.5t-53 -184.5q0 -82 39.5 -132.5t110.5 -50.5q87 0 141 73t54 184z" />
<glyph horiz-adv-x="349" d="M294 562l-79 -562h-80l68 489h-139l11 73h219z" />
<glyph horiz-adv-x="554" d="M485 404q0 -50 -18 -90t-46.5 -65.5t-66 -49t-72.5 -40.5t-71.5 -40t-58.5 -46h313l-9 -73h-438l4 20q11 51 55 91.5t97.5 67t106 54.5t88 69t35.5 94q0 52 -31 79t-83 27t-86.5 -32t-45.5 -83l-73 18q18 78 75.5 124t139.5 46q81 0 133 -49.5t52 -121.5z" />
<glyph horiz-adv-x="564" d="M374 258q93 -41 93 -135q0 -93 -66 -147.5t-159 -54.5q-89 0 -148.5 44.5t-71.5 118.5l75 28q14 -60 48.5 -89t97.5 -29q58 0 101 31t43 96q0 101 -174 101l5 36l4 32q81 1 130.5 29.5t49.5 88.5q0 44 -30 69t-83 25q-89 0 -127 -90l-68 25q23 61 77.5 99.5t121.5 38.5 q87 0 138.5 -45t51.5 -114q0 -115 -109 -158z" />
<glyph horiz-adv-x="570" d="M526 120l-10 -73h-83l-21 -148h-80l21 148h-322l-3 50l287 470h89l-273 -447h232l31 220h80l-31 -220h83z" />
<glyph horiz-adv-x="592" d="M502 482h-292l-46 -160q48 41 115 41q94 0 148.5 -55.5t54.5 -143.5q0 -109 -69.5 -180.5t-172.5 -71.5q-90 0 -141 42t-68 112l67 32q31 -113 138 -113q75 0 120 48.5t45 122.5q0 60 -34 97.5t-98 37.5q-85 0 -131 -73l-68 19l89 317h353z" />
<glyph horiz-adv-x="588" d="M311 421q83 0 141 -53t58 -136q0 -104 -67 -173t-170 -69q-102 0 -159.5 62.5t-57.5 186.5q0 109 33 199.5t103 148.5t165 58q68 0 117 -35.5t65 -78.5l-67 -41q-13 36 -46.5 59.5t-78.5 23.5q-155 0 -206 -229q59 77 170 77zM275 61q67 0 109.5 46.5t42.5 111.5 q0 56 -34 93t-94 37q-79 0 -120 -41.5t-41 -108.5q0 -61 34.5 -99.5t102.5 -38.5z" />
<glyph horiz-adv-x="475" d="M80 562h410l-9 -67q-235 -277 -328 -570h-82q101 299 317 561l-318 4z" />
<glyph horiz-adv-x="578" d="M409 327q43 -22 68 -59t25 -82q0 -93 -69 -144.5t-168 -51.5q-105 0 -165.5 49t-60.5 128q0 63 37.5 105t100.5 62q-77 49 -77 128q0 85 65.5 134t151.5 49q95 0 150.5 -46.5t55.5 -118.5q0 -54 -31 -92.5t-83 -60.5zM315 575q-59 0 -95.5 -29t-36.5 -82 q0 -42 32.5 -71.5t84.5 -29.5q57 0 98.5 30.5t41.5 82.5q0 45 -33.5 72t-91.5 27zM264 61q67 0 110.5 31.5t43.5 91.5q0 51 -37.5 80.5t-103.5 29.5q-68 0 -111 -33t-43 -91q0 -50 38.5 -79.5t102.5 -29.5z" />
<glyph horiz-adv-x="588" d="M315 577q102 0 159.5 -62.5t57.5 -186.5q0 -109 -33 -199.5t-103 -148.5t-165 -58q-68 0 -117 35.5t-65 78.5l67 41q13 -36 46.5 -59.5t78.5 -23.5q155 0 206 229q-59 -77 -170 -77q-83 0 -141 53t-58 136q0 104 67 173t170 69zM289 218q79 0 120 41.5t41 108.5 q0 61 -34.5 99.5t-102.5 38.5q-67 0 -109.5 -46.5t-42.5 -111.5q0 -56 34 -93t94 -37z" />
<glyph d="M568 371q0 -161 -84.5 -271.5t-220.5 -110.5q-107 0 -169 76t-62 201q0 161 84.5 270.5t218.5 109.5q107 0 170 -76.5t63 -198.5zM489 376q0 90 -40 143.5t-114 53.5q-110 0 -167 -89.5t-57 -225.5q0 -91 38.5 -143.5t113.5 -52.5q111 0 168.5 89.5t57.5 224.5z" />
<glyph d="M340 73h124l-10 -73h-348l10 73h144l68 488h-139l10 73h219z" />
<glyph d="M527 464q0 -59 -27.5 -109t-73 -86.5t-92.5 -66t-97 -64t-76 -65.5h330l-9 -73h-444l4 20q10 43 44.5 83.5t78.5 69.5t94 62.5t91.5 63.5t68.5 71t27 86q0 54 -33 85t-89 31q-57 0 -92.5 -32t-46.5 -83l-73 18q18 78 76.5 124t145.5 46q86 0 139.5 -53.5t53.5 -127.5z " />
<glyph d="M411 327q93 -41 93 -135q0 -93 -66 -147.5t-159 -54.5q-89 0 -148.5 44.5t-71.5 118.5l75 28q14 -60 48.5 -89t97.5 -29q58 0 101 31t43 96q0 101 -174 101l5 36l4 32q81 1 130.5 29.5t49.5 88.5q0 44 -30 69t-83 25q-46 0 -78 -25t-49 -65l-68 25q23 61 77.5 99.5 t121.5 38.5q87 0 138.5 -45t51.5 -114q0 -115 -109 -158z" />
<glyph d="M546 197l-10 -73h-90l-17 -124h-80l17 124h-295l-23 50l279 458h87l-267 -435h230l34 244h80l-34 -244h89z" />
<glyph d="M537 560h-292l-46 -160q48 41 115 41q94 0 148.5 -55.5t54.5 -143.5q0 -109 -69.5 -180.5t-172.5 -71.5q-90 0 -141 42t-68 112l67 32q31 -113 138 -113q75 0 120 48.5t45 122.5q0 60 -34 97.5t-98 37.5q-85 0 -131 -73l-68 19l89 317h353z" />
<glyph d="M325 421q83 0 141 -53t58 -136q0 -104 -67 -173t-170 -69q-102 0 -159.5 62.5t-57.5 186.5q0 109 33 199.5t103 148.5t165 58q68 0 117 -35.5t65 -78.5l-67 -41q-13 36 -46.5 59.5t-78.5 23.5q-155 0 -206 -229q60 77 170 77zM289 61q67 0 109.5 46.5t42.5 111.5 q0 56 -34 93t-94 37q-79 0 -120 -41.5t-41 -108.5q0 -61 34.5 -99.5t102.5 -38.5z" />
<glyph d="M137 632h410l-9 -67q-233 -267 -327 -565h-78q101 304 320 562h-326z" />
<glyph d="M416 327q43 -22 68 -59t25 -82q0 -93 -69 -144.5t-168 -51.5q-105 0 -165.5 49t-60.5 128q0 63 37.5 105t100.5 62q-77 49 -77 128q0 85 65.5 134t151.5 49q95 0 150.5 -46.5t55.5 -118.5q0 -54 -31 -92.5t-83 -60.5zM322 575q-59 0 -95.5 -29t-36.5 -82 q0 -42 32.5 -71.5t84.5 -29.5q57 0 98.5 30.5t41.5 82.5q0 45 -33.5 72t-91.5 27zM271 61q67 0 110.5 31.5t43.5 91.5q0 51 -37.5 80.5t-103.5 29.5q-68 0 -111 -33t-43 -91q0 -50 38.5 -79.5t102.5 -29.5z" />
<glyph d="M321 645q102 0 159.5 -62.5t57.5 -186.5q0 -109 -33 -199.5t-103 -148.5t-165 -58q-68 0 -117 35.5t-65 78.5l67 41q13 -36 46.5 -59.5t78.5 -23.5q155 0 206 229q-59 -77 -170 -77q-83 0 -141 53t-58 136q0 104 67 173t170 69zM295 286q79 0 120 41.5t41 108.5 q0 61 -34.5 99.5t-102.5 38.5q-67 0 -109.5 -46.5t-42.5 -111.5q0 -56 34 -93t94 -37z" />
<glyph d="M279 -11q-114 0 -173.5 71t-59.5 185q0 140 81 235.5t199 95.5q111 0 170 -71.5t59 -184.5q0 -140 -80.5 -235.5t-195.5 -95.5zM473 319q0 83 -39.5 133.5t-111.5 50.5q-88 0 -141 -73.5t-53 -184.5q0 -82 39.5 -132.5t110.5 -50.5q87 0 141 73t54 184z" />
<glyph d="M450 73l-11 -73h-348l11 73h128l57 407h-139l11 73h219l-68 -480h140z" />
<glyph d="M515 404q0 -50 -18 -90t-46.5 -65.5t-66 -49t-72.5 -40.5t-71.5 -40t-58.5 -46h313l-9 -73h-438l4 20q11 51 55 91.5t97.5 67t106 54.5t88 69t35.5 94q0 52 -31 79t-83 27t-86.5 -32t-45.5 -83l-73 18q18 78 75.5 124t139.5 46q81 0 133 -49.5t52 -121.5z" />
<glyph d="M404 258q93 -41 93 -135q0 -93 -66 -147.5t-159 -54.5q-89 0 -148.5 44.5t-71.5 118.5l75 28q14 -60 48.5 -89t97.5 -29q58 0 101 31t43 96q0 101 -174 101l5 36l4 32q81 1 130.5 29.5t49.5 88.5q0 44 -30 69t-83 25q-89 0 -127 -90l-68 25q23 61 77.5 99.5t121.5 38.5 q87 0 138.5 -45t51.5 -114q0 -115 -109 -158z" />
<glyph d="M526 120l-10 -73h-83l-21 -148h-80l21 148h-322l-3 50l287 470h89l-273 -447h232l31 220h80l-31 -220h83z" />
<glyph d="M524 482h-292l-46 -160q48 41 115 41q94 0 148.5 -55.5t54.5 -143.5q0 -109 -69.5 -180.5t-172.5 -71.5q-90 0 -141 42t-68 112l67 32q31 -113 138 -113q75 0 120 48.5t45 122.5q0 60 -34 97.5t-98 37.5q-85 0 -131 -73l-68 19l89 317h353z" />
<glyph d="M326 421q83 0 141 -53t58 -136q0 -104 -67 -173t-170 -69q-102 0 -159.5 62.5t-57.5 186.5q0 109 33 199.5t103 148.5t165 58q68 0 117 -35.5t65 -78.5l-67 -41q-13 36 -46.5 59.5t-78.5 23.5q-155 0 -206 -229q59 77 170 77zM290 61q67 0 109.5 46.5t42.5 111.5 q0 56 -34 93t-94 37q-79 0 -120 -41.5t-41 -108.5q0 -61 34.5 -99.5t102.5 -38.5z" />
<glyph d="M133 562h410l-9 -67q-235 -277 -328 -570h-82q101 299 317 561l-318 4z" />
<glyph d="M434 327q43 -22 68 -59t25 -82q0 -93 -69 -144.5t-168 -51.5q-105 0 -165.5 49t-60.5 128q0 63 37.5 105t100.5 62q-77 49 -77 128q0 85 65.5 134t151.5 49q95 0 150.5 -46.5t55.5 -118.5q0 -54 -31 -92.5t-83 -60.5zM340 575q-59 0 -95.5 -29t-36.5 -82 q0 -42 32.5 -71.5t84.5 -29.5q57 0 98.5 30.5t41.5 82.5q0 45 -33.5 72t-91.5 27zM289 61q67 0 110.5 31.5t43.5 91.5q0 51 -37.5 80.5t-103.5 29.5q-68 0 -111 -33t-43 -91q0 -50 38.5 -79.5t102.5 -29.5z" />
<glyph d="M316 577q102 0 159.5 -62.5t57.5 -186.5q0 -109 -33 -199.5t-103 -148.5t-165 -58q-68 0 -117 35.5t-65 78.5l67 41q13 -36 46.5 -59.5t78.5 -23.5q155 0 206 229q-60 -77 -170 -77q-83 0 -141 53t-58 136q0 104 67 173t170 69zM290 218q79 0 120 41.5t41 108.5 q0 61 -34.5 99.5t-102.5 38.5q-67 0 -109.5 -46.5t-42.5 -111.5q0 -56 34 -93t94 -37z" />
<glyph d="M260 404q0 24 15.5 40t41.5 16t41.5 -16t15.5 -40q0 -25 -15.5 -41t-41.5 -16t-41.5 16t-15.5 41zM211 49q0 24 15.5 40t41.5 16t41.5 -16t15.5 -40q0 -25 -15.5 -41t-41.5 -16t-41.5 16t-15.5 41z" />
<glyph d="M223 105q27 0 45 -19.5t18 -54.5q0 -11 -2 -22t-4 -20.5t-7.5 -21.5t-8.5 -19.5t-11.5 -20.5t-12 -19t-14.5 -20.5t-14.5 -19.5t-16.5 -21t-16 -20l-34 24q70 84 87 141h-9q-26 0 -41.5 16.5t-15.5 40.5q0 23 16 39.5t41 16.5z" />
<glyph d="M617 632l-78 -161h61l-10 -76h-88l-77 -158h121l-10 -76h-148l-78 -161h-86l78 161h-151l-78 -161h-86l78 161h-55l10 76h82l77 158h-116l10 76h143l78 161h86l-78 -161h151l78 161h86zM339 237l77 158h-151l-77 -158h151z" />
<glyph d="M210 49q0 24 15.5 40t41.5 16t41.5 -16t15.5 -40q0 -25 -15.5 -41t-41.5 -16t-41.5 16t-15.5 41z" />
<glyph d="M308 460q26 0 41.5 -16t15.5 -40q0 -25 -15.5 -41t-41.5 -16t-41.5 16t-15.5 41q0 24 15.5 40t41.5 16zM219 105q27 0 45 -19.5t18 -54.5q0 -11 -2 -22t-4 -20.5t-7.5 -21.5t-8.5 -19.5t-11.5 -20.5t-12 -19t-14.5 -20.5t-14.5 -19.5t-16.5 -21t-16 -20l-34 24 q70 84 87 141h-9q-26 0 -41.5 16.5t-15.5 40.5q0 23 16 39.5t41 16.5z" />
<glyph d="M260 404q0 24 15.5 40t41.5 16t41.5 -16t15.5 -40q0 -25 -15.5 -41t-41.5 -16t-41.5 16t-15.5 41zM211 49q0 24 15.5 40t41.5 16t41.5 -16t15.5 -40q0 -25 -15.5 -41t-41.5 -16t-41.5 16t-15.5 41z" />
<glyph d="M223 105q27 0 45 -19.5t18 -54.5q0 -11 -2 -22t-4 -20.5t-7.5 -21.5t-8.5 -19.5t-11.5 -20.5t-12 -19t-14.5 -20.5t-14.5 -19.5t-16.5 -21t-16 -20l-34 24q70 84 87 141h-9q-26 0 -41.5 16.5t-15.5 40.5q0 23 16 39.5t41 16.5z" />
<glyph d="M617 632l-78 -161h61l-10 -76h-88l-77 -158h121l-10 -76h-148l-78 -161h-86l78 161h-151l-78 -161h-86l78 161h-55l10 76h82l77 158h-116l10 76h143l78 161h86l-78 -161h151l78 161h86zM339 237l77 158h-151l-77 -158h151z" />
<glyph d="M210 49q0 24 15.5 40t41.5 16t41.5 -16t15.5 -40q0 -25 -15.5 -41t-41.5 -16t-41.5 16t-15.5 41z" />
<glyph d="M308 460q26 0 41.5 -16t15.5 -40q0 -25 -15.5 -41t-41.5 -16t-41.5 16t-15.5 41q0 24 15.5 40t41.5 16zM219 105q27 0 45 -19.5t18 -54.5q0 -11 -2 -22t-4 -20.5t-7.5 -21.5t-8.5 -19.5t-11.5 -20.5t-12 -19t-14.5 -20.5t-14.5 -19.5t-16.5 -21t-16 -20l-34 24 q70 84 87 141h-9q-26 0 -41.5 16.5t-15.5 40.5q0 23 16 39.5t41 16.5z" />
<glyph d="M337 -77l-78 -31q-52 142 -52 295q0 289 171 556l69 -32q-157 -249 -157 -523q0 -133 47 -265z" />
<glyph d="M273 712l78 31q52 -142 52 -295q0 -289 -171 -556l-69 32q157 249 157 523q0 133 -47 265z" />
<glyph d="M337 -77l-78 -31q-52 142 -52 295q0 289 171 556l69 -32q-157 -249 -157 -523q0 -133 47 -265z" />
<glyph d="M273 712l78 31q52 -142 52 -295q0 -289 -171 -556l-69 32q157 249 157 523q0 133 -47 265z" />
<glyph d="M127 274l10 76h345l-10 -76h-345z" />
<glyph d="M127 274l10 76h345l-10 -76h-345z" />
<glyph />
<glyph />
<glyph d="M286 74q106 0 149 103l67 -31q-27 -61 -77.5 -99t-119.5 -45l-9 -63h-71l9 65q-72 14 -117 72.5t-45 140.5q0 116 63.5 197.5t169.5 93.5l10 71h71l-10 -72q58 -10 97 -49t53 -97l-76 -31q-11 49 -44 78t-79 29q-83 0 -128.5 -60t-45.5 -151q0 -68 36.5 -110t96.5 -42z " />
<glyph d="M334 365q87 -33 130.5 -74t43.5 -99q0 -81 -59.5 -132t-148.5 -58l-9 -59h-69l9 61q-127 19 -171 140l78 40q15 -50 51.5 -78.5t86.5 -28.5q63 0 104.5 27.5t41.5 74.5q0 38 -31.5 66t-100.5 53q-153 57 -153 165q0 68 53 116t130 57l13 88h70l-13 -89q59 -9 98.5 -43.5 t53.5 -79.5l-75 -37q-9 39 -41 63t-81 24q-58 0 -90 -27t-32 -60q0 -69 111 -110z" />
<glyph d="M317 64q60 0 104.5 34.5t68.5 94.5l72 -32q-32 -78 -99 -124.5t-150 -46.5q-93 0 -155.5 53.5t-80.5 142.5h-67l9 65h52q0 39 7 71h-49l9 65h58q34 86 106 138t162 52q84 0 143.5 -48t77.5 -127l-78 -31q-11 61 -52 96.5t-103 35.5q-115 0 -169 -116h198l-9 -65h-210 q-7 -40 -7 -71h207l-9 -65h-191q14 -57 54.5 -89.5t100.5 -32.5z" />
<glyph d="M435 674q-74 0 -90 -103l-12 -86h111l-8 -67h-112l-63 -454q-12 -82 -57 -125t-110 -43q-58 0 -95 28l34 66q27 -19 58 -19q77 0 90 103l62 444h-74l9 67h74l14 95q12 82 57 125.5t110 43.5q54 0 94 -29l-35 -67q-25 21 -57 21z" />
<glyph d="M434 505q-75 0 -113.5 -44.5t-52.5 -141.5l-3 -22h141l-11 -67h-140l-23 -163h237l-11 -67h-396l11 67h78l23 163h-78l11 67h77l5 38q17 119 77 180t174 61q41 0 71 -7l-6 -72q-30 8 -71 8z" />
<glyph d="M602 632l-200 -283h105l-9 -59h-138l-18 -25l-5 -38h153l-9 -60h-153l-23 -167h-86l23 167h-158l9 60h158l5 36l-12 27h-143l9 59h109l-121 283h97l71 -166l44 -116l78 116l117 166h97z" />
<glyph d="M286 74q106 0 149 103l67 -31q-27 -61 -77.5 -99t-119.5 -45l-9 -63h-71l9 65q-72 14 -117 72.5t-45 140.5q0 116 63.5 197.5t169.5 93.5l10 71h71l-10 -72q58 -10 97 -49t53 -97l-76 -31q-11 49 -44 78t-79 29q-83 0 -128.5 -60t-45.5 -151q0 -68 36.5 -110t96.5 -42z " />
<glyph d="M334 365q87 -33 130.5 -74t43.5 -99q0 -81 -59.5 -132t-148.5 -58l-9 -59h-69l9 61q-127 19 -171 140l78 40q15 -50 51.5 -78.5t86.5 -28.5q63 0 104.5 27.5t41.5 74.5q0 38 -31.5 66t-100.5 53q-153 57 -153 165q0 68 53 116t130 57l13 88h70l-13 -89q59 -9 98.5 -43.5 t53.5 -79.5l-75 -37q-9 39 -41 63t-81 24q-58 0 -90 -27t-32 -60q0 -69 111 -110z" />
<glyph d="M317 64q60 0 104.5 34.5t68.5 94.5l72 -32q-32 -78 -99 -124.5t-150 -46.5q-93 0 -155.5 53.5t-80.5 142.5h-67l9 65h52q0 39 7 71h-49l9 65h58q34 86 106 138t162 52q84 0 143.5 -48t77.5 -127l-78 -31q-11 61 -52 96.5t-103 35.5q-115 0 -169 -116h198l-9 -65h-210 q-7 -40 -7 -71h207l-9 -65h-191q14 -57 54.5 -89.5t100.5 -32.5z" />
<glyph d="M435 674q-74 0 -90 -103l-12 -86h111l-8 -67h-112l-63 -454q-12 -82 -57 -125t-110 -43q-58 0 -95 28l34 66q27 -19 58 -19q77 0 90 103l62 444h-74l9 67h74l14 95q12 82 57 125.5t110 43.5q54 0 94 -29l-35 -67q-25 21 -57 21z" />
<glyph d="M434 505q-75 0 -113.5 -44.5t-52.5 -141.5l-3 -22h141l-11 -67h-140l-23 -163h237l-11 -67h-396l11 67h78l23 163h-78l11 67h77l5 38q17 119 77 180t174 61q41 0 71 -7l-6 -72q-30 8 -71 8z" />
<glyph d="M602 632l-200 -283h105l-9 -59h-138l-18 -25l-5 -38h153l-9 -60h-153l-23 -167h-86l23 167h-158l9 60h158l5 36l-12 27h-143l9 59h109l-121 283h97l71 -166l44 -116l78 116l117 166h97z" />
<glyph d="M339 535v-180h179v-65h-179v-179h-65v179h-180v65h180v180h65z" />
<glyph d="M95 355h424v-65h-424v65z" />
<glyph d="M129 452l46 45l130 -132l131 132l46 -45l-132 -131l132 -132l-46 -44l-131 130l-130 -130l-46 44l132 132z" />
<glyph d="M257 496q0 20 14 34.5t34 14.5q21 0 35.5 -14.5t14.5 -34.5q0 -21 -14.5 -35t-35.5 -14q-20 0 -34 14t-14 35zM94 355h424v-65h-424v65zM257 151q0 20 14 34.5t34 14.5q21 0 35.5 -14.5t14.5 -34.5q0 -21 -14.5 -35.5t-35.5 -14.5q-20 0 -34 14.5t-14 35.5z" />
<glyph d="M93 440h424v-72h-424v72zM93 265h424v-72h-424v72z" />
<glyph d="M136 193l270 130l-232 129l37 53l264 -149l-10 -72l-306 -148z" />
<glyph d="M482 448l-270 -130l232 -129l-37 -53l-264 149l10 72l306 148z" />
<glyph horiz-adv-x="1180" d="M362 536q0 -59 -42 -100t-102 -41q-59 0 -100 41t-41 100t41.5 101t99.5 42q60 0 102 -42t42 -101zM575 670h55l-439 -668h-55zM132 536q0 -36 25.5 -61t60.5 -25q37 0 62.5 25t25.5 61q0 37 -25.5 62.5t-62.5 25.5q-35 0 -60.5 -26t-25.5 -62zM689 136 q0 -59 -41.5 -101.5t-99.5 -42.5q-60 0 -102 42.5t-42 101.5t42 100t102 41q59 0 100 -41t41 -100zM633 136q0 36 -25 61t-60 25q-37 0 -62.5 -25t-25.5 -61q0 -37 25.5 -62.5t62.5 -25.5q35 0 60 25.5t25 62.5z" />
<glyph horiz-adv-x="1180" d="M77 536q0 59 41.5 101t99.5 42q60 0 102 -42t42 -101t-42 -100t-102 -41q-59 0 -100 41t-41 100zM575 670h55l-439 -668h-55zM132 536q0 -36 25.5 -61t60.5 -25q37 0 62.5 25t25.5 61q0 37 -25.5 62.5t-62.5 25.5q-35 0 -60.5 -26t-25.5 -62zM689 136q0 -59 -41.5 -101.5 t-99.5 -42.5q-60 0 -102 42.5t-42 101.5t42 100t102 41q59 0 100 -41t41 -100zM1007 136q0 -59 -41.5 -101.5t-99.5 -42.5q-59 0 -101 42.5t-42 101.5t42 100t101 41t100 -41t41 -100zM633 136q0 36 -25 61t-60 25q-37 0 -62.5 -25t-25.5 -61q0 -37 25.5 -62.5t62.5 -25.5 q35 0 60 25.5t25 62.5zM952 136q0 36 -25.5 61t-60.5 25q-37 0 -62.5 -25t-25.5 -61q0 -37 25.5 -62.5t62.5 -25.5q35 0 60.5 25.5t25.5 62.5z" />
<glyph d="M339 535v-180h179v-65h-179v-179h-65v179h-180v65h180v180h65z" />
<glyph d="M95 355h424v-65h-424v65z" />
<glyph d="M129 452l46 45l130 -132l131 132l46 -45l-132 -131l132 -132l-46 -44l-131 130l-130 -130l-46 44l132 132z" />
<glyph d="M257 496q0 20 14 34.5t34 14.5q21 0 35.5 -14.5t14.5 -34.5q0 -21 -14.5 -35t-35.5 -14q-20 0 -34 14t-14 35zM94 355h424v-65h-424v65zM257 151q0 20 14 34.5t34 14.5q21 0 35.5 -14.5t14.5 -34.5q0 -21 -14.5 -35.5t-35.5 -14.5q-20 0 -34 14.5t-14 35.5z" />
<glyph d="M93 440h424v-72h-424v72zM93 265h424v-72h-424v72z" />
<glyph d="M136 193l270 130l-232 129l37 53l264 -149l-10 -72l-306 -148z" />
<glyph d="M482 448l-270 -130l232 -129l-37 -53l-264 149l10 72l306 148z" />
<glyph horiz-adv-x="1180" d="M362 536q0 -59 -42 -100t-102 -41q-59 0 -100 41t-41 100t41.5 101t99.5 42q60 0 102 -42t42 -101zM575 670h55l-439 -668h-55zM132 536q0 -36 25.5 -61t60.5 -25q37 0 62.5 25t25.5 61q0 37 -25.5 62.5t-62.5 25.5q-35 0 -60.5 -26t-25.5 -62zM689 136 q0 -59 -41.5 -101.5t-99.5 -42.5q-60 0 -102 42.5t-42 101.5t42 100t102 41q59 0 100 -41t41 -100zM633 136q0 36 -25 61t-60 25q-37 0 -62.5 -25t-25.5 -61q0 -37 25.5 -62.5t62.5 -25.5q35 0 60 25.5t25 62.5z" />
<glyph horiz-adv-x="1180" d="M77 536q0 59 41.5 101t99.5 42q60 0 102 -42t42 -101t-42 -100t-102 -41q-59 0 -100 41t-41 100zM575 670h55l-439 -668h-55zM132 536q0 -36 25.5 -61t60.5 -25q37 0 62.5 25t25.5 61q0 37 -25.5 62.5t-62.5 25.5q-35 0 -60.5 -26t-25.5 -62zM689 136q0 -59 -41.5 -101.5 t-99.5 -42.5q-60 0 -102 42.5t-42 101.5t42 100t102 41q59 0 100 -41t41 -100zM1007 136q0 -59 -41.5 -101.5t-99.5 -42.5q-59 0 -101 42.5t-42 101.5t42 100t101 41t100 -41t41 -100zM633 136q0 36 -25 61t-60 25q-37 0 -62.5 -25t-25.5 -61q0 -37 25.5 -62.5t62.5 -25.5 q35 0 60 25.5t25 62.5zM952 136q0 36 -25.5 61t-60.5 25q-37 0 -62.5 -25t-25.5 -61q0 -37 25.5 -62.5t62.5 -25.5q35 0 60.5 25.5t25.5 62.5z" />
<glyph d="M347 460q-58 0 -98.5 39t-40.5 94t40.5 94t98.5 39q56 0 97 -39t41 -94t-40.5 -94t-97.5 -39zM347 521q31 0 52.5 21t21.5 51q0 31 -21.5 51.5t-52.5 20.5q-32 0 -53 -20.5t-21 -51.5q0 -30 21.5 -51t52.5 -21z" />
<glyph d="M347 460q-58 0 -98.5 39t-40.5 94t40.5 94t98.5 39q56 0 97 -39t41 -94t-40.5 -94t-97.5 -39zM347 521q31 0 52.5 21t21.5 51q0 31 -21.5 51.5t-52.5 20.5q-32 0 -53 -20.5t-21 -51.5q0 -30 21.5 -51t52.5 -21z" />
<glyph horiz-adv-x="0" />
<glyph horiz-adv-x="0" />
<glyph horiz-adv-x="0" />
<glyph horiz-adv-x="0" />
<glyph horiz-adv-x="600" d="M253 852l53 -45l-150 -109l-40 36z" />
<glyph horiz-adv-x="600" d="M188 827q-4 -26 13.5 -44.5t47.5 -18.5q30 1 51.5 19t25.5 44h58q-6 -50 -44.5 -83t-92.5 -33q-56 0 -89.5 33.5t-26.5 82.5h57z" />
<glyph horiz-adv-x="600" d="M398 846l-134 -138h-78l-93 138h65l72 -97l102 97h66z" />
<glyph horiz-adv-x="600" d="M361 695l-52 -20l-67 86l-94 -86l-49 20l115 115h65z" />
<glyph horiz-adv-x="600" d="M141 740q-24 0 -39 15t-15 39q0 23 15 38.5t39 15.5t39 -15.5t15 -38.5q0 -24 -15 -39t-39 -15zM322 740q-24 0 -39 15t-15 39q0 23 15 38.5t39 15.5t39 -15.5t15 -38.5q0 -24 -15 -39t-39 -15z" />
<glyph horiz-adv-x="600" d="M190 728q-18 0 -30.5 12t-12.5 30t12.5 30.5t30.5 12.5q19 0 32 -13t13 -30t-13 -29.5t-32 -12.5z" />
<glyph horiz-adv-x="600" d="M288 852l137 -118l-40 -36l-150 109z" />
<glyph horiz-adv-x="600" d="M209 846h88l-134 -137h-68zM390 846h87l-134 -137h-67z" />
<glyph horiz-adv-x="600" d="M101 808h255l-18 -61h-255z" />
<glyph horiz-adv-x="600" d="M198 713q-27 0 -46 18.5t-19 42.5q0 29 22 49t54 20q28 0 46.5 -18.5t18.5 -42.5q0 -30 -21.5 -49.5t-54.5 -19.5zM200 754q28 -2 32 22q2 9 -5.5 17t-20.5 9q-11 1 -19 -6t-10 -16t5 -17t18 -9z" />
<glyph horiz-adv-x="600" d="M318 812q-15 -50 -42 -78.5t-62 -28.5q-30 0 -62.5 30.5t-51.5 30.5q-42 0 -61 -58l-43 14q15 49 43 78t62 29q29 0 61.5 -31t51.5 -31q42 0 61 59z" />
<glyph horiz-adv-x="700" d="M272 824l53 -45l-150 -109l-40 36zM656 824l53 -45l-150 -109l-40 36zM223 632l-88 -632h-88l88 632h88zM537 632h86l-56 -402q-17 -119 -77 -180t-174 -61q-41 0 -71 7l6 76q30 -8 71 -8q74 0 110.5 42.5t50.5 139.5z" />
<glyph horiz-adv-x="413" d="M250 649l-139 -113l-41 34l125 122zM506 644l-150 -109l-40 36l137 118zM182 485l-68 -485h-80l68 485h80zM324 485h80l-34 -242l-34 -244q-7 -53 -28 -90.5t-49.5 -56t-57 -26.5t-60.5 -8q-36 0 -56 8v74q31 -9 61 -9q51 0 77 29t36 100l12 89z" />
<glyph horiz-adv-x="326" />
<glyph horiz-adv-x="326" />
<glyph horiz-adv-x="626" d="M563 320q0 -126 -68 -220l40 -49l-31 -25l-35 43q-78 -80 -182 -80q-114 0 -173.5 71t-59.5 185q0 138 79 233l-36 44l32 25l32 -39q76 68 173 68q111 0 170 -71.5t59 -184.5zM330 503q-73 0 -123 -52l237 -289q37 66 37 157q0 83 -39.5 133.5t-111.5 50.5zM286 62 q81 0 135 65l-239 292q-46 -71 -46 -174q0 -82 39.5 -132.5t110.5 -50.5z" />
<glyph horiz-adv-x="220" d="M116 0h-80l94 671l82 11z" />
<glyph horiz-adv-x="652" d="M337 500q63 0 107 -37t44 -108q0 -9 -2 -31l-45 -324h-80l41 292q3 22 3 42q0 51 -22.5 73.5t-68.5 22.5q-63 0 -112 -47q-37 -35 -48 -112l4 93l-28 11l6 46h44q23 34 64.5 56.5t92.5 22.5z" />
<glyph horiz-adv-x="652" d="M351 500q79 0 130 -61t51 -157q0 -123 -72 -207.5t-182 -84.5q-107 0 -145 77h-46l50 357h45q57 76 169 76zM278 63q84 0 129 61.5t45 156.5q0 67 -32 106.5t-89 39.5q-68 0 -116 -41.5t-63 -122.5l-4 -29q-1 -8 -1 -20q0 -70 35.5 -110.5t95.5 -40.5z" />
<glyph horiz-adv-x="200" d="M104 485h74l-11 -124l-51 -361h-80z" />
</font>
</defs>
</svg>
